solid OpenSCAD_Model
  facet normal 0 0.104528 -0.994522
    outer loop
      vertex -0.45 0 0.025
      vertex 0.45 0.0571757 0.0310094
      vertex 0.45 0 0.025
    endloop
  endfacet
  facet normal 0 0.104528 -0.994522
    outer loop
      vertex 0.45 0.0571757 0.0310094
      vertex -0.45 0 0.025
      vertex -0.45 0.0571757 0.0310094
    endloop
  endfacet
  facet normal -0 0.104521 0.994523
    outer loop
      vertex -0.45 0.0571757 0.568991
      vertex 0.45 0 0.575
      vertex 0.45 0.0571757 0.568991
    endloop
  endfacet
  facet normal 0 0.104521 0.994523
    outer loop
      vertex 0.45 0 0.575
      vertex -0.45 0.0571757 0.568991
      vertex -0.45 0 0.575
    endloop
  endfacet
  facet normal 0 1 -0
    outer loop
      vertex 0.45 0.273494 0.271255
      vertex -0.45 0.273494 0.328745
      vertex 0.45 0.273494 0.328745
    endloop
  endfacet
  facet normal 0 1 0
    outer loop
      vertex -0.45 0.273494 0.328745
      vertex 0.45 0.273494 0.271255
      vertex -0.45 0.273494 0.271255
    endloop
  endfacet
  facet normal 0 -1 0
    outer loop
      vertex -0.45 -0.273494 0.271255
      vertex 0.45 -0.273494 0.328745
      vertex -0.45 -0.273494 0.328745
    endloop
  endfacet
  facet normal 0 -1 -0
    outer loop
      vertex 0.45 -0.273494 0.328745
      vertex -0.45 -0.273494 0.271255
      vertex 0.45 -0.273494 0.271255
    endloop
  endfacet
  facet normal 0 0.669129 -0.743146
    outer loop
      vertex -0.45 0.161641 0.0775203
      vertex 0.45 0.204365 0.115989
      vertex 0.45 0.161641 0.0775203
    endloop
  endfacet
  facet normal 0 0.669129 -0.743146
    outer loop
      vertex 0.45 0.204365 0.115989
      vertex -0.45 0.161641 0.0775203
      vertex -0.45 0.204365 0.115989
    endloop
  endfacet
  facet normal 0 0.809019 0.587783
    outer loop
      vertex 0.45 0.238157 0.4375
      vertex -0.45 0.204365 0.484011
      vertex 0.45 0.204365 0.484011
    endloop
  endfacet
  facet normal 0 0.809019 0.587783
    outer loop
      vertex -0.45 0.204365 0.484011
      vertex 0.45 0.238157 0.4375
      vertex -0.45 0.238157 0.4375
    endloop
  endfacet
  facet normal 0 0.978148 0.20791
    outer loop
      vertex 0.45 0.273494 0.328745
      vertex -0.45 0.261541 0.38498
      vertex 0.45 0.261541 0.38498
    endloop
  endfacet
  facet normal 0 0.978148 0.20791
    outer loop
      vertex -0.45 0.261541 0.38498
      vertex 0.45 0.273494 0.328745
      vertex -0.45 0.273494 0.328745
    endloop
  endfacet
  facet normal 0 0.500002 -0.866024
    outer loop
      vertex -0.45 0.111853 0.048775
      vertex 0.45 0.161641 0.0775203
      vertex 0.45 0.111853 0.048775
    endloop
  endfacet
  facet normal 0 0.500002 -0.866024
    outer loop
      vertex 0.45 0.161641 0.0775203
      vertex -0.45 0.111853 0.048775
      vertex -0.45 0.161641 0.0775203
    endloop
  endfacet
  facet normal 0 0.309015 -0.951057
    outer loop
      vertex -0.45 0.0571757 0.0310094
      vertex 0.45 0.111853 0.048775
      vertex 0.45 0.0571757 0.0310094
    endloop
  endfacet
  facet normal 0 0.309015 -0.951057
    outer loop
      vertex 0.45 0.111853 0.048775
      vertex -0.45 0.0571757 0.0310094
      vertex -0.45 0.111853 0.048775
    endloop
  endfacet
  facet normal 0 0.913542 -0.406745
    outer loop
      vertex 0.45 0.238157 0.1625
      vertex -0.45 0.261541 0.21502
      vertex 0.45 0.261541 0.21502
    endloop
  endfacet
  facet normal 0 0.913542 -0.406745
    outer loop
      vertex -0.45 0.261541 0.21502
      vertex 0.45 0.238157 0.1625
      vertex -0.45 0.238157 0.1625
    endloop
  endfacet
  facet normal 0 0.978148 -0.20791
    outer loop
      vertex 0.45 0.261541 0.21502
      vertex -0.45 0.273494 0.271255
      vertex 0.45 0.273494 0.271255
    endloop
  endfacet
  facet normal 0 0.978148 -0.20791
    outer loop
      vertex -0.45 0.273494 0.271255
      vertex 0.45 0.261541 0.21502
      vertex -0.45 0.261541 0.21502
    endloop
  endfacet
  facet normal 0 0.809019 -0.587783
    outer loop
      vertex 0.45 0.204365 0.115989
      vertex -0.45 0.238157 0.1625
      vertex 0.45 0.238157 0.1625
    endloop
  endfacet
  facet normal 0 0.809019 -0.587783
    outer loop
      vertex -0.45 0.238157 0.1625
      vertex 0.45 0.204365 0.115989
      vertex -0.45 0.204365 0.115989
    endloop
  endfacet
  facet normal -0 0.499998 0.866026
    outer loop
      vertex -0.45 0.161641 0.52248
      vertex 0.45 0.111853 0.551225
      vertex 0.45 0.161641 0.52248
    endloop
  endfacet
  facet normal 0 0.499998 0.866026
    outer loop
      vertex 0.45 0.111853 0.551225
      vertex -0.45 0.161641 0.52248
      vertex -0.45 0.111853 0.551225
    endloop
  endfacet
  facet normal -0 0.669132 0.743144
    outer loop
      vertex -0.45 0.204365 0.484011
      vertex 0.45 0.161641 0.52248
      vertex 0.45 0.204365 0.484011
    endloop
  endfacet
  facet normal 0 0.669132 0.743144
    outer loop
      vertex 0.45 0.161641 0.52248
      vertex -0.45 0.204365 0.484011
      vertex -0.45 0.161641 0.52248
    endloop
  endfacet
  facet normal -0 0.309021 0.951055
    outer loop
      vertex -0.45 0.111853 0.551225
      vertex 0.45 0.0571757 0.568991
      vertex 0.45 0.111853 0.551225
    endloop
  endfacet
  facet normal 0 0.309021 0.951055
    outer loop
      vertex 0.45 0.0571757 0.568991
      vertex -0.45 0.111853 0.551225
      vertex -0.45 0.0571757 0.568991
    endloop
  endfacet
  facet normal 1 0 0
    outer loop
      vertex 0.45 0.261541 0.38498
      vertex 0.45 0.273494 0.271255
      vertex 0.45 0.273494 0.328745
    endloop
  endfacet
  facet normal 1 0 0
    outer loop
      vertex 0.45 0.261541 0.38498
      vertex 0.45 0.261541 0.21502
      vertex 0.45 0.273494 0.271255
    endloop
  endfacet
  facet normal 1 0 0
    outer loop
      vertex 0.45 0.238157 0.4375
      vertex 0.45 0.261541 0.21502
      vertex 0.45 0.261541 0.38498
    endloop
  endfacet
  facet normal 1 0 0
    outer loop
      vertex 0.45 0.238157 0.4375
      vertex 0.45 0.238157 0.1625
      vertex 0.45 0.261541 0.21502
    endloop
  endfacet
  facet normal 1 0 0
    outer loop
      vertex 0.45 0.204365 0.484011
      vertex 0.45 0.238157 0.1625
      vertex 0.45 0.238157 0.4375
    endloop
  endfacet
  facet normal 1 0 0
    outer loop
      vertex 0.45 0.204365 0.484011
      vertex 0.45 0.204365 0.115989
      vertex 0.45 0.238157 0.1625
    endloop
  endfacet
  facet normal 1 0 0
    outer loop
      vertex 0.45 0.161641 0.52248
      vertex 0.45 0.204365 0.115989
      vertex 0.45 0.204365 0.484011
    endloop
  endfacet
  facet normal 1 0 0
    outer loop
      vertex 0.45 0.161641 0.52248
      vertex 0.45 0.161641 0.0775203
      vertex 0.45 0.204365 0.115989
    endloop
  endfacet
  facet normal 1 0 0
    outer loop
      vertex 0.45 0.111853 0.551225
      vertex 0.45 0.161641 0.0775203
      vertex 0.45 0.161641 0.52248
    endloop
  endfacet
  facet normal 1 0 0
    outer loop
      vertex 0.45 0.111853 0.551225
      vertex 0.45 0.111853 0.048775
      vertex 0.45 0.161641 0.0775203
    endloop
  endfacet
  facet normal 1 0 0
    outer loop
      vertex 0.45 0.0571757 0.568991
      vertex 0.45 0.111853 0.048775
      vertex 0.45 0.111853 0.551225
    endloop
  endfacet
  facet normal 1 0 0
    outer loop
      vertex 0.45 0.0571757 0.568991
      vertex 0.45 0.0571757 0.0310094
      vertex 0.45 0.111853 0.048775
    endloop
  endfacet
  facet normal 1 0 0
    outer loop
      vertex 0.45 0 0.575
      vertex 0.45 0.0571757 0.0310094
      vertex 0.45 0.0571757 0.568991
    endloop
  endfacet
  facet normal 1 0 0
    outer loop
      vertex 0.45 0 0.575
      vertex 0.45 0 0.025
      vertex 0.45 0.0571757 0.0310094
    endloop
  endfacet
  facet normal 1 -0 0
    outer loop
      vertex 0.45 -0.0571757 0.568991
      vertex 0.45 0 0.025
      vertex 0.45 0 0.575
    endloop
  endfacet
  facet normal 1 0 0
    outer loop
      vertex 0.45 -0.0571757 0.568991
      vertex 0.45 -0.0571757 0.0310094
      vertex 0.45 0 0.025
    endloop
  endfacet
  facet normal 1 -0 0
    outer loop
      vertex 0.45 -0.111853 0.551225
      vertex 0.45 -0.0571757 0.0310094
      vertex 0.45 -0.0571757 0.568991
    endloop
  endfacet
  facet normal 1 0 0
    outer loop
      vertex 0.45 -0.111853 0.551225
      vertex 0.45 -0.111853 0.048775
      vertex 0.45 -0.0571757 0.0310094
    endloop
  endfacet
  facet normal 1 -0 0
    outer loop
      vertex 0.45 -0.161641 0.52248
      vertex 0.45 -0.111853 0.048775
      vertex 0.45 -0.111853 0.551225
    endloop
  endfacet
  facet normal 1 0 0
    outer loop
      vertex 0.45 -0.161641 0.52248
      vertex 0.45 -0.161641 0.0775203
      vertex 0.45 -0.111853 0.048775
    endloop
  endfacet
  facet normal 1 -0 0
    outer loop
      vertex 0.45 -0.204365 0.484011
      vertex 0.45 -0.161641 0.0775203
      vertex 0.45 -0.161641 0.52248
    endloop
  endfacet
  facet normal 1 0 0
    outer loop
      vertex 0.45 -0.204365 0.484011
      vertex 0.45 -0.204365 0.115989
      vertex 0.45 -0.161641 0.0775203
    endloop
  endfacet
  facet normal 1 -0 0
    outer loop
      vertex 0.45 -0.238157 0.4375
      vertex 0.45 -0.204365 0.115989
      vertex 0.45 -0.204365 0.484011
    endloop
  endfacet
  facet normal 1 0 0
    outer loop
      vertex 0.45 -0.238157 0.4375
      vertex 0.45 -0.238157 0.1625
      vertex 0.45 -0.204365 0.115989
    endloop
  endfacet
  facet normal 1 -0 0
    outer loop
      vertex 0.45 -0.261541 0.38498
      vertex 0.45 -0.238157 0.1625
      vertex 0.45 -0.238157 0.4375
    endloop
  endfacet
  facet normal 1 0 0
    outer loop
      vertex 0.45 -0.261541 0.38498
      vertex 0.45 -0.261541 0.21502
      vertex 0.45 -0.238157 0.1625
    endloop
  endfacet
  facet normal 1 -0 0
    outer loop
      vertex 0.45 -0.273494 0.328745
      vertex 0.45 -0.261541 0.21502
      vertex 0.45 -0.261541 0.38498
    endloop
  endfacet
  facet normal 1 0 0
    outer loop
      vertex 0.45 -0.261541 0.21502
      vertex 0.45 -0.273494 0.328745
      vertex 0.45 -0.273494 0.271255
    endloop
  endfacet
  facet normal 0 0.913542 0.406745
    outer loop
      vertex 0.45 0.261541 0.38498
      vertex -0.45 0.238157 0.4375
      vertex 0.45 0.238157 0.4375
    endloop
  endfacet
  facet normal 0 0.913542 0.406745
    outer loop
      vertex -0.45 0.238157 0.4375
      vertex 0.45 0.261541 0.38498
      vertex -0.45 0.261541 0.38498
    endloop
  endfacet
  facet normal 0 -0.104528 -0.994522
    outer loop
      vertex -0.45 -0.0571757 0.0310094
      vertex 0.45 0 0.025
      vertex 0.45 -0.0571757 0.0310094
    endloop
  endfacet
  facet normal -0 -0.104528 -0.994522
    outer loop
      vertex 0.45 0 0.025
      vertex -0.45 -0.0571757 0.0310094
      vertex -0.45 0 0.025
    endloop
  endfacet
  facet normal -1 0 0
    outer loop
      vertex -0.45 0.261541 0.21502
      vertex -0.45 0.273494 0.328745
      vertex -0.45 0.273494 0.271255
    endloop
  endfacet
  facet normal -1 0 0
    outer loop
      vertex -0.45 0.261541 0.21502
      vertex -0.45 0.261541 0.38498
      vertex -0.45 0.273494 0.328745
    endloop
  endfacet
  facet normal -1 0 0
    outer loop
      vertex -0.45 0.238157 0.1625
      vertex -0.45 0.261541 0.38498
      vertex -0.45 0.261541 0.21502
    endloop
  endfacet
  facet normal -1 0 0
    outer loop
      vertex -0.45 0.238157 0.1625
      vertex -0.45 0.238157 0.4375
      vertex -0.45 0.261541 0.38498
    endloop
  endfacet
  facet normal -1 0 0
    outer loop
      vertex -0.45 0.204365 0.115989
      vertex -0.45 0.238157 0.4375
      vertex -0.45 0.238157 0.1625
    endloop
  endfacet
  facet normal -1 0 0
    outer loop
      vertex -0.45 0.204365 0.115989
      vertex -0.45 0.204365 0.484011
      vertex -0.45 0.238157 0.4375
    endloop
  endfacet
  facet normal -1 0 0
    outer loop
      vertex -0.45 0.161641 0.0775203
      vertex -0.45 0.204365 0.484011
      vertex -0.45 0.204365 0.115989
    endloop
  endfacet
  facet normal -1 0 0
    outer loop
      vertex -0.45 0.161641 0.0775203
      vertex -0.45 0.161641 0.52248
      vertex -0.45 0.204365 0.484011
    endloop
  endfacet
  facet normal -1 0 0
    outer loop
      vertex -0.45 0.111853 0.048775
      vertex -0.45 0.161641 0.52248
      vertex -0.45 0.161641 0.0775203
    endloop
  endfacet
  facet normal -1 0 0
    outer loop
      vertex -0.45 0.111853 0.048775
      vertex -0.45 0.111853 0.551225
      vertex -0.45 0.161641 0.52248
    endloop
  endfacet
  facet normal -1 0 0
    outer loop
      vertex -0.45 0.0571757 0.0310094
      vertex -0.45 0.111853 0.551225
      vertex -0.45 0.111853 0.048775
    endloop
  endfacet
  facet normal -1 0 0
    outer loop
      vertex -0.45 0.0571757 0.0310094
      vertex -0.45 0.0571757 0.568991
      vertex -0.45 0.111853 0.551225
    endloop
  endfacet
  facet normal -1 0 0
    outer loop
      vertex -0.45 0 0.025
      vertex -0.45 0.0571757 0.568991
      vertex -0.45 0.0571757 0.0310094
    endloop
  endfacet
  facet normal -1 0 0
    outer loop
      vertex -0.45 0 0.025
      vertex -0.45 0 0.575
      vertex -0.45 0.0571757 0.568991
    endloop
  endfacet
  facet normal -1 0 0
    outer loop
      vertex -0.45 -0.0571757 0.0310094
      vertex -0.45 0 0.575
      vertex -0.45 0 0.025
    endloop
  endfacet
  facet normal -1 0 0
    outer loop
      vertex -0.45 -0.0571757 0.0310094
      vertex -0.45 -0.0571757 0.568991
      vertex -0.45 0 0.575
    endloop
  endfacet
  facet normal -1 0 0
    outer loop
      vertex -0.45 -0.111853 0.048775
      vertex -0.45 -0.0571757 0.568991
      vertex -0.45 -0.0571757 0.0310094
    endloop
  endfacet
  facet normal -1 0 0
    outer loop
      vertex -0.45 -0.111853 0.048775
      vertex -0.45 -0.111853 0.551225
      vertex -0.45 -0.0571757 0.568991
    endloop
  endfacet
  facet normal -1 0 0
    outer loop
      vertex -0.45 -0.161641 0.0775203
      vertex -0.45 -0.111853 0.551225
      vertex -0.45 -0.111853 0.048775
    endloop
  endfacet
  facet normal -1 0 0
    outer loop
      vertex -0.45 -0.161641 0.0775203
      vertex -0.45 -0.161641 0.52248
      vertex -0.45 -0.111853 0.551225
    endloop
  endfacet
  facet normal -1 0 0
    outer loop
      vertex -0.45 -0.204365 0.115989
      vertex -0.45 -0.161641 0.52248
      vertex -0.45 -0.161641 0.0775203
    endloop
  endfacet
  facet normal -1 0 0
    outer loop
      vertex -0.45 -0.204365 0.115989
      vertex -0.45 -0.204365 0.484011
      vertex -0.45 -0.161641 0.52248
    endloop
  endfacet
  facet normal -1 0 0
    outer loop
      vertex -0.45 -0.238157 0.1625
      vertex -0.45 -0.204365 0.484011
      vertex -0.45 -0.204365 0.115989
    endloop
  endfacet
  facet normal -1 0 0
    outer loop
      vertex -0.45 -0.238157 0.1625
      vertex -0.45 -0.238157 0.4375
      vertex -0.45 -0.204365 0.484011
    endloop
  endfacet
  facet normal -1 0 0
    outer loop
      vertex -0.45 -0.261541 0.21502
      vertex -0.45 -0.238157 0.4375
      vertex -0.45 -0.238157 0.1625
    endloop
  endfacet
  facet normal -1 0 0
    outer loop
      vertex -0.45 -0.261541 0.21502
      vertex -0.45 -0.261541 0.38498
      vertex -0.45 -0.238157 0.4375
    endloop
  endfacet
  facet normal -1 0 0
    outer loop
      vertex -0.45 -0.273494 0.271255
      vertex -0.45 -0.261541 0.38498
      vertex -0.45 -0.261541 0.21502
    endloop
  endfacet
  facet normal -1 0 0
    outer loop
      vertex -0.45 -0.261541 0.38498
      vertex -0.45 -0.273494 0.271255
      vertex -0.45 -0.273494 0.328745
    endloop
  endfacet
  facet normal 0 -0.500002 -0.866024
    outer loop
      vertex -0.45 -0.161641 0.0775203
      vertex 0.45 -0.111853 0.048775
      vertex 0.45 -0.161641 0.0775203
    endloop
  endfacet
  facet normal -0 -0.500002 -0.866024
    outer loop
      vertex 0.45 -0.111853 0.048775
      vertex -0.45 -0.161641 0.0775203
      vertex -0.45 -0.111853 0.048775
    endloop
  endfacet
  facet normal 0 -0.809019 0.587783
    outer loop
      vertex -0.45 -0.238157 0.4375
      vertex 0.45 -0.204365 0.484011
      vertex -0.45 -0.204365 0.484011
    endloop
  endfacet
  facet normal 0 -0.809019 0.587783
    outer loop
      vertex 0.45 -0.204365 0.484011
      vertex -0.45 -0.238157 0.4375
      vertex 0.45 -0.238157 0.4375
    endloop
  endfacet
  facet normal 0 -0.499998 0.866026
    outer loop
      vertex -0.45 -0.111853 0.551225
      vertex 0.45 -0.161641 0.52248
      vertex 0.45 -0.111853 0.551225
    endloop
  endfacet
  facet normal 0 -0.499998 0.866026
    outer loop
      vertex 0.45 -0.161641 0.52248
      vertex -0.45 -0.111853 0.551225
      vertex -0.45 -0.161641 0.52248
    endloop
  endfacet
  facet normal 0 -0.669132 0.743144
    outer loop
      vertex -0.45 -0.161641 0.52248
      vertex 0.45 -0.204365 0.484011
      vertex 0.45 -0.161641 0.52248
    endloop
  endfacet
  facet normal 0 -0.669132 0.743144
    outer loop
      vertex 0.45 -0.204365 0.484011
      vertex -0.45 -0.161641 0.52248
      vertex -0.45 -0.204365 0.484011
    endloop
  endfacet
  facet normal 0 -0.809019 -0.587783
    outer loop
      vertex -0.45 -0.204365 0.115989
      vertex 0.45 -0.238157 0.1625
      vertex -0.45 -0.238157 0.1625
    endloop
  endfacet
  facet normal 0 -0.809019 -0.587783
    outer loop
      vertex 0.45 -0.238157 0.1625
      vertex -0.45 -0.204365 0.115989
      vertex 0.45 -0.204365 0.115989
    endloop
  endfacet
  facet normal 0 -0.309015 -0.951057
    outer loop
      vertex -0.45 -0.111853 0.048775
      vertex 0.45 -0.0571757 0.0310094
      vertex 0.45 -0.111853 0.048775
    endloop
  endfacet
  facet normal -0 -0.309015 -0.951057
    outer loop
      vertex 0.45 -0.0571757 0.0310094
      vertex -0.45 -0.111853 0.048775
      vertex -0.45 -0.0571757 0.0310094
    endloop
  endfacet
  facet normal 0 -0.978148 0.20791
    outer loop
      vertex -0.45 -0.273494 0.328745
      vertex 0.45 -0.261541 0.38498
      vertex -0.45 -0.261541 0.38498
    endloop
  endfacet
  facet normal 0 -0.978148 0.20791
    outer loop
      vertex 0.45 -0.261541 0.38498
      vertex -0.45 -0.273494 0.328745
      vertex 0.45 -0.273494 0.328745
    endloop
  endfacet
  facet normal 0 -0.309021 0.951055
    outer loop
      vertex -0.45 -0.0571757 0.568991
      vertex 0.45 -0.111853 0.551225
      vertex 0.45 -0.0571757 0.568991
    endloop
  endfacet
  facet normal 0 -0.309021 0.951055
    outer loop
      vertex 0.45 -0.111853 0.551225
      vertex -0.45 -0.0571757 0.568991
      vertex -0.45 -0.111853 0.551225
    endloop
  endfacet
  facet normal 0 -0.104521 0.994523
    outer loop
      vertex -0.45 0 0.575
      vertex 0.45 -0.0571757 0.568991
      vertex 0.45 0 0.575
    endloop
  endfacet
  facet normal 0 -0.104521 0.994523
    outer loop
      vertex 0.45 -0.0571757 0.568991
      vertex -0.45 0 0.575
      vertex -0.45 -0.0571757 0.568991
    endloop
  endfacet
  facet normal 0 -0.913542 -0.406745
    outer loop
      vertex -0.45 -0.238157 0.1625
      vertex 0.45 -0.261541 0.21502
      vertex -0.45 -0.261541 0.21502
    endloop
  endfacet
  facet normal 0 -0.913542 -0.406745
    outer loop
      vertex 0.45 -0.261541 0.21502
      vertex -0.45 -0.238157 0.1625
      vertex 0.45 -0.238157 0.1625
    endloop
  endfacet
  facet normal 0 -0.978148 -0.20791
    outer loop
      vertex -0.45 -0.261541 0.21502
      vertex 0.45 -0.273494 0.271255
      vertex -0.45 -0.273494 0.271255
    endloop
  endfacet
  facet normal 0 -0.978148 -0.20791
    outer loop
      vertex 0.45 -0.273494 0.271255
      vertex -0.45 -0.261541 0.21502
      vertex 0.45 -0.261541 0.21502
    endloop
  endfacet
  facet normal 0 -0.669129 -0.743146
    outer loop
      vertex -0.45 -0.204365 0.115989
      vertex 0.45 -0.161641 0.0775203
      vertex 0.45 -0.204365 0.115989
    endloop
  endfacet
  facet normal -0 -0.669129 -0.743146
    outer loop
      vertex 0.45 -0.161641 0.0775203
      vertex -0.45 -0.204365 0.115989
      vertex -0.45 -0.161641 0.0775203
    endloop
  endfacet
  facet normal 0 -0.913542 0.406745
    outer loop
      vertex -0.45 -0.261541 0.38498
      vertex 0.45 -0.238157 0.4375
      vertex -0.45 -0.238157 0.4375
    endloop
  endfacet
  facet normal 0 -0.913542 0.406745
    outer loop
      vertex 0.45 -0.238157 0.4375
      vertex -0.45 -0.261541 0.38498
      vertex 0.45 -0.261541 0.38498
    endloop
  endfacet
  facet normal 0 -0.104529 0.994522
    outer loop
      vertex -0.44 0.0561361 0.0359002
      vertex 0.44 0 0.03
      vertex 0.44 0.0561361 0.0359002
    endloop
  endfacet
  facet normal 0 -0.104529 0.994522
    outer loop
      vertex 0.44 0 0.03
      vertex -0.44 0.0561361 0.0359002
      vertex -0.44 0 0.03
    endloop
  endfacet
  facet normal 0 -0.104526 -0.994522
    outer loop
      vertex -0.44 0 0.57
      vertex 0.44 0.0561361 0.5641
      vertex 0.44 0 0.57
    endloop
  endfacet
  facet normal -0 -0.104526 -0.994522
    outer loop
      vertex 0.44 0.0561361 0.5641
      vertex -0.44 0 0.57
      vertex -0.44 0.0561361 0.5641
    endloop
  endfacet
  facet normal 0 -1 0
    outer loop
      vertex -0.44 0.268521 0.271777
      vertex 0.44 0.268521 0.328223
      vertex -0.44 0.268521 0.328223
    endloop
  endfacet
  facet normal 0 -1 -0
    outer loop
      vertex 0.44 0.268521 0.328223
      vertex -0.44 0.268521 0.271777
      vertex 0.44 0.268521 0.271777
    endloop
  endfacet
  facet normal 0 1 -0
    outer loop
      vertex 0.44 -0.268521 0.271777
      vertex -0.44 -0.268521 0.328223
      vertex 0.44 -0.268521 0.328223
    endloop
  endfacet
  facet normal 0 1 0
    outer loop
      vertex -0.44 -0.268521 0.328223
      vertex 0.44 -0.268521 0.271777
      vertex -0.44 -0.268521 0.271777
    endloop
  endfacet
  facet normal 0 -0.809013 0.58779
    outer loop
      vertex -0.44 0.200649 0.119335
      vertex 0.44 0.233827 0.165
      vertex -0.44 0.233827 0.165
    endloop
  endfacet
  facet normal 0 -0.809013 0.58779
    outer loop
      vertex 0.44 0.233827 0.165
      vertex -0.44 0.200649 0.119335
      vertex 0.44 0.200649 0.119335
    endloop
  endfacet
  facet normal 0 -0.913547 0.406733
    outer loop
      vertex -0.44 0.233827 0.165
      vertex 0.44 0.256785 0.216565
      vertex -0.44 0.256785 0.216565
    endloop
  endfacet
  facet normal 0 -0.913547 0.406733
    outer loop
      vertex 0.44 0.256785 0.216565
      vertex -0.44 0.233827 0.165
      vertex 0.44 0.233827 0.165
    endloop
  endfacet
  facet normal 0 -0.809013 -0.58779
    outer loop
      vertex -0.44 0.233827 0.435
      vertex 0.44 0.200649 0.480665
      vertex -0.44 0.200649 0.480665
    endloop
  endfacet
  facet normal 0 -0.809013 -0.58779
    outer loop
      vertex 0.44 0.200649 0.480665
      vertex -0.44 0.233827 0.435
      vertex 0.44 0.233827 0.435
    endloop
  endfacet
  facet normal 0 -0.913547 -0.406733
    outer loop
      vertex -0.44 0.256785 0.383435
      vertex 0.44 0.233827 0.435
      vertex -0.44 0.233827 0.435
    endloop
  endfacet
  facet normal 0 -0.913547 -0.406733
    outer loop
      vertex 0.44 0.233827 0.435
      vertex -0.44 0.256785 0.383435
      vertex 0.44 0.256785 0.383435
    endloop
  endfacet
  facet normal 0 -0.500001 0.866025
    outer loop
      vertex -0.44 0.158702 0.0815654
      vertex 0.44 0.109819 0.0533427
      vertex 0.44 0.158702 0.0815654
    endloop
  endfacet
  facet normal 0 -0.500001 0.866025
    outer loop
      vertex 0.44 0.109819 0.0533427
      vertex -0.44 0.158702 0.0815654
      vertex -0.44 0.109819 0.0533427
    endloop
  endfacet
  facet normal 0 -0.309015 0.951057
    outer loop
      vertex -0.44 0.109819 0.0533427
      vertex 0.44 0.0561361 0.0359002
      vertex 0.44 0.109819 0.0533427
    endloop
  endfacet
  facet normal 0 -0.309015 0.951057
    outer loop
      vertex 0.44 0.0561361 0.0359002
      vertex -0.44 0.109819 0.0533427
      vertex -0.44 0.0561361 0.0359002
    endloop
  endfacet
  facet normal 0 -0.669134 0.743142
    outer loop
      vertex -0.44 0.200649 0.119335
      vertex 0.44 0.158702 0.0815654
      vertex 0.44 0.200649 0.119335
    endloop
  endfacet
  facet normal 0 -0.669134 0.743142
    outer loop
      vertex 0.44 0.158702 0.0815654
      vertex -0.44 0.200649 0.119335
      vertex -0.44 0.158702 0.0815654
    endloop
  endfacet
  facet normal 0 -0.978146 0.207917
    outer loop
      vertex -0.44 0.256785 0.216565
      vertex 0.44 0.268521 0.271777
      vertex -0.44 0.268521 0.271777
    endloop
  endfacet
  facet normal 0 -0.978146 0.207917
    outer loop
      vertex 0.44 0.268521 0.271777
      vertex -0.44 0.256785 0.216565
      vertex 0.44 0.256785 0.216565
    endloop
  endfacet
  facet normal 0 -0.499992 -0.86603
    outer loop
      vertex -0.44 0.109819 0.546657
      vertex 0.44 0.158702 0.518435
      vertex 0.44 0.109819 0.546657
    endloop
  endfacet
  facet normal -0 -0.499992 -0.86603
    outer loop
      vertex 0.44 0.158702 0.518435
      vertex -0.44 0.109819 0.546657
      vertex -0.44 0.158702 0.518435
    endloop
  endfacet
  facet normal 0 -0.669138 -0.743138
    outer loop
      vertex -0.44 0.158702 0.518435
      vertex 0.44 0.200649 0.480665
      vertex 0.44 0.158702 0.518435
    endloop
  endfacet
  facet normal -0 -0.669138 -0.743138
    outer loop
      vertex 0.44 0.200649 0.480665
      vertex -0.44 0.158702 0.518435
      vertex -0.44 0.200649 0.480665
    endloop
  endfacet
  facet normal 0 -0.309023 -0.951055
    outer loop
      vertex -0.44 0.0561361 0.5641
      vertex 0.44 0.109819 0.546657
      vertex 0.44 0.0561361 0.5641
    endloop
  endfacet
  facet normal -0 -0.309023 -0.951055
    outer loop
      vertex 0.44 0.109819 0.546657
      vertex -0.44 0.0561361 0.5641
      vertex -0.44 0.109819 0.546657
    endloop
  endfacet
  facet normal -1 0 0
    outer loop
      vertex 0.44 0.256785 0.216565
      vertex 0.44 0.268521 0.328223
      vertex 0.44 0.268521 0.271777
    endloop
  endfacet
  facet normal -1 0 0
    outer loop
      vertex 0.44 0.256785 0.216565
      vertex 0.44 0.256785 0.383435
      vertex 0.44 0.268521 0.328223
    endloop
  endfacet
  facet normal -1 0 0
    outer loop
      vertex 0.44 0.233827 0.165
      vertex 0.44 0.256785 0.383435
      vertex 0.44 0.256785 0.216565
    endloop
  endfacet
  facet normal -1 0 0
    outer loop
      vertex 0.44 0.233827 0.165
      vertex 0.44 0.233827 0.435
      vertex 0.44 0.256785 0.383435
    endloop
  endfacet
  facet normal -1 0 0
    outer loop
      vertex 0.44 0.200649 0.119335
      vertex 0.44 0.233827 0.435
      vertex 0.44 0.233827 0.165
    endloop
  endfacet
  facet normal -1 0 0
    outer loop
      vertex 0.44 0.200649 0.119335
      vertex 0.44 0.200649 0.480665
      vertex 0.44 0.233827 0.435
    endloop
  endfacet
  facet normal -1 0 0
    outer loop
      vertex 0.44 0.158702 0.0815654
      vertex 0.44 0.200649 0.480665
      vertex 0.44 0.200649 0.119335
    endloop
  endfacet
  facet normal -1 0 0
    outer loop
      vertex 0.44 0.158702 0.0815654
      vertex 0.44 0.158702 0.518435
      vertex 0.44 0.200649 0.480665
    endloop
  endfacet
  facet normal -1 0 0
    outer loop
      vertex 0.44 0.109819 0.0533427
      vertex 0.44 0.158702 0.518435
      vertex 0.44 0.158702 0.0815654
    endloop
  endfacet
  facet normal -1 0 0
    outer loop
      vertex 0.44 0.109819 0.0533427
      vertex 0.44 0.109819 0.546657
      vertex 0.44 0.158702 0.518435
    endloop
  endfacet
  facet normal -1 0 0
    outer loop
      vertex 0.44 0.0561361 0.0359002
      vertex 0.44 0.109819 0.546657
      vertex 0.44 0.109819 0.0533427
    endloop
  endfacet
  facet normal -1 0 0
    outer loop
      vertex 0.44 0.0561361 0.0359002
      vertex 0.44 0.0561361 0.5641
      vertex 0.44 0.109819 0.546657
    endloop
  endfacet
  facet normal -1 0 0
    outer loop
      vertex 0.44 0 0.03
      vertex 0.44 0.0561361 0.5641
      vertex 0.44 0.0561361 0.0359002
    endloop
  endfacet
  facet normal -1 0 0
    outer loop
      vertex 0.44 0 0.03
      vertex 0.44 0 0.57
      vertex 0.44 0.0561361 0.5641
    endloop
  endfacet
  facet normal -1 0 0
    outer loop
      vertex 0.44 -0.0561361 0.0359002
      vertex 0.44 0 0.57
      vertex 0.44 0 0.03
    endloop
  endfacet
  facet normal -1 0 0
    outer loop
      vertex 0.44 -0.0561361 0.0359002
      vertex 0.44 -0.0561361 0.5641
      vertex 0.44 0 0.57
    endloop
  endfacet
  facet normal -1 0 0
    outer loop
      vertex 0.44 -0.109819 0.0533427
      vertex 0.44 -0.0561361 0.5641
      vertex 0.44 -0.0561361 0.0359002
    endloop
  endfacet
  facet normal -1 0 0
    outer loop
      vertex 0.44 -0.109819 0.0533427
      vertex 0.44 -0.109819 0.546657
      vertex 0.44 -0.0561361 0.5641
    endloop
  endfacet
  facet normal -1 0 0
    outer loop
      vertex 0.44 -0.158702 0.0815654
      vertex 0.44 -0.109819 0.546657
      vertex 0.44 -0.109819 0.0533427
    endloop
  endfacet
  facet normal -1 0 0
    outer loop
      vertex 0.44 -0.158702 0.0815654
      vertex 0.44 -0.158702 0.518435
      vertex 0.44 -0.109819 0.546657
    endloop
  endfacet
  facet normal -1 0 0
    outer loop
      vertex 0.44 -0.200649 0.119335
      vertex 0.44 -0.158702 0.518435
      vertex 0.44 -0.158702 0.0815654
    endloop
  endfacet
  facet normal -1 0 0
    outer loop
      vertex 0.44 -0.200649 0.119335
      vertex 0.44 -0.200649 0.480665
      vertex 0.44 -0.158702 0.518435
    endloop
  endfacet
  facet normal -1 0 0
    outer loop
      vertex 0.44 -0.233827 0.165
      vertex 0.44 -0.200649 0.480665
      vertex 0.44 -0.200649 0.119335
    endloop
  endfacet
  facet normal -1 0 0
    outer loop
      vertex 0.44 -0.233827 0.165
      vertex 0.44 -0.233827 0.435
      vertex 0.44 -0.200649 0.480665
    endloop
  endfacet
  facet normal -1 0 0
    outer loop
      vertex 0.44 -0.256785 0.216565
      vertex 0.44 -0.233827 0.435
      vertex 0.44 -0.233827 0.165
    endloop
  endfacet
  facet normal -1 0 0
    outer loop
      vertex 0.44 -0.256785 0.216565
      vertex 0.44 -0.256785 0.383435
      vertex 0.44 -0.233827 0.435
    endloop
  endfacet
  facet normal -1 0 0
    outer loop
      vertex 0.44 -0.268521 0.271777
      vertex 0.44 -0.256785 0.383435
      vertex 0.44 -0.256785 0.216565
    endloop
  endfacet
  facet normal -1 0 0
    outer loop
      vertex 0.44 -0.256785 0.383435
      vertex 0.44 -0.268521 0.271777
      vertex 0.44 -0.268521 0.328223
    endloop
  endfacet
  facet normal 0 -0.978146 -0.207917
    outer loop
      vertex -0.44 0.268521 0.328223
      vertex 0.44 0.256785 0.383435
      vertex -0.44 0.256785 0.383435
    endloop
  endfacet
  facet normal 0 -0.978146 -0.207917
    outer loop
      vertex 0.44 0.256785 0.383435
      vertex -0.44 0.268521 0.328223
      vertex 0.44 0.268521 0.328223
    endloop
  endfacet
  facet normal -0 0.104529 0.994522
    outer loop
      vertex -0.44 0 0.03
      vertex 0.44 -0.0561361 0.0359002
      vertex 0.44 0 0.03
    endloop
  endfacet
  facet normal 0 0.104529 0.994522
    outer loop
      vertex 0.44 -0.0561361 0.0359002
      vertex -0.44 0 0.03
      vertex -0.44 -0.0561361 0.0359002
    endloop
  endfacet
  facet normal 1 0 0
    outer loop
      vertex -0.44 0.256785 0.383435
      vertex -0.44 0.268521 0.271777
      vertex -0.44 0.268521 0.328223
    endloop
  endfacet
  facet normal 1 0 0
    outer loop
      vertex -0.44 0.256785 0.383435
      vertex -0.44 0.256785 0.216565
      vertex -0.44 0.268521 0.271777
    endloop
  endfacet
  facet normal 1 0 0
    outer loop
      vertex -0.44 0.233827 0.435
      vertex -0.44 0.256785 0.216565
      vertex -0.44 0.256785 0.383435
    endloop
  endfacet
  facet normal 1 0 0
    outer loop
      vertex -0.44 0.233827 0.435
      vertex -0.44 0.233827 0.165
      vertex -0.44 0.256785 0.216565
    endloop
  endfacet
  facet normal 1 0 0
    outer loop
      vertex -0.44 0.200649 0.480665
      vertex -0.44 0.233827 0.165
      vertex -0.44 0.233827 0.435
    endloop
  endfacet
  facet normal 1 0 0
    outer loop
      vertex -0.44 0.200649 0.480665
      vertex -0.44 0.200649 0.119335
      vertex -0.44 0.233827 0.165
    endloop
  endfacet
  facet normal 1 0 0
    outer loop
      vertex -0.44 0.158702 0.518435
      vertex -0.44 0.200649 0.119335
      vertex -0.44 0.200649 0.480665
    endloop
  endfacet
  facet normal 1 0 0
    outer loop
      vertex -0.44 0.158702 0.518435
      vertex -0.44 0.158702 0.0815654
      vertex -0.44 0.200649 0.119335
    endloop
  endfacet
  facet normal 1 0 0
    outer loop
      vertex -0.44 0.109819 0.546657
      vertex -0.44 0.158702 0.0815654
      vertex -0.44 0.158702 0.518435
    endloop
  endfacet
  facet normal 1 0 0
    outer loop
      vertex -0.44 0.109819 0.546657
      vertex -0.44 0.109819 0.0533427
      vertex -0.44 0.158702 0.0815654
    endloop
  endfacet
  facet normal 1 0 0
    outer loop
      vertex -0.44 0.0561361 0.5641
      vertex -0.44 0.109819 0.0533427
      vertex -0.44 0.109819 0.546657
    endloop
  endfacet
  facet normal 1 0 0
    outer loop
      vertex -0.44 0.0561361 0.5641
      vertex -0.44 0.0561361 0.0359002
      vertex -0.44 0.109819 0.0533427
    endloop
  endfacet
  facet normal 1 0 0
    outer loop
      vertex -0.44 0 0.57
      vertex -0.44 0.0561361 0.0359002
      vertex -0.44 0.0561361 0.5641
    endloop
  endfacet
  facet normal 1 0 0
    outer loop
      vertex -0.44 0 0.57
      vertex -0.44 0 0.03
      vertex -0.44 0.0561361 0.0359002
    endloop
  endfacet
  facet normal 1 -0 0
    outer loop
      vertex -0.44 -0.0561361 0.5641
      vertex -0.44 0 0.03
      vertex -0.44 0 0.57
    endloop
  endfacet
  facet normal 1 0 0
    outer loop
      vertex -0.44 -0.0561361 0.5641
      vertex -0.44 -0.0561361 0.0359002
      vertex -0.44 0 0.03
    endloop
  endfacet
  facet normal 1 -0 0
    outer loop
      vertex -0.44 -0.109819 0.546657
      vertex -0.44 -0.0561361 0.0359002
      vertex -0.44 -0.0561361 0.5641
    endloop
  endfacet
  facet normal 1 0 0
    outer loop
      vertex -0.44 -0.109819 0.546657
      vertex -0.44 -0.109819 0.0533427
      vertex -0.44 -0.0561361 0.0359002
    endloop
  endfacet
  facet normal 1 -0 0
    outer loop
      vertex -0.44 -0.158702 0.518435
      vertex -0.44 -0.109819 0.0533427
      vertex -0.44 -0.109819 0.546657
    endloop
  endfacet
  facet normal 1 0 0
    outer loop
      vertex -0.44 -0.158702 0.518435
      vertex -0.44 -0.158702 0.0815654
      vertex -0.44 -0.109819 0.0533427
    endloop
  endfacet
  facet normal 1 -0 0
    outer loop
      vertex -0.44 -0.200649 0.480665
      vertex -0.44 -0.158702 0.0815654
      vertex -0.44 -0.158702 0.518435
    endloop
  endfacet
  facet normal 1 0 0
    outer loop
      vertex -0.44 -0.200649 0.480665
      vertex -0.44 -0.200649 0.119335
      vertex -0.44 -0.158702 0.0815654
    endloop
  endfacet
  facet normal 1 -0 0
    outer loop
      vertex -0.44 -0.233827 0.435
      vertex -0.44 -0.200649 0.119335
      vertex -0.44 -0.200649 0.480665
    endloop
  endfacet
  facet normal 1 0 0
    outer loop
      vertex -0.44 -0.233827 0.435
      vertex -0.44 -0.233827 0.165
      vertex -0.44 -0.200649 0.119335
    endloop
  endfacet
  facet normal 1 -0 0
    outer loop
      vertex -0.44 -0.256785 0.383435
      vertex -0.44 -0.233827 0.165
      vertex -0.44 -0.233827 0.435
    endloop
  endfacet
  facet normal 1 0 0
    outer loop
      vertex -0.44 -0.256785 0.383435
      vertex -0.44 -0.256785 0.216565
      vertex -0.44 -0.233827 0.165
    endloop
  endfacet
  facet normal 1 -0 0
    outer loop
      vertex -0.44 -0.268521 0.328223
      vertex -0.44 -0.256785 0.216565
      vertex -0.44 -0.256785 0.383435
    endloop
  endfacet
  facet normal 1 0 0
    outer loop
      vertex -0.44 -0.256785 0.216565
      vertex -0.44 -0.268521 0.328223
      vertex -0.44 -0.268521 0.271777
    endloop
  endfacet
  facet normal 0 0.978146 0.207917
    outer loop
      vertex 0.44 -0.256785 0.216565
      vertex -0.44 -0.268521 0.271777
      vertex 0.44 -0.268521 0.271777
    endloop
  endfacet
  facet normal 0 0.978146 0.207917
    outer loop
      vertex -0.44 -0.268521 0.271777
      vertex 0.44 -0.256785 0.216565
      vertex -0.44 -0.256785 0.216565
    endloop
  endfacet
  facet normal -0 0.669134 0.743142
    outer loop
      vertex -0.44 -0.158702 0.0815654
      vertex 0.44 -0.200649 0.119335
      vertex 0.44 -0.158702 0.0815654
    endloop
  endfacet
  facet normal 0 0.669134 0.743142
    outer loop
      vertex 0.44 -0.200649 0.119335
      vertex -0.44 -0.158702 0.0815654
      vertex -0.44 -0.200649 0.119335
    endloop
  endfacet
  facet normal -0 0.309015 0.951057
    outer loop
      vertex -0.44 -0.0561361 0.0359002
      vertex 0.44 -0.109819 0.0533427
      vertex 0.44 -0.0561361 0.0359002
    endloop
  endfacet
  facet normal 0 0.309015 0.951057
    outer loop
      vertex 0.44 -0.109819 0.0533427
      vertex -0.44 -0.0561361 0.0359002
      vertex -0.44 -0.109819 0.0533427
    endloop
  endfacet
  facet normal -0 0.500001 0.866025
    outer loop
      vertex -0.44 -0.109819 0.0533427
      vertex 0.44 -0.158702 0.0815654
      vertex 0.44 -0.109819 0.0533427
    endloop
  endfacet
  facet normal 0 0.500001 0.866025
    outer loop
      vertex 0.44 -0.158702 0.0815654
      vertex -0.44 -0.109819 0.0533427
      vertex -0.44 -0.158702 0.0815654
    endloop
  endfacet
  facet normal 0 0.809013 -0.58779
    outer loop
      vertex 0.44 -0.233827 0.435
      vertex -0.44 -0.200649 0.480665
      vertex 0.44 -0.200649 0.480665
    endloop
  endfacet
  facet normal 0 0.809013 -0.58779
    outer loop
      vertex -0.44 -0.200649 0.480665
      vertex 0.44 -0.233827 0.435
      vertex -0.44 -0.233827 0.435
    endloop
  endfacet
  facet normal 0 0.499992 -0.86603
    outer loop
      vertex -0.44 -0.158702 0.518435
      vertex 0.44 -0.109819 0.546657
      vertex 0.44 -0.158702 0.518435
    endloop
  endfacet
  facet normal 0 0.499992 -0.86603
    outer loop
      vertex 0.44 -0.109819 0.546657
      vertex -0.44 -0.158702 0.518435
      vertex -0.44 -0.109819 0.546657
    endloop
  endfacet
  facet normal 0 0.104526 -0.994522
    outer loop
      vertex -0.44 -0.0561361 0.5641
      vertex 0.44 0 0.57
      vertex 0.44 -0.0561361 0.5641
    endloop
  endfacet
  facet normal 0 0.104526 -0.994522
    outer loop
      vertex 0.44 0 0.57
      vertex -0.44 -0.0561361 0.5641
      vertex -0.44 0 0.57
    endloop
  endfacet
  facet normal 0 0.809013 0.58779
    outer loop
      vertex 0.44 -0.200649 0.119335
      vertex -0.44 -0.233827 0.165
      vertex 0.44 -0.233827 0.165
    endloop
  endfacet
  facet normal 0 0.809013 0.58779
    outer loop
      vertex -0.44 -0.233827 0.165
      vertex 0.44 -0.200649 0.119335
      vertex -0.44 -0.200649 0.119335
    endloop
  endfacet
  facet normal 0 0.913547 0.406733
    outer loop
      vertex 0.44 -0.233827 0.165
      vertex -0.44 -0.256785 0.216565
      vertex 0.44 -0.256785 0.216565
    endloop
  endfacet
  facet normal 0 0.913547 0.406733
    outer loop
      vertex -0.44 -0.256785 0.216565
      vertex 0.44 -0.233827 0.165
      vertex -0.44 -0.233827 0.165
    endloop
  endfacet
  facet normal 0 0.978146 -0.207917
    outer loop
      vertex 0.44 -0.268521 0.328223
      vertex -0.44 -0.256785 0.383435
      vertex 0.44 -0.256785 0.383435
    endloop
  endfacet
  facet normal 0 0.978146 -0.207917
    outer loop
      vertex -0.44 -0.256785 0.383435
      vertex 0.44 -0.268521 0.328223
      vertex -0.44 -0.268521 0.328223
    endloop
  endfacet
  facet normal 0 0.913547 -0.406733
    outer loop
      vertex 0.44 -0.256785 0.383435
      vertex -0.44 -0.233827 0.435
      vertex 0.44 -0.233827 0.435
    endloop
  endfacet
  facet normal 0 0.913547 -0.406733
    outer loop
      vertex -0.44 -0.233827 0.435
      vertex 0.44 -0.256785 0.383435
      vertex -0.44 -0.256785 0.383435
    endloop
  endfacet
  facet normal 0 0.669138 -0.743138
    outer loop
      vertex -0.44 -0.200649 0.480665
      vertex 0.44 -0.158702 0.518435
      vertex 0.44 -0.200649 0.480665
    endloop
  endfacet
  facet normal 0 0.669138 -0.743138
    outer loop
      vertex 0.44 -0.158702 0.518435
      vertex -0.44 -0.200649 0.480665
      vertex -0.44 -0.158702 0.518435
    endloop
  endfacet
  facet normal 0 0.309023 -0.951055
    outer loop
      vertex -0.44 -0.109819 0.546657
      vertex 0.44 -0.0561361 0.5641
      vertex 0.44 -0.109819 0.546657
    endloop
  endfacet
  facet normal 0 0.309023 -0.951055
    outer loop
      vertex 0.44 -0.0561361 0.5641
      vertex -0.44 -0.109819 0.546657
      vertex -0.44 -0.0561361 0.5641
    endloop
  endfacet
endsolid OpenSCAD_Model
