solid OpenSCAD_Model
  facet normal 0 0.809015 0.587788
    outer loop
      vertex 0.44 0.21421 0.462
      vertex -0.44 0.200649 0.480665
      vertex 0.44 0.200649 0.480665
    endloop
  endfacet
  facet normal 0 0.809015 0.587788
    outer loop
      vertex -0.44 0.200649 0.480665
      vertex 0.44 0.21421 0.462
      vertex -0.44 0.21421 0.462
    endloop
  endfacet
  facet normal -0 0.669129 0.743146
    outer loop
      vertex -0.44 0.200649 0.480665
      vertex 0.44 0.191392 0.489
      vertex 0.44 0.200649 0.480665
    endloop
  endfacet
  facet normal 0 0.669129 0.743146
    outer loop
      vertex 0.44 0.191392 0.489
      vertex -0.44 0.200649 0.480665
      vertex -0.44 0.191392 0.489
    endloop
  endfacet
  facet normal -1 0 0
    outer loop
      vertex -0.44 0.21421 0.462
      vertex -0.44 0.191392 0.489
      vertex -0.44 0.200649 0.480665
    endloop
  endfacet
  facet normal -1 0 0
    outer loop
      vertex -0.44 0.21421 0.462
      vertex -0.44 -0.191392 0.489
      vertex -0.44 0.191392 0.489
    endloop
  endfacet
  facet normal -1 0 0
    outer loop
      vertex -0.44 -0.21421 0.462
      vertex -0.44 -0.191392 0.489
      vertex -0.44 0.21421 0.462
    endloop
  endfacet
  facet normal -1 0 0
    outer loop
      vertex -0.44 -0.191392 0.489
      vertex -0.44 -0.21421 0.462
      vertex -0.44 -0.200649 0.480665
    endloop
  endfacet
  facet normal 0 -0.669129 0.743146
    outer loop
      vertex -0.44 -0.191392 0.489
      vertex 0.44 -0.200649 0.480665
      vertex 0.44 -0.191392 0.489
    endloop
  endfacet
  facet normal 0 -0.669129 0.743146
    outer loop
      vertex 0.44 -0.200649 0.480665
      vertex -0.44 -0.191392 0.489
      vertex -0.44 -0.200649 0.480665
    endloop
  endfacet
  facet normal 1 0 0
    outer loop
      vertex 0.44 0.191392 0.489
      vertex 0.44 0.21421 0.462
      vertex 0.44 0.200649 0.480665
    endloop
  endfacet
  facet normal 1 -0 0
    outer loop
      vertex 0.44 -0.191392 0.489
      vertex 0.44 0.21421 0.462
      vertex 0.44 0.191392 0.489
    endloop
  endfacet
  facet normal 1 0 0
    outer loop
      vertex 0.44 -0.21421 0.462
      vertex 0.44 -0.191392 0.489
      vertex 0.44 -0.200649 0.480665
    endloop
  endfacet
  facet normal 1 0 0
    outer loop
      vertex 0.44 -0.191392 0.489
      vertex 0.44 -0.21421 0.462
      vertex 0.44 0.21421 0.462
    endloop
  endfacet
  facet normal 0 -0.809015 0.587788
    outer loop
      vertex -0.44 -0.21421 0.462
      vertex 0.44 -0.200649 0.480665
      vertex -0.44 -0.200649 0.480665
    endloop
  endfacet
  facet normal 0 -0.809015 0.587788
    outer loop
      vertex 0.44 -0.200649 0.480665
      vertex -0.44 -0.21421 0.462
      vertex 0.44 -0.21421 0.462
    endloop
  endfacet
  facet normal -0 0 1
    outer loop
      vertex -0.44 0.191392 0.489
      vertex 0.44 -0.191392 0.489
      vertex 0.44 0.191392 0.489
    endloop
  endfacet
  facet normal 0 0 1
    outer loop
      vertex 0.44 -0.191392 0.489
      vertex -0.44 0.191392 0.489
      vertex -0.44 -0.191392 0.489
    endloop
  endfacet
  facet normal 0 0 -1
    outer loop
      vertex -0.44 -0.21421 0.462
      vertex 0.44 0.21421 0.462
      vertex 0.44 -0.21421 0.462
    endloop
  endfacet
  facet normal -0 0 -1
    outer loop
      vertex 0.44 0.21421 0.462
      vertex -0.44 -0.21421 0.462
      vertex -0.44 0.21421 0.462
    endloop
  endfacet
endsolid OpenSCAD_Model
