solid OpenSCAD_Model
  facet normal 0 -1 0
    outer loop
      vertex -0.44 -0.268521 0.271777
      vertex 0.44 -0.268521 0.273
      vertex -0.44 -0.268521 0.273
    endloop
  endfacet
  facet normal 0 -1 -0
    outer loop
      vertex 0.44 -0.268521 0.273
      vertex -0.44 -0.268521 0.271777
      vertex 0.44 -0.268521 0.271777
    endloop
  endfacet
  facet normal 0 0.978148 -0.207909
    outer loop
      vertex 0.44 0.263042 0.246
      vertex -0.44 0.268521 0.271777
      vertex 0.44 0.268521 0.271777
    endloop
  endfacet
  facet normal 0 0.978148 -0.207909
    outer loop
      vertex -0.44 0.268521 0.271777
      vertex 0.44 0.263042 0.246
      vertex -0.44 0.263042 0.246
    endloop
  endfacet
  facet normal 0 -0.978148 -0.207909
    outer loop
      vertex -0.44 -0.263042 0.246
      vertex 0.44 -0.268521 0.271777
      vertex -0.44 -0.268521 0.271777
    endloop
  endfacet
  facet normal 0 -0.978148 -0.207909
    outer loop
      vertex 0.44 -0.268521 0.271777
      vertex -0.44 -0.263042 0.246
      vertex 0.44 -0.263042 0.246
    endloop
  endfacet
  facet normal -1 0 0
    outer loop
      vertex -0.44 0.263042 0.246
      vertex -0.44 0.268521 0.273
      vertex -0.44 0.268521 0.271777
    endloop
  endfacet
  facet normal -1 0 0
    outer loop
      vertex -0.44 -0.263042 0.246
      vertex -0.44 0.268521 0.273
      vertex -0.44 0.263042 0.246
    endloop
  endfacet
  facet normal -1 0 0
    outer loop
      vertex -0.44 -0.268521 0.273
      vertex -0.44 -0.263042 0.246
      vertex -0.44 -0.268521 0.271777
    endloop
  endfacet
  facet normal -1 0 0
    outer loop
      vertex -0.44 -0.263042 0.246
      vertex -0.44 -0.268521 0.273
      vertex -0.44 0.268521 0.273
    endloop
  endfacet
  facet normal 0 1 -0
    outer loop
      vertex 0.44 0.268521 0.271777
      vertex -0.44 0.268521 0.273
      vertex 0.44 0.268521 0.273
    endloop
  endfacet
  facet normal 0 1 0
    outer loop
      vertex -0.44 0.268521 0.273
      vertex 0.44 0.268521 0.271777
      vertex -0.44 0.268521 0.271777
    endloop
  endfacet
  facet normal 1 0 0
    outer loop
      vertex 0.44 0.268521 0.273
      vertex 0.44 0.263042 0.246
      vertex 0.44 0.268521 0.271777
    endloop
  endfacet
  facet normal 1 0 0
    outer loop
      vertex 0.44 0.268521 0.273
      vertex 0.44 -0.263042 0.246
      vertex 0.44 0.263042 0.246
    endloop
  endfacet
  facet normal 1 -0 0
    outer loop
      vertex 0.44 -0.268521 0.273
      vertex 0.44 -0.263042 0.246
      vertex 0.44 0.268521 0.273
    endloop
  endfacet
  facet normal 1 0 0
    outer loop
      vertex 0.44 -0.263042 0.246
      vertex 0.44 -0.268521 0.273
      vertex 0.44 -0.268521 0.271777
    endloop
  endfacet
  facet normal -0 0 1
    outer loop
      vertex -0.44 0.268521 0.273
      vertex 0.44 -0.268521 0.273
      vertex 0.44 0.268521 0.273
    endloop
  endfacet
  facet normal 0 0 1
    outer loop
      vertex 0.44 -0.268521 0.273
      vertex -0.44 0.268521 0.273
      vertex -0.44 -0.268521 0.273
    endloop
  endfacet
  facet normal 0 0 -1
    outer loop
      vertex -0.44 -0.263042 0.246
      vertex 0.44 0.263042 0.246
      vertex 0.44 -0.263042 0.246
    endloop
  endfacet
  facet normal -0 0 -1
    outer loop
      vertex 0.44 0.263042 0.246
      vertex -0.44 -0.263042 0.246
      vertex -0.44 0.263042 0.246
    endloop
  endfacet
endsolid OpenSCAD_Model
