solid OpenSCAD_Model
  facet normal 0.970942 0.239315 0
    outer loop
      vertex -0.46 1.3 1.35
      vertex -0.464582 1.31859 0.45
      vertex -0.464582 1.31859 1.35
    endloop
  endfacet
  facet normal 0.970942 0.239315 0
    outer loop
      vertex -0.464582 1.31859 0.45
      vertex -0.46 1.3 1.35
      vertex -0.46 1.3 0.45
    endloop
  endfacet
  facet normal -1 0 0
    outer loop
      vertex -0.538838 1.29043 0.45
      vertex -0.538838 1.30957 1.35
      vertex -0.538838 1.30957 0.45
    endloop
  endfacet
  facet normal -1 -0 0
    outer loop
      vertex -0.538838 1.30957 1.35
      vertex -0.538838 1.29043 0.45
      vertex -0.538838 1.29043 1.35
    endloop
  endfacet
  facet normal -0.120659 0.992694 0
    outer loop
      vertex -0.495179 1.33971 0.45
      vertex -0.514184 1.3374 1.35
      vertex -0.495179 1.33971 1.35
    endloop
  endfacet
  facet normal -0.120659 0.992694 0
    outer loop
      vertex -0.514184 1.3374 1.35
      vertex -0.495179 1.33971 0.45
      vertex -0.514184 1.3374 0.45
    endloop
  endfacet
  facet normal 0.748518 0.663115 0
    outer loop
      vertex -0.464582 1.31859 1.35
      vertex -0.477277 1.33292 0.45
      vertex -0.477277 1.33292 1.35
    endloop
  endfacet
  facet normal 0.748518 0.663115 0
    outer loop
      vertex -0.477277 1.33292 0.45
      vertex -0.464582 1.31859 1.35
      vertex -0.464582 1.31859 0.45
    endloop
  endfacet
  facet normal -0.568221 0.822876 0
    outer loop
      vertex -0.514184 1.3374 0.45
      vertex -0.52994 1.32652 1.35
      vertex -0.514184 1.3374 1.35
    endloop
  endfacet
  facet normal -0.568221 0.822876 0
    outer loop
      vertex -0.52994 1.32652 1.35
      vertex -0.514184 1.3374 0.45
      vertex -0.52994 1.32652 0.45
    endloop
  endfacet
  facet normal 0.354635 -0.935005 0
    outer loop
      vertex -0.495179 1.26029 0.45
      vertex -0.477277 1.26708 1.35
      vertex -0.495179 1.26029 1.35
    endloop
  endfacet
  facet normal 0.354635 -0.935005 0
    outer loop
      vertex -0.477277 1.26708 1.35
      vertex -0.495179 1.26029 0.45
      vertex -0.477277 1.26708 0.45
    endloop
  endfacet
  facet normal 0.748518 -0.663115 0
    outer loop
      vertex -0.477277 1.26708 1.35
      vertex -0.464582 1.28141 0.45
      vertex -0.464582 1.28141 1.35
    endloop
  endfacet
  facet normal 0.748518 -0.663115 0
    outer loop
      vertex -0.464582 1.28141 0.45
      vertex -0.477277 1.26708 1.35
      vertex -0.477277 1.26708 0.45
    endloop
  endfacet
  facet normal 0.354635 0.935005 -0
    outer loop
      vertex -0.477277 1.33292 0.45
      vertex -0.495179 1.33971 1.35
      vertex -0.477277 1.33292 1.35
    endloop
  endfacet
  facet normal 0.354635 0.935005 0
    outer loop
      vertex -0.495179 1.33971 1.35
      vertex -0.477277 1.33292 0.45
      vertex -0.495179 1.33971 0.45
    endloop
  endfacet
  facet normal -0.885414 0.464803 0
    outer loop
      vertex -0.538838 1.30957 0.45
      vertex -0.52994 1.32652 1.35
      vertex -0.52994 1.32652 0.45
    endloop
  endfacet
  facet normal -0.885414 0.464803 0
    outer loop
      vertex -0.52994 1.32652 1.35
      vertex -0.538838 1.30957 0.45
      vertex -0.538838 1.30957 1.35
    endloop
  endfacet
  facet normal 0 0 1
    outer loop
      vertex -0.465 1.3 1.35
      vertex -0.46 1.3 1.35
      vertex -0.464582 1.31859 1.35
    endloop
  endfacet
  facet normal 0 0 1
    outer loop
      vertex -0.46 1.3 1.35
      vertex -0.465 1.3 1.35
      vertex -0.464582 1.28141 1.35
    endloop
  endfacet
  facet normal 0 0 1
    outer loop
      vertex -0.464582 1.31859 1.35
      vertex -0.470556 1.31892 1.35
      vertex -0.465 1.3 1.35
    endloop
  endfacet
  facet normal 0 0 1
    outer loop
      vertex -0.477277 1.33292 1.35
      vertex -0.470556 1.31892 1.35
      vertex -0.464582 1.31859 1.35
    endloop
  endfacet
  facet normal 0 0 1
    outer loop
      vertex -0.477277 1.33292 1.35
      vertex -0.48546 1.33184 1.35
      vertex -0.470556 1.31892 1.35
    endloop
  endfacet
  facet normal 0 0 1
    outer loop
      vertex -0.495179 1.33971 1.35
      vertex -0.48546 1.33184 1.35
      vertex -0.477277 1.33292 1.35
    endloop
  endfacet
  facet normal 0 0 1
    outer loop
      vertex -0.495179 1.33971 1.35
      vertex -0.504981 1.33464 1.35
      vertex -0.48546 1.33184 1.35
    endloop
  endfacet
  facet normal -0 0 1
    outer loop
      vertex -0.514184 1.3374 1.35
      vertex -0.504981 1.33464 1.35
      vertex -0.495179 1.33971 1.35
    endloop
  endfacet
  facet normal 0 0 1
    outer loop
      vertex -0.514184 1.3374 1.35
      vertex -0.52292 1.32645 1.35
      vertex -0.504981 1.33464 1.35
    endloop
  endfacet
  facet normal -0 0 1
    outer loop
      vertex -0.52994 1.32652 1.35
      vertex -0.52292 1.32645 1.35
      vertex -0.514184 1.3374 1.35
    endloop
  endfacet
  facet normal 0 0 1
    outer loop
      vertex -0.52994 1.32652 1.35
      vertex -0.533582 1.30986 1.35
      vertex -0.52292 1.32645 1.35
    endloop
  endfacet
  facet normal 0 0 1
    outer loop
      vertex -0.533582 1.30986 1.35
      vertex -0.538838 1.30957 1.35
      vertex -0.533582 1.29014 1.35
    endloop
  endfacet
  facet normal 0 0 1
    outer loop
      vertex -0.538838 1.30957 1.35
      vertex -0.533582 1.30986 1.35
      vertex -0.52994 1.32652 1.35
    endloop
  endfacet
  facet normal 0 0 1
    outer loop
      vertex -0.470556 1.28108 1.35
      vertex -0.464582 1.28141 1.35
      vertex -0.465 1.3 1.35
    endloop
  endfacet
  facet normal -0 0 1
    outer loop
      vertex -0.470556 1.28108 1.35
      vertex -0.477277 1.26708 1.35
      vertex -0.464582 1.28141 1.35
    endloop
  endfacet
  facet normal -0 0 1
    outer loop
      vertex -0.48546 1.26816 1.35
      vertex -0.477277 1.26708 1.35
      vertex -0.470556 1.28108 1.35
    endloop
  endfacet
  facet normal 0 0 1
    outer loop
      vertex -0.48546 1.26816 1.35
      vertex -0.495179 1.26029 1.35
      vertex -0.477277 1.26708 1.35
    endloop
  endfacet
  facet normal -0 0 1
    outer loop
      vertex -0.504981 1.26536 1.35
      vertex -0.495179 1.26029 1.35
      vertex -0.48546 1.26816 1.35
    endloop
  endfacet
  facet normal 0 0 1
    outer loop
      vertex -0.504981 1.26536 1.35
      vertex -0.514184 1.2626 1.35
      vertex -0.495179 1.26029 1.35
    endloop
  endfacet
  facet normal 0 0 1
    outer loop
      vertex -0.52292 1.27355 1.35
      vertex -0.514184 1.2626 1.35
      vertex -0.504981 1.26536 1.35
    endloop
  endfacet
  facet normal 0 0 1
    outer loop
      vertex -0.52292 1.27355 1.35
      vertex -0.52994 1.27348 1.35
      vertex -0.514184 1.2626 1.35
    endloop
  endfacet
  facet normal 0 0 1
    outer loop
      vertex -0.533582 1.29014 1.35
      vertex -0.52994 1.27348 1.35
      vertex -0.52292 1.27355 1.35
    endloop
  endfacet
  facet normal -0 0 1
    outer loop
      vertex -0.538838 1.29043 1.35
      vertex -0.533582 1.29014 1.35
      vertex -0.538838 1.30957 1.35
    endloop
  endfacet
  facet normal 0 0 1
    outer loop
      vertex -0.533582 1.29014 1.35
      vertex -0.538838 1.29043 1.35
      vertex -0.52994 1.27348 1.35
    endloop
  endfacet
  facet normal 0.970942 -0.239315 0
    outer loop
      vertex -0.464582 1.28141 1.35
      vertex -0.46 1.3 0.45
      vertex -0.46 1.3 1.35
    endloop
  endfacet
  facet normal 0.970942 -0.239315 0
    outer loop
      vertex -0.46 1.3 0.45
      vertex -0.464582 1.28141 1.35
      vertex -0.464582 1.28141 0.45
    endloop
  endfacet
  facet normal 0 0 -1
    outer loop
      vertex -0.465 1.3 0.45
      vertex -0.46 1.3 0.45
      vertex -0.464582 1.28141 0.45
    endloop
  endfacet
  facet normal 0 0 -1
    outer loop
      vertex -0.46 1.3 0.45
      vertex -0.465 1.3 0.45
      vertex -0.464582 1.31859 0.45
    endloop
  endfacet
  facet normal -0 0 -1
    outer loop
      vertex -0.464582 1.28141 0.45
      vertex -0.470556 1.28108 0.45
      vertex -0.465 1.3 0.45
    endloop
  endfacet
  facet normal 0 0 -1
    outer loop
      vertex -0.477277 1.26708 0.45
      vertex -0.470556 1.28108 0.45
      vertex -0.464582 1.28141 0.45
    endloop
  endfacet
  facet normal 0 0 -1
    outer loop
      vertex -0.477277 1.26708 0.45
      vertex -0.48546 1.26816 0.45
      vertex -0.470556 1.28108 0.45
    endloop
  endfacet
  facet normal 0 0 -1
    outer loop
      vertex -0.495179 1.26029 0.45
      vertex -0.48546 1.26816 0.45
      vertex -0.477277 1.26708 0.45
    endloop
  endfacet
  facet normal 0 0 -1
    outer loop
      vertex -0.495179 1.26029 0.45
      vertex -0.504981 1.26536 0.45
      vertex -0.48546 1.26816 0.45
    endloop
  endfacet
  facet normal 0 0 -1
    outer loop
      vertex -0.514184 1.2626 0.45
      vertex -0.504981 1.26536 0.45
      vertex -0.495179 1.26029 0.45
    endloop
  endfacet
  facet normal 0 0 -1
    outer loop
      vertex -0.514184 1.2626 0.45
      vertex -0.52292 1.27355 0.45
      vertex -0.504981 1.26536 0.45
    endloop
  endfacet
  facet normal 0 0 -1
    outer loop
      vertex -0.52994 1.27348 0.45
      vertex -0.52292 1.27355 0.45
      vertex -0.514184 1.2626 0.45
    endloop
  endfacet
  facet normal 0 0 -1
    outer loop
      vertex -0.52994 1.27348 0.45
      vertex -0.533582 1.29014 0.45
      vertex -0.52292 1.27355 0.45
    endloop
  endfacet
  facet normal 0 0 -1
    outer loop
      vertex -0.533582 1.29014 0.45
      vertex -0.538838 1.29043 0.45
      vertex -0.533582 1.30986 0.45
    endloop
  endfacet
  facet normal 0 0 -1
    outer loop
      vertex -0.538838 1.29043 0.45
      vertex -0.533582 1.29014 0.45
      vertex -0.52994 1.27348 0.45
    endloop
  endfacet
  facet normal 0 0 -1
    outer loop
      vertex -0.470556 1.31892 0.45
      vertex -0.464582 1.31859 0.45
      vertex -0.465 1.3 0.45
    endloop
  endfacet
  facet normal 0 0 -1
    outer loop
      vertex -0.470556 1.31892 0.45
      vertex -0.477277 1.33292 0.45
      vertex -0.464582 1.31859 0.45
    endloop
  endfacet
  facet normal 0 0 -1
    outer loop
      vertex -0.48546 1.33184 0.45
      vertex -0.477277 1.33292 0.45
      vertex -0.470556 1.31892 0.45
    endloop
  endfacet
  facet normal 0 0 -1
    outer loop
      vertex -0.48546 1.33184 0.45
      vertex -0.495179 1.33971 0.45
      vertex -0.477277 1.33292 0.45
    endloop
  endfacet
  facet normal 0 0 -1
    outer loop
      vertex -0.504981 1.33464 0.45
      vertex -0.495179 1.33971 0.45
      vertex -0.48546 1.33184 0.45
    endloop
  endfacet
  facet normal 0 0 -1
    outer loop
      vertex -0.504981 1.33464 0.45
      vertex -0.514184 1.3374 0.45
      vertex -0.495179 1.33971 0.45
    endloop
  endfacet
  facet normal 0 0 -1
    outer loop
      vertex -0.52292 1.32645 0.45
      vertex -0.514184 1.3374 0.45
      vertex -0.504981 1.33464 0.45
    endloop
  endfacet
  facet normal 0 0 -1
    outer loop
      vertex -0.52292 1.32645 0.45
      vertex -0.52994 1.32652 0.45
      vertex -0.514184 1.3374 0.45
    endloop
  endfacet
  facet normal 0 0 -1
    outer loop
      vertex -0.533582 1.30986 0.45
      vertex -0.52994 1.32652 0.45
      vertex -0.52292 1.32645 0.45
    endloop
  endfacet
  facet normal 0 0 -1
    outer loop
      vertex -0.538838 1.30957 0.45
      vertex -0.533582 1.30986 0.45
      vertex -0.538838 1.29043 0.45
    endloop
  endfacet
  facet normal -0 0 -1
    outer loop
      vertex -0.533582 1.30986 0.45
      vertex -0.538838 1.30957 0.45
      vertex -0.52994 1.32652 0.45
    endloop
  endfacet
  facet normal -0.120659 -0.992694 0
    outer loop
      vertex -0.514184 1.2626 0.45
      vertex -0.495179 1.26029 1.35
      vertex -0.514184 1.2626 1.35
    endloop
  endfacet
  facet normal -0.120659 -0.992694 -0
    outer loop
      vertex -0.495179 1.26029 1.35
      vertex -0.514184 1.2626 0.45
      vertex -0.495179 1.26029 0.45
    endloop
  endfacet
  facet normal -0.568221 -0.822876 0
    outer loop
      vertex -0.52994 1.27348 0.45
      vertex -0.514184 1.2626 1.35
      vertex -0.52994 1.27348 1.35
    endloop
  endfacet
  facet normal -0.568221 -0.822876 -0
    outer loop
      vertex -0.514184 1.2626 1.35
      vertex -0.52994 1.27348 0.45
      vertex -0.514184 1.2626 0.45
    endloop
  endfacet
  facet normal -0.885414 -0.464803 0
    outer loop
      vertex -0.52994 1.27348 0.45
      vertex -0.538838 1.29043 1.35
      vertex -0.538838 1.29043 0.45
    endloop
  endfacet
  facet normal -0.885414 -0.464803 0
    outer loop
      vertex -0.538838 1.29043 1.35
      vertex -0.52994 1.27348 0.45
      vertex -0.52994 1.27348 1.35
    endloop
  endfacet
  facet normal -0.959485 -0.28176 0
    outer loop
      vertex -0.465 1.3 0.45
      vertex -0.470556 1.31892 1.35
      vertex -0.470556 1.31892 0.45
    endloop
  endfacet
  facet normal -0.959485 -0.28176 0
    outer loop
      vertex -0.470556 1.31892 1.35
      vertex -0.465 1.3 0.45
      vertex -0.465 1.3 1.35
    endloop
  endfacet
  facet normal 1 -0 0
    outer loop
      vertex -0.533582 1.29014 1.35
      vertex -0.533582 1.30986 0.45
      vertex -0.533582 1.30986 1.35
    endloop
  endfacet
  facet normal 1 0 0
    outer loop
      vertex -0.533582 1.30986 0.45
      vertex -0.533582 1.29014 1.35
      vertex -0.533582 1.29014 0.45
    endloop
  endfacet
  facet normal 0.415312 -0.909679 0
    outer loop
      vertex -0.52292 1.32645 0.45
      vertex -0.504981 1.33464 1.35
      vertex -0.52292 1.32645 1.35
    endloop
  endfacet
  facet normal 0.415312 -0.909679 0
    outer loop
      vertex -0.504981 1.33464 1.35
      vertex -0.52292 1.32645 0.45
      vertex -0.504981 1.33464 0.45
    endloop
  endfacet
  facet normal 0.841248 -0.54065 0
    outer loop
      vertex -0.533582 1.30986 1.35
      vertex -0.52292 1.32645 0.45
      vertex -0.52292 1.32645 1.35
    endloop
  endfacet
  facet normal 0.841248 -0.54065 0
    outer loop
      vertex -0.52292 1.32645 0.45
      vertex -0.533582 1.30986 1.35
      vertex -0.533582 1.30986 0.45
    endloop
  endfacet
  facet normal -0.141982 0.989869 0
    outer loop
      vertex -0.48546 1.26816 0.45
      vertex -0.504981 1.26536 1.35
      vertex -0.48546 1.26816 1.35
    endloop
  endfacet
  facet normal -0.141982 0.989869 0
    outer loop
      vertex -0.504981 1.26536 1.35
      vertex -0.48546 1.26816 0.45
      vertex -0.504981 1.26536 0.45
    endloop
  endfacet
  facet normal -0.141982 -0.989869 0
    outer loop
      vertex -0.504981 1.33464 0.45
      vertex -0.48546 1.33184 1.35
      vertex -0.504981 1.33464 1.35
    endloop
  endfacet
  facet normal -0.141982 -0.989869 -0
    outer loop
      vertex -0.48546 1.33184 1.35
      vertex -0.504981 1.33464 0.45
      vertex -0.48546 1.33184 0.45
    endloop
  endfacet
  facet normal -0.655023 -0.755609 0
    outer loop
      vertex -0.48546 1.33184 0.45
      vertex -0.470556 1.31892 1.35
      vertex -0.48546 1.33184 1.35
    endloop
  endfacet
  facet normal -0.655023 -0.755609 -0
    outer loop
      vertex -0.470556 1.31892 1.35
      vertex -0.48546 1.33184 0.45
      vertex -0.470556 1.31892 0.45
    endloop
  endfacet
  facet normal -0.959485 0.28176 0
    outer loop
      vertex -0.470556 1.28108 0.45
      vertex -0.465 1.3 1.35
      vertex -0.465 1.3 0.45
    endloop
  endfacet
  facet normal -0.959485 0.28176 0
    outer loop
      vertex -0.465 1.3 1.35
      vertex -0.470556 1.28108 0.45
      vertex -0.470556 1.28108 1.35
    endloop
  endfacet
  facet normal 0.841248 0.54065 0
    outer loop
      vertex -0.52292 1.27355 1.35
      vertex -0.533582 1.29014 0.45
      vertex -0.533582 1.29014 1.35
    endloop
  endfacet
  facet normal 0.841248 0.54065 0
    outer loop
      vertex -0.533582 1.29014 0.45
      vertex -0.52292 1.27355 1.35
      vertex -0.52292 1.27355 0.45
    endloop
  endfacet
  facet normal -0.655023 0.755609 0
    outer loop
      vertex -0.470556 1.28108 0.45
      vertex -0.48546 1.26816 1.35
      vertex -0.470556 1.28108 1.35
    endloop
  endfacet
  facet normal -0.655023 0.755609 0
    outer loop
      vertex -0.48546 1.26816 1.35
      vertex -0.470556 1.28108 0.45
      vertex -0.48546 1.26816 0.45
    endloop
  endfacet
  facet normal 0.415312 0.909679 -0
    outer loop
      vertex -0.504981 1.26536 0.45
      vertex -0.52292 1.27355 1.35
      vertex -0.504981 1.26536 1.35
    endloop
  endfacet
  facet normal 0.415312 0.909679 0
    outer loop
      vertex -0.52292 1.27355 1.35
      vertex -0.504981 1.26536 0.45
      vertex -0.52292 1.27355 0.45
    endloop
  endfacet
endsolid OpenSCAD_Model
