solid OpenSCAD_Model
  facet normal 0 -0.499996 -0.866028
    outer loop
      vertex -0.44 -0.158702 0.0815654
      vertex 0.44 -0.116153 0.057
      vertex 0.44 -0.158702 0.0815654
    endloop
  endfacet
  facet normal -0 -0.499996 -0.866028
    outer loop
      vertex 0.44 -0.116153 0.057
      vertex -0.44 -0.158702 0.0815654
      vertex -0.44 -0.116153 0.057
    endloop
  endfacet
  facet normal 0 0.669117 -0.743157
    outer loop
      vertex -0.44 0.158702 0.0815654
      vertex 0.44 0.161406 0.084
      vertex 0.44 0.158702 0.0815654
    endloop
  endfacet
  facet normal 0 0.669117 -0.743157
    outer loop
      vertex 0.44 0.161406 0.084
      vertex -0.44 0.158702 0.0815654
      vertex -0.44 0.161406 0.084
    endloop
  endfacet
  facet normal -1 0 0
    outer loop
      vertex -0.44 0.116153 0.057
      vertex -0.44 0.161406 0.084
      vertex -0.44 0.158702 0.0815654
    endloop
  endfacet
  facet normal -1 0 0
    outer loop
      vertex -0.44 -0.116153 0.057
      vertex -0.44 0.161406 0.084
      vertex -0.44 0.116153 0.057
    endloop
  endfacet
  facet normal -1 0 0
    outer loop
      vertex -0.44 -0.161406 0.084
      vertex -0.44 -0.116153 0.057
      vertex -0.44 -0.158702 0.0815654
    endloop
  endfacet
  facet normal -1 0 0
    outer loop
      vertex -0.44 -0.116153 0.057
      vertex -0.44 -0.161406 0.084
      vertex -0.44 0.161406 0.084
    endloop
  endfacet
  facet normal 0 0.499996 -0.866028
    outer loop
      vertex -0.44 0.116153 0.057
      vertex 0.44 0.158702 0.0815654
      vertex 0.44 0.116153 0.057
    endloop
  endfacet
  facet normal 0 0.499996 -0.866028
    outer loop
      vertex 0.44 0.158702 0.0815654
      vertex -0.44 0.116153 0.057
      vertex -0.44 0.158702 0.0815654
    endloop
  endfacet
  facet normal 0 -0.669117 -0.743157
    outer loop
      vertex -0.44 -0.161406 0.084
      vertex 0.44 -0.158702 0.0815654
      vertex 0.44 -0.161406 0.084
    endloop
  endfacet
  facet normal -0 -0.669117 -0.743157
    outer loop
      vertex 0.44 -0.158702 0.0815654
      vertex -0.44 -0.161406 0.084
      vertex -0.44 -0.158702 0.0815654
    endloop
  endfacet
  facet normal 1 0 0
    outer loop
      vertex 0.44 0.161406 0.084
      vertex 0.44 0.116153 0.057
      vertex 0.44 0.158702 0.0815654
    endloop
  endfacet
  facet normal 1 0 0
    outer loop
      vertex 0.44 0.161406 0.084
      vertex 0.44 -0.116153 0.057
      vertex 0.44 0.116153 0.057
    endloop
  endfacet
  facet normal 1 -0 0
    outer loop
      vertex 0.44 -0.161406 0.084
      vertex 0.44 -0.116153 0.057
      vertex 0.44 0.161406 0.084
    endloop
  endfacet
  facet normal 1 0 0
    outer loop
      vertex 0.44 -0.116153 0.057
      vertex 0.44 -0.161406 0.084
      vertex 0.44 -0.158702 0.0815654
    endloop
  endfacet
  facet normal -0 0 1
    outer loop
      vertex -0.44 0.161406 0.084
      vertex 0.44 -0.161406 0.084
      vertex 0.44 0.161406 0.084
    endloop
  endfacet
  facet normal 0 0 1
    outer loop
      vertex 0.44 -0.161406 0.084
      vertex -0.44 0.161406 0.084
      vertex -0.44 -0.161406 0.084
    endloop
  endfacet
  facet normal 0 0 -1
    outer loop
      vertex -0.44 -0.116153 0.057
      vertex 0.44 0.116153 0.057
      vertex 0.44 -0.116153 0.057
    endloop
  endfacet
  facet normal -0 0 -1
    outer loop
      vertex 0.44 0.116153 0.057
      vertex -0.44 -0.116153 0.057
      vertex -0.44 0.116153 0.057
    endloop
  endfacet
endsolid OpenSCAD_Model
