solid OpenSCAD_Model
  facet normal 0 0.913548 -0.406732
    outer loop
      vertex 0.44 0.233827 0.165
      vertex -0.44 0.245848 0.192
      vertex 0.44 0.245848 0.192
    endloop
  endfacet
  facet normal 0 0.913548 -0.406732
    outer loop
      vertex -0.44 0.245848 0.192
      vertex 0.44 0.233827 0.165
      vertex -0.44 0.233827 0.165
    endloop
  endfacet
  facet normal -1 0 0
    outer loop
      vertex -0.44 -0.233827 0.165
      vertex -0.44 0.245848 0.192
      vertex -0.44 0.233827 0.165
    endloop
  endfacet
  facet normal -1 -0 0
    outer loop
      vertex -0.44 0.245848 0.192
      vertex -0.44 -0.233827 0.165
      vertex -0.44 -0.245848 0.192
    endloop
  endfacet
  facet normal 1 0 0
    outer loop
      vertex 0.44 0.245848 0.192
      vertex 0.44 -0.233827 0.165
      vertex 0.44 0.233827 0.165
    endloop
  endfacet
  facet normal 1 0 -0
    outer loop
      vertex 0.44 -0.233827 0.165
      vertex 0.44 0.245848 0.192
      vertex 0.44 -0.245848 0.192
    endloop
  endfacet
  facet normal 0 -0.913548 -0.406732
    outer loop
      vertex -0.44 -0.233827 0.165
      vertex 0.44 -0.245848 0.192
      vertex -0.44 -0.245848 0.192
    endloop
  endfacet
  facet normal 0 -0.913548 -0.406732
    outer loop
      vertex 0.44 -0.245848 0.192
      vertex -0.44 -0.233827 0.165
      vertex 0.44 -0.233827 0.165
    endloop
  endfacet
  facet normal -0 0 1
    outer loop
      vertex -0.44 0.245848 0.192
      vertex 0.44 -0.245848 0.192
      vertex 0.44 0.245848 0.192
    endloop
  endfacet
  facet normal 0 0 1
    outer loop
      vertex 0.44 -0.245848 0.192
      vertex -0.44 0.245848 0.192
      vertex -0.44 -0.245848 0.192
    endloop
  endfacet
  facet normal 0 0 -1
    outer loop
      vertex -0.44 -0.233827 0.165
      vertex 0.44 0.233827 0.165
      vertex 0.44 -0.233827 0.165
    endloop
  endfacet
  facet normal -0 0 -1
    outer loop
      vertex 0.44 0.233827 0.165
      vertex -0.44 -0.233827 0.165
      vertex -0.44 0.233827 0.165
    endloop
  endfacet
endsolid OpenSCAD_Model
