solid OpenSCAD_Model
  facet normal 0 -1 0
    outer loop
      vertex -0.44 -0.268521 0.327
      vertex 0.44 -0.268521 0.328223
      vertex -0.44 -0.268521 0.328223
    endloop
  endfacet
  facet normal 0 -1 -0
    outer loop
      vertex 0.44 -0.268521 0.328223
      vertex -0.44 -0.268521 0.327
      vertex 0.44 -0.268521 0.327
    endloop
  endfacet
  facet normal 0 0.978148 0.207909
    outer loop
      vertex 0.44 0.268521 0.328223
      vertex -0.44 0.263042 0.354
      vertex 0.44 0.263042 0.354
    endloop
  endfacet
  facet normal 0 0.978148 0.207909
    outer loop
      vertex -0.44 0.263042 0.354
      vertex 0.44 0.268521 0.328223
      vertex -0.44 0.268521 0.328223
    endloop
  endfacet
  facet normal -1 0 0
    outer loop
      vertex -0.44 0.268521 0.327
      vertex -0.44 0.263042 0.354
      vertex -0.44 0.268521 0.328223
    endloop
  endfacet
  facet normal -1 0 0
    outer loop
      vertex -0.44 0.268521 0.327
      vertex -0.44 -0.263042 0.354
      vertex -0.44 0.263042 0.354
    endloop
  endfacet
  facet normal -1 0 0
    outer loop
      vertex -0.44 -0.268521 0.327
      vertex -0.44 -0.263042 0.354
      vertex -0.44 0.268521 0.327
    endloop
  endfacet
  facet normal -1 0 0
    outer loop
      vertex -0.44 -0.263042 0.354
      vertex -0.44 -0.268521 0.327
      vertex -0.44 -0.268521 0.328223
    endloop
  endfacet
  facet normal 0 1 -0
    outer loop
      vertex 0.44 0.268521 0.327
      vertex -0.44 0.268521 0.328223
      vertex 0.44 0.268521 0.328223
    endloop
  endfacet
  facet normal 0 1 0
    outer loop
      vertex -0.44 0.268521 0.328223
      vertex 0.44 0.268521 0.327
      vertex -0.44 0.268521 0.327
    endloop
  endfacet
  facet normal 1 0 0
    outer loop
      vertex 0.44 0.263042 0.354
      vertex 0.44 0.268521 0.327
      vertex 0.44 0.268521 0.328223
    endloop
  endfacet
  facet normal 1 -0 0
    outer loop
      vertex 0.44 -0.263042 0.354
      vertex 0.44 0.268521 0.327
      vertex 0.44 0.263042 0.354
    endloop
  endfacet
  facet normal 1 0 0
    outer loop
      vertex 0.44 -0.268521 0.327
      vertex 0.44 -0.263042 0.354
      vertex 0.44 -0.268521 0.328223
    endloop
  endfacet
  facet normal 1 0 0
    outer loop
      vertex 0.44 -0.263042 0.354
      vertex 0.44 -0.268521 0.327
      vertex 0.44 0.268521 0.327
    endloop
  endfacet
  facet normal 0 -0.978148 0.207909
    outer loop
      vertex -0.44 -0.268521 0.328223
      vertex 0.44 -0.263042 0.354
      vertex -0.44 -0.263042 0.354
    endloop
  endfacet
  facet normal 0 -0.978148 0.207909
    outer loop
      vertex 0.44 -0.263042 0.354
      vertex -0.44 -0.268521 0.328223
      vertex 0.44 -0.268521 0.328223
    endloop
  endfacet
  facet normal -0 0 1
    outer loop
      vertex -0.44 0.263042 0.354
      vertex 0.44 -0.263042 0.354
      vertex 0.44 0.263042 0.354
    endloop
  endfacet
  facet normal 0 0 1
    outer loop
      vertex 0.44 -0.263042 0.354
      vertex -0.44 0.263042 0.354
      vertex -0.44 -0.263042 0.354
    endloop
  endfacet
  facet normal 0 0 -1
    outer loop
      vertex -0.44 -0.268521 0.327
      vertex 0.44 0.268521 0.327
      vertex 0.44 -0.268521 0.327
    endloop
  endfacet
  facet normal -0 0 -1
    outer loop
      vertex 0.44 0.268521 0.327
      vertex -0.44 -0.268521 0.327
      vertex -0.44 0.268521 0.327
    endloop
  endfacet
endsolid OpenSCAD_Model
