solid OpenSCAD_Model
  facet normal 0.959485 0.28176 0
    outer loop
      vertex -0.465 1.3 1.17
      vertex -0.470556 1.31892 1.08
      vertex -0.470556 1.31892 1.17
    endloop
  endfacet
  facet normal 0.959485 0.28176 0
    outer loop
      vertex -0.470556 1.31892 1.08
      vertex -0.465 1.3 1.17
      vertex -0.465 1.3 1.08
    endloop
  endfacet
  facet normal 0.655023 0.755609 -0
    outer loop
      vertex -0.470556 1.31892 1.08
      vertex -0.48546 1.33184 1.17
      vertex -0.470556 1.31892 1.17
    endloop
  endfacet
  facet normal 0.655023 0.755609 0
    outer loop
      vertex -0.48546 1.33184 1.17
      vertex -0.470556 1.31892 1.08
      vertex -0.48546 1.33184 1.08
    endloop
  endfacet
  facet normal 0.141982 0.989869 -0
    outer loop
      vertex -0.48546 1.33184 1.08
      vertex -0.504981 1.33464 1.17
      vertex -0.48546 1.33184 1.17
    endloop
  endfacet
  facet normal 0.141982 0.989869 0
    outer loop
      vertex -0.504981 1.33464 1.17
      vertex -0.48546 1.33184 1.08
      vertex -0.504981 1.33464 1.08
    endloop
  endfacet
  facet normal -0.415312 0.909679 0
    outer loop
      vertex -0.504981 1.33464 1.08
      vertex -0.52292 1.32645 1.17
      vertex -0.504981 1.33464 1.17
    endloop
  endfacet
  facet normal -0.415312 0.909679 0
    outer loop
      vertex -0.52292 1.32645 1.17
      vertex -0.504981 1.33464 1.08
      vertex -0.52292 1.32645 1.08
    endloop
  endfacet
  facet normal -0.841248 0.54065 0
    outer loop
      vertex -0.533582 1.30986 1.08
      vertex -0.52292 1.32645 1.17
      vertex -0.52292 1.32645 1.08
    endloop
  endfacet
  facet normal -0.841248 0.54065 0
    outer loop
      vertex -0.52292 1.32645 1.17
      vertex -0.533582 1.30986 1.08
      vertex -0.533582 1.30986 1.17
    endloop
  endfacet
  facet normal -1 0 0
    outer loop
      vertex -0.533582 1.29014 1.08
      vertex -0.533582 1.30986 1.17
      vertex -0.533582 1.30986 1.08
    endloop
  endfacet
  facet normal -1 -0 0
    outer loop
      vertex -0.533582 1.30986 1.17
      vertex -0.533582 1.29014 1.08
      vertex -0.533582 1.29014 1.17
    endloop
  endfacet
  facet normal -0.841248 -0.54065 0
    outer loop
      vertex -0.52292 1.27355 1.08
      vertex -0.533582 1.29014 1.17
      vertex -0.533582 1.29014 1.08
    endloop
  endfacet
  facet normal -0.841248 -0.54065 0
    outer loop
      vertex -0.533582 1.29014 1.17
      vertex -0.52292 1.27355 1.08
      vertex -0.52292 1.27355 1.17
    endloop
  endfacet
  facet normal -0.415312 -0.909679 0
    outer loop
      vertex -0.52292 1.27355 1.08
      vertex -0.504981 1.26536 1.17
      vertex -0.52292 1.27355 1.17
    endloop
  endfacet
  facet normal -0.415312 -0.909679 -0
    outer loop
      vertex -0.504981 1.26536 1.17
      vertex -0.52292 1.27355 1.08
      vertex -0.504981 1.26536 1.08
    endloop
  endfacet
  facet normal 0.141982 -0.989869 0
    outer loop
      vertex -0.504981 1.26536 1.08
      vertex -0.48546 1.26816 1.17
      vertex -0.504981 1.26536 1.17
    endloop
  endfacet
  facet normal 0.141982 -0.989869 0
    outer loop
      vertex -0.48546 1.26816 1.17
      vertex -0.504981 1.26536 1.08
      vertex -0.48546 1.26816 1.08
    endloop
  endfacet
  facet normal 0.655023 -0.755609 0
    outer loop
      vertex -0.48546 1.26816 1.08
      vertex -0.470556 1.28108 1.17
      vertex -0.48546 1.26816 1.17
    endloop
  endfacet
  facet normal 0.655023 -0.755609 0
    outer loop
      vertex -0.470556 1.28108 1.17
      vertex -0.48546 1.26816 1.08
      vertex -0.470556 1.28108 1.08
    endloop
  endfacet
  facet normal 0.959485 -0.28176 0
    outer loop
      vertex -0.470556 1.28108 1.17
      vertex -0.465 1.3 1.08
      vertex -0.465 1.3 1.17
    endloop
  endfacet
  facet normal 0.959485 -0.28176 0
    outer loop
      vertex -0.465 1.3 1.08
      vertex -0.470556 1.28108 1.17
      vertex -0.470556 1.28108 1.08
    endloop
  endfacet
  facet normal 0 0 -1
    outer loop
      vertex -0.470556 1.28108 1.08
      vertex -0.470556 1.31892 1.08
      vertex -0.465 1.3 1.08
    endloop
  endfacet
  facet normal 0 0 -1
    outer loop
      vertex -0.48546 1.26816 1.08
      vertex -0.470556 1.31892 1.08
      vertex -0.470556 1.28108 1.08
    endloop
  endfacet
  facet normal 0 0 -1
    outer loop
      vertex -0.48546 1.26816 1.08
      vertex -0.48546 1.33184 1.08
      vertex -0.470556 1.31892 1.08
    endloop
  endfacet
  facet normal 0 0 -1
    outer loop
      vertex -0.504981 1.26536 1.08
      vertex -0.48546 1.33184 1.08
      vertex -0.48546 1.26816 1.08
    endloop
  endfacet
  facet normal 0 0 -1
    outer loop
      vertex -0.504981 1.26536 1.08
      vertex -0.504981 1.33464 1.08
      vertex -0.48546 1.33184 1.08
    endloop
  endfacet
  facet normal 0 0 -1
    outer loop
      vertex -0.52292 1.27355 1.08
      vertex -0.504981 1.33464 1.08
      vertex -0.504981 1.26536 1.08
    endloop
  endfacet
  facet normal 0 0 -1
    outer loop
      vertex -0.52292 1.27355 1.08
      vertex -0.52292 1.32645 1.08
      vertex -0.504981 1.33464 1.08
    endloop
  endfacet
  facet normal 0 0 -1
    outer loop
      vertex -0.533582 1.29014 1.08
      vertex -0.52292 1.32645 1.08
      vertex -0.52292 1.27355 1.08
    endloop
  endfacet
  facet normal 0 0 -1
    outer loop
      vertex -0.52292 1.32645 1.08
      vertex -0.533582 1.29014 1.08
      vertex -0.533582 1.30986 1.08
    endloop
  endfacet
  facet normal 0 0 1
    outer loop
      vertex -0.470556 1.31892 1.17
      vertex -0.470556 1.28108 1.17
      vertex -0.465 1.3 1.17
    endloop
  endfacet
  facet normal 0 0 1
    outer loop
      vertex -0.48546 1.33184 1.17
      vertex -0.470556 1.28108 1.17
      vertex -0.470556 1.31892 1.17
    endloop
  endfacet
  facet normal 0 0 1
    outer loop
      vertex -0.48546 1.33184 1.17
      vertex -0.48546 1.26816 1.17
      vertex -0.470556 1.28108 1.17
    endloop
  endfacet
  facet normal 0 0 1
    outer loop
      vertex -0.504981 1.33464 1.17
      vertex -0.48546 1.26816 1.17
      vertex -0.48546 1.33184 1.17
    endloop
  endfacet
  facet normal 0 0 1
    outer loop
      vertex -0.504981 1.33464 1.17
      vertex -0.504981 1.26536 1.17
      vertex -0.48546 1.26816 1.17
    endloop
  endfacet
  facet normal -0 0 1
    outer loop
      vertex -0.52292 1.32645 1.17
      vertex -0.504981 1.26536 1.17
      vertex -0.504981 1.33464 1.17
    endloop
  endfacet
  facet normal 0 0 1
    outer loop
      vertex -0.52292 1.32645 1.17
      vertex -0.52292 1.27355 1.17
      vertex -0.504981 1.26536 1.17
    endloop
  endfacet
  facet normal -0 0 1
    outer loop
      vertex -0.533582 1.30986 1.17
      vertex -0.52292 1.27355 1.17
      vertex -0.52292 1.32645 1.17
    endloop
  endfacet
  facet normal 0 0 1
    outer loop
      vertex -0.52292 1.27355 1.17
      vertex -0.533582 1.30986 1.17
      vertex -0.533582 1.29014 1.17
    endloop
  endfacet
endsolid OpenSCAD_Model
