solid OpenSCAD_Model
  facet normal 0.959485 0.28176 0
    outer loop
      vertex -0.465 1.3 0.54
      vertex -0.470556 1.31892 0.45
      vertex -0.470556 1.31892 0.54
    endloop
  endfacet
  facet normal 0.959485 0.28176 0
    outer loop
      vertex -0.470556 1.31892 0.45
      vertex -0.465 1.3 0.54
      vertex -0.465 1.3 0.45
    endloop
  endfacet
  facet normal 0.655023 0.755609 -0
    outer loop
      vertex -0.470556 1.31892 0.45
      vertex -0.48546 1.33184 0.54
      vertex -0.470556 1.31892 0.54
    endloop
  endfacet
  facet normal 0.655023 0.755609 0
    outer loop
      vertex -0.48546 1.33184 0.54
      vertex -0.470556 1.31892 0.45
      vertex -0.48546 1.33184 0.45
    endloop
  endfacet
  facet normal 0.141982 0.989869 -0
    outer loop
      vertex -0.48546 1.33184 0.45
      vertex -0.504981 1.33464 0.54
      vertex -0.48546 1.33184 0.54
    endloop
  endfacet
  facet normal 0.141982 0.989869 0
    outer loop
      vertex -0.504981 1.33464 0.54
      vertex -0.48546 1.33184 0.45
      vertex -0.504981 1.33464 0.45
    endloop
  endfacet
  facet normal -0.415312 0.909679 0
    outer loop
      vertex -0.504981 1.33464 0.45
      vertex -0.52292 1.32645 0.54
      vertex -0.504981 1.33464 0.54
    endloop
  endfacet
  facet normal -0.415312 0.909679 0
    outer loop
      vertex -0.52292 1.32645 0.54
      vertex -0.504981 1.33464 0.45
      vertex -0.52292 1.32645 0.45
    endloop
  endfacet
  facet normal -0.841248 0.54065 0
    outer loop
      vertex -0.533582 1.30986 0.45
      vertex -0.52292 1.32645 0.54
      vertex -0.52292 1.32645 0.45
    endloop
  endfacet
  facet normal -0.841248 0.54065 0
    outer loop
      vertex -0.52292 1.32645 0.54
      vertex -0.533582 1.30986 0.45
      vertex -0.533582 1.30986 0.54
    endloop
  endfacet
  facet normal -1 0 0
    outer loop
      vertex -0.533582 1.29014 0.45
      vertex -0.533582 1.30986 0.54
      vertex -0.533582 1.30986 0.45
    endloop
  endfacet
  facet normal -1 -0 0
    outer loop
      vertex -0.533582 1.30986 0.54
      vertex -0.533582 1.29014 0.45
      vertex -0.533582 1.29014 0.54
    endloop
  endfacet
  facet normal -0.841248 -0.54065 0
    outer loop
      vertex -0.52292 1.27355 0.45
      vertex -0.533582 1.29014 0.54
      vertex -0.533582 1.29014 0.45
    endloop
  endfacet
  facet normal -0.841248 -0.54065 0
    outer loop
      vertex -0.533582 1.29014 0.54
      vertex -0.52292 1.27355 0.45
      vertex -0.52292 1.27355 0.54
    endloop
  endfacet
  facet normal -0.415312 -0.909679 0
    outer loop
      vertex -0.52292 1.27355 0.45
      vertex -0.504981 1.26536 0.54
      vertex -0.52292 1.27355 0.54
    endloop
  endfacet
  facet normal -0.415312 -0.909679 -0
    outer loop
      vertex -0.504981 1.26536 0.54
      vertex -0.52292 1.27355 0.45
      vertex -0.504981 1.26536 0.45
    endloop
  endfacet
  facet normal 0.141982 -0.989869 0
    outer loop
      vertex -0.504981 1.26536 0.45
      vertex -0.48546 1.26816 0.54
      vertex -0.504981 1.26536 0.54
    endloop
  endfacet
  facet normal 0.141982 -0.989869 0
    outer loop
      vertex -0.48546 1.26816 0.54
      vertex -0.504981 1.26536 0.45
      vertex -0.48546 1.26816 0.45
    endloop
  endfacet
  facet normal 0.655023 -0.755609 0
    outer loop
      vertex -0.48546 1.26816 0.45
      vertex -0.470556 1.28108 0.54
      vertex -0.48546 1.26816 0.54
    endloop
  endfacet
  facet normal 0.655023 -0.755609 0
    outer loop
      vertex -0.470556 1.28108 0.54
      vertex -0.48546 1.26816 0.45
      vertex -0.470556 1.28108 0.45
    endloop
  endfacet
  facet normal 0.959485 -0.28176 0
    outer loop
      vertex -0.470556 1.28108 0.54
      vertex -0.465 1.3 0.45
      vertex -0.465 1.3 0.54
    endloop
  endfacet
  facet normal 0.959485 -0.28176 0
    outer loop
      vertex -0.465 1.3 0.45
      vertex -0.470556 1.28108 0.54
      vertex -0.470556 1.28108 0.45
    endloop
  endfacet
  facet normal 0 0 -1
    outer loop
      vertex -0.470556 1.28108 0.45
      vertex -0.470556 1.31892 0.45
      vertex -0.465 1.3 0.45
    endloop
  endfacet
  facet normal 0 0 -1
    outer loop
      vertex -0.48546 1.26816 0.45
      vertex -0.470556 1.31892 0.45
      vertex -0.470556 1.28108 0.45
    endloop
  endfacet
  facet normal 0 0 -1
    outer loop
      vertex -0.48546 1.26816 0.45
      vertex -0.48546 1.33184 0.45
      vertex -0.470556 1.31892 0.45
    endloop
  endfacet
  facet normal 0 0 -1
    outer loop
      vertex -0.504981 1.26536 0.45
      vertex -0.48546 1.33184 0.45
      vertex -0.48546 1.26816 0.45
    endloop
  endfacet
  facet normal 0 0 -1
    outer loop
      vertex -0.504981 1.26536 0.45
      vertex -0.504981 1.33464 0.45
      vertex -0.48546 1.33184 0.45
    endloop
  endfacet
  facet normal 0 0 -1
    outer loop
      vertex -0.52292 1.27355 0.45
      vertex -0.504981 1.33464 0.45
      vertex -0.504981 1.26536 0.45
    endloop
  endfacet
  facet normal 0 0 -1
    outer loop
      vertex -0.52292 1.27355 0.45
      vertex -0.52292 1.32645 0.45
      vertex -0.504981 1.33464 0.45
    endloop
  endfacet
  facet normal 0 0 -1
    outer loop
      vertex -0.533582 1.29014 0.45
      vertex -0.52292 1.32645 0.45
      vertex -0.52292 1.27355 0.45
    endloop
  endfacet
  facet normal 0 0 -1
    outer loop
      vertex -0.52292 1.32645 0.45
      vertex -0.533582 1.29014 0.45
      vertex -0.533582 1.30986 0.45
    endloop
  endfacet
  facet normal 0 0 1
    outer loop
      vertex -0.470556 1.31892 0.54
      vertex -0.470556 1.28108 0.54
      vertex -0.465 1.3 0.54
    endloop
  endfacet
  facet normal 0 0 1
    outer loop
      vertex -0.48546 1.33184 0.54
      vertex -0.470556 1.28108 0.54
      vertex -0.470556 1.31892 0.54
    endloop
  endfacet
  facet normal 0 0 1
    outer loop
      vertex -0.48546 1.33184 0.54
      vertex -0.48546 1.26816 0.54
      vertex -0.470556 1.28108 0.54
    endloop
  endfacet
  facet normal 0 0 1
    outer loop
      vertex -0.504981 1.33464 0.54
      vertex -0.48546 1.26816 0.54
      vertex -0.48546 1.33184 0.54
    endloop
  endfacet
  facet normal 0 0 1
    outer loop
      vertex -0.504981 1.33464 0.54
      vertex -0.504981 1.26536 0.54
      vertex -0.48546 1.26816 0.54
    endloop
  endfacet
  facet normal -0 0 1
    outer loop
      vertex -0.52292 1.32645 0.54
      vertex -0.504981 1.26536 0.54
      vertex -0.504981 1.33464 0.54
    endloop
  endfacet
  facet normal 0 0 1
    outer loop
      vertex -0.52292 1.32645 0.54
      vertex -0.52292 1.27355 0.54
      vertex -0.504981 1.26536 0.54
    endloop
  endfacet
  facet normal -0 0 1
    outer loop
      vertex -0.533582 1.30986 0.54
      vertex -0.52292 1.27355 0.54
      vertex -0.52292 1.32645 0.54
    endloop
  endfacet
  facet normal 0 0 1
    outer loop
      vertex -0.52292 1.27355 0.54
      vertex -0.533582 1.30986 0.54
      vertex -0.533582 1.29014 0.54
    endloop
  endfacet
endsolid OpenSCAD_Model
