solid OpenSCAD_Model
  facet normal 0 0.913548 0.406732
    outer loop
      vertex 0.44 0.245848 0.408
      vertex -0.44 0.233827 0.435
      vertex 0.44 0.233827 0.435
    endloop
  endfacet
  facet normal 0 0.913548 0.406732
    outer loop
      vertex -0.44 0.233827 0.435
      vertex 0.44 0.245848 0.408
      vertex -0.44 0.245848 0.408
    endloop
  endfacet
  facet normal -1 0 0
    outer loop
      vertex -0.44 0.245848 0.408
      vertex -0.44 -0.233827 0.435
      vertex -0.44 0.233827 0.435
    endloop
  endfacet
  facet normal -1 0 -0
    outer loop
      vertex -0.44 -0.233827 0.435
      vertex -0.44 0.245848 0.408
      vertex -0.44 -0.245848 0.408
    endloop
  endfacet
  facet normal 1 -0 0
    outer loop
      vertex 0.44 -0.233827 0.435
      vertex 0.44 0.245848 0.408
      vertex 0.44 0.233827 0.435
    endloop
  endfacet
  facet normal 1 0 0
    outer loop
      vertex 0.44 0.245848 0.408
      vertex 0.44 -0.233827 0.435
      vertex 0.44 -0.245848 0.408
    endloop
  endfacet
  facet normal 0 -0.913548 0.406732
    outer loop
      vertex -0.44 -0.245848 0.408
      vertex 0.44 -0.233827 0.435
      vertex -0.44 -0.233827 0.435
    endloop
  endfacet
  facet normal 0 -0.913548 0.406732
    outer loop
      vertex 0.44 -0.233827 0.435
      vertex -0.44 -0.245848 0.408
      vertex 0.44 -0.245848 0.408
    endloop
  endfacet
  facet normal -0 0 1
    outer loop
      vertex -0.44 0.233827 0.435
      vertex 0.44 -0.233827 0.435
      vertex 0.44 0.233827 0.435
    endloop
  endfacet
  facet normal 0 0 1
    outer loop
      vertex 0.44 -0.233827 0.435
      vertex -0.44 0.233827 0.435
      vertex -0.44 -0.233827 0.435
    endloop
  endfacet
  facet normal 0 0 -1
    outer loop
      vertex -0.44 -0.245848 0.408
      vertex 0.44 0.245848 0.408
      vertex 0.44 -0.245848 0.408
    endloop
  endfacet
  facet normal -0 0 -1
    outer loop
      vertex 0.44 0.245848 0.408
      vertex -0.44 -0.245848 0.408
      vertex -0.44 0.245848 0.408
    endloop
  endfacet
endsolid OpenSCAD_Model
