solid OpenSCAD_Model
  facet normal 0 -1 0
    outer loop
      vertex -0.44 -0.268521 0.3
      vertex 0.44 -0.268521 0.327
      vertex -0.44 -0.268521 0.327
    endloop
  endfacet
  facet normal 0 -1 -0
    outer loop
      vertex 0.44 -0.268521 0.327
      vertex -0.44 -0.268521 0.3
      vertex 0.44 -0.268521 0.3
    endloop
  endfacet
  facet normal -1 0 0
    outer loop
      vertex -0.44 -0.268521 0.3
      vertex -0.44 0.268521 0.327
      vertex -0.44 0.268521 0.3
    endloop
  endfacet
  facet normal -1 -0 0
    outer loop
      vertex -0.44 0.268521 0.327
      vertex -0.44 -0.268521 0.3
      vertex -0.44 -0.268521 0.327
    endloop
  endfacet
  facet normal 0 1 -0
    outer loop
      vertex 0.44 0.268521 0.3
      vertex -0.44 0.268521 0.327
      vertex 0.44 0.268521 0.327
    endloop
  endfacet
  facet normal 0 1 0
    outer loop
      vertex -0.44 0.268521 0.327
      vertex 0.44 0.268521 0.3
      vertex -0.44 0.268521 0.3
    endloop
  endfacet
  facet normal 1 -0 0
    outer loop
      vertex 0.44 -0.268521 0.327
      vertex 0.44 0.268521 0.3
      vertex 0.44 0.268521 0.327
    endloop
  endfacet
  facet normal 1 0 0
    outer loop
      vertex 0.44 0.268521 0.3
      vertex 0.44 -0.268521 0.327
      vertex 0.44 -0.268521 0.3
    endloop
  endfacet
  facet normal -0 0 1
    outer loop
      vertex -0.44 0.268521 0.327
      vertex 0.44 -0.268521 0.327
      vertex 0.44 0.268521 0.327
    endloop
  endfacet
  facet normal 0 0 1
    outer loop
      vertex 0.44 -0.268521 0.327
      vertex -0.44 0.268521 0.327
      vertex -0.44 -0.268521 0.327
    endloop
  endfacet
  facet normal 0 0 -1
    outer loop
      vertex -0.44 -0.268521 0.3
      vertex 0.44 0.268521 0.3
      vertex 0.44 -0.268521 0.3
    endloop
  endfacet
  facet normal -0 0 -1
    outer loop
      vertex 0.44 0.268521 0.3
      vertex -0.44 -0.268521 0.3
      vertex -0.44 0.268521 0.3
    endloop
  endfacet
endsolid OpenSCAD_Model
