solid OpenSCAD_Model
  facet normal 0 0.809012 0.587792
    outer loop
      vertex 0.44 0.233827 0.435
      vertex -0.44 0.21421 0.462
      vertex 0.44 0.21421 0.462
    endloop
  endfacet
  facet normal 0 0.809012 0.587792
    outer loop
      vertex -0.44 0.21421 0.462
      vertex 0.44 0.233827 0.435
      vertex -0.44 0.233827 0.435
    endloop
  endfacet
  facet normal -1 0 0
    outer loop
      vertex -0.44 0.233827 0.435
      vertex -0.44 -0.21421 0.462
      vertex -0.44 0.21421 0.462
    endloop
  endfacet
  facet normal -1 0 -0
    outer loop
      vertex -0.44 -0.21421 0.462
      vertex -0.44 0.233827 0.435
      vertex -0.44 -0.233827 0.435
    endloop
  endfacet
  facet normal 1 -0 0
    outer loop
      vertex 0.44 -0.21421 0.462
      vertex 0.44 0.233827 0.435
      vertex 0.44 0.21421 0.462
    endloop
  endfacet
  facet normal 1 0 0
    outer loop
      vertex 0.44 0.233827 0.435
      vertex 0.44 -0.21421 0.462
      vertex 0.44 -0.233827 0.435
    endloop
  endfacet
  facet normal 0 -0.809012 0.587792
    outer loop
      vertex -0.44 -0.233827 0.435
      vertex 0.44 -0.21421 0.462
      vertex -0.44 -0.21421 0.462
    endloop
  endfacet
  facet normal 0 -0.809012 0.587792
    outer loop
      vertex 0.44 -0.21421 0.462
      vertex -0.44 -0.233827 0.435
      vertex 0.44 -0.233827 0.435
    endloop
  endfacet
  facet normal -0 0 1
    outer loop
      vertex -0.44 0.21421 0.462
      vertex 0.44 -0.21421 0.462
      vertex 0.44 0.21421 0.462
    endloop
  endfacet
  facet normal 0 0 1
    outer loop
      vertex 0.44 -0.21421 0.462
      vertex -0.44 0.21421 0.462
      vertex -0.44 -0.21421 0.462
    endloop
  endfacet
  facet normal 0 0 -1
    outer loop
      vertex -0.44 -0.233827 0.435
      vertex 0.44 0.233827 0.435
      vertex 0.44 -0.233827 0.435
    endloop
  endfacet
  facet normal -0 0 -1
    outer loop
      vertex 0.44 0.233827 0.435
      vertex -0.44 -0.233827 0.435
      vertex -0.44 0.233827 0.435
    endloop
  endfacet
endsolid OpenSCAD_Model
