solid OpenSCAD_Model
  facet normal -0 0.104526 0.994522
    outer loop
      vertex -0.44 0.0561361 1.2841
      vertex 0.44 0 1.29
      vertex 0.44 0.0561361 1.2841
    endloop
  endfacet
  facet normal 0 0.104526 0.994522
    outer loop
      vertex 0.44 0 1.29
      vertex -0.44 0.0561361 1.2841
      vertex -0.44 0 1.29
    endloop
  endfacet
  facet normal -0 0.500314 0.865844
    outer loop
      vertex -0.44 0.116153 1.263
      vertex 0.44 0.109819 1.26666
      vertex 0.44 0.116153 1.263
    endloop
  endfacet
  facet normal 0 0.500314 0.865844
    outer loop
      vertex 0.44 0.109819 1.26666
      vertex -0.44 0.116153 1.263
      vertex -0.44 0.109819 1.26666
    endloop
  endfacet
  facet normal -0 0.308975 0.95107
    outer loop
      vertex -0.44 0.109819 1.26666
      vertex 0.44 0.0561361 1.2841
      vertex 0.44 0.109819 1.26666
    endloop
  endfacet
  facet normal 0 0.308975 0.95107
    outer loop
      vertex 0.44 0.0561361 1.2841
      vertex -0.44 0.109819 1.26666
      vertex -0.44 0.0561361 1.2841
    endloop
  endfacet
  facet normal -1 0 0
    outer loop
      vertex -0.44 0.116153 1.263
      vertex -0.44 0.0561361 1.2841
      vertex -0.44 0.109819 1.26666
    endloop
  endfacet
  facet normal -1 0 0
    outer loop
      vertex -0.44 0.116153 1.263
      vertex -0.44 0 1.29
      vertex -0.44 0.0561361 1.2841
    endloop
  endfacet
  facet normal -1 0 0
    outer loop
      vertex -0.44 0.116153 1.263
      vertex -0.44 -0.0561361 1.2841
      vertex -0.44 0 1.29
    endloop
  endfacet
  facet normal -1 0 0
    outer loop
      vertex -0.44 -0.116153 1.263
      vertex -0.44 -0.0561361 1.2841
      vertex -0.44 0.116153 1.263
    endloop
  endfacet
  facet normal -1 0 0
    outer loop
      vertex -0.44 -0.0561361 1.2841
      vertex -0.44 -0.116153 1.263
      vertex -0.44 -0.109819 1.26666
    endloop
  endfacet
  facet normal 1 0 0
    outer loop
      vertex 0.44 0.0561361 1.2841
      vertex 0.44 0.116153 1.263
      vertex 0.44 0.109819 1.26666
    endloop
  endfacet
  facet normal 1 0 0
    outer loop
      vertex 0.44 0 1.29
      vertex 0.44 0.116153 1.263
      vertex 0.44 0.0561361 1.2841
    endloop
  endfacet
  facet normal 1 -0 0
    outer loop
      vertex 0.44 -0.0561361 1.2841
      vertex 0.44 0.116153 1.263
      vertex 0.44 0 1.29
    endloop
  endfacet
  facet normal 1 0 0
    outer loop
      vertex 0.44 -0.116153 1.263
      vertex 0.44 -0.0561361 1.2841
      vertex 0.44 -0.109819 1.26666
    endloop
  endfacet
  facet normal 1 0 0
    outer loop
      vertex 0.44 -0.0561361 1.2841
      vertex 0.44 -0.116153 1.263
      vertex 0.44 0.116153 1.263
    endloop
  endfacet
  facet normal 0 -0.500314 0.865844
    outer loop
      vertex -0.44 -0.109819 1.26666
      vertex 0.44 -0.116153 1.263
      vertex 0.44 -0.109819 1.26666
    endloop
  endfacet
  facet normal 0 -0.500314 0.865844
    outer loop
      vertex 0.44 -0.116153 1.263
      vertex -0.44 -0.109819 1.26666
      vertex -0.44 -0.116153 1.263
    endloop
  endfacet
  facet normal 0 -0.308975 0.95107
    outer loop
      vertex -0.44 -0.0561361 1.2841
      vertex 0.44 -0.109819 1.26666
      vertex 0.44 -0.0561361 1.2841
    endloop
  endfacet
  facet normal 0 -0.308975 0.95107
    outer loop
      vertex 0.44 -0.109819 1.26666
      vertex -0.44 -0.0561361 1.2841
      vertex -0.44 -0.109819 1.26666
    endloop
  endfacet
  facet normal 0 -0.104526 0.994522
    outer loop
      vertex -0.44 0 1.29
      vertex 0.44 -0.0561361 1.2841
      vertex 0.44 0 1.29
    endloop
  endfacet
  facet normal 0 -0.104526 0.994522
    outer loop
      vertex 0.44 -0.0561361 1.2841
      vertex -0.44 0 1.29
      vertex -0.44 -0.0561361 1.2841
    endloop
  endfacet
  facet normal 0 0 -1
    outer loop
      vertex -0.44 -0.116153 1.263
      vertex 0.44 0.116153 1.263
      vertex 0.44 -0.116153 1.263
    endloop
  endfacet
  facet normal -0 0 -1
    outer loop
      vertex 0.44 0.116153 1.263
      vertex -0.44 -0.116153 1.263
      vertex -0.44 0.116153 1.263
    endloop
  endfacet
endsolid OpenSCAD_Model
