solid OpenSCAD_Model
  facet normal 0 0.104526 -0.994522
    outer loop
      vertex -0.44 0 0.75
      vertex 0.44 0.0561361 0.7559
      vertex 0.44 0 0.75
    endloop
  endfacet
  facet normal 0 0.104526 -0.994522
    outer loop
      vertex 0.44 0.0561361 0.7559
      vertex -0.44 0 0.75
      vertex -0.44 0.0561361 0.7559
    endloop
  endfacet
  facet normal 0 -0.500007 -0.866022
    outer loop
      vertex -0.44 -0.116153 0.777
      vertex 0.44 -0.109819 0.773343
      vertex 0.44 -0.116153 0.777
    endloop
  endfacet
  facet normal -0 -0.500007 -0.866022
    outer loop
      vertex 0.44 -0.109819 0.773343
      vertex -0.44 -0.116153 0.777
      vertex -0.44 -0.109819 0.773343
    endloop
  endfacet
  facet normal 0 0.309023 -0.951055
    outer loop
      vertex -0.44 0.0561361 0.7559
      vertex 0.44 0.109819 0.773343
      vertex 0.44 0.0561361 0.7559
    endloop
  endfacet
  facet normal 0 0.309023 -0.951055
    outer loop
      vertex 0.44 0.109819 0.773343
      vertex -0.44 0.0561361 0.7559
      vertex -0.44 0.109819 0.773343
    endloop
  endfacet
  facet normal 0 -0.104526 -0.994522
    outer loop
      vertex -0.44 -0.0561361 0.7559
      vertex 0.44 0 0.75
      vertex 0.44 -0.0561361 0.7559
    endloop
  endfacet
  facet normal -0 -0.104526 -0.994522
    outer loop
      vertex 0.44 0 0.75
      vertex -0.44 -0.0561361 0.7559
      vertex -0.44 0 0.75
    endloop
  endfacet
  facet normal -1 0 0
    outer loop
      vertex -0.44 0.0561361 0.7559
      vertex -0.44 0.116153 0.777
      vertex -0.44 0.109819 0.773343
    endloop
  endfacet
  facet normal -1 0 0
    outer loop
      vertex -0.44 0 0.75
      vertex -0.44 0.116153 0.777
      vertex -0.44 0.0561361 0.7559
    endloop
  endfacet
  facet normal -1 0 0
    outer loop
      vertex -0.44 -0.0561361 0.7559
      vertex -0.44 0.116153 0.777
      vertex -0.44 0 0.75
    endloop
  endfacet
  facet normal -1 0 0
    outer loop
      vertex -0.44 -0.116153 0.777
      vertex -0.44 -0.0561361 0.7559
      vertex -0.44 -0.109819 0.773343
    endloop
  endfacet
  facet normal -1 0 0
    outer loop
      vertex -0.44 -0.0561361 0.7559
      vertex -0.44 -0.116153 0.777
      vertex -0.44 0.116153 0.777
    endloop
  endfacet
  facet normal 0 0.500007 -0.866022
    outer loop
      vertex -0.44 0.109819 0.773343
      vertex 0.44 0.116153 0.777
      vertex 0.44 0.109819 0.773343
    endloop
  endfacet
  facet normal 0 0.500007 -0.866022
    outer loop
      vertex 0.44 0.116153 0.777
      vertex -0.44 0.109819 0.773343
      vertex -0.44 0.116153 0.777
    endloop
  endfacet
  facet normal 0 -0.309023 -0.951055
    outer loop
      vertex -0.44 -0.109819 0.773343
      vertex 0.44 -0.0561361 0.7559
      vertex 0.44 -0.109819 0.773343
    endloop
  endfacet
  facet normal -0 -0.309023 -0.951055
    outer loop
      vertex 0.44 -0.0561361 0.7559
      vertex -0.44 -0.109819 0.773343
      vertex -0.44 -0.0561361 0.7559
    endloop
  endfacet
  facet normal 1 0 0
    outer loop
      vertex 0.44 0.116153 0.777
      vertex 0.44 0.0561361 0.7559
      vertex 0.44 0.109819 0.773343
    endloop
  endfacet
  facet normal 1 0 0
    outer loop
      vertex 0.44 0.116153 0.777
      vertex 0.44 0 0.75
      vertex 0.44 0.0561361 0.7559
    endloop
  endfacet
  facet normal 1 0 0
    outer loop
      vertex 0.44 0.116153 0.777
      vertex 0.44 -0.0561361 0.7559
      vertex 0.44 0 0.75
    endloop
  endfacet
  facet normal 1 -0 0
    outer loop
      vertex 0.44 -0.116153 0.777
      vertex 0.44 -0.0561361 0.7559
      vertex 0.44 0.116153 0.777
    endloop
  endfacet
  facet normal 1 0 0
    outer loop
      vertex 0.44 -0.0561361 0.7559
      vertex 0.44 -0.116153 0.777
      vertex 0.44 -0.109819 0.773343
    endloop
  endfacet
  facet normal -0 0 1
    outer loop
      vertex -0.44 0.116153 0.777
      vertex 0.44 -0.116153 0.777
      vertex 0.44 0.116153 0.777
    endloop
  endfacet
  facet normal 0 0 1
    outer loop
      vertex 0.44 -0.116153 0.777
      vertex -0.44 0.116153 0.777
      vertex -0.44 -0.116153 0.777
    endloop
  endfacet
endsolid OpenSCAD_Model
