solid OpenSCAD_Model
  facet normal 0 0.809012 0.587792
    outer loop
      vertex 0.44 0.233827 1.155
      vertex -0.44 0.21421 1.182
      vertex 0.44 0.21421 1.182
    endloop
  endfacet
  facet normal 0 0.809012 0.587792
    outer loop
      vertex -0.44 0.21421 1.182
      vertex 0.44 0.233827 1.155
      vertex -0.44 0.233827 1.155
    endloop
  endfacet
  facet normal -1 0 0
    outer loop
      vertex -0.44 0.233827 1.155
      vertex -0.44 -0.21421 1.182
      vertex -0.44 0.21421 1.182
    endloop
  endfacet
  facet normal -1 0 -0
    outer loop
      vertex -0.44 -0.21421 1.182
      vertex -0.44 0.233827 1.155
      vertex -0.44 -0.233827 1.155
    endloop
  endfacet
  facet normal 1 -0 0
    outer loop
      vertex 0.44 -0.21421 1.182
      vertex 0.44 0.233827 1.155
      vertex 0.44 0.21421 1.182
    endloop
  endfacet
  facet normal 1 0 0
    outer loop
      vertex 0.44 0.233827 1.155
      vertex 0.44 -0.21421 1.182
      vertex 0.44 -0.233827 1.155
    endloop
  endfacet
  facet normal 0 -0.809012 0.587792
    outer loop
      vertex -0.44 -0.233827 1.155
      vertex 0.44 -0.21421 1.182
      vertex -0.44 -0.21421 1.182
    endloop
  endfacet
  facet normal 0 -0.809012 0.587792
    outer loop
      vertex 0.44 -0.21421 1.182
      vertex -0.44 -0.233827 1.155
      vertex 0.44 -0.233827 1.155
    endloop
  endfacet
  facet normal -0 0 1
    outer loop
      vertex -0.44 0.21421 1.182
      vertex 0.44 -0.21421 1.182
      vertex 0.44 0.21421 1.182
    endloop
  endfacet
  facet normal 0 0 1
    outer loop
      vertex 0.44 -0.21421 1.182
      vertex -0.44 0.21421 1.182
      vertex -0.44 -0.21421 1.182
    endloop
  endfacet
  facet normal 0 0 -1
    outer loop
      vertex -0.44 -0.233827 1.155
      vertex 0.44 0.233827 1.155
      vertex 0.44 -0.233827 1.155
    endloop
  endfacet
  facet normal -0 0 -1
    outer loop
      vertex 0.44 0.233827 1.155
      vertex -0.44 -0.233827 1.155
      vertex -0.44 0.233827 1.155
    endloop
  endfacet
endsolid OpenSCAD_Model
