solid OpenSCAD_Model
  facet normal 0 0.669137 -0.743139
    outer loop
      vertex -0.44 0.161406 0.804
      vertex 0.44 0.191392 0.831
      vertex 0.44 0.161406 0.804
    endloop
  endfacet
  facet normal 0 0.669137 -0.743139
    outer loop
      vertex 0.44 0.191392 0.831
      vertex -0.44 0.161406 0.804
      vertex -0.44 0.191392 0.831
    endloop
  endfacet
  facet normal -1 0 0
    outer loop
      vertex -0.44 -0.161406 0.804
      vertex -0.44 0.191392 0.831
      vertex -0.44 0.161406 0.804
    endloop
  endfacet
  facet normal -1 -0 0
    outer loop
      vertex -0.44 0.191392 0.831
      vertex -0.44 -0.161406 0.804
      vertex -0.44 -0.191392 0.831
    endloop
  endfacet
  facet normal 0 -0.669137 -0.743139
    outer loop
      vertex -0.44 -0.191392 0.831
      vertex 0.44 -0.161406 0.804
      vertex 0.44 -0.191392 0.831
    endloop
  endfacet
  facet normal -0 -0.669137 -0.743139
    outer loop
      vertex 0.44 -0.161406 0.804
      vertex -0.44 -0.191392 0.831
      vertex -0.44 -0.161406 0.804
    endloop
  endfacet
  facet normal 1 0 0
    outer loop
      vertex 0.44 0.191392 0.831
      vertex 0.44 -0.161406 0.804
      vertex 0.44 0.161406 0.804
    endloop
  endfacet
  facet normal 1 0 -0
    outer loop
      vertex 0.44 -0.161406 0.804
      vertex 0.44 0.191392 0.831
      vertex 0.44 -0.191392 0.831
    endloop
  endfacet
  facet normal -0 0 1
    outer loop
      vertex -0.44 0.191392 0.831
      vertex 0.44 -0.191392 0.831
      vertex 0.44 0.191392 0.831
    endloop
  endfacet
  facet normal 0 0 1
    outer loop
      vertex 0.44 -0.191392 0.831
      vertex -0.44 0.191392 0.831
      vertex -0.44 -0.191392 0.831
    endloop
  endfacet
  facet normal 0 0 -1
    outer loop
      vertex -0.44 -0.161406 0.804
      vertex 0.44 0.161406 0.804
      vertex 0.44 -0.161406 0.804
    endloop
  endfacet
  facet normal -0 0 -1
    outer loop
      vertex 0.44 0.161406 0.804
      vertex -0.44 -0.161406 0.804
      vertex -0.44 0.161406 0.804
    endloop
  endfacet
endsolid OpenSCAD_Model
