solid OpenSCAD_Model
  facet normal 0 0.978148 -0.207911
    outer loop
      vertex 0.44 0.257303 0.939
      vertex -0.44 0.263042 0.966
      vertex 0.44 0.263042 0.966
    endloop
  endfacet
  facet normal 0 0.978148 -0.207911
    outer loop
      vertex -0.44 0.263042 0.966
      vertex 0.44 0.257303 0.939
      vertex -0.44 0.257303 0.939
    endloop
  endfacet
  facet normal 0 -0.978148 -0.207911
    outer loop
      vertex -0.44 -0.257303 0.939
      vertex 0.44 -0.263042 0.966
      vertex -0.44 -0.263042 0.966
    endloop
  endfacet
  facet normal 0 -0.978148 -0.207911
    outer loop
      vertex 0.44 -0.263042 0.966
      vertex -0.44 -0.257303 0.939
      vertex 0.44 -0.257303 0.939
    endloop
  endfacet
  facet normal -1 0 0
    outer loop
      vertex -0.44 -0.257303 0.939
      vertex -0.44 0.263042 0.966
      vertex -0.44 0.257303 0.939
    endloop
  endfacet
  facet normal -1 -0 0
    outer loop
      vertex -0.44 0.263042 0.966
      vertex -0.44 -0.257303 0.939
      vertex -0.44 -0.263042 0.966
    endloop
  endfacet
  facet normal 1 0 0
    outer loop
      vertex 0.44 0.263042 0.966
      vertex 0.44 -0.257303 0.939
      vertex 0.44 0.257303 0.939
    endloop
  endfacet
  facet normal 1 0 -0
    outer loop
      vertex 0.44 -0.257303 0.939
      vertex 0.44 0.263042 0.966
      vertex 0.44 -0.263042 0.966
    endloop
  endfacet
  facet normal -0 0 1
    outer loop
      vertex -0.44 0.263042 0.966
      vertex 0.44 -0.263042 0.966
      vertex 0.44 0.263042 0.966
    endloop
  endfacet
  facet normal 0 0 1
    outer loop
      vertex 0.44 -0.263042 0.966
      vertex -0.44 0.263042 0.966
      vertex -0.44 -0.263042 0.966
    endloop
  endfacet
  facet normal 0 0 -1
    outer loop
      vertex -0.44 -0.257303 0.939
      vertex 0.44 0.257303 0.939
      vertex 0.44 -0.257303 0.939
    endloop
  endfacet
  facet normal -0 0 -1
    outer loop
      vertex 0.44 0.257303 0.939
      vertex -0.44 -0.257303 0.939
      vertex -0.44 0.257303 0.939
    endloop
  endfacet
endsolid OpenSCAD_Model
