solid OpenSCAD_Model
  facet normal -0 0.669137 0.743139
    outer loop
      vertex -0.44 0.191392 1.209
      vertex 0.44 0.161406 1.236
      vertex 0.44 0.191392 1.209
    endloop
  endfacet
  facet normal 0 0.669137 0.743139
    outer loop
      vertex 0.44 0.161406 1.236
      vertex -0.44 0.191392 1.209
      vertex -0.44 0.161406 1.236
    endloop
  endfacet
  facet normal -1 0 0
    outer loop
      vertex -0.44 0.191392 1.209
      vertex -0.44 -0.161406 1.236
      vertex -0.44 0.161406 1.236
    endloop
  endfacet
  facet normal -1 0 -0
    outer loop
      vertex -0.44 -0.161406 1.236
      vertex -0.44 0.191392 1.209
      vertex -0.44 -0.191392 1.209
    endloop
  endfacet
  facet normal 1 -0 0
    outer loop
      vertex 0.44 -0.161406 1.236
      vertex 0.44 0.191392 1.209
      vertex 0.44 0.161406 1.236
    endloop
  endfacet
  facet normal 1 0 0
    outer loop
      vertex 0.44 0.191392 1.209
      vertex 0.44 -0.161406 1.236
      vertex 0.44 -0.191392 1.209
    endloop
  endfacet
  facet normal 0 -0.669137 0.743139
    outer loop
      vertex -0.44 -0.161406 1.236
      vertex 0.44 -0.191392 1.209
      vertex 0.44 -0.161406 1.236
    endloop
  endfacet
  facet normal 0 -0.669137 0.743139
    outer loop
      vertex 0.44 -0.191392 1.209
      vertex -0.44 -0.161406 1.236
      vertex -0.44 -0.191392 1.209
    endloop
  endfacet
  facet normal -0 0 1
    outer loop
      vertex -0.44 0.161406 1.236
      vertex 0.44 -0.161406 1.236
      vertex 0.44 0.161406 1.236
    endloop
  endfacet
  facet normal 0 0 1
    outer loop
      vertex 0.44 -0.161406 1.236
      vertex -0.44 0.161406 1.236
      vertex -0.44 -0.161406 1.236
    endloop
  endfacet
  facet normal 0 0 -1
    outer loop
      vertex -0.44 -0.191392 1.209
      vertex 0.44 0.191392 1.209
      vertex 0.44 -0.191392 1.209
    endloop
  endfacet
  facet normal -0 0 -1
    outer loop
      vertex 0.44 0.191392 1.209
      vertex -0.44 -0.191392 1.209
      vertex -0.44 0.191392 1.209
    endloop
  endfacet
endsolid OpenSCAD_Model
