solid OpenSCAD_Model
  facet normal 0 -1 0
    outer loop
      vertex -0.44 -0.268521 1.047
      vertex 0.44 -0.268521 1.04822
      vertex -0.44 -0.268521 1.04822
    endloop
  endfacet
  facet normal 0 -1 -0
    outer loop
      vertex 0.44 -0.268521 1.04822
      vertex -0.44 -0.268521 1.047
      vertex 0.44 -0.268521 1.047
    endloop
  endfacet
  facet normal 0 0.978153 0.207886
    outer loop
      vertex 0.44 0.268521 1.04822
      vertex -0.44 0.263042 1.074
      vertex 0.44 0.263042 1.074
    endloop
  endfacet
  facet normal 0 0.978153 0.207886
    outer loop
      vertex -0.44 0.263042 1.074
      vertex 0.44 0.268521 1.04822
      vertex -0.44 0.268521 1.04822
    endloop
  endfacet
  facet normal -1 0 0
    outer loop
      vertex -0.44 0.268521 1.047
      vertex -0.44 0.263042 1.074
      vertex -0.44 0.268521 1.04822
    endloop
  endfacet
  facet normal -1 0 0
    outer loop
      vertex -0.44 0.268521 1.047
      vertex -0.44 -0.263042 1.074
      vertex -0.44 0.263042 1.074
    endloop
  endfacet
  facet normal -1 0 0
    outer loop
      vertex -0.44 -0.268521 1.047
      vertex -0.44 -0.263042 1.074
      vertex -0.44 0.268521 1.047
    endloop
  endfacet
  facet normal -1 0 0
    outer loop
      vertex -0.44 -0.263042 1.074
      vertex -0.44 -0.268521 1.047
      vertex -0.44 -0.268521 1.04822
    endloop
  endfacet
  facet normal 0 1 -0
    outer loop
      vertex 0.44 0.268521 1.047
      vertex -0.44 0.268521 1.04822
      vertex 0.44 0.268521 1.04822
    endloop
  endfacet
  facet normal 0 1 0
    outer loop
      vertex -0.44 0.268521 1.04822
      vertex 0.44 0.268521 1.047
      vertex -0.44 0.268521 1.047
    endloop
  endfacet
  facet normal 1 0 0
    outer loop
      vertex 0.44 0.263042 1.074
      vertex 0.44 0.268521 1.047
      vertex 0.44 0.268521 1.04822
    endloop
  endfacet
  facet normal 1 -0 0
    outer loop
      vertex 0.44 -0.263042 1.074
      vertex 0.44 0.268521 1.047
      vertex 0.44 0.263042 1.074
    endloop
  endfacet
  facet normal 1 0 0
    outer loop
      vertex 0.44 -0.268521 1.047
      vertex 0.44 -0.263042 1.074
      vertex 0.44 -0.268521 1.04822
    endloop
  endfacet
  facet normal 1 0 0
    outer loop
      vertex 0.44 -0.263042 1.074
      vertex 0.44 -0.268521 1.047
      vertex 0.44 0.268521 1.047
    endloop
  endfacet
  facet normal 0 -0.978153 0.207886
    outer loop
      vertex -0.44 -0.268521 1.04822
      vertex 0.44 -0.263042 1.074
      vertex -0.44 -0.263042 1.074
    endloop
  endfacet
  facet normal 0 -0.978153 0.207886
    outer loop
      vertex 0.44 -0.263042 1.074
      vertex -0.44 -0.268521 1.04822
      vertex 0.44 -0.268521 1.04822
    endloop
  endfacet
  facet normal -0 0 1
    outer loop
      vertex -0.44 0.263042 1.074
      vertex 0.44 -0.263042 1.074
      vertex 0.44 0.263042 1.074
    endloop
  endfacet
  facet normal 0 0 1
    outer loop
      vertex 0.44 -0.263042 1.074
      vertex -0.44 0.263042 1.074
      vertex -0.44 -0.263042 1.074
    endloop
  endfacet
  facet normal 0 0 -1
    outer loop
      vertex -0.44 -0.268521 1.047
      vertex 0.44 0.268521 1.047
      vertex 0.44 -0.268521 1.047
    endloop
  endfacet
  facet normal -0 0 -1
    outer loop
      vertex 0.44 0.268521 1.047
      vertex -0.44 -0.268521 1.047
      vertex -0.44 0.268521 1.047
    endloop
  endfacet
endsolid OpenSCAD_Model
