solid OpenSCAD_Model
  facet normal 0 0.80909 0.587685
    outer loop
      vertex 0.44 0.21421 1.182
      vertex -0.44 0.200649 1.20067
      vertex 0.44 0.200649 1.20067
    endloop
  endfacet
  facet normal 0 0.80909 0.587685
    outer loop
      vertex -0.44 0.200649 1.20067
      vertex 0.44 0.21421 1.182
      vertex -0.44 0.21421 1.182
    endloop
  endfacet
  facet normal -0 0.668907 0.743346
    outer loop
      vertex -0.44 0.200649 1.20067
      vertex 0.44 0.191392 1.209
      vertex 0.44 0.200649 1.20067
    endloop
  endfacet
  facet normal 0 0.668907 0.743346
    outer loop
      vertex 0.44 0.191392 1.209
      vertex -0.44 0.200649 1.20067
      vertex -0.44 0.191392 1.209
    endloop
  endfacet
  facet normal -1 0 0
    outer loop
      vertex -0.44 0.21421 1.182
      vertex -0.44 0.191392 1.209
      vertex -0.44 0.200649 1.20067
    endloop
  endfacet
  facet normal -1 0 0
    outer loop
      vertex -0.44 0.21421 1.182
      vertex -0.44 -0.191392 1.209
      vertex -0.44 0.191392 1.209
    endloop
  endfacet
  facet normal -1 0 0
    outer loop
      vertex -0.44 -0.21421 1.182
      vertex -0.44 -0.191392 1.209
      vertex -0.44 0.21421 1.182
    endloop
  endfacet
  facet normal -1 0 0
    outer loop
      vertex -0.44 -0.191392 1.209
      vertex -0.44 -0.21421 1.182
      vertex -0.44 -0.200649 1.20067
    endloop
  endfacet
  facet normal 1 0 0
    outer loop
      vertex 0.44 0.191392 1.209
      vertex 0.44 0.21421 1.182
      vertex 0.44 0.200649 1.20067
    endloop
  endfacet
  facet normal 1 -0 0
    outer loop
      vertex 0.44 -0.191392 1.209
      vertex 0.44 0.21421 1.182
      vertex 0.44 0.191392 1.209
    endloop
  endfacet
  facet normal 1 0 0
    outer loop
      vertex 0.44 -0.21421 1.182
      vertex 0.44 -0.191392 1.209
      vertex 0.44 -0.200649 1.20067
    endloop
  endfacet
  facet normal 1 0 0
    outer loop
      vertex 0.44 -0.191392 1.209
      vertex 0.44 -0.21421 1.182
      vertex 0.44 0.21421 1.182
    endloop
  endfacet
  facet normal 0 -0.668907 0.743346
    outer loop
      vertex -0.44 -0.191392 1.209
      vertex 0.44 -0.200649 1.20067
      vertex 0.44 -0.191392 1.209
    endloop
  endfacet
  facet normal 0 -0.668907 0.743346
    outer loop
      vertex 0.44 -0.200649 1.20067
      vertex -0.44 -0.191392 1.209
      vertex -0.44 -0.200649 1.20067
    endloop
  endfacet
  facet normal 0 -0.80909 0.587685
    outer loop
      vertex -0.44 -0.21421 1.182
      vertex 0.44 -0.200649 1.20067
      vertex -0.44 -0.200649 1.20067
    endloop
  endfacet
  facet normal 0 -0.80909 0.587685
    outer loop
      vertex 0.44 -0.200649 1.20067
      vertex -0.44 -0.21421 1.182
      vertex 0.44 -0.21421 1.182
    endloop
  endfacet
  facet normal -0 0 1
    outer loop
      vertex -0.44 0.191392 1.209
      vertex 0.44 -0.191392 1.209
      vertex 0.44 0.191392 1.209
    endloop
  endfacet
  facet normal 0 0 1
    outer loop
      vertex 0.44 -0.191392 1.209
      vertex -0.44 0.191392 1.209
      vertex -0.44 -0.191392 1.209
    endloop
  endfacet
  facet normal 0 0 -1
    outer loop
      vertex -0.44 -0.21421 1.182
      vertex 0.44 0.21421 1.182
      vertex 0.44 -0.21421 1.182
    endloop
  endfacet
  facet normal -0 0 -1
    outer loop
      vertex 0.44 0.21421 1.182
      vertex -0.44 -0.21421 1.182
      vertex -0.44 0.21421 1.182
    endloop
  endfacet
endsolid OpenSCAD_Model
