solid OpenSCAD_Model
  facet normal 0 0.669129 -0.743146
    outer loop
      vertex -0.44 0.191392 0.831
      vertex 0.44 0.200649 0.839335
      vertex 0.44 0.191392 0.831
    endloop
  endfacet
  facet normal 0 0.669129 -0.743146
    outer loop
      vertex 0.44 0.200649 0.839335
      vertex -0.44 0.191392 0.831
      vertex -0.44 0.200649 0.839335
    endloop
  endfacet
  facet normal -1 0 0
    outer loop
      vertex -0.44 0.191392 0.831
      vertex -0.44 0.21421 0.858
      vertex -0.44 0.200649 0.839335
    endloop
  endfacet
  facet normal -1 0 0
    outer loop
      vertex -0.44 -0.191392 0.831
      vertex -0.44 0.21421 0.858
      vertex -0.44 0.191392 0.831
    endloop
  endfacet
  facet normal -1 0 0
    outer loop
      vertex -0.44 -0.21421 0.858
      vertex -0.44 -0.191392 0.831
      vertex -0.44 -0.200649 0.839335
    endloop
  endfacet
  facet normal -1 0 0
    outer loop
      vertex -0.44 -0.191392 0.831
      vertex -0.44 -0.21421 0.858
      vertex -0.44 0.21421 0.858
    endloop
  endfacet
  facet normal 0 0.809015 -0.587788
    outer loop
      vertex 0.44 0.200649 0.839335
      vertex -0.44 0.21421 0.858
      vertex 0.44 0.21421 0.858
    endloop
  endfacet
  facet normal 0 0.809015 -0.587788
    outer loop
      vertex -0.44 0.21421 0.858
      vertex 0.44 0.200649 0.839335
      vertex -0.44 0.200649 0.839335
    endloop
  endfacet
  facet normal 0 -0.809015 -0.587788
    outer loop
      vertex -0.44 -0.200649 0.839335
      vertex 0.44 -0.21421 0.858
      vertex -0.44 -0.21421 0.858
    endloop
  endfacet
  facet normal 0 -0.809015 -0.587788
    outer loop
      vertex 0.44 -0.21421 0.858
      vertex -0.44 -0.200649 0.839335
      vertex 0.44 -0.200649 0.839335
    endloop
  endfacet
  facet normal 0 -0.669129 -0.743146
    outer loop
      vertex -0.44 -0.200649 0.839335
      vertex 0.44 -0.191392 0.831
      vertex 0.44 -0.200649 0.839335
    endloop
  endfacet
  facet normal -0 -0.669129 -0.743146
    outer loop
      vertex 0.44 -0.191392 0.831
      vertex -0.44 -0.200649 0.839335
      vertex -0.44 -0.191392 0.831
    endloop
  endfacet
  facet normal 1 0 0
    outer loop
      vertex 0.44 0.21421 0.858
      vertex 0.44 0.191392 0.831
      vertex 0.44 0.200649 0.839335
    endloop
  endfacet
  facet normal 1 0 0
    outer loop
      vertex 0.44 0.21421 0.858
      vertex 0.44 -0.191392 0.831
      vertex 0.44 0.191392 0.831
    endloop
  endfacet
  facet normal 1 -0 0
    outer loop
      vertex 0.44 -0.21421 0.858
      vertex 0.44 -0.191392 0.831
      vertex 0.44 0.21421 0.858
    endloop
  endfacet
  facet normal 1 0 0
    outer loop
      vertex 0.44 -0.191392 0.831
      vertex 0.44 -0.21421 0.858
      vertex 0.44 -0.200649 0.839335
    endloop
  endfacet
  facet normal -0 0 1
    outer loop
      vertex -0.44 0.21421 0.858
      vertex 0.44 -0.21421 0.858
      vertex 0.44 0.21421 0.858
    endloop
  endfacet
  facet normal 0 0 1
    outer loop
      vertex 0.44 -0.21421 0.858
      vertex -0.44 0.21421 0.858
      vertex -0.44 -0.21421 0.858
    endloop
  endfacet
  facet normal 0 0 -1
    outer loop
      vertex -0.44 -0.191392 0.831
      vertex 0.44 0.191392 0.831
      vertex 0.44 -0.191392 0.831
    endloop
  endfacet
  facet normal -0 0 -1
    outer loop
      vertex 0.44 0.191392 0.831
      vertex -0.44 -0.191392 0.831
      vertex -0.44 0.191392 0.831
    endloop
  endfacet
endsolid OpenSCAD_Model
