solid OpenSCAD_Model
  facet normal 0.970939 0.239327 0
    outer loop
      vertex -0.46 -0.3 1.65
      vertex -0.464582 -0.281411 0.75
      vertex -0.464582 -0.281411 1.65
    endloop
  endfacet
  facet normal 0.970939 0.239327 0
    outer loop
      vertex -0.464582 -0.281411 0.75
      vertex -0.46 -0.3 1.65
      vertex -0.46 -0.3 0.75
    endloop
  endfacet
  facet normal -1 0 0
    outer loop
      vertex -0.538838 -0.309573 0.75
      vertex -0.538838 -0.290427 1.65
      vertex -0.538838 -0.290427 0.75
    endloop
  endfacet
  facet normal -1 -0 0
    outer loop
      vertex -0.538838 -0.290427 1.65
      vertex -0.538838 -0.309573 0.75
      vertex -0.538838 -0.309573 1.65
    endloop
  endfacet
  facet normal -0.120505 0.992713 0
    outer loop
      vertex -0.495179 -0.260292 0.75
      vertex -0.514184 -0.262599 1.65
      vertex -0.495179 -0.260292 1.65
    endloop
  endfacet
  facet normal -0.120505 0.992713 0
    outer loop
      vertex -0.514184 -0.262599 1.65
      vertex -0.495179 -0.260292 0.75
      vertex -0.514184 -0.262599 0.75
    endloop
  endfacet
  facet normal 0.748518 0.663115 0
    outer loop
      vertex -0.464582 -0.281411 1.65
      vertex -0.477277 -0.267081 0.75
      vertex -0.477277 -0.267081 1.65
    endloop
  endfacet
  facet normal 0.748518 0.663115 0
    outer loop
      vertex -0.477277 -0.267081 0.75
      vertex -0.464582 -0.281411 1.65
      vertex -0.464582 -0.281411 0.75
    endloop
  endfacet
  facet normal -0.56808 0.822974 0
    outer loop
      vertex -0.514184 -0.262599 0.75
      vertex -0.52994 -0.273475 1.65
      vertex -0.514184 -0.262599 1.65
    endloop
  endfacet
  facet normal -0.56808 0.822974 0
    outer loop
      vertex -0.52994 -0.273475 1.65
      vertex -0.514184 -0.262599 0.75
      vertex -0.52994 -0.273475 0.75
    endloop
  endfacet
  facet normal 0.35459 -0.935022 0
    outer loop
      vertex -0.495179 -0.339708 0.75
      vertex -0.477277 -0.332919 1.65
      vertex -0.495179 -0.339708 1.65
    endloop
  endfacet
  facet normal 0.35459 -0.935022 0
    outer loop
      vertex -0.477277 -0.332919 1.65
      vertex -0.495179 -0.339708 0.75
      vertex -0.477277 -0.332919 0.75
    endloop
  endfacet
  facet normal 0.35459 0.935022 -0
    outer loop
      vertex -0.477277 -0.267081 0.75
      vertex -0.495179 -0.260292 1.65
      vertex -0.477277 -0.267081 1.65
    endloop
  endfacet
  facet normal 0.35459 0.935022 0
    outer loop
      vertex -0.495179 -0.260292 1.65
      vertex -0.477277 -0.267081 0.75
      vertex -0.495179 -0.260292 0.75
    endloop
  endfacet
  facet normal -0.885437 0.46476 0
    outer loop
      vertex -0.538838 -0.290427 0.75
      vertex -0.52994 -0.273475 1.65
      vertex -0.52994 -0.273475 0.75
    endloop
  endfacet
  facet normal -0.885437 0.46476 0
    outer loop
      vertex -0.52994 -0.273475 1.65
      vertex -0.538838 -0.290427 0.75
      vertex -0.538838 -0.290427 1.65
    endloop
  endfacet
  facet normal 0 0 1
    outer loop
      vertex -0.465 -0.3 1.65
      vertex -0.46 -0.3 1.65
      vertex -0.464582 -0.281411 1.65
    endloop
  endfacet
  facet normal 0 0 1
    outer loop
      vertex -0.46 -0.3 1.65
      vertex -0.465 -0.3 1.65
      vertex -0.464582 -0.318589 1.65
    endloop
  endfacet
  facet normal 0 0 1
    outer loop
      vertex -0.464582 -0.281411 1.65
      vertex -0.470556 -0.281078 1.65
      vertex -0.465 -0.3 1.65
    endloop
  endfacet
  facet normal 0 0 1
    outer loop
      vertex -0.477277 -0.267081 1.65
      vertex -0.470556 -0.281078 1.65
      vertex -0.464582 -0.281411 1.65
    endloop
  endfacet
  facet normal 0 0 1
    outer loop
      vertex -0.477277 -0.267081 1.65
      vertex -0.48546 -0.268163 1.65
      vertex -0.470556 -0.281078 1.65
    endloop
  endfacet
  facet normal 0 0 1
    outer loop
      vertex -0.495179 -0.260292 1.65
      vertex -0.48546 -0.268163 1.65
      vertex -0.477277 -0.267081 1.65
    endloop
  endfacet
  facet normal 0 0 1
    outer loop
      vertex -0.495179 -0.260292 1.65
      vertex -0.504981 -0.265356 1.65
      vertex -0.48546 -0.268163 1.65
    endloop
  endfacet
  facet normal -0 0 1
    outer loop
      vertex -0.514184 -0.262599 1.65
      vertex -0.504981 -0.265356 1.65
      vertex -0.495179 -0.260292 1.65
    endloop
  endfacet
  facet normal 0 0 1
    outer loop
      vertex -0.514184 -0.262599 1.65
      vertex -0.52292 -0.273549 1.65
      vertex -0.504981 -0.265356 1.65
    endloop
  endfacet
  facet normal -0 0 1
    outer loop
      vertex -0.52994 -0.273475 1.65
      vertex -0.52292 -0.273549 1.65
      vertex -0.514184 -0.262599 1.65
    endloop
  endfacet
  facet normal 0 0 1
    outer loop
      vertex -0.52994 -0.273475 1.65
      vertex -0.533582 -0.290139 1.65
      vertex -0.52292 -0.273549 1.65
    endloop
  endfacet
  facet normal 0 0 1
    outer loop
      vertex -0.533582 -0.290139 1.65
      vertex -0.538838 -0.290427 1.65
      vertex -0.533582 -0.309861 1.65
    endloop
  endfacet
  facet normal 0 0 1
    outer loop
      vertex -0.538838 -0.290427 1.65
      vertex -0.533582 -0.290139 1.65
      vertex -0.52994 -0.273475 1.65
    endloop
  endfacet
  facet normal 0 0 1
    outer loop
      vertex -0.470556 -0.318922 1.65
      vertex -0.464582 -0.318589 1.65
      vertex -0.465 -0.3 1.65
    endloop
  endfacet
  facet normal -0 0 1
    outer loop
      vertex -0.470556 -0.318922 1.65
      vertex -0.477277 -0.332919 1.65
      vertex -0.464582 -0.318589 1.65
    endloop
  endfacet
  facet normal -0 0 1
    outer loop
      vertex -0.48546 -0.331837 1.65
      vertex -0.477277 -0.332919 1.65
      vertex -0.470556 -0.318922 1.65
    endloop
  endfacet
  facet normal 0 0 1
    outer loop
      vertex -0.48546 -0.331837 1.65
      vertex -0.495179 -0.339708 1.65
      vertex -0.477277 -0.332919 1.65
    endloop
  endfacet
  facet normal -0 0 1
    outer loop
      vertex -0.504981 -0.334644 1.65
      vertex -0.495179 -0.339708 1.65
      vertex -0.48546 -0.331837 1.65
    endloop
  endfacet
  facet normal 0 0 1
    outer loop
      vertex -0.504981 -0.334644 1.65
      vertex -0.514184 -0.337401 1.65
      vertex -0.495179 -0.339708 1.65
    endloop
  endfacet
  facet normal 0 0 1
    outer loop
      vertex -0.52292 -0.326451 1.65
      vertex -0.514184 -0.337401 1.65
      vertex -0.504981 -0.334644 1.65
    endloop
  endfacet
  facet normal 0 0 1
    outer loop
      vertex -0.52292 -0.326451 1.65
      vertex -0.52994 -0.326525 1.65
      vertex -0.514184 -0.337401 1.65
    endloop
  endfacet
  facet normal 0 0 1
    outer loop
      vertex -0.533582 -0.309861 1.65
      vertex -0.52994 -0.326525 1.65
      vertex -0.52292 -0.326451 1.65
    endloop
  endfacet
  facet normal -0 0 1
    outer loop
      vertex -0.538838 -0.309573 1.65
      vertex -0.533582 -0.309861 1.65
      vertex -0.538838 -0.290427 1.65
    endloop
  endfacet
  facet normal 0 0 1
    outer loop
      vertex -0.533582 -0.309861 1.65
      vertex -0.538838 -0.309573 1.65
      vertex -0.52994 -0.326525 1.65
    endloop
  endfacet
  facet normal 0.970939 -0.239327 0
    outer loop
      vertex -0.464582 -0.318589 1.65
      vertex -0.46 -0.3 0.75
      vertex -0.46 -0.3 1.65
    endloop
  endfacet
  facet normal 0.970939 -0.239327 0
    outer loop
      vertex -0.46 -0.3 0.75
      vertex -0.464582 -0.318589 1.65
      vertex -0.464582 -0.318589 0.75
    endloop
  endfacet
  facet normal 0.748518 -0.663115 0
    outer loop
      vertex -0.477277 -0.332919 1.65
      vertex -0.464582 -0.318589 0.75
      vertex -0.464582 -0.318589 1.65
    endloop
  endfacet
  facet normal 0.748518 -0.663115 0
    outer loop
      vertex -0.464582 -0.318589 0.75
      vertex -0.477277 -0.332919 1.65
      vertex -0.477277 -0.332919 0.75
    endloop
  endfacet
  facet normal 0 0 -1
    outer loop
      vertex -0.465 -0.3 0.75
      vertex -0.46 -0.3 0.75
      vertex -0.464582 -0.318589 0.75
    endloop
  endfacet
  facet normal 0 0 -1
    outer loop
      vertex -0.46 -0.3 0.75
      vertex -0.465 -0.3 0.75
      vertex -0.464582 -0.281411 0.75
    endloop
  endfacet
  facet normal -0 0 -1
    outer loop
      vertex -0.464582 -0.318589 0.75
      vertex -0.470556 -0.318922 0.75
      vertex -0.465 -0.3 0.75
    endloop
  endfacet
  facet normal 0 0 -1
    outer loop
      vertex -0.477277 -0.332919 0.75
      vertex -0.470556 -0.318922 0.75
      vertex -0.464582 -0.318589 0.75
    endloop
  endfacet
  facet normal 0 0 -1
    outer loop
      vertex -0.477277 -0.332919 0.75
      vertex -0.48546 -0.331837 0.75
      vertex -0.470556 -0.318922 0.75
    endloop
  endfacet
  facet normal 0 0 -1
    outer loop
      vertex -0.495179 -0.339708 0.75
      vertex -0.48546 -0.331837 0.75
      vertex -0.477277 -0.332919 0.75
    endloop
  endfacet
  facet normal 0 0 -1
    outer loop
      vertex -0.495179 -0.339708 0.75
      vertex -0.504981 -0.334644 0.75
      vertex -0.48546 -0.331837 0.75
    endloop
  endfacet
  facet normal 0 0 -1
    outer loop
      vertex -0.514184 -0.337401 0.75
      vertex -0.504981 -0.334644 0.75
      vertex -0.495179 -0.339708 0.75
    endloop
  endfacet
  facet normal 0 0 -1
    outer loop
      vertex -0.514184 -0.337401 0.75
      vertex -0.52292 -0.326451 0.75
      vertex -0.504981 -0.334644 0.75
    endloop
  endfacet
  facet normal 0 0 -1
    outer loop
      vertex -0.52994 -0.326525 0.75
      vertex -0.52292 -0.326451 0.75
      vertex -0.514184 -0.337401 0.75
    endloop
  endfacet
  facet normal 0 0 -1
    outer loop
      vertex -0.52994 -0.326525 0.75
      vertex -0.533582 -0.309861 0.75
      vertex -0.52292 -0.326451 0.75
    endloop
  endfacet
  facet normal 0 0 -1
    outer loop
      vertex -0.533582 -0.309861 0.75
      vertex -0.538838 -0.309573 0.75
      vertex -0.533582 -0.290139 0.75
    endloop
  endfacet
  facet normal 0 0 -1
    outer loop
      vertex -0.538838 -0.309573 0.75
      vertex -0.533582 -0.309861 0.75
      vertex -0.52994 -0.326525 0.75
    endloop
  endfacet
  facet normal 0 0 -1
    outer loop
      vertex -0.470556 -0.281078 0.75
      vertex -0.464582 -0.281411 0.75
      vertex -0.465 -0.3 0.75
    endloop
  endfacet
  facet normal 0 0 -1
    outer loop
      vertex -0.470556 -0.281078 0.75
      vertex -0.477277 -0.267081 0.75
      vertex -0.464582 -0.281411 0.75
    endloop
  endfacet
  facet normal 0 0 -1
    outer loop
      vertex -0.48546 -0.268163 0.75
      vertex -0.477277 -0.267081 0.75
      vertex -0.470556 -0.281078 0.75
    endloop
  endfacet
  facet normal 0 0 -1
    outer loop
      vertex -0.48546 -0.268163 0.75
      vertex -0.495179 -0.260292 0.75
      vertex -0.477277 -0.267081 0.75
    endloop
  endfacet
  facet normal 0 0 -1
    outer loop
      vertex -0.504981 -0.265356 0.75
      vertex -0.495179 -0.260292 0.75
      vertex -0.48546 -0.268163 0.75
    endloop
  endfacet
  facet normal 0 0 -1
    outer loop
      vertex -0.504981 -0.265356 0.75
      vertex -0.514184 -0.262599 0.75
      vertex -0.495179 -0.260292 0.75
    endloop
  endfacet
  facet normal 0 0 -1
    outer loop
      vertex -0.52292 -0.273549 0.75
      vertex -0.514184 -0.262599 0.75
      vertex -0.504981 -0.265356 0.75
    endloop
  endfacet
  facet normal 0 0 -1
    outer loop
      vertex -0.52292 -0.273549 0.75
      vertex -0.52994 -0.273475 0.75
      vertex -0.514184 -0.262599 0.75
    endloop
  endfacet
  facet normal 0 0 -1
    outer loop
      vertex -0.533582 -0.290139 0.75
      vertex -0.52994 -0.273475 0.75
      vertex -0.52292 -0.273549 0.75
    endloop
  endfacet
  facet normal 0 0 -1
    outer loop
      vertex -0.538838 -0.290427 0.75
      vertex -0.533582 -0.290139 0.75
      vertex -0.538838 -0.309573 0.75
    endloop
  endfacet
  facet normal -0 0 -1
    outer loop
      vertex -0.533582 -0.290139 0.75
      vertex -0.538838 -0.290427 0.75
      vertex -0.52994 -0.273475 0.75
    endloop
  endfacet
  facet normal -0.120505 -0.992713 0
    outer loop
      vertex -0.514184 -0.337401 0.75
      vertex -0.495179 -0.339708 1.65
      vertex -0.514184 -0.337401 1.65
    endloop
  endfacet
  facet normal -0.120505 -0.992713 -0
    outer loop
      vertex -0.495179 -0.339708 1.65
      vertex -0.514184 -0.337401 0.75
      vertex -0.495179 -0.339708 0.75
    endloop
  endfacet
  facet normal -0.56808 -0.822974 0
    outer loop
      vertex -0.52994 -0.326525 0.75
      vertex -0.514184 -0.337401 1.65
      vertex -0.52994 -0.326525 1.65
    endloop
  endfacet
  facet normal -0.56808 -0.822974 -0
    outer loop
      vertex -0.514184 -0.337401 1.65
      vertex -0.52994 -0.326525 0.75
      vertex -0.514184 -0.337401 0.75
    endloop
  endfacet
  facet normal -0.885437 -0.46476 0
    outer loop
      vertex -0.52994 -0.326525 0.75
      vertex -0.538838 -0.309573 1.65
      vertex -0.538838 -0.309573 0.75
    endloop
  endfacet
  facet normal -0.885437 -0.46476 0
    outer loop
      vertex -0.538838 -0.309573 1.65
      vertex -0.52994 -0.326525 0.75
      vertex -0.52994 -0.326525 1.65
    endloop
  endfacet
  facet normal -0.959493 -0.281733 0
    outer loop
      vertex -0.465 -0.3 0.75
      vertex -0.470556 -0.281078 1.65
      vertex -0.470556 -0.281078 0.75
    endloop
  endfacet
  facet normal -0.959493 -0.281733 0
    outer loop
      vertex -0.470556 -0.281078 1.65
      vertex -0.465 -0.3 0.75
      vertex -0.465 -0.3 1.65
    endloop
  endfacet
  facet normal 1 -0 0
    outer loop
      vertex -0.533582 -0.309861 1.65
      vertex -0.533582 -0.290139 0.75
      vertex -0.533582 -0.290139 1.65
    endloop
  endfacet
  facet normal 1 0 0
    outer loop
      vertex -0.533582 -0.290139 0.75
      vertex -0.533582 -0.309861 1.65
      vertex -0.533582 -0.309861 0.75
    endloop
  endfacet
  facet normal 0.415437 -0.909622 0
    outer loop
      vertex -0.52292 -0.273549 0.75
      vertex -0.504981 -0.265356 1.65
      vertex -0.52292 -0.273549 1.65
    endloop
  endfacet
  facet normal 0.415437 -0.909622 0
    outer loop
      vertex -0.504981 -0.265356 1.65
      vertex -0.52292 -0.273549 0.75
      vertex -0.504981 -0.265356 0.75
    endloop
  endfacet
  facet normal 0.841248 -0.54065 0
    outer loop
      vertex -0.533582 -0.290139 1.65
      vertex -0.52292 -0.273549 0.75
      vertex -0.52292 -0.273549 1.65
    endloop
  endfacet
  facet normal 0.841248 -0.54065 0
    outer loop
      vertex -0.52292 -0.273549 0.75
      vertex -0.533582 -0.290139 1.65
      vertex -0.533582 -0.290139 0.75
    endloop
  endfacet
  facet normal -0.14233 0.989819 0
    outer loop
      vertex -0.48546 -0.331837 0.75
      vertex -0.504981 -0.334644 1.65
      vertex -0.48546 -0.331837 1.65
    endloop
  endfacet
  facet normal -0.14233 0.989819 0
    outer loop
      vertex -0.504981 -0.334644 1.65
      vertex -0.48546 -0.331837 0.75
      vertex -0.504981 -0.334644 0.75
    endloop
  endfacet
  facet normal -0.654878 0.755734 0
    outer loop
      vertex -0.470556 -0.318922 0.75
      vertex -0.48546 -0.331837 1.65
      vertex -0.470556 -0.318922 1.65
    endloop
  endfacet
  facet normal -0.654878 0.755734 0
    outer loop
      vertex -0.48546 -0.331837 1.65
      vertex -0.470556 -0.318922 0.75
      vertex -0.48546 -0.331837 0.75
    endloop
  endfacet
  facet normal -0.14233 -0.989819 0
    outer loop
      vertex -0.504981 -0.265356 0.75
      vertex -0.48546 -0.268163 1.65
      vertex -0.504981 -0.265356 1.65
    endloop
  endfacet
  facet normal -0.14233 -0.989819 -0
    outer loop
      vertex -0.48546 -0.268163 1.65
      vertex -0.504981 -0.265356 0.75
      vertex -0.48546 -0.268163 0.75
    endloop
  endfacet
  facet normal -0.654878 -0.755734 0
    outer loop
      vertex -0.48546 -0.268163 0.75
      vertex -0.470556 -0.281078 1.65
      vertex -0.48546 -0.268163 1.65
    endloop
  endfacet
  facet normal -0.654878 -0.755734 -0
    outer loop
      vertex -0.470556 -0.281078 1.65
      vertex -0.48546 -0.268163 0.75
      vertex -0.470556 -0.281078 0.75
    endloop
  endfacet
  facet normal -0.959493 0.281733 0
    outer loop
      vertex -0.470556 -0.318922 0.75
      vertex -0.465 -0.3 1.65
      vertex -0.465 -0.3 0.75
    endloop
  endfacet
  facet normal -0.959493 0.281733 0
    outer loop
      vertex -0.465 -0.3 1.65
      vertex -0.470556 -0.318922 0.75
      vertex -0.470556 -0.318922 1.65
    endloop
  endfacet
  facet normal 0.415437 0.909622 -0
    outer loop
      vertex -0.504981 -0.334644 0.75
      vertex -0.52292 -0.326451 1.65
      vertex -0.504981 -0.334644 1.65
    endloop
  endfacet
  facet normal 0.415437 0.909622 0
    outer loop
      vertex -0.52292 -0.326451 1.65
      vertex -0.504981 -0.334644 0.75
      vertex -0.52292 -0.326451 0.75
    endloop
  endfacet
  facet normal 0.841248 0.54065 0
    outer loop
      vertex -0.52292 -0.326451 1.65
      vertex -0.533582 -0.309861 0.75
      vertex -0.533582 -0.309861 1.65
    endloop
  endfacet
  facet normal 0.841248 0.54065 0
    outer loop
      vertex -0.533582 -0.309861 0.75
      vertex -0.52292 -0.326451 1.65
      vertex -0.52292 -0.326451 0.75
    endloop
  endfacet
endsolid OpenSCAD_Model
