solid OpenSCAD_Model
  facet normal 0 -1 0
    outer loop
      vertex -0.44 -0.268521 1.02
      vertex 0.44 -0.268521 1.047
      vertex -0.44 -0.268521 1.047
    endloop
  endfacet
  facet normal 0 -1 -0
    outer loop
      vertex 0.44 -0.268521 1.047
      vertex -0.44 -0.268521 1.02
      vertex 0.44 -0.268521 1.02
    endloop
  endfacet
  facet normal -1 0 0
    outer loop
      vertex -0.44 -0.268521 1.02
      vertex -0.44 0.268521 1.047
      vertex -0.44 0.268521 1.02
    endloop
  endfacet
  facet normal -1 -0 0
    outer loop
      vertex -0.44 0.268521 1.047
      vertex -0.44 -0.268521 1.02
      vertex -0.44 -0.268521 1.047
    endloop
  endfacet
  facet normal 0 1 -0
    outer loop
      vertex 0.44 0.268521 1.02
      vertex -0.44 0.268521 1.047
      vertex 0.44 0.268521 1.047
    endloop
  endfacet
  facet normal 0 1 0
    outer loop
      vertex -0.44 0.268521 1.047
      vertex 0.44 0.268521 1.02
      vertex -0.44 0.268521 1.02
    endloop
  endfacet
  facet normal 1 -0 0
    outer loop
      vertex 0.44 -0.268521 1.047
      vertex 0.44 0.268521 1.02
      vertex 0.44 0.268521 1.047
    endloop
  endfacet
  facet normal 1 0 0
    outer loop
      vertex 0.44 0.268521 1.02
      vertex 0.44 -0.268521 1.047
      vertex 0.44 -0.268521 1.02
    endloop
  endfacet
  facet normal -0 0 1
    outer loop
      vertex -0.44 0.268521 1.047
      vertex 0.44 -0.268521 1.047
      vertex 0.44 0.268521 1.047
    endloop
  endfacet
  facet normal 0 0 1
    outer loop
      vertex 0.44 -0.268521 1.047
      vertex -0.44 0.268521 1.047
      vertex -0.44 -0.268521 1.047
    endloop
  endfacet
  facet normal 0 0 -1
    outer loop
      vertex -0.44 -0.268521 1.02
      vertex 0.44 0.268521 1.02
      vertex 0.44 -0.268521 1.02
    endloop
  endfacet
  facet normal -0 0 -1
    outer loop
      vertex 0.44 0.268521 1.02
      vertex -0.44 -0.268521 1.02
      vertex -0.44 0.268521 1.02
    endloop
  endfacet
endsolid OpenSCAD_Model
