solid OpenSCAD_Model
  facet normal 0 0.978148 0.207911
    outer loop
      vertex 0.44 0.263042 1.074
      vertex -0.44 0.257303 1.101
      vertex 0.44 0.257303 1.101
    endloop
  endfacet
  facet normal 0 0.978148 0.207911
    outer loop
      vertex -0.44 0.257303 1.101
      vertex 0.44 0.263042 1.074
      vertex -0.44 0.263042 1.074
    endloop
  endfacet
  facet normal -1 0 0
    outer loop
      vertex -0.44 0.263042 1.074
      vertex -0.44 -0.257303 1.101
      vertex -0.44 0.257303 1.101
    endloop
  endfacet
  facet normal -1 0 -0
    outer loop
      vertex -0.44 -0.257303 1.101
      vertex -0.44 0.263042 1.074
      vertex -0.44 -0.263042 1.074
    endloop
  endfacet
  facet normal 1 -0 0
    outer loop
      vertex 0.44 -0.257303 1.101
      vertex 0.44 0.263042 1.074
      vertex 0.44 0.257303 1.101
    endloop
  endfacet
  facet normal 1 0 0
    outer loop
      vertex 0.44 0.263042 1.074
      vertex 0.44 -0.257303 1.101
      vertex 0.44 -0.263042 1.074
    endloop
  endfacet
  facet normal 0 -0.978148 0.207911
    outer loop
      vertex -0.44 -0.263042 1.074
      vertex 0.44 -0.257303 1.101
      vertex -0.44 -0.257303 1.101
    endloop
  endfacet
  facet normal 0 -0.978148 0.207911
    outer loop
      vertex 0.44 -0.257303 1.101
      vertex -0.44 -0.263042 1.074
      vertex 0.44 -0.263042 1.074
    endloop
  endfacet
  facet normal -0 0 1
    outer loop
      vertex -0.44 0.257303 1.101
      vertex 0.44 -0.257303 1.101
      vertex 0.44 0.257303 1.101
    endloop
  endfacet
  facet normal 0 0 1
    outer loop
      vertex 0.44 -0.257303 1.101
      vertex -0.44 0.257303 1.101
      vertex -0.44 -0.257303 1.101
    endloop
  endfacet
  facet normal 0 0 -1
    outer loop
      vertex -0.44 -0.263042 1.074
      vertex 0.44 0.263042 1.074
      vertex 0.44 -0.263042 1.074
    endloop
  endfacet
  facet normal -0 0 -1
    outer loop
      vertex 0.44 0.263042 1.074
      vertex -0.44 -0.263042 1.074
      vertex -0.44 0.263042 1.074
    endloop
  endfacet
endsolid OpenSCAD_Model
