solid OpenSCAD_Model
  facet normal -0 0 1
    outer loop
      vertex -0.45 0.3 1.05
      vertex -0.42 0 1.05
      vertex -0.42 0.3 1.05
    endloop
  endfacet
  facet normal 0 0 1
    outer loop
      vertex -0.42 0 1.05
      vertex -0.45 0.3 1.05
      vertex -0.45 0 1.05
    endloop
  endfacet
  facet normal 0 0 -1
    outer loop
      vertex -0.45 0 1
      vertex -0.42 0.3 1
      vertex -0.42 0 1
    endloop
  endfacet
  facet normal -0 0 -1
    outer loop
      vertex -0.42 0.3 1
      vertex -0.45 0 1
      vertex -0.45 0.3 1
    endloop
  endfacet
  facet normal 0 -1 0
    outer loop
      vertex -0.45 0 1
      vertex -0.42 0 1.05
      vertex -0.45 0 1.05
    endloop
  endfacet
  facet normal 0 -1 -0
    outer loop
      vertex -0.42 0 1.05
      vertex -0.45 0 1
      vertex -0.42 0 1
    endloop
  endfacet
  facet normal 1 -0 0
    outer loop
      vertex -0.42 0 1.05
      vertex -0.42 0.3 1
      vertex -0.42 0.3 1.05
    endloop
  endfacet
  facet normal 1 0 0
    outer loop
      vertex -0.42 0.3 1
      vertex -0.42 0 1.05
      vertex -0.42 0 1
    endloop
  endfacet
  facet normal 0 1 -0
    outer loop
      vertex -0.42 0.3 1
      vertex -0.45 0.3 1.05
      vertex -0.42 0.3 1.05
    endloop
  endfacet
  facet normal 0 1 0
    outer loop
      vertex -0.45 0.3 1.05
      vertex -0.42 0.3 1
      vertex -0.45 0.3 1
    endloop
  endfacet
  facet normal -1 0 0
    outer loop
      vertex -0.45 0 1
      vertex -0.45 0.3 1.05
      vertex -0.45 0.3 1
    endloop
  endfacet
  facet normal -1 -0 0
    outer loop
      vertex -0.45 0.3 1.05
      vertex -0.45 0 1
      vertex -0.45 0 1.05
    endloop
  endfacet
endsolid OpenSCAD_Model
