solid OpenSCAD_Model
  facet normal -0 0 1
    outer loop
      vertex -0.5 0.015 0.56
      vertex -0.35 -0.015 0.56
      vertex -0.35 0.015 0.56
    endloop
  endfacet
  facet normal 0 0 1
    outer loop
      vertex -0.35 -0.015 0.56
      vertex -0.5 0.015 0.56
      vertex -0.5 -0.015 0.56
    endloop
  endfacet
  facet normal 0 0 -1
    outer loop
      vertex -0.5 -0.015 0.53
      vertex -0.35 0.015 0.53
      vertex -0.35 -0.015 0.53
    endloop
  endfacet
  facet normal -0 0 -1
    outer loop
      vertex -0.35 0.015 0.53
      vertex -0.5 -0.015 0.53
      vertex -0.5 0.015 0.53
    endloop
  endfacet
  facet normal 0 -1 0
    outer loop
      vertex -0.5 -0.015 0.53
      vertex -0.35 -0.015 0.56
      vertex -0.5 -0.015 0.56
    endloop
  endfacet
  facet normal 0 -1 -0
    outer loop
      vertex -0.35 -0.015 0.56
      vertex -0.5 -0.015 0.53
      vertex -0.35 -0.015 0.53
    endloop
  endfacet
  facet normal 1 -0 0
    outer loop
      vertex -0.35 -0.015 0.56
      vertex -0.35 0.015 0.53
      vertex -0.35 0.015 0.56
    endloop
  endfacet
  facet normal 1 0 0
    outer loop
      vertex -0.35 0.015 0.53
      vertex -0.35 -0.015 0.56
      vertex -0.35 -0.015 0.53
    endloop
  endfacet
  facet normal 0 1 -0
    outer loop
      vertex -0.35 0.015 0.53
      vertex -0.5 0.015 0.56
      vertex -0.35 0.015 0.56
    endloop
  endfacet
  facet normal 0 1 0
    outer loop
      vertex -0.5 0.015 0.56
      vertex -0.35 0.015 0.53
      vertex -0.5 0.015 0.53
    endloop
  endfacet
  facet normal -1 0 0
    outer loop
      vertex -0.5 -0.015 0.53
      vertex -0.5 0.015 0.56
      vertex -0.5 0.015 0.53
    endloop
  endfacet
  facet normal -1 -0 0
    outer loop
      vertex -0.5 0.015 0.56
      vertex -0.5 -0.015 0.53
      vertex -0.5 -0.015 0.56
    endloop
  endfacet
endsolid OpenSCAD_Model
