solid OpenSCAD_Model
  facet normal 0.994522 0.10453 0
    outer loop
      vertex 0.19 0 0.46
      vertex 0.185848 0.0395032 0.42
      vertex 0.185848 0.0395032 0.46
    endloop
  endfacet
  facet normal 0.994522 0.10453 0
    outer loop
      vertex 0.185848 0.0395032 0.42
      vertex 0.19 0 0.46
      vertex 0.19 0 0.42
    endloop
  endfacet
  facet normal -0.994522 0.10453 0
    outer loop
      vertex -0.19 0 0.42
      vertex -0.185848 0.0395032 0.46
      vertex -0.185848 0.0395032 0.42
    endloop
  endfacet
  facet normal -0.994522 0.10453 0
    outer loop
      vertex -0.185848 0.0395032 0.46
      vertex -0.19 0 0.42
      vertex -0.19 0 0.46
    endloop
  endfacet
  facet normal 0 1 -0
    outer loop
      vertex 0.0198604 0.188959 0.42
      vertex -0.0198604 0.188959 0.46
      vertex 0.0198604 0.188959 0.46
    endloop
  endfacet
  facet normal 0 1 0
    outer loop
      vertex -0.0198604 0.188959 0.46
      vertex 0.0198604 0.188959 0.42
      vertex -0.0198604 0.188959 0.42
    endloop
  endfacet
  facet normal 0 -1 0
    outer loop
      vertex -0.0198604 -0.188959 0.42
      vertex 0.0198604 -0.188959 0.46
      vertex -0.0198604 -0.188959 0.46
    endloop
  endfacet
  facet normal 0 -1 -0
    outer loop
      vertex 0.0198604 -0.188959 0.46
      vertex -0.0198604 -0.188959 0.42
      vertex 0.0198604 -0.188959 0.42
    endloop
  endfacet
  facet normal 0.743158 0.669116 0
    outer loop
      vertex 0.153713 0.111679 0.46
      vertex 0.127135 0.141198 0.42
      vertex 0.127135 0.141198 0.46
    endloop
  endfacet
  facet normal 0.743158 0.669116 0
    outer loop
      vertex 0.127135 0.141198 0.42
      vertex 0.153713 0.111679 0.46
      vertex 0.153713 0.111679 0.42
    endloop
  endfacet
  facet normal -0.743158 0.669116 0
    outer loop
      vertex -0.153713 0.111679 0.42
      vertex -0.127135 0.141198 0.46
      vertex -0.127135 0.141198 0.42
    endloop
  endfacet
  facet normal -0.743158 0.669116 0
    outer loop
      vertex -0.127135 0.141198 0.46
      vertex -0.153713 0.111679 0.42
      vertex -0.153713 0.111679 0.46
    endloop
  endfacet
  facet normal -0.866018 0.500013 0
    outer loop
      vertex -0.173574 0.0772799 0.42
      vertex -0.153713 0.111679 0.46
      vertex -0.153713 0.111679 0.42
    endloop
  endfacet
  facet normal -0.866018 0.500013 0
    outer loop
      vertex -0.153713 0.111679 0.46
      vertex -0.173574 0.0772799 0.42
      vertex -0.173574 0.0772799 0.46
    endloop
  endfacet
  facet normal -0.406738 0.913545 0
    outer loop
      vertex -0.0587132 0.180701 0.42
      vertex -0.095 0.164545 0.46
      vertex -0.0587132 0.180701 0.46
    endloop
  endfacet
  facet normal -0.406738 0.913545 0
    outer loop
      vertex -0.095 0.164545 0.46
      vertex -0.0587132 0.180701 0.42
      vertex -0.095 0.164545 0.42
    endloop
  endfacet
  facet normal 0.951059 -0.309008 0
    outer loop
      vertex 0.173574 -0.0772799 0.46
      vertex 0.185848 -0.0395032 0.42
      vertex 0.185848 -0.0395032 0.46
    endloop
  endfacet
  facet normal 0.951059 -0.309008 0
    outer loop
      vertex 0.185848 -0.0395032 0.42
      vertex 0.173574 -0.0772799 0.46
      vertex 0.173574 -0.0772799 0.42
    endloop
  endfacet
  facet normal 0.866018 0.500013 0
    outer loop
      vertex 0.173574 0.0772799 0.46
      vertex 0.153713 0.111679 0.42
      vertex 0.153713 0.111679 0.46
    endloop
  endfacet
  facet normal 0.866018 0.500013 0
    outer loop
      vertex 0.153713 0.111679 0.42
      vertex 0.173574 0.0772799 0.46
      vertex 0.173574 0.0772799 0.42
    endloop
  endfacet
  facet normal 0.951059 0.309008 0
    outer loop
      vertex 0.185848 0.0395032 0.46
      vertex 0.173574 0.0772799 0.42
      vertex 0.173574 0.0772799 0.46
    endloop
  endfacet
  facet normal 0.951059 0.309008 0
    outer loop
      vertex 0.173574 0.0772799 0.42
      vertex 0.185848 0.0395032 0.46
      vertex 0.185848 0.0395032 0.42
    endloop
  endfacet
  facet normal 0.406738 0.913545 -0
    outer loop
      vertex 0.095 0.164545 0.42
      vertex 0.0587132 0.180701 0.46
      vertex 0.095 0.164545 0.46
    endloop
  endfacet
  facet normal 0.406738 0.913545 0
    outer loop
      vertex 0.0587132 0.180701 0.46
      vertex 0.095 0.164545 0.42
      vertex 0.0587132 0.180701 0.42
    endloop
  endfacet
  facet normal 0.207902 0.97815 -0
    outer loop
      vertex 0.0587132 0.180701 0.42
      vertex 0.0198604 0.188959 0.46
      vertex 0.0587132 0.180701 0.46
    endloop
  endfacet
  facet normal 0.207902 0.97815 0
    outer loop
      vertex 0.0198604 0.188959 0.46
      vertex 0.0587132 0.180701 0.42
      vertex 0.0198604 0.188959 0.42
    endloop
  endfacet
  facet normal 0.587778 0.809022 -0
    outer loop
      vertex 0.127135 0.141198 0.42
      vertex 0.095 0.164545 0.46
      vertex 0.127135 0.141198 0.46
    endloop
  endfacet
  facet normal 0.587778 0.809022 0
    outer loop
      vertex 0.095 0.164545 0.46
      vertex 0.127135 0.141198 0.42
      vertex 0.095 0.164545 0.42
    endloop
  endfacet
  facet normal -0.951059 0.309008 0
    outer loop
      vertex -0.185848 0.0395032 0.42
      vertex -0.173574 0.0772799 0.46
      vertex -0.173574 0.0772799 0.42
    endloop
  endfacet
  facet normal -0.951059 0.309008 0
    outer loop
      vertex -0.173574 0.0772799 0.46
      vertex -0.185848 0.0395032 0.42
      vertex -0.185848 0.0395032 0.46
    endloop
  endfacet
  facet normal 0 0 1
    outer loop
      vertex 0.15 0 0.46
      vertex 0.19 0 0.46
      vertex 0.185848 0.0395032 0.46
    endloop
  endfacet
  facet normal 0 0 1
    outer loop
      vertex 0.144889 0.0388228 0.46
      vertex 0.185848 0.0395032 0.46
      vertex 0.173574 0.0772799 0.46
    endloop
  endfacet
  facet normal 0 0 1
    outer loop
      vertex 0.19 0 0.46
      vertex 0.15 0 0.46
      vertex 0.185848 -0.0395032 0.46
    endloop
  endfacet
  facet normal 0 0 1
    outer loop
      vertex 0.129904 0.075 0.46
      vertex 0.173574 0.0772799 0.46
      vertex 0.153713 0.111679 0.46
    endloop
  endfacet
  facet normal -0 0 1
    outer loop
      vertex 0.144889 -0.0388228 0.46
      vertex 0.185848 -0.0395032 0.46
      vertex 0.15 0 0.46
    endloop
  endfacet
  facet normal 0 0 1
    outer loop
      vertex 0.185848 -0.0395032 0.46
      vertex 0.144889 -0.0388228 0.46
      vertex 0.173574 -0.0772799 0.46
    endloop
  endfacet
  facet normal 0 0 1
    outer loop
      vertex 0.185848 0.0395032 0.46
      vertex 0.144889 0.0388228 0.46
      vertex 0.15 0 0.46
    endloop
  endfacet
  facet normal 0 0 1
    outer loop
      vertex 0.173574 0.0772799 0.46
      vertex 0.129904 0.075 0.46
      vertex 0.144889 0.0388228 0.46
    endloop
  endfacet
  facet normal 0 0 1
    outer loop
      vertex 0.106066 0.106066 0.46
      vertex 0.153713 0.111679 0.46
      vertex 0.127135 0.141198 0.46
    endloop
  endfacet
  facet normal 0 0 1
    outer loop
      vertex 0.153713 0.111679 0.46
      vertex 0.106066 0.106066 0.46
      vertex 0.129904 0.075 0.46
    endloop
  endfacet
  facet normal 0 0 1
    outer loop
      vertex 0.075 0.129904 0.46
      vertex 0.127135 0.141198 0.46
      vertex 0.095 0.164545 0.46
    endloop
  endfacet
  facet normal 0 0 1
    outer loop
      vertex 0.127135 0.141198 0.46
      vertex 0.075 0.129904 0.46
      vertex 0.106066 0.106066 0.46
    endloop
  endfacet
  facet normal 0 0 1
    outer loop
      vertex 0.0587132 0.180701 0.46
      vertex 0.075 0.129904 0.46
      vertex 0.095 0.164545 0.46
    endloop
  endfacet
  facet normal 0 0 1
    outer loop
      vertex 0.0587132 0.180701 0.46
      vertex 0.0388228 0.144889 0.46
      vertex 0.075 0.129904 0.46
    endloop
  endfacet
  facet normal 0 0 1
    outer loop
      vertex 0.0198604 0.188959 0.46
      vertex 0.0388228 0.144889 0.46
      vertex 0.0587132 0.180701 0.46
    endloop
  endfacet
  facet normal 0 0 1
    outer loop
      vertex 0.0198604 0.188959 0.46
      vertex 0 0.15 0.46
      vertex 0.0388228 0.144889 0.46
    endloop
  endfacet
  facet normal -0 0 1
    outer loop
      vertex -0.0198604 0.188959 0.46
      vertex 0 0.15 0.46
      vertex 0.0198604 0.188959 0.46
    endloop
  endfacet
  facet normal 0 0 1
    outer loop
      vertex -0.0198604 0.188959 0.46
      vertex -0.0388228 0.144889 0.46
      vertex 0 0.15 0.46
    endloop
  endfacet
  facet normal -0 0 1
    outer loop
      vertex -0.0587132 0.180701 0.46
      vertex -0.0388228 0.144889 0.46
      vertex -0.0198604 0.188959 0.46
    endloop
  endfacet
  facet normal 0 0 1
    outer loop
      vertex -0.0587132 0.180701 0.46
      vertex -0.075 0.129904 0.46
      vertex -0.0388228 0.144889 0.46
    endloop
  endfacet
  facet normal -0 0 1
    outer loop
      vertex -0.095 0.164545 0.46
      vertex -0.075 0.129904 0.46
      vertex -0.0587132 0.180701 0.46
    endloop
  endfacet
  facet normal -0 0 1
    outer loop
      vertex -0.127135 0.141198 0.46
      vertex -0.075 0.129904 0.46
      vertex -0.095 0.164545 0.46
    endloop
  endfacet
  facet normal 0 0 1
    outer loop
      vertex -0.075 0.129904 0.46
      vertex -0.127135 0.141198 0.46
      vertex -0.106066 0.106066 0.46
    endloop
  endfacet
  facet normal -0 0 1
    outer loop
      vertex -0.153713 0.111679 0.46
      vertex -0.106066 0.106066 0.46
      vertex -0.127135 0.141198 0.46
    endloop
  endfacet
  facet normal 0 0 1
    outer loop
      vertex -0.106066 0.106066 0.46
      vertex -0.153713 0.111679 0.46
      vertex -0.129904 0.075 0.46
    endloop
  endfacet
  facet normal 0 0 1
    outer loop
      vertex -0.129904 0.075 0.46
      vertex -0.173574 0.0772799 0.46
      vertex -0.144889 0.0388228 0.46
    endloop
  endfacet
  facet normal -0 0 1
    outer loop
      vertex -0.173574 0.0772799 0.46
      vertex -0.129904 0.075 0.46
      vertex -0.153713 0.111679 0.46
    endloop
  endfacet
  facet normal -0 0 1
    outer loop
      vertex 0.129904 -0.075 0.46
      vertex 0.173574 -0.0772799 0.46
      vertex 0.144889 -0.0388228 0.46
    endloop
  endfacet
  facet normal 0 0 1
    outer loop
      vertex 0.173574 -0.0772799 0.46
      vertex 0.129904 -0.075 0.46
      vertex 0.153713 -0.111679 0.46
    endloop
  endfacet
  facet normal -0 0 1
    outer loop
      vertex 0.106066 -0.106066 0.46
      vertex 0.153713 -0.111679 0.46
      vertex 0.129904 -0.075 0.46
    endloop
  endfacet
  facet normal 0 0 1
    outer loop
      vertex 0.153713 -0.111679 0.46
      vertex 0.106066 -0.106066 0.46
      vertex 0.127135 -0.141198 0.46
    endloop
  endfacet
  facet normal -0 0 1
    outer loop
      vertex 0.075 -0.129904 0.46
      vertex 0.127135 -0.141198 0.46
      vertex 0.106066 -0.106066 0.46
    endloop
  endfacet
  facet normal 0 0 1
    outer loop
      vertex 0.127135 -0.141198 0.46
      vertex 0.075 -0.129904 0.46
      vertex 0.095 -0.164545 0.46
    endloop
  endfacet
  facet normal 0 0 1
    outer loop
      vertex 0.075 -0.129904 0.46
      vertex 0.0587132 -0.180701 0.46
      vertex 0.095 -0.164545 0.46
    endloop
  endfacet
  facet normal -0 0 1
    outer loop
      vertex 0.0388228 -0.144889 0.46
      vertex 0.0587132 -0.180701 0.46
      vertex 0.075 -0.129904 0.46
    endloop
  endfacet
  facet normal 0 0 1
    outer loop
      vertex 0.0388228 -0.144889 0.46
      vertex 0.0198604 -0.188959 0.46
      vertex 0.0587132 -0.180701 0.46
    endloop
  endfacet
  facet normal -0 0 1
    outer loop
      vertex 0 -0.15 0.46
      vertex 0.0198604 -0.188959 0.46
      vertex 0.0388228 -0.144889 0.46
    endloop
  endfacet
  facet normal 0 0 1
    outer loop
      vertex 0 -0.15 0.46
      vertex -0.0198604 -0.188959 0.46
      vertex 0.0198604 -0.188959 0.46
    endloop
  endfacet
  facet normal 0 0 1
    outer loop
      vertex -0.0388228 -0.144889 0.46
      vertex -0.0198604 -0.188959 0.46
      vertex 0 -0.15 0.46
    endloop
  endfacet
  facet normal 0 0 1
    outer loop
      vertex -0.0388228 -0.144889 0.46
      vertex -0.0587132 -0.180701 0.46
      vertex -0.0198604 -0.188959 0.46
    endloop
  endfacet
  facet normal 0 0 1
    outer loop
      vertex -0.075 -0.129904 0.46
      vertex -0.0587132 -0.180701 0.46
      vertex -0.0388228 -0.144889 0.46
    endloop
  endfacet
  facet normal 0 0 1
    outer loop
      vertex -0.075 -0.129904 0.46
      vertex -0.095 -0.164545 0.46
      vertex -0.0587132 -0.180701 0.46
    endloop
  endfacet
  facet normal 0 0 1
    outer loop
      vertex -0.127135 -0.141198 0.46
      vertex -0.075 -0.129904 0.46
      vertex -0.106066 -0.106066 0.46
    endloop
  endfacet
  facet normal 0 0 1
    outer loop
      vertex -0.075 -0.129904 0.46
      vertex -0.127135 -0.141198 0.46
      vertex -0.095 -0.164545 0.46
    endloop
  endfacet
  facet normal 0 0 1
    outer loop
      vertex -0.153713 -0.111679 0.46
      vertex -0.106066 -0.106066 0.46
      vertex -0.129904 -0.075 0.46
    endloop
  endfacet
  facet normal 0 0 1
    outer loop
      vertex -0.173574 -0.0772799 0.46
      vertex -0.129904 -0.075 0.46
      vertex -0.144889 -0.0388228 0.46
    endloop
  endfacet
  facet normal 0 0 1
    outer loop
      vertex -0.106066 -0.106066 0.46
      vertex -0.153713 -0.111679 0.46
      vertex -0.127135 -0.141198 0.46
    endloop
  endfacet
  facet normal 0 0 1
    outer loop
      vertex -0.185848 -0.0395032 0.46
      vertex -0.144889 -0.0388228 0.46
      vertex -0.15 0 0.46
    endloop
  endfacet
  facet normal -0 0 1
    outer loop
      vertex -0.185848 0.0395032 0.46
      vertex -0.144889 0.0388228 0.46
      vertex -0.173574 0.0772799 0.46
    endloop
  endfacet
  facet normal 0 0 1
    outer loop
      vertex -0.144889 0.0388228 0.46
      vertex -0.185848 0.0395032 0.46
      vertex -0.15 0 0.46
    endloop
  endfacet
  facet normal 0 0 1
    outer loop
      vertex -0.129904 -0.075 0.46
      vertex -0.173574 -0.0772799 0.46
      vertex -0.153713 -0.111679 0.46
    endloop
  endfacet
  facet normal 0 0 1
    outer loop
      vertex -0.19 0 0.46
      vertex -0.15 0 0.46
      vertex -0.185848 0.0395032 0.46
    endloop
  endfacet
  facet normal 0 0 1
    outer loop
      vertex -0.144889 -0.0388228 0.46
      vertex -0.185848 -0.0395032 0.46
      vertex -0.173574 -0.0772799 0.46
    endloop
  endfacet
  facet normal 0 0 1
    outer loop
      vertex -0.15 0 0.46
      vertex -0.19 0 0.46
      vertex -0.185848 -0.0395032 0.46
    endloop
  endfacet
  facet normal -0.587778 0.809022 0
    outer loop
      vertex -0.095 0.164545 0.42
      vertex -0.127135 0.141198 0.46
      vertex -0.095 0.164545 0.46
    endloop
  endfacet
  facet normal -0.587778 0.809022 0
    outer loop
      vertex -0.127135 0.141198 0.46
      vertex -0.095 0.164545 0.42
      vertex -0.127135 0.141198 0.42
    endloop
  endfacet
  facet normal -0.207902 0.97815 0
    outer loop
      vertex -0.0198604 0.188959 0.42
      vertex -0.0587132 0.180701 0.46
      vertex -0.0198604 0.188959 0.46
    endloop
  endfacet
  facet normal -0.207902 0.97815 0
    outer loop
      vertex -0.0587132 0.180701 0.46
      vertex -0.0198604 0.188959 0.42
      vertex -0.0587132 0.180701 0.42
    endloop
  endfacet
  facet normal 0.994522 -0.10453 0
    outer loop
      vertex 0.185848 -0.0395032 0.46
      vertex 0.19 0 0.42
      vertex 0.19 0 0.46
    endloop
  endfacet
  facet normal 0.994522 -0.10453 0
    outer loop
      vertex 0.19 0 0.42
      vertex 0.185848 -0.0395032 0.46
      vertex 0.185848 -0.0395032 0.42
    endloop
  endfacet
  facet normal 0 0 -1
    outer loop
      vertex 0.15 0 0.42
      vertex 0.19 0 0.42
      vertex 0.185848 -0.0395032 0.42
    endloop
  endfacet
  facet normal 0 0 -1
    outer loop
      vertex 0.144889 -0.0388228 0.42
      vertex 0.185848 -0.0395032 0.42
      vertex 0.173574 -0.0772799 0.42
    endloop
  endfacet
  facet normal 0 0 -1
    outer loop
      vertex 0.19 0 0.42
      vertex 0.15 0 0.42
      vertex 0.185848 0.0395032 0.42
    endloop
  endfacet
  facet normal 0 0 -1
    outer loop
      vertex 0.129904 -0.075 0.42
      vertex 0.173574 -0.0772799 0.42
      vertex 0.153713 -0.111679 0.42
    endloop
  endfacet
  facet normal 0 0 -1
    outer loop
      vertex 0.144889 0.0388228 0.42
      vertex 0.185848 0.0395032 0.42
      vertex 0.15 0 0.42
    endloop
  endfacet
  facet normal -0 0 -1
    outer loop
      vertex 0.185848 0.0395032 0.42
      vertex 0.144889 0.0388228 0.42
      vertex 0.173574 0.0772799 0.42
    endloop
  endfacet
  facet normal 0 0 -1
    outer loop
      vertex 0.185848 -0.0395032 0.42
      vertex 0.144889 -0.0388228 0.42
      vertex 0.15 0 0.42
    endloop
  endfacet
  facet normal 0 0 -1
    outer loop
      vertex 0.173574 -0.0772799 0.42
      vertex 0.129904 -0.075 0.42
      vertex 0.144889 -0.0388228 0.42
    endloop
  endfacet
  facet normal 0 0 -1
    outer loop
      vertex 0.106066 -0.106066 0.42
      vertex 0.153713 -0.111679 0.42
      vertex 0.127135 -0.141198 0.42
    endloop
  endfacet
  facet normal 0 0 -1
    outer loop
      vertex 0.153713 -0.111679 0.42
      vertex 0.106066 -0.106066 0.42
      vertex 0.129904 -0.075 0.42
    endloop
  endfacet
  facet normal 0 0 -1
    outer loop
      vertex 0.075 -0.129904 0.42
      vertex 0.127135 -0.141198 0.42
      vertex 0.095 -0.164545 0.42
    endloop
  endfacet
  facet normal 0 0 -1
    outer loop
      vertex 0.127135 -0.141198 0.42
      vertex 0.075 -0.129904 0.42
      vertex 0.106066 -0.106066 0.42
    endloop
  endfacet
  facet normal 0 0 -1
    outer loop
      vertex 0.0587132 -0.180701 0.42
      vertex 0.075 -0.129904 0.42
      vertex 0.095 -0.164545 0.42
    endloop
  endfacet
  facet normal 0 0 -1
    outer loop
      vertex 0.0587132 -0.180701 0.42
      vertex 0.0388228 -0.144889 0.42
      vertex 0.075 -0.129904 0.42
    endloop
  endfacet
  facet normal 0 0 -1
    outer loop
      vertex 0.0198604 -0.188959 0.42
      vertex 0.0388228 -0.144889 0.42
      vertex 0.0587132 -0.180701 0.42
    endloop
  endfacet
  facet normal 0 0 -1
    outer loop
      vertex 0.0198604 -0.188959 0.42
      vertex 0 -0.15 0.42
      vertex 0.0388228 -0.144889 0.42
    endloop
  endfacet
  facet normal 0 0 -1
    outer loop
      vertex -0.0198604 -0.188959 0.42
      vertex 0 -0.15 0.42
      vertex 0.0198604 -0.188959 0.42
    endloop
  endfacet
  facet normal 0 0 -1
    outer loop
      vertex -0.0198604 -0.188959 0.42
      vertex -0.0388228 -0.144889 0.42
      vertex 0 -0.15 0.42
    endloop
  endfacet
  facet normal 0 0 -1
    outer loop
      vertex -0.0587132 -0.180701 0.42
      vertex -0.0388228 -0.144889 0.42
      vertex -0.0198604 -0.188959 0.42
    endloop
  endfacet
  facet normal 0 0 -1
    outer loop
      vertex -0.0587132 -0.180701 0.42
      vertex -0.075 -0.129904 0.42
      vertex -0.0388228 -0.144889 0.42
    endloop
  endfacet
  facet normal 0 0 -1
    outer loop
      vertex -0.095 -0.164545 0.42
      vertex -0.075 -0.129904 0.42
      vertex -0.0587132 -0.180701 0.42
    endloop
  endfacet
  facet normal 0 0 -1
    outer loop
      vertex -0.127135 -0.141198 0.42
      vertex -0.075 -0.129904 0.42
      vertex -0.095 -0.164545 0.42
    endloop
  endfacet
  facet normal -0 0 -1
    outer loop
      vertex -0.075 -0.129904 0.42
      vertex -0.127135 -0.141198 0.42
      vertex -0.106066 -0.106066 0.42
    endloop
  endfacet
  facet normal 0 0 -1
    outer loop
      vertex -0.153713 -0.111679 0.42
      vertex -0.106066 -0.106066 0.42
      vertex -0.127135 -0.141198 0.42
    endloop
  endfacet
  facet normal -0 0 -1
    outer loop
      vertex -0.106066 -0.106066 0.42
      vertex -0.153713 -0.111679 0.42
      vertex -0.129904 -0.075 0.42
    endloop
  endfacet
  facet normal -0 0 -1
    outer loop
      vertex -0.129904 -0.075 0.42
      vertex -0.173574 -0.0772799 0.42
      vertex -0.144889 -0.0388228 0.42
    endloop
  endfacet
  facet normal 0 0 -1
    outer loop
      vertex -0.173574 -0.0772799 0.42
      vertex -0.129904 -0.075 0.42
      vertex -0.153713 -0.111679 0.42
    endloop
  endfacet
  facet normal 0 0 -1
    outer loop
      vertex 0.129904 0.075 0.42
      vertex 0.173574 0.0772799 0.42
      vertex 0.144889 0.0388228 0.42
    endloop
  endfacet
  facet normal -0 0 -1
    outer loop
      vertex 0.173574 0.0772799 0.42
      vertex 0.129904 0.075 0.42
      vertex 0.153713 0.111679 0.42
    endloop
  endfacet
  facet normal 0 0 -1
    outer loop
      vertex 0.106066 0.106066 0.42
      vertex 0.153713 0.111679 0.42
      vertex 0.129904 0.075 0.42
    endloop
  endfacet
  facet normal -0 0 -1
    outer loop
      vertex 0.153713 0.111679 0.42
      vertex 0.106066 0.106066 0.42
      vertex 0.127135 0.141198 0.42
    endloop
  endfacet
  facet normal 0 0 -1
    outer loop
      vertex 0.075 0.129904 0.42
      vertex 0.127135 0.141198 0.42
      vertex 0.106066 0.106066 0.42
    endloop
  endfacet
  facet normal -0 0 -1
    outer loop
      vertex 0.127135 0.141198 0.42
      vertex 0.075 0.129904 0.42
      vertex 0.095 0.164545 0.42
    endloop
  endfacet
  facet normal 0 0 -1
    outer loop
      vertex 0.075 0.129904 0.42
      vertex 0.0587132 0.180701 0.42
      vertex 0.095 0.164545 0.42
    endloop
  endfacet
  facet normal 0 0 -1
    outer loop
      vertex 0.0388228 0.144889 0.42
      vertex 0.0587132 0.180701 0.42
      vertex 0.075 0.129904 0.42
    endloop
  endfacet
  facet normal 0 0 -1
    outer loop
      vertex 0.0388228 0.144889 0.42
      vertex 0.0198604 0.188959 0.42
      vertex 0.0587132 0.180701 0.42
    endloop
  endfacet
  facet normal 0 0 -1
    outer loop
      vertex 0 0.15 0.42
      vertex 0.0198604 0.188959 0.42
      vertex 0.0388228 0.144889 0.42
    endloop
  endfacet
  facet normal 0 0 -1
    outer loop
      vertex 0 0.15 0.42
      vertex -0.0198604 0.188959 0.42
      vertex 0.0198604 0.188959 0.42
    endloop
  endfacet
  facet normal 0 0 -1
    outer loop
      vertex -0.0388228 0.144889 0.42
      vertex -0.0198604 0.188959 0.42
      vertex 0 0.15 0.42
    endloop
  endfacet
  facet normal 0 0 -1
    outer loop
      vertex -0.0388228 0.144889 0.42
      vertex -0.0587132 0.180701 0.42
      vertex -0.0198604 0.188959 0.42
    endloop
  endfacet
  facet normal 0 0 -1
    outer loop
      vertex -0.075 0.129904 0.42
      vertex -0.0587132 0.180701 0.42
      vertex -0.0388228 0.144889 0.42
    endloop
  endfacet
  facet normal 0 0 -1
    outer loop
      vertex -0.075 0.129904 0.42
      vertex -0.095 0.164545 0.42
      vertex -0.0587132 0.180701 0.42
    endloop
  endfacet
  facet normal 0 0 -1
    outer loop
      vertex -0.127135 0.141198 0.42
      vertex -0.075 0.129904 0.42
      vertex -0.106066 0.106066 0.42
    endloop
  endfacet
  facet normal 0 0 -1
    outer loop
      vertex -0.075 0.129904 0.42
      vertex -0.127135 0.141198 0.42
      vertex -0.095 0.164545 0.42
    endloop
  endfacet
  facet normal 0 0 -1
    outer loop
      vertex -0.153713 0.111679 0.42
      vertex -0.106066 0.106066 0.42
      vertex -0.129904 0.075 0.42
    endloop
  endfacet
  facet normal 0 0 -1
    outer loop
      vertex -0.173574 0.0772799 0.42
      vertex -0.129904 0.075 0.42
      vertex -0.144889 0.0388228 0.42
    endloop
  endfacet
  facet normal 0 0 -1
    outer loop
      vertex -0.106066 0.106066 0.42
      vertex -0.153713 0.111679 0.42
      vertex -0.127135 0.141198 0.42
    endloop
  endfacet
  facet normal 0 0 -1
    outer loop
      vertex -0.185848 0.0395032 0.42
      vertex -0.144889 0.0388228 0.42
      vertex -0.15 0 0.42
    endloop
  endfacet
  facet normal 0 0 -1
    outer loop
      vertex -0.185848 -0.0395032 0.42
      vertex -0.144889 -0.0388228 0.42
      vertex -0.173574 -0.0772799 0.42
    endloop
  endfacet
  facet normal -0 0 -1
    outer loop
      vertex -0.144889 -0.0388228 0.42
      vertex -0.185848 -0.0395032 0.42
      vertex -0.15 0 0.42
    endloop
  endfacet
  facet normal 0 0 -1
    outer loop
      vertex -0.129904 0.075 0.42
      vertex -0.173574 0.0772799 0.42
      vertex -0.153713 0.111679 0.42
    endloop
  endfacet
  facet normal 0 0 -1
    outer loop
      vertex -0.19 0 0.42
      vertex -0.15 0 0.42
      vertex -0.185848 -0.0395032 0.42
    endloop
  endfacet
  facet normal 0 0 -1
    outer loop
      vertex -0.144889 0.0388228 0.42
      vertex -0.185848 0.0395032 0.42
      vertex -0.173574 0.0772799 0.42
    endloop
  endfacet
  facet normal 0 0 -1
    outer loop
      vertex -0.15 0 0.42
      vertex -0.19 0 0.42
      vertex -0.185848 0.0395032 0.42
    endloop
  endfacet
  facet normal 0.866018 -0.500013 0
    outer loop
      vertex 0.153713 -0.111679 0.46
      vertex 0.173574 -0.0772799 0.42
      vertex 0.173574 -0.0772799 0.46
    endloop
  endfacet
  facet normal 0.866018 -0.500013 0
    outer loop
      vertex 0.173574 -0.0772799 0.42
      vertex 0.153713 -0.111679 0.46
      vertex 0.153713 -0.111679 0.42
    endloop
  endfacet
  facet normal -0.866018 -0.500013 0
    outer loop
      vertex -0.153713 -0.111679 0.42
      vertex -0.173574 -0.0772799 0.46
      vertex -0.173574 -0.0772799 0.42
    endloop
  endfacet
  facet normal -0.866018 -0.500013 0
    outer loop
      vertex -0.173574 -0.0772799 0.46
      vertex -0.153713 -0.111679 0.42
      vertex -0.153713 -0.111679 0.46
    endloop
  endfacet
  facet normal 0.587778 -0.809022 0
    outer loop
      vertex 0.095 -0.164545 0.42
      vertex 0.127135 -0.141198 0.46
      vertex 0.095 -0.164545 0.46
    endloop
  endfacet
  facet normal 0.587778 -0.809022 0
    outer loop
      vertex 0.127135 -0.141198 0.46
      vertex 0.095 -0.164545 0.42
      vertex 0.127135 -0.141198 0.42
    endloop
  endfacet
  facet normal -0.207902 -0.97815 0
    outer loop
      vertex -0.0587132 -0.180701 0.42
      vertex -0.0198604 -0.188959 0.46
      vertex -0.0587132 -0.180701 0.46
    endloop
  endfacet
  facet normal -0.207902 -0.97815 -0
    outer loop
      vertex -0.0198604 -0.188959 0.46
      vertex -0.0587132 -0.180701 0.42
      vertex -0.0198604 -0.188959 0.42
    endloop
  endfacet
  facet normal -0.587778 -0.809022 0
    outer loop
      vertex -0.127135 -0.141198 0.42
      vertex -0.095 -0.164545 0.46
      vertex -0.127135 -0.141198 0.46
    endloop
  endfacet
  facet normal -0.587778 -0.809022 -0
    outer loop
      vertex -0.095 -0.164545 0.46
      vertex -0.127135 -0.141198 0.42
      vertex -0.095 -0.164545 0.42
    endloop
  endfacet
  facet normal -0.406738 -0.913545 0
    outer loop
      vertex -0.095 -0.164545 0.42
      vertex -0.0587132 -0.180701 0.46
      vertex -0.095 -0.164545 0.46
    endloop
  endfacet
  facet normal -0.406738 -0.913545 -0
    outer loop
      vertex -0.0587132 -0.180701 0.46
      vertex -0.095 -0.164545 0.42
      vertex -0.0587132 -0.180701 0.42
    endloop
  endfacet
  facet normal -0.743158 -0.669116 0
    outer loop
      vertex -0.127135 -0.141198 0.42
      vertex -0.153713 -0.111679 0.46
      vertex -0.153713 -0.111679 0.42
    endloop
  endfacet
  facet normal -0.743158 -0.669116 0
    outer loop
      vertex -0.153713 -0.111679 0.46
      vertex -0.127135 -0.141198 0.42
      vertex -0.127135 -0.141198 0.46
    endloop
  endfacet
  facet normal -0.951059 -0.309008 0
    outer loop
      vertex -0.173574 -0.0772799 0.42
      vertex -0.185848 -0.0395032 0.46
      vertex -0.185848 -0.0395032 0.42
    endloop
  endfacet
  facet normal -0.951059 -0.309008 0
    outer loop
      vertex -0.185848 -0.0395032 0.46
      vertex -0.173574 -0.0772799 0.42
      vertex -0.173574 -0.0772799 0.46
    endloop
  endfacet
  facet normal -0.994522 -0.10453 0
    outer loop
      vertex -0.185848 -0.0395032 0.42
      vertex -0.19 0 0.46
      vertex -0.19 0 0.42
    endloop
  endfacet
  facet normal -0.994522 -0.10453 0
    outer loop
      vertex -0.19 0 0.46
      vertex -0.185848 -0.0395032 0.42
      vertex -0.185848 -0.0395032 0.46
    endloop
  endfacet
  facet normal 0.406738 -0.913545 0
    outer loop
      vertex 0.0587132 -0.180701 0.42
      vertex 0.095 -0.164545 0.46
      vertex 0.0587132 -0.180701 0.46
    endloop
  endfacet
  facet normal 0.406738 -0.913545 0
    outer loop
      vertex 0.095 -0.164545 0.46
      vertex 0.0587132 -0.180701 0.42
      vertex 0.095 -0.164545 0.42
    endloop
  endfacet
  facet normal 0.207902 -0.97815 0
    outer loop
      vertex 0.0198604 -0.188959 0.42
      vertex 0.0587132 -0.180701 0.46
      vertex 0.0198604 -0.188959 0.46
    endloop
  endfacet
  facet normal 0.207902 -0.97815 0
    outer loop
      vertex 0.0587132 -0.180701 0.46
      vertex 0.0198604 -0.188959 0.42
      vertex 0.0587132 -0.180701 0.42
    endloop
  endfacet
  facet normal 0.743158 -0.669116 0
    outer loop
      vertex 0.127135 -0.141198 0.46
      vertex 0.153713 -0.111679 0.42
      vertex 0.153713 -0.111679 0.46
    endloop
  endfacet
  facet normal 0.743158 -0.669116 0
    outer loop
      vertex 0.153713 -0.111679 0.42
      vertex 0.127135 -0.141198 0.46
      vertex 0.127135 -0.141198 0.42
    endloop
  endfacet
  facet normal -0.991445 -0.130523 0
    outer loop
      vertex 0.15 0 0.42
      vertex 0.144889 0.0388228 0.46
      vertex 0.144889 0.0388228 0.42
    endloop
  endfacet
  facet normal -0.991445 -0.130523 0
    outer loop
      vertex 0.144889 0.0388228 0.46
      vertex 0.15 0 0.42
      vertex 0.15 0 0.46
    endloop
  endfacet
  facet normal 0.991445 -0.130523 0
    outer loop
      vertex -0.15 0 0.46
      vertex -0.144889 0.0388228 0.42
      vertex -0.144889 0.0388228 0.46
    endloop
  endfacet
  facet normal 0.991445 -0.130523 0
    outer loop
      vertex -0.144889 0.0388228 0.42
      vertex -0.15 0 0.46
      vertex -0.15 0 0.42
    endloop
  endfacet
  facet normal -0.130523 -0.991445 0
    outer loop
      vertex 0 0.15 0.42
      vertex 0.0388228 0.144889 0.46
      vertex 0 0.15 0.46
    endloop
  endfacet
  facet normal -0.130523 -0.991445 -0
    outer loop
      vertex 0.0388228 0.144889 0.46
      vertex 0 0.15 0.42
      vertex 0.0388228 0.144889 0.42
    endloop
  endfacet
  facet normal 0.130523 0.991445 -0
    outer loop
      vertex 0 -0.15 0.42
      vertex -0.0388228 -0.144889 0.46
      vertex 0 -0.15 0.46
    endloop
  endfacet
  facet normal 0.130523 0.991445 0
    outer loop
      vertex -0.0388228 -0.144889 0.46
      vertex 0 -0.15 0.42
      vertex -0.0388228 -0.144889 0.42
    endloop
  endfacet
  facet normal -0.793351 -0.608765 0
    outer loop
      vertex 0.129904 0.075 0.42
      vertex 0.106066 0.106066 0.46
      vertex 0.106066 0.106066 0.42
    endloop
  endfacet
  facet normal -0.793351 -0.608765 0
    outer loop
      vertex 0.106066 0.106066 0.46
      vertex 0.129904 0.075 0.42
      vertex 0.129904 0.075 0.46
    endloop
  endfacet
  facet normal -0.92388 -0.382682 0
    outer loop
      vertex 0.144889 0.0388228 0.42
      vertex 0.129904 0.075 0.46
      vertex 0.129904 0.075 0.42
    endloop
  endfacet
  facet normal -0.92388 -0.382682 0
    outer loop
      vertex 0.129904 0.075 0.46
      vertex 0.144889 0.0388228 0.42
      vertex 0.144889 0.0388228 0.46
    endloop
  endfacet
  facet normal -0.608765 -0.793351 0
    outer loop
      vertex 0.075 0.129904 0.42
      vertex 0.106066 0.106066 0.46
      vertex 0.075 0.129904 0.46
    endloop
  endfacet
  facet normal -0.608765 -0.793351 -0
    outer loop
      vertex 0.106066 0.106066 0.46
      vertex 0.075 0.129904 0.42
      vertex 0.106066 0.106066 0.42
    endloop
  endfacet
  facet normal 0.608765 -0.793351 0
    outer loop
      vertex -0.106066 0.106066 0.42
      vertex -0.075 0.129904 0.46
      vertex -0.106066 0.106066 0.46
    endloop
  endfacet
  facet normal 0.608765 -0.793351 0
    outer loop
      vertex -0.075 0.129904 0.46
      vertex -0.106066 0.106066 0.42
      vertex -0.075 0.129904 0.42
    endloop
  endfacet
  facet normal 0.793351 -0.608765 0
    outer loop
      vertex -0.129904 0.075 0.46
      vertex -0.106066 0.106066 0.42
      vertex -0.106066 0.106066 0.46
    endloop
  endfacet
  facet normal 0.793351 -0.608765 0
    outer loop
      vertex -0.106066 0.106066 0.42
      vertex -0.129904 0.075 0.46
      vertex -0.129904 0.075 0.42
    endloop
  endfacet
  facet normal 0.382682 -0.92388 0
    outer loop
      vertex -0.075 0.129904 0.42
      vertex -0.0388228 0.144889 0.46
      vertex -0.075 0.129904 0.46
    endloop
  endfacet
  facet normal 0.382682 -0.92388 0
    outer loop
      vertex -0.0388228 0.144889 0.46
      vertex -0.075 0.129904 0.42
      vertex -0.0388228 0.144889 0.42
    endloop
  endfacet
  facet normal 0.608765 0.793351 -0
    outer loop
      vertex -0.075 -0.129904 0.42
      vertex -0.106066 -0.106066 0.46
      vertex -0.075 -0.129904 0.46
    endloop
  endfacet
  facet normal 0.608765 0.793351 0
    outer loop
      vertex -0.106066 -0.106066 0.46
      vertex -0.075 -0.129904 0.42
      vertex -0.106066 -0.106066 0.42
    endloop
  endfacet
  facet normal -0.382682 -0.92388 0
    outer loop
      vertex 0.0388228 0.144889 0.42
      vertex 0.075 0.129904 0.46
      vertex 0.0388228 0.144889 0.46
    endloop
  endfacet
  facet normal -0.382682 -0.92388 -0
    outer loop
      vertex 0.075 0.129904 0.46
      vertex 0.0388228 0.144889 0.42
      vertex 0.075 0.129904 0.42
    endloop
  endfacet
  facet normal 0.92388 -0.382682 0
    outer loop
      vertex -0.144889 0.0388228 0.46
      vertex -0.129904 0.075 0.42
      vertex -0.129904 0.075 0.46
    endloop
  endfacet
  facet normal 0.92388 -0.382682 0
    outer loop
      vertex -0.129904 0.075 0.42
      vertex -0.144889 0.0388228 0.46
      vertex -0.144889 0.0388228 0.42
    endloop
  endfacet
  facet normal 0.130523 -0.991445 0
    outer loop
      vertex -0.0388228 0.144889 0.42
      vertex 0 0.15 0.46
      vertex -0.0388228 0.144889 0.46
    endloop
  endfacet
  facet normal 0.130523 -0.991445 0
    outer loop
      vertex 0 0.15 0.46
      vertex -0.0388228 0.144889 0.42
      vertex 0 0.15 0.42
    endloop
  endfacet
  facet normal -0.130523 0.991445 0
    outer loop
      vertex 0.0388228 -0.144889 0.42
      vertex 0 -0.15 0.46
      vertex 0.0388228 -0.144889 0.46
    endloop
  endfacet
  facet normal -0.130523 0.991445 0
    outer loop
      vertex 0 -0.15 0.46
      vertex 0.0388228 -0.144889 0.42
      vertex 0 -0.15 0.42
    endloop
  endfacet
  facet normal -0.608765 0.793351 0
    outer loop
      vertex 0.106066 -0.106066 0.42
      vertex 0.075 -0.129904 0.46
      vertex 0.106066 -0.106066 0.46
    endloop
  endfacet
  facet normal -0.608765 0.793351 0
    outer loop
      vertex 0.075 -0.129904 0.46
      vertex 0.106066 -0.106066 0.42
      vertex 0.075 -0.129904 0.42
    endloop
  endfacet
  facet normal 0.382682 0.92388 -0
    outer loop
      vertex -0.0388228 -0.144889 0.42
      vertex -0.075 -0.129904 0.46
      vertex -0.0388228 -0.144889 0.46
    endloop
  endfacet
  facet normal 0.382682 0.92388 0
    outer loop
      vertex -0.075 -0.129904 0.46
      vertex -0.0388228 -0.144889 0.42
      vertex -0.075 -0.129904 0.42
    endloop
  endfacet
  facet normal 0.793351 0.608765 0
    outer loop
      vertex -0.106066 -0.106066 0.46
      vertex -0.129904 -0.075 0.42
      vertex -0.129904 -0.075 0.46
    endloop
  endfacet
  facet normal 0.793351 0.608765 0
    outer loop
      vertex -0.129904 -0.075 0.42
      vertex -0.106066 -0.106066 0.46
      vertex -0.106066 -0.106066 0.42
    endloop
  endfacet
  facet normal 0.991445 0.130523 0
    outer loop
      vertex -0.144889 -0.0388228 0.46
      vertex -0.15 0 0.42
      vertex -0.15 0 0.46
    endloop
  endfacet
  facet normal 0.991445 0.130523 0
    outer loop
      vertex -0.15 0 0.42
      vertex -0.144889 -0.0388228 0.46
      vertex -0.144889 -0.0388228 0.42
    endloop
  endfacet
  facet normal -0.382682 0.92388 0
    outer loop
      vertex 0.075 -0.129904 0.42
      vertex 0.0388228 -0.144889 0.46
      vertex 0.075 -0.129904 0.46
    endloop
  endfacet
  facet normal -0.382682 0.92388 0
    outer loop
      vertex 0.0388228 -0.144889 0.46
      vertex 0.075 -0.129904 0.42
      vertex 0.0388228 -0.144889 0.42
    endloop
  endfacet
  facet normal -0.92388 0.382682 0
    outer loop
      vertex 0.129904 -0.075 0.42
      vertex 0.144889 -0.0388228 0.46
      vertex 0.144889 -0.0388228 0.42
    endloop
  endfacet
  facet normal -0.92388 0.382682 0
    outer loop
      vertex 0.144889 -0.0388228 0.46
      vertex 0.129904 -0.075 0.42
      vertex 0.129904 -0.075 0.46
    endloop
  endfacet
  facet normal -0.793351 0.608765 0
    outer loop
      vertex 0.106066 -0.106066 0.42
      vertex 0.129904 -0.075 0.46
      vertex 0.129904 -0.075 0.42
    endloop
  endfacet
  facet normal -0.793351 0.608765 0
    outer loop
      vertex 0.129904 -0.075 0.46
      vertex 0.106066 -0.106066 0.42
      vertex 0.106066 -0.106066 0.46
    endloop
  endfacet
  facet normal -0.991445 0.130523 0
    outer loop
      vertex 0.144889 -0.0388228 0.42
      vertex 0.15 0 0.46
      vertex 0.15 0 0.42
    endloop
  endfacet
  facet normal -0.991445 0.130523 0
    outer loop
      vertex 0.15 0 0.46
      vertex 0.144889 -0.0388228 0.42
      vertex 0.144889 -0.0388228 0.46
    endloop
  endfacet
  facet normal 0.92388 0.382682 0
    outer loop
      vertex -0.129904 -0.075 0.46
      vertex -0.144889 -0.0388228 0.42
      vertex -0.144889 -0.0388228 0.46
    endloop
  endfacet
  facet normal 0.92388 0.382682 0
    outer loop
      vertex -0.144889 -0.0388228 0.42
      vertex -0.129904 -0.075 0.46
      vertex -0.129904 -0.075 0.42
    endloop
  endfacet
endsolid OpenSCAD_Model
