solid OpenSCAD_Model
  facet normal 0.285117 -0.952463 -0.10734
    outer loop
      vertex 0.0467465 -0.112674 0.04
      vertex 0.0535569 -0.124159 0.16
      vertex 0.0420485 -0.127604 0.16
    endloop
  endfacet
  facet normal 0.285034 -0.952488 -0.107338
    outer loop
      vertex 0.0535569 -0.124159 0.16
      vertex 0.0467465 -0.112674 0.04
      vertex 0.0483906 -0.112182 0.04
    endloop
  endfacet
  facet normal 0.987507 0.11537 -0.107333
    outer loop
      vertex 0.135217 0 0.16
      vertex 0.121975 0.00170455 0.04
      vertex 0.133823 0.0119319 0.16
    endloop
  endfacet
  facet normal 0.987516 0.115289 -0.107335
    outer loop
      vertex 0.121975 0.00170455 0.04
      vertex 0.135217 0 0.16
      vertex 0.122174 0 0.04
    endloop
  endfacet
  facet normal 0.987501 0.115414 -0.107338
    outer loop
      vertex 0.133823 0.0119319 0.16
      vertex 0.118881 0.0281752 0.04
      vertex 0.131573 0.0311833 0.16
    endloop
  endfacet
  facet normal 0.9875 0.115423 -0.107336
    outer loop
      vertex 0.118881 0.0281752 0.04
      vertex 0.133823 0.0119319 0.16
      vertex 0.121975 0.00170455 0.04
    endloop
  endfacet
  facet normal 0.934253 -0.340076 -0.107328
    outer loop
      vertex 0.124943 -0.0493968 0.16
      vertex 0.109179 -0.0548315 0.04
      vertex 0.109766 -0.0532189 0.04
    endloop
  endfacet
  facet normal 0.934283 -0.339992 -0.107336
    outer loop
      vertex 0.109179 -0.0548315 0.04
      vertex 0.124943 -0.0493968 0.16
      vertex 0.120835 -0.0606854 0.16
    endloop
  endfacet
  facet normal -0.967422 -0.229288 -0.107335
    outer loop
      vertex -0.121348 -0.0141835 0.04
      vertex -0.129833 -0.0345578 0.16
      vertex -0.134303 -0.0156978 0.16
    endloop
  endfacet
  facet normal -0.967425 -0.22928 -0.107333
    outer loop
      vertex -0.129833 -0.0345578 0.16
      vertex -0.121348 -0.0141835 0.04
      vertex -0.115202 -0.040116 0.04
    endloop
  endfacet
  facet normal -0.761606 0.639089 -0.107337
    outer loop
      vertex -0.0838408 0.0888661 0.04
      vertex -0.100514 0.089151 0.16
      vertex -0.0927918 0.0983536 0.16
    endloop
  endfacet
  facet normal -0.761609 0.639086 -0.107338
    outer loop
      vertex -0.100514 0.089151 0.16
      vertex -0.0838408 0.0888661 0.04
      vertex -0.084944 0.0875514 0.04
    endloop
  endfacet
  facet normal 0.830685 -0.546298 -0.107337
    outer loop
      vertex 0.120835 -0.0606854 0.16
      vertex 0.108236 -0.0562654 0.04
      vertex 0.109179 -0.0548315 0.04
    endloop
  endfacet
  facet normal 0.830635 -0.546374 -0.107335
    outer loop
      vertex 0.108236 -0.0562654 0.04
      vertex 0.120835 -0.0606854 0.16
      vertex 0.114233 -0.0707222 0.16
    endloop
  endfacet
  facet normal 0.682277 -0.723171 -0.107336
    outer loop
      vertex 0.0935906 -0.0785319 0.04
      vertex 0.0894842 -0.100217 0.16
      vertex 0.0742055 -0.0968208 0.04
    endloop
  endfacet
  facet normal 0.68226 -0.723187 -0.10734
    outer loop
      vertex 0.0894842 -0.100217 0.16
      vertex 0.0935906 -0.0785319 0.04
      vertex 0.103583 -0.0869161 0.16
    endloop
  endfacet
  facet normal 0.0578502 0.992538 -0.107342
    outer loop
      vertex -0.00539052 0.121867 0.04
      vertex -0.00786218 0.134989 0.16
      vertex 0.00413058 0.13429 0.16
    endloop
  endfacet
  facet normal 0.0579328 0.992533 -0.10734
    outer loop
      vertex -0.00786218 0.134989 0.16
      vertex -0.00539052 0.121867 0.04
      vertex -0.00710377 0.121967 0.04
    endloop
  endfacet
  facet normal 0.830653 -0.546347 -0.107332
    outer loop
      vertex 0.114233 -0.0707222 0.16
      vertex 0.0935906 -0.0785319 0.04
      vertex 0.108236 -0.0562654 0.04
    endloop
  endfacet
  facet normal 0.830682 -0.546302 -0.10734
    outer loop
      vertex 0.0935906 -0.0785319 0.04
      vertex 0.114233 -0.0707222 0.16
      vertex 0.103583 -0.0869161 0.16
    endloop
  endfacet
  facet normal 0.987516 -0.115289 -0.107335
    outer loop
      vertex 0.135217 0 0.16
      vertex 0.121975 -0.00170455 0.04
      vertex 0.122174 0 0.04
    endloop
  endfacet
  facet normal 0.987507 -0.11537 -0.107333
    outer loop
      vertex 0.121975 -0.00170455 0.04
      vertex 0.135217 0 0.16
      vertex 0.133823 -0.0119319 0.16
    endloop
  endfacet
  facet normal 0.93425 -0.340082 -0.107338
    outer loop
      vertex 0.124943 -0.0493968 0.16
      vertex 0.118881 -0.0281752 0.04
      vertex 0.131573 -0.0311833 0.16
    endloop
  endfacet
  facet normal 0.934266 -0.340039 -0.107331
    outer loop
      vertex 0.118881 -0.0281752 0.04
      vertex 0.124943 -0.0493968 0.16
      vertex 0.109766 -0.0532189 0.04
    endloop
  endfacet
  facet normal 0.285147 -0.952455 -0.107334
    outer loop
      vertex 0.0212153 -0.120318 0.04
      vertex 0.0420485 -0.127604 0.16
      vertex 0.0234802 -0.133163 0.16
    endloop
  endfacet
  facet normal 0.285162 -0.95245 -0.107337
    outer loop
      vertex 0.0420485 -0.127604 0.16
      vertex 0.0212153 -0.120318 0.04
      vertex 0.0467465 -0.112674 0.04
    endloop
  endfacet
  facet normal 0.0577861 -0.992542 -0.107338
    outer loop
      vertex 0.0212153 -0.120318 0.04
      vertex 0.00413058 -0.13429 0.16
      vertex -0.00539052 -0.121867 0.04
    endloop
  endfacet
  facet normal 0.0578096 -0.992541 -0.107334
    outer loop
      vertex 0.00413058 -0.13429 0.16
      vertex 0.0212153 -0.120318 0.04
      vertex 0.0234802 -0.133163 0.16
    endloop
  endfacet
  facet normal -0.967395 -0.229408 -0.107324
    outer loop
      vertex -0.114806 -0.0417859 0.04
      vertex -0.129833 -0.0345578 0.16
      vertex -0.115202 -0.040116 0.04
    endloop
  endfacet
  facet normal -0.967431 -0.229251 -0.107338
    outer loop
      vertex -0.129833 -0.0345578 0.16
      vertex -0.114806 -0.0417859 0.04
      vertex -0.127063 -0.0462471 0.16
    endloop
  endfacet
  facet normal 0.497141 0.861005 -0.107338
    outer loop
      vertex 0.0498768 0.111324 0.04
      vertex 0.0535569 0.124159 0.16
      vertex 0.0639605 0.118152 0.16
    endloop
  endfacet
  facet normal 0.497086 0.861036 -0.107339
    outer loop
      vertex 0.0535569 0.124159 0.16
      vertex 0.0498768 0.111324 0.04
      vertex 0.0483906 0.112182 0.04
    endloop
  endfacet
  facet normal -0.593721 0.79748 -0.107334
    outer loop
      vertex -0.0838408 0.0888661 0.04
      vertex -0.0831558 0.105527 0.16
      vertex -0.0824643 0.0898909 0.04
    endloop
  endfacet
  facet normal -0.593691 0.797502 -0.107337
    outer loop
      vertex -0.0831558 0.105527 0.16
      vertex -0.0838408 0.0888661 0.04
      vertex -0.0927918 0.0983536 0.16
    endloop
  endfacet
  facet normal 0.9875 -0.115423 -0.107336
    outer loop
      vertex 0.133823 -0.0119319 0.16
      vertex 0.118881 -0.0281752 0.04
      vertex 0.121975 -0.00170455 0.04
    endloop
  endfacet
  facet normal 0.987501 -0.115414 -0.107338
    outer loop
      vertex 0.118881 -0.0281752 0.04
      vertex 0.133823 -0.0119319 0.16
      vertex 0.131573 -0.0311833 0.16
    endloop
  endfacet
  facet normal 0.497086 -0.861036 -0.107339
    outer loop
      vertex 0.0498768 -0.111324 0.04
      vertex 0.0535569 -0.124159 0.16
      vertex 0.0483906 -0.112182 0.04
    endloop
  endfacet
  facet normal 0.497141 -0.861005 -0.107338
    outer loop
      vertex 0.0535569 -0.124159 0.16
      vertex 0.0498768 -0.111324 0.04
      vertex 0.0639605 -0.118152 0.16
    endloop
  endfacet
  facet normal -0.888528 -0.446089 -0.107347
    outer loop
      vertex -0.102075 -0.0671357 0.04
      vertex -0.118364 -0.0635679 0.16
      vertex -0.102845 -0.065602 0.04
    endloop
  endfacet
  facet normal -0.888453 -0.446242 -0.107333
    outer loop
      vertex -0.118364 -0.0635679 0.16
      vertex -0.102075 -0.0671357 0.04
      vertex -0.112972 -0.0743032 0.16
    endloop
  endfacet
  facet normal -0.761609 -0.639086 -0.107338
    outer loop
      vertex -0.0838408 -0.0888661 0.04
      vertex -0.100514 -0.089151 0.16
      vertex -0.084944 -0.0875514 0.04
    endloop
  endfacet
  facet normal -0.761606 -0.639089 -0.107337
    outer loop
      vertex -0.100514 -0.089151 0.16
      vertex -0.0838408 -0.0888661 0.04
      vertex -0.0927918 -0.0983536 0.16
    endloop
  endfacet
  facet normal -0.172658 -0.979115 -0.107341
    outer loop
      vertex -0.0350399 -0.117041 0.04
      vertex -0.0196928 -0.132903 0.16
      vertex -0.0387808 -0.129537 0.16
    endloop
  endfacet
  facet normal -0.172649 -0.979117 -0.107342
    outer loop
      vertex -0.0196928 -0.132903 0.16
      vertex -0.0350399 -0.117041 0.04
      vertex -0.00879385 -0.121669 0.04
    endloop
  endfacet
  facet normal 0.0578096 0.992541 -0.107334
    outer loop
      vertex 0.0212153 0.120318 0.04
      vertex 0.00413058 0.13429 0.16
      vertex 0.0234802 0.133163 0.16
    endloop
  endfacet
  facet normal 0.0577861 0.992542 -0.107338
    outer loop
      vertex 0.00413058 0.13429 0.16
      vertex 0.0212153 0.120318 0.04
      vertex -0.00539052 0.121867 0.04
    endloop
  endfacet
  facet normal 0.682282 0.723166 -0.107337
    outer loop
      vertex 0.0742055 0.0968208 0.04
      vertex 0.0807462 0.108461 0.16
      vertex 0.0894842 0.100217 0.16
    endloop
  endfacet
  facet normal 0.682274 0.723174 -0.107337
    outer loop
      vertex 0.0807462 0.108461 0.16
      vertex 0.0742055 0.0968208 0.04
      vertex 0.0729572 0.0979985 0.04
    endloop
  endfacet
  facet normal -0.967394 0.229408 -0.10734
    outer loop
      vertex -0.115202 0.040116 0.04
      vertex -0.127063 0.0462471 0.16
      vertex -0.114806 0.0417859 0.04
    endloop
  endfacet
  facet normal -0.967431 0.229251 -0.107336
    outer loop
      vertex -0.127063 0.0462471 0.16
      vertex -0.115202 0.040116 0.04
      vertex -0.129833 0.0345578 0.16
    endloop
  endfacet
  facet normal 0.682274 -0.723174 -0.107337
    outer loop
      vertex 0.0742055 -0.0968208 0.04
      vertex 0.0807462 -0.108461 0.16
      vertex 0.0729572 -0.0979985 0.04
    endloop
  endfacet
  facet normal 0.682282 -0.723166 -0.107337
    outer loop
      vertex 0.0807462 -0.108461 0.16
      vertex 0.0742055 -0.0968208 0.04
      vertex 0.0894842 -0.100217 0.16
    endloop
  endfacet
  facet normal 0.497112 -0.861022 -0.107335
    outer loop
      vertex 0.0729572 -0.0979985 0.04
      vertex 0.0639605 -0.118152 0.16
      vertex 0.0498768 -0.111324 0.04
    endloop
  endfacet
  facet normal 0.497103 -0.861027 -0.107337
    outer loop
      vertex 0.0639605 -0.118152 0.16
      vertex 0.0729572 -0.0979985 0.04
      vertex 0.0807462 -0.108461 0.16
    endloop
  endfacet
  facet normal -0.888468 -0.446209 -0.107338
    outer loop
      vertex -0.102845 -0.065602 0.04
      vertex -0.127063 -0.0462471 0.16
      vertex -0.114806 -0.0417859 0.04
    endloop
  endfacet
  facet normal -0.888466 -0.446213 -0.107337
    outer loop
      vertex -0.127063 -0.0462471 0.16
      vertex -0.102845 -0.065602 0.04
      vertex -0.118364 -0.0635679 0.16
    endloop
  endfacet
  facet normal -0.593729 -0.797474 -0.107333
    outer loop
      vertex -0.0824643 -0.0898909 0.04
      vertex -0.0676087 -0.117102 0.16
      vertex -0.0831558 -0.105527 0.16
    endloop
  endfacet
  facet normal -0.593716 -0.797484 -0.107337
    outer loop
      vertex -0.0676087 -0.117102 0.16
      vertex -0.0824643 -0.0898909 0.04
      vertex -0.061087 -0.105806 0.04
    endloop
  endfacet
  facet normal -0.593691 -0.797502 -0.107337
    outer loop
      vertex -0.0838408 -0.0888661 0.04
      vertex -0.0831558 -0.105527 0.16
      vertex -0.0927918 -0.0983536 0.16
    endloop
  endfacet
  facet normal -0.593721 -0.79748 -0.107334
    outer loop
      vertex -0.0831558 -0.105527 0.16
      vertex -0.0838408 -0.0888661 0.04
      vertex -0.0824643 -0.0898909 0.04
    endloop
  endfacet
  facet normal 0.0579328 -0.992533 -0.10734
    outer loop
      vertex -0.00539052 -0.121867 0.04
      vertex -0.00786218 -0.134989 0.16
      vertex -0.00710377 -0.121967 0.04
    endloop
  endfacet
  facet normal 0.0578502 -0.992538 -0.107342
    outer loop
      vertex -0.00786218 -0.134989 0.16
      vertex -0.00539052 -0.121867 0.04
      vertex 0.00413058 -0.13429 0.16
    endloop
  endfacet
  facet normal -0.17264 -0.979119 -0.107342
    outer loop
      vertex -0.00879385 -0.121669 0.04
      vertex -0.00786218 -0.134989 0.16
      vertex -0.0196928 -0.132903 0.16
    endloop
  endfacet
  facet normal -0.172641 -0.979118 -0.107342
    outer loop
      vertex -0.00786218 -0.134989 0.16
      vertex -0.00879385 -0.121669 0.04
      vertex -0.00710377 -0.121967 0.04
    endloop
  endfacet
  facet normal -0.393782 -0.912915 -0.107337
    outer loop
      vertex -0.061087 -0.105806 0.04
      vertex -0.0565781 -0.12186 0.16
      vertex -0.0676087 -0.117102 0.16
    endloop
  endfacet
  facet normal -0.393432 -0.913063 -0.10737
    outer loop
      vertex -0.0565781 -0.12186 0.16
      vertex -0.061087 -0.105806 0.04
      vertex -0.0595112 -0.106485 0.04
    endloop
  endfacet
  facet normal -0.393791 -0.912911 -0.107341
    outer loop
      vertex -0.0595112 -0.106485 0.04
      vertex -0.0387808 -0.129537 0.16
      vertex -0.0565781 -0.12186 0.16
    endloop
  endfacet
  facet normal -0.393795 -0.912909 -0.107341
    outer loop
      vertex -0.0387808 -0.129537 0.16
      vertex -0.0595112 -0.106485 0.04
      vertex -0.0350399 -0.117041 0.04
    endloop
  endfacet
  facet normal 0.934251 0.340082 -0.107328
    outer loop
      vertex 0.131573 0.0311833 0.16
      vertex 0.109766 0.0532189 0.04
      vertex 0.124943 0.0493968 0.16
    endloop
  endfacet
  facet normal 0.934266 0.340039 -0.107338
    outer loop
      vertex 0.109766 0.0532189 0.04
      vertex 0.131573 0.0311833 0.16
      vertex 0.118881 0.0281752 0.04
    endloop
  endfacet
  facet normal 0.830635 0.546374 -0.107335
    outer loop
      vertex 0.120835 0.0606854 0.16
      vertex 0.108236 0.0562654 0.04
      vertex 0.114233 0.0707222 0.16
    endloop
  endfacet
  facet normal 0.830685 0.546298 -0.107337
    outer loop
      vertex 0.108236 0.0562654 0.04
      vertex 0.120835 0.0606854 0.16
      vertex 0.109179 0.0548315 0.04
    endloop
  endfacet
  facet normal 0.934283 0.339992 -0.107336
    outer loop
      vertex 0.124943 0.0493968 0.16
      vertex 0.109179 0.0548315 0.04
      vertex 0.120835 0.0606854 0.16
    endloop
  endfacet
  facet normal 0.934253 0.340076 -0.107328
    outer loop
      vertex 0.109179 0.0548315 0.04
      vertex 0.124943 0.0493968 0.16
      vertex 0.109766 0.0532189 0.04
    endloop
  endfacet
  facet normal -0.888466 0.446213 -0.107337
    outer loop
      vertex -0.102845 0.065602 0.04
      vertex -0.127063 0.0462471 0.16
      vertex -0.118364 0.0635679 0.16
    endloop
  endfacet
  facet normal -0.888468 0.446209 -0.107338
    outer loop
      vertex -0.127063 0.0462471 0.16
      vertex -0.102845 0.065602 0.04
      vertex -0.114806 0.0417859 0.04
    endloop
  endfacet
  facet normal -0.994223 0 -0.107335
    outer loop
      vertex -0.121348 -0.0141835 0.04
      vertex -0.134303 0.0156978 0.16
      vertex -0.121348 0.0141835 0.04
    endloop
  endfacet
  facet normal -0.994223 -0 -0.107335
    outer loop
      vertex -0.134303 0.0156978 0.16
      vertex -0.121348 -0.0141835 0.04
      vertex -0.134303 -0.0156978 0.16
    endloop
  endfacet
  facet normal -0.593716 0.797484 -0.107337
    outer loop
      vertex -0.0824643 0.0898909 0.04
      vertex -0.0676087 0.117102 0.16
      vertex -0.061087 0.105806 0.04
    endloop
  endfacet
  facet normal -0.593729 0.797474 -0.107333
    outer loop
      vertex -0.0676087 0.117102 0.16
      vertex -0.0824643 0.0898909 0.04
      vertex -0.0831558 0.105527 0.16
    endloop
  endfacet
  facet normal -0.393432 0.913063 -0.10737
    outer loop
      vertex -0.061087 0.105806 0.04
      vertex -0.0565781 0.12186 0.16
      vertex -0.0595112 0.106485 0.04
    endloop
  endfacet
  facet normal -0.393782 0.912915 -0.107337
    outer loop
      vertex -0.0565781 0.12186 0.16
      vertex -0.061087 0.105806 0.04
      vertex -0.0676087 0.117102 0.16
    endloop
  endfacet
  facet normal -0.172641 0.979118 -0.107342
    outer loop
      vertex -0.00879385 0.121669 0.04
      vertex -0.00786218 0.134989 0.16
      vertex -0.00710377 0.121967 0.04
    endloop
  endfacet
  facet normal -0.17264 0.979119 -0.107342
    outer loop
      vertex -0.00786218 0.134989 0.16
      vertex -0.00879385 0.121669 0.04
      vertex -0.0196928 0.132903 0.16
    endloop
  endfacet
  facet normal -0.761616 -0.639079 -0.107333
    outer loop
      vertex -0.084944 -0.0875514 0.04
      vertex -0.112972 -0.0743032 0.16
      vertex -0.102075 -0.0671357 0.04
    endloop
  endfacet
  facet normal -0.761638 -0.63905 -0.107341
    outer loop
      vertex -0.112972 -0.0743032 0.16
      vertex -0.084944 -0.0875514 0.04
      vertex -0.100514 -0.089151 0.16
    endloop
  endfacet
  facet normal 0.285162 0.95245 -0.107337
    outer loop
      vertex 0.0212153 0.120318 0.04
      vertex 0.0420485 0.127604 0.16
      vertex 0.0467465 0.112674 0.04
    endloop
  endfacet
  facet normal 0.285147 0.952455 -0.107334
    outer loop
      vertex 0.0420485 0.127604 0.16
      vertex 0.0212153 0.120318 0.04
      vertex 0.0234802 0.133163 0.16
    endloop
  endfacet
  facet normal 0.285117 0.952464 -0.107339
    outer loop
      vertex 0.0483906 0.112182 0.04
      vertex 0.0420485 0.127604 0.16
      vertex 0.0535569 0.124159 0.16
    endloop
  endfacet
  facet normal 0.285034 0.952488 -0.107346
    outer loop
      vertex 0.0420485 0.127604 0.16
      vertex 0.0483906 0.112182 0.04
      vertex 0.0467465 0.112674 0.04
    endloop
  endfacet
  facet normal 0.497103 0.861027 -0.107337
    outer loop
      vertex 0.0729572 0.0979985 0.04
      vertex 0.0639605 0.118152 0.16
      vertex 0.0807462 0.108461 0.16
    endloop
  endfacet
  facet normal 0.497112 0.861022 -0.107335
    outer loop
      vertex 0.0639605 0.118152 0.16
      vertex 0.0729572 0.0979985 0.04
      vertex 0.0498768 0.111324 0.04
    endloop
  endfacet
  facet normal 0.830682 0.546302 -0.10734
    outer loop
      vertex 0.114233 0.0707222 0.16
      vertex 0.0935906 0.0785319 0.04
      vertex 0.103583 0.0869161 0.16
    endloop
  endfacet
  facet normal 0.830653 0.546347 -0.107332
    outer loop
      vertex 0.0935906 0.0785319 0.04
      vertex 0.114233 0.0707222 0.16
      vertex 0.108236 0.0562654 0.04
    endloop
  endfacet
  facet normal -0.888528 0.446089 -0.107347
    outer loop
      vertex -0.118364 0.0635679 0.16
      vertex -0.102075 0.0671357 0.04
      vertex -0.102845 0.065602 0.04
    endloop
  endfacet
  facet normal -0.888453 0.446242 -0.107333
    outer loop
      vertex -0.102075 0.0671357 0.04
      vertex -0.118364 0.0635679 0.16
      vertex -0.112972 0.0743032 0.16
    endloop
  endfacet
  facet normal -0.761638 0.63905 -0.107341
    outer loop
      vertex -0.084944 0.0875514 0.04
      vertex -0.112972 0.0743032 0.16
      vertex -0.100514 0.089151 0.16
    endloop
  endfacet
  facet normal -0.761616 0.639079 -0.107333
    outer loop
      vertex -0.112972 0.0743032 0.16
      vertex -0.084944 0.0875514 0.04
      vertex -0.102075 0.0671357 0.04
    endloop
  endfacet
  facet normal -0.967425 0.22928 -0.107333
    outer loop
      vertex -0.121348 0.0141835 0.04
      vertex -0.129833 0.0345578 0.16
      vertex -0.115202 0.040116 0.04
    endloop
  endfacet
  facet normal -0.967422 0.229288 -0.107335
    outer loop
      vertex -0.129833 0.0345578 0.16
      vertex -0.121348 0.0141835 0.04
      vertex -0.134303 0.0156978 0.16
    endloop
  endfacet
  facet normal -0.393791 0.912911 -0.107341
    outer loop
      vertex -0.0350399 0.117041 0.04
      vertex -0.0565781 0.12186 0.16
      vertex -0.0387808 0.129537 0.16
    endloop
  endfacet
  facet normal -0.393795 0.912909 -0.107341
    outer loop
      vertex -0.0565781 0.12186 0.16
      vertex -0.0350399 0.117041 0.04
      vertex -0.0595112 0.106485 0.04
    endloop
  endfacet
  facet normal -0.172649 0.979117 -0.107342
    outer loop
      vertex -0.0350399 0.117041 0.04
      vertex -0.0196928 0.132903 0.16
      vertex -0.00879385 0.121669 0.04
    endloop
  endfacet
  facet normal -0.172658 0.979115 -0.107341
    outer loop
      vertex -0.0196928 0.132903 0.16
      vertex -0.0350399 0.117041 0.04
      vertex -0.0387808 0.129537 0.16
    endloop
  endfacet
  facet normal 0.68226 0.723187 -0.10734
    outer loop
      vertex 0.0935906 0.0785319 0.04
      vertex 0.0894842 0.100217 0.16
      vertex 0.103583 0.0869161 0.16
    endloop
  endfacet
  facet normal 0.682277 0.723171 -0.107336
    outer loop
      vertex 0.0894842 0.100217 0.16
      vertex 0.0935906 0.0785319 0.04
      vertex 0.0742055 0.0968208 0.04
    endloop
  endfacet
  facet normal 0 0 1
    outer loop
      vertex 0.133823 0.0119319 0.16
      vertex 0.133823 -0.0119319 0.16
      vertex 0.135217 0 0.16
    endloop
  endfacet
  facet normal 0 0 1
    outer loop
      vertex 0.124943 0.0493968 0.16
      vertex 0.133823 0.0119319 0.16
      vertex 0.131573 0.0311833 0.16
    endloop
  endfacet
  facet normal 0 0 1
    outer loop
      vertex 0.133823 0.0119319 0.16
      vertex 0.124943 0.0493968 0.16
      vertex 0.133823 -0.0119319 0.16
    endloop
  endfacet
  facet normal 0 0 1
    outer loop
      vertex 0.124943 -0.0493968 0.16
      vertex 0.133823 -0.0119319 0.16
      vertex 0.124943 0.0493968 0.16
    endloop
  endfacet
  facet normal 0 0 1
    outer loop
      vertex 0.133823 -0.0119319 0.16
      vertex 0.124943 -0.0493968 0.16
      vertex 0.131573 -0.0311833 0.16
    endloop
  endfacet
  facet normal 0 0 1
    outer loop
      vertex 0.114233 0.0707222 0.16
      vertex 0.124943 0.0493968 0.16
      vertex 0.120835 0.0606854 0.16
    endloop
  endfacet
  facet normal 0 0 1
    outer loop
      vertex 0.124943 0.0493968 0.16
      vertex 0.114233 0.0707222 0.16
      vertex 0.124943 -0.0493968 0.16
    endloop
  endfacet
  facet normal 0 0 1
    outer loop
      vertex 0.114233 -0.0707222 0.16
      vertex 0.124943 -0.0493968 0.16
      vertex 0.114233 0.0707222 0.16
    endloop
  endfacet
  facet normal 0 0 1
    outer loop
      vertex 0.124943 -0.0493968 0.16
      vertex 0.114233 -0.0707222 0.16
      vertex 0.120835 -0.0606854 0.16
    endloop
  endfacet
  facet normal 0 0 1
    outer loop
      vertex 0.0894842 0.100217 0.16
      vertex 0.114233 0.0707222 0.16
      vertex 0.103583 0.0869161 0.16
    endloop
  endfacet
  facet normal 0 0 1
    outer loop
      vertex 0.114233 0.0707222 0.16
      vertex 0.0894842 0.100217 0.16
      vertex 0.114233 -0.0707222 0.16
    endloop
  endfacet
  facet normal 0 0 1
    outer loop
      vertex 0.0894842 -0.100217 0.16
      vertex 0.114233 -0.0707222 0.16
      vertex 0.0894842 0.100217 0.16
    endloop
  endfacet
  facet normal 0 0 1
    outer loop
      vertex 0.114233 -0.0707222 0.16
      vertex 0.0894842 -0.100217 0.16
      vertex 0.103583 -0.0869161 0.16
    endloop
  endfacet
  facet normal 0 0 1
    outer loop
      vertex 0.0639605 0.118152 0.16
      vertex 0.0894842 0.100217 0.16
      vertex 0.0807462 0.108461 0.16
    endloop
  endfacet
  facet normal 0 0 1
    outer loop
      vertex 0.0894842 0.100217 0.16
      vertex 0.0639605 0.118152 0.16
      vertex 0.0894842 -0.100217 0.16
    endloop
  endfacet
  facet normal 0 0 1
    outer loop
      vertex 0.0639605 -0.118152 0.16
      vertex 0.0894842 -0.100217 0.16
      vertex 0.0639605 0.118152 0.16
    endloop
  endfacet
  facet normal 0 0 1
    outer loop
      vertex 0.0894842 -0.100217 0.16
      vertex 0.0639605 -0.118152 0.16
      vertex 0.0807462 -0.108461 0.16
    endloop
  endfacet
  facet normal 0 0 1
    outer loop
      vertex 0.0420485 0.127604 0.16
      vertex 0.0639605 0.118152 0.16
      vertex 0.0535569 0.124159 0.16
    endloop
  endfacet
  facet normal 0 0 1
    outer loop
      vertex 0.0639605 0.118152 0.16
      vertex 0.0420485 0.127604 0.16
      vertex 0.0639605 -0.118152 0.16
    endloop
  endfacet
  facet normal 0 0 1
    outer loop
      vertex 0.0420485 -0.127604 0.16
      vertex 0.0639605 -0.118152 0.16
      vertex 0.0420485 0.127604 0.16
    endloop
  endfacet
  facet normal 0 0 1
    outer loop
      vertex 0.0639605 -0.118152 0.16
      vertex 0.0420485 -0.127604 0.16
      vertex 0.0535569 -0.124159 0.16
    endloop
  endfacet
  facet normal 0 0 1
    outer loop
      vertex 0.00413058 0.13429 0.16
      vertex 0.0420485 0.127604 0.16
      vertex 0.0234802 0.133163 0.16
    endloop
  endfacet
  facet normal 0 0 1
    outer loop
      vertex 0.0420485 0.127604 0.16
      vertex 0.00413058 0.13429 0.16
      vertex 0.0420485 -0.127604 0.16
    endloop
  endfacet
  facet normal 0 0 1
    outer loop
      vertex 0.00413058 -0.13429 0.16
      vertex 0.0420485 -0.127604 0.16
      vertex 0.00413058 0.13429 0.16
    endloop
  endfacet
  facet normal 0 0 1
    outer loop
      vertex 0.0420485 -0.127604 0.16
      vertex 0.00413058 -0.13429 0.16
      vertex 0.0234802 -0.133163 0.16
    endloop
  endfacet
  facet normal 0 0 1
    outer loop
      vertex -0.0196928 0.132903 0.16
      vertex 0.00413058 0.13429 0.16
      vertex -0.00786218 0.134989 0.16
    endloop
  endfacet
  facet normal 0 0 1
    outer loop
      vertex 0.00413058 0.13429 0.16
      vertex -0.0196928 0.132903 0.16
      vertex 0.00413058 -0.13429 0.16
    endloop
  endfacet
  facet normal -0 0 1
    outer loop
      vertex -0.0196928 -0.132903 0.16
      vertex 0.00413058 -0.13429 0.16
      vertex -0.0196928 0.132903 0.16
    endloop
  endfacet
  facet normal 0 0 1
    outer loop
      vertex 0.00413058 -0.13429 0.16
      vertex -0.0196928 -0.132903 0.16
      vertex -0.00786218 -0.134989 0.16
    endloop
  endfacet
  facet normal 0 0 1
    outer loop
      vertex -0.0565781 0.12186 0.16
      vertex -0.0196928 0.132903 0.16
      vertex -0.0387808 0.129537 0.16
    endloop
  endfacet
  facet normal 0 0 1
    outer loop
      vertex -0.0196928 0.132903 0.16
      vertex -0.0565781 0.12186 0.16
      vertex -0.0196928 -0.132903 0.16
    endloop
  endfacet
  facet normal -0 0 1
    outer loop
      vertex -0.0565781 -0.12186 0.16
      vertex -0.0196928 -0.132903 0.16
      vertex -0.0565781 0.12186 0.16
    endloop
  endfacet
  facet normal 0 0 1
    outer loop
      vertex -0.0196928 -0.132903 0.16
      vertex -0.0565781 -0.12186 0.16
      vertex -0.0387808 -0.129537 0.16
    endloop
  endfacet
  facet normal 0 0 1
    outer loop
      vertex -0.0831558 0.105527 0.16
      vertex -0.0565781 0.12186 0.16
      vertex -0.0676087 0.117102 0.16
    endloop
  endfacet
  facet normal 0 0 1
    outer loop
      vertex -0.0565781 0.12186 0.16
      vertex -0.0831558 0.105527 0.16
      vertex -0.0565781 -0.12186 0.16
    endloop
  endfacet
  facet normal -0 0 1
    outer loop
      vertex -0.0831558 -0.105527 0.16
      vertex -0.0565781 -0.12186 0.16
      vertex -0.0831558 0.105527 0.16
    endloop
  endfacet
  facet normal 0 0 1
    outer loop
      vertex -0.0565781 -0.12186 0.16
      vertex -0.0831558 -0.105527 0.16
      vertex -0.0676087 -0.117102 0.16
    endloop
  endfacet
  facet normal 0 0 1
    outer loop
      vertex -0.100514 0.089151 0.16
      vertex -0.0831558 0.105527 0.16
      vertex -0.0927918 0.0983536 0.16
    endloop
  endfacet
  facet normal 0 0 1
    outer loop
      vertex -0.0831558 0.105527 0.16
      vertex -0.100514 0.089151 0.16
      vertex -0.0831558 -0.105527 0.16
    endloop
  endfacet
  facet normal -0 0 1
    outer loop
      vertex -0.100514 -0.089151 0.16
      vertex -0.0831558 -0.105527 0.16
      vertex -0.100514 0.089151 0.16
    endloop
  endfacet
  facet normal 0 0 1
    outer loop
      vertex -0.0831558 -0.105527 0.16
      vertex -0.100514 -0.089151 0.16
      vertex -0.0927918 -0.0983536 0.16
    endloop
  endfacet
  facet normal 0 0 1
    outer loop
      vertex -0.118364 0.0635679 0.16
      vertex -0.100514 0.089151 0.16
      vertex -0.112972 0.0743032 0.16
    endloop
  endfacet
  facet normal 0 0 1
    outer loop
      vertex -0.100514 0.089151 0.16
      vertex -0.118364 0.0635679 0.16
      vertex -0.100514 -0.089151 0.16
    endloop
  endfacet
  facet normal -0 0 1
    outer loop
      vertex -0.118364 -0.0635679 0.16
      vertex -0.100514 -0.089151 0.16
      vertex -0.118364 0.0635679 0.16
    endloop
  endfacet
  facet normal 0 0 1
    outer loop
      vertex -0.100514 -0.089151 0.16
      vertex -0.118364 -0.0635679 0.16
      vertex -0.112972 -0.0743032 0.16
    endloop
  endfacet
  facet normal 0 0 1
    outer loop
      vertex -0.129833 0.0345578 0.16
      vertex -0.118364 0.0635679 0.16
      vertex -0.127063 0.0462471 0.16
    endloop
  endfacet
  facet normal 0 0 1
    outer loop
      vertex -0.118364 0.0635679 0.16
      vertex -0.129833 0.0345578 0.16
      vertex -0.118364 -0.0635679 0.16
    endloop
  endfacet
  facet normal -0 0 1
    outer loop
      vertex -0.129833 -0.0345578 0.16
      vertex -0.118364 -0.0635679 0.16
      vertex -0.129833 0.0345578 0.16
    endloop
  endfacet
  facet normal 0 0 1
    outer loop
      vertex -0.118364 -0.0635679 0.16
      vertex -0.129833 -0.0345578 0.16
      vertex -0.127063 -0.0462471 0.16
    endloop
  endfacet
  facet normal -0 0 1
    outer loop
      vertex -0.134303 0.0156978 0.16
      vertex -0.129833 -0.0345578 0.16
      vertex -0.129833 0.0345578 0.16
    endloop
  endfacet
  facet normal 0 0 1
    outer loop
      vertex -0.129833 -0.0345578 0.16
      vertex -0.134303 0.0156978 0.16
      vertex -0.134303 -0.0156978 0.16
    endloop
  endfacet
  facet normal 0 0 -1
    outer loop
      vertex 0.121975 -0.00170455 0.04
      vertex 0.121975 0.00170455 0.04
      vertex 0.122174 0 0.04
    endloop
  endfacet
  facet normal 0 0 -1
    outer loop
      vertex 0.109766 -0.0532189 0.04
      vertex 0.121975 -0.00170455 0.04
      vertex 0.118881 -0.0281752 0.04
    endloop
  endfacet
  facet normal -0 0 -1
    outer loop
      vertex 0.121975 -0.00170455 0.04
      vertex 0.109766 -0.0532189 0.04
      vertex 0.121975 0.00170455 0.04
    endloop
  endfacet
  facet normal 0 0 -1
    outer loop
      vertex 0.109766 0.0532189 0.04
      vertex 0.121975 0.00170455 0.04
      vertex 0.109766 -0.0532189 0.04
    endloop
  endfacet
  facet normal 0 0 -1
    outer loop
      vertex 0.121975 0.00170455 0.04
      vertex 0.109766 0.0532189 0.04
      vertex 0.118881 0.0281752 0.04
    endloop
  endfacet
  facet normal 0 0 -1
    outer loop
      vertex 0.108236 -0.0562654 0.04
      vertex 0.109766 -0.0532189 0.04
      vertex 0.109179 -0.0548315 0.04
    endloop
  endfacet
  facet normal -0 0 -1
    outer loop
      vertex 0.109766 -0.0532189 0.04
      vertex 0.108236 -0.0562654 0.04
      vertex 0.109766 0.0532189 0.04
    endloop
  endfacet
  facet normal 0 0 -1
    outer loop
      vertex 0.108236 0.0562654 0.04
      vertex 0.109766 0.0532189 0.04
      vertex 0.108236 -0.0562654 0.04
    endloop
  endfacet
  facet normal 0 0 -1
    outer loop
      vertex 0.109766 0.0532189 0.04
      vertex 0.108236 0.0562654 0.04
      vertex 0.109179 0.0548315 0.04
    endloop
  endfacet
  facet normal 0 0 -1
    outer loop
      vertex 0.0742055 -0.0968208 0.04
      vertex 0.108236 -0.0562654 0.04
      vertex 0.0935906 -0.0785319 0.04
    endloop
  endfacet
  facet normal -0 0 -1
    outer loop
      vertex 0.108236 -0.0562654 0.04
      vertex 0.0742055 -0.0968208 0.04
      vertex 0.108236 0.0562654 0.04
    endloop
  endfacet
  facet normal 0 0 -1
    outer loop
      vertex 0.0742055 0.0968208 0.04
      vertex 0.108236 0.0562654 0.04
      vertex 0.0742055 -0.0968208 0.04
    endloop
  endfacet
  facet normal 0 0 -1
    outer loop
      vertex 0.108236 0.0562654 0.04
      vertex 0.0742055 0.0968208 0.04
      vertex 0.0935906 0.0785319 0.04
    endloop
  endfacet
  facet normal 0 0 -1
    outer loop
      vertex 0.0498768 -0.111324 0.04
      vertex 0.0742055 -0.0968208 0.04
      vertex 0.0729572 -0.0979985 0.04
    endloop
  endfacet
  facet normal -0 0 -1
    outer loop
      vertex 0.0742055 -0.0968208 0.04
      vertex 0.0498768 -0.111324 0.04
      vertex 0.0742055 0.0968208 0.04
    endloop
  endfacet
  facet normal 0 0 -1
    outer loop
      vertex 0.0498768 0.111324 0.04
      vertex 0.0742055 0.0968208 0.04
      vertex 0.0498768 -0.111324 0.04
    endloop
  endfacet
  facet normal 0 0 -1
    outer loop
      vertex 0.0742055 0.0968208 0.04
      vertex 0.0498768 0.111324 0.04
      vertex 0.0729572 0.0979985 0.04
    endloop
  endfacet
  facet normal 0 0 -1
    outer loop
      vertex 0.0467465 -0.112674 0.04
      vertex 0.0498768 -0.111324 0.04
      vertex 0.0483906 -0.112182 0.04
    endloop
  endfacet
  facet normal -0 0 -1
    outer loop
      vertex 0.0498768 -0.111324 0.04
      vertex 0.0467465 -0.112674 0.04
      vertex 0.0498768 0.111324 0.04
    endloop
  endfacet
  facet normal 0 0 -1
    outer loop
      vertex 0.0467465 0.112674 0.04
      vertex 0.0498768 0.111324 0.04
      vertex 0.0467465 -0.112674 0.04
    endloop
  endfacet
  facet normal 0 0 -1
    outer loop
      vertex 0.0498768 0.111324 0.04
      vertex 0.0467465 0.112674 0.04
      vertex 0.0483906 0.112182 0.04
    endloop
  endfacet
  facet normal 0 0 -1
    outer loop
      vertex -0.00539052 -0.121867 0.04
      vertex 0.0467465 -0.112674 0.04
      vertex 0.0212153 -0.120318 0.04
    endloop
  endfacet
  facet normal -0 0 -1
    outer loop
      vertex 0.0467465 -0.112674 0.04
      vertex -0.00539052 -0.121867 0.04
      vertex 0.0467465 0.112674 0.04
    endloop
  endfacet
  facet normal 0 0 -1
    outer loop
      vertex -0.00539052 0.121867 0.04
      vertex 0.0467465 0.112674 0.04
      vertex -0.00539052 -0.121867 0.04
    endloop
  endfacet
  facet normal 0 0 -1
    outer loop
      vertex 0.0467465 0.112674 0.04
      vertex -0.00539052 0.121867 0.04
      vertex 0.0212153 0.120318 0.04
    endloop
  endfacet
  facet normal 0 0 -1
    outer loop
      vertex -0.00879385 -0.121669 0.04
      vertex -0.00539052 -0.121867 0.04
      vertex -0.00710377 -0.121967 0.04
    endloop
  endfacet
  facet normal 0 0 -1
    outer loop
      vertex -0.00539052 -0.121867 0.04
      vertex -0.00879385 -0.121669 0.04
      vertex -0.00539052 0.121867 0.04
    endloop
  endfacet
  facet normal 0 0 -1
    outer loop
      vertex -0.00879385 0.121669 0.04
      vertex -0.00539052 0.121867 0.04
      vertex -0.00879385 -0.121669 0.04
    endloop
  endfacet
  facet normal -0 0 -1
    outer loop
      vertex -0.00539052 0.121867 0.04
      vertex -0.00879385 0.121669 0.04
      vertex -0.00710377 0.121967 0.04
    endloop
  endfacet
  facet normal 0 0 -1
    outer loop
      vertex -0.0595112 -0.106485 0.04
      vertex -0.00879385 -0.121669 0.04
      vertex -0.0350399 -0.117041 0.04
    endloop
  endfacet
  facet normal 0 0 -1
    outer loop
      vertex -0.00879385 -0.121669 0.04
      vertex -0.0595112 -0.106485 0.04
      vertex -0.00879385 0.121669 0.04
    endloop
  endfacet
  facet normal 0 0 -1
    outer loop
      vertex -0.0595112 0.106485 0.04
      vertex -0.00879385 0.121669 0.04
      vertex -0.0595112 -0.106485 0.04
    endloop
  endfacet
  facet normal 0 0 -1
    outer loop
      vertex -0.00879385 0.121669 0.04
      vertex -0.0595112 0.106485 0.04
      vertex -0.0350399 0.117041 0.04
    endloop
  endfacet
  facet normal 0 0 -1
    outer loop
      vertex -0.0824643 -0.0898909 0.04
      vertex -0.0595112 -0.106485 0.04
      vertex -0.061087 -0.105806 0.04
    endloop
  endfacet
  facet normal 0 0 -1
    outer loop
      vertex -0.0595112 -0.106485 0.04
      vertex -0.0824643 -0.0898909 0.04
      vertex -0.0595112 0.106485 0.04
    endloop
  endfacet
  facet normal 0 0 -1
    outer loop
      vertex -0.0824643 0.0898909 0.04
      vertex -0.0595112 0.106485 0.04
      vertex -0.0824643 -0.0898909 0.04
    endloop
  endfacet
  facet normal 0 0 -1
    outer loop
      vertex -0.0595112 0.106485 0.04
      vertex -0.0824643 0.0898909 0.04
      vertex -0.061087 0.105806 0.04
    endloop
  endfacet
  facet normal 0 0 -1
    outer loop
      vertex -0.084944 -0.0875514 0.04
      vertex -0.0824643 -0.0898909 0.04
      vertex -0.0838408 -0.0888661 0.04
    endloop
  endfacet
  facet normal 0 0 -1
    outer loop
      vertex -0.0824643 -0.0898909 0.04
      vertex -0.084944 -0.0875514 0.04
      vertex -0.0824643 0.0898909 0.04
    endloop
  endfacet
  facet normal 0 0 -1
    outer loop
      vertex -0.084944 0.0875514 0.04
      vertex -0.0824643 0.0898909 0.04
      vertex -0.084944 -0.0875514 0.04
    endloop
  endfacet
  facet normal 0 0 -1
    outer loop
      vertex -0.0824643 0.0898909 0.04
      vertex -0.084944 0.0875514 0.04
      vertex -0.0838408 0.0888661 0.04
    endloop
  endfacet
  facet normal 0 0 -1
    outer loop
      vertex -0.102845 -0.065602 0.04
      vertex -0.084944 -0.0875514 0.04
      vertex -0.102075 -0.0671357 0.04
    endloop
  endfacet
  facet normal 0 0 -1
    outer loop
      vertex -0.084944 -0.0875514 0.04
      vertex -0.102845 -0.065602 0.04
      vertex -0.084944 0.0875514 0.04
    endloop
  endfacet
  facet normal 0 0 -1
    outer loop
      vertex -0.102845 0.065602 0.04
      vertex -0.084944 0.0875514 0.04
      vertex -0.102845 -0.065602 0.04
    endloop
  endfacet
  facet normal 0 0 -1
    outer loop
      vertex -0.084944 0.0875514 0.04
      vertex -0.102845 0.065602 0.04
      vertex -0.102075 0.0671357 0.04
    endloop
  endfacet
  facet normal 0 0 -1
    outer loop
      vertex -0.115202 -0.040116 0.04
      vertex -0.102845 -0.065602 0.04
      vertex -0.114806 -0.0417859 0.04
    endloop
  endfacet
  facet normal 0 0 -1
    outer loop
      vertex -0.102845 -0.065602 0.04
      vertex -0.115202 -0.040116 0.04
      vertex -0.102845 0.065602 0.04
    endloop
  endfacet
  facet normal 0 0 -1
    outer loop
      vertex -0.115202 0.040116 0.04
      vertex -0.102845 0.065602 0.04
      vertex -0.115202 -0.040116 0.04
    endloop
  endfacet
  facet normal 0 0 -1
    outer loop
      vertex -0.102845 0.065602 0.04
      vertex -0.115202 0.040116 0.04
      vertex -0.114806 0.0417859 0.04
    endloop
  endfacet
  facet normal 0 0 -1
    outer loop
      vertex -0.121348 -0.0141835 0.04
      vertex -0.115202 0.040116 0.04
      vertex -0.115202 -0.040116 0.04
    endloop
  endfacet
  facet normal 0 0 -1
    outer loop
      vertex -0.115202 0.040116 0.04
      vertex -0.121348 -0.0141835 0.04
      vertex -0.121348 0.0141835 0.04
    endloop
  endfacet
endsolid OpenSCAD_Model
