solid OpenSCAD_Model
  facet normal 0.991445 0.130528 0
    outer loop
      vertex 0.075 0 0.27
      vertex 0.0724444 0.0194114 0.02
      vertex 0.0724444 0.0194114 0.27
    endloop
  endfacet
  facet normal 0.991445 0.130528 0
    outer loop
      vertex 0.0724444 0.0194114 0.02
      vertex 0.075 0 0.27
      vertex 0.075 0 0.02
    endloop
  endfacet
  facet normal 0.92388 0.382682 0
    outer loop
      vertex 0.0724444 0.0194114 0.27
      vertex 0.0649519 0.0375 0.02
      vertex 0.0649519 0.0375 0.27
    endloop
  endfacet
  facet normal 0.92388 0.382682 0
    outer loop
      vertex 0.0649519 0.0375 0.02
      vertex 0.0724444 0.0194114 0.27
      vertex 0.0724444 0.0194114 0.02
    endloop
  endfacet
  facet normal 0.793353 0.608762 0
    outer loop
      vertex 0.0649519 0.0375 0.27
      vertex 0.053033 0.053033 0.02
      vertex 0.053033 0.053033 0.27
    endloop
  endfacet
  facet normal 0.793353 0.608762 0
    outer loop
      vertex 0.053033 0.053033 0.02
      vertex 0.0649519 0.0375 0.27
      vertex 0.0649519 0.0375 0.02
    endloop
  endfacet
  facet normal 0.608762 0.793353 -0
    outer loop
      vertex 0.053033 0.053033 0.02
      vertex 0.0375 0.0649519 0.27
      vertex 0.053033 0.053033 0.27
    endloop
  endfacet
  facet normal 0.608762 0.793353 0
    outer loop
      vertex 0.0375 0.0649519 0.27
      vertex 0.053033 0.053033 0.02
      vertex 0.0375 0.0649519 0.02
    endloop
  endfacet
  facet normal 0.382682 0.92388 -0
    outer loop
      vertex 0.0375 0.0649519 0.02
      vertex 0.0194114 0.0724444 0.27
      vertex 0.0375 0.0649519 0.27
    endloop
  endfacet
  facet normal 0.382682 0.92388 0
    outer loop
      vertex 0.0194114 0.0724444 0.27
      vertex 0.0375 0.0649519 0.02
      vertex 0.0194114 0.0724444 0.02
    endloop
  endfacet
  facet normal 0.130528 0.991445 -0
    outer loop
      vertex 0.0194114 0.0724444 0.02
      vertex 0 0.075 0.27
      vertex 0.0194114 0.0724444 0.27
    endloop
  endfacet
  facet normal 0.130528 0.991445 0
    outer loop
      vertex 0 0.075 0.27
      vertex 0.0194114 0.0724444 0.02
      vertex 0 0.075 0.02
    endloop
  endfacet
  facet normal -0.130528 0.991445 0
    outer loop
      vertex 0 0.075 0.02
      vertex -0.0194114 0.0724444 0.27
      vertex 0 0.075 0.27
    endloop
  endfacet
  facet normal -0.130528 0.991445 0
    outer loop
      vertex -0.0194114 0.0724444 0.27
      vertex 0 0.075 0.02
      vertex -0.0194114 0.0724444 0.02
    endloop
  endfacet
  facet normal -0.382682 0.92388 0
    outer loop
      vertex -0.0194114 0.0724444 0.02
      vertex -0.0375 0.0649519 0.27
      vertex -0.0194114 0.0724444 0.27
    endloop
  endfacet
  facet normal -0.382682 0.92388 0
    outer loop
      vertex -0.0375 0.0649519 0.27
      vertex -0.0194114 0.0724444 0.02
      vertex -0.0375 0.0649519 0.02
    endloop
  endfacet
  facet normal -0.608762 0.793353 0
    outer loop
      vertex -0.0375 0.0649519 0.02
      vertex -0.053033 0.053033 0.27
      vertex -0.0375 0.0649519 0.27
    endloop
  endfacet
  facet normal -0.608762 0.793353 0
    outer loop
      vertex -0.053033 0.053033 0.27
      vertex -0.0375 0.0649519 0.02
      vertex -0.053033 0.053033 0.02
    endloop
  endfacet
  facet normal -0.793353 0.608762 0
    outer loop
      vertex -0.0649519 0.0375 0.02
      vertex -0.053033 0.053033 0.27
      vertex -0.053033 0.053033 0.02
    endloop
  endfacet
  facet normal -0.793353 0.608762 0
    outer loop
      vertex -0.053033 0.053033 0.27
      vertex -0.0649519 0.0375 0.02
      vertex -0.0649519 0.0375 0.27
    endloop
  endfacet
  facet normal -0.92388 0.382682 0
    outer loop
      vertex -0.0724444 0.0194114 0.02
      vertex -0.0649519 0.0375 0.27
      vertex -0.0649519 0.0375 0.02
    endloop
  endfacet
  facet normal -0.92388 0.382682 0
    outer loop
      vertex -0.0649519 0.0375 0.27
      vertex -0.0724444 0.0194114 0.02
      vertex -0.0724444 0.0194114 0.27
    endloop
  endfacet
  facet normal -0.991445 0.130528 0
    outer loop
      vertex -0.075 0 0.02
      vertex -0.0724444 0.0194114 0.27
      vertex -0.0724444 0.0194114 0.02
    endloop
  endfacet
  facet normal -0.991445 0.130528 0
    outer loop
      vertex -0.0724444 0.0194114 0.27
      vertex -0.075 0 0.02
      vertex -0.075 0 0.27
    endloop
  endfacet
  facet normal -0.991445 -0.130528 0
    outer loop
      vertex -0.0724444 -0.0194114 0.02
      vertex -0.075 0 0.27
      vertex -0.075 0 0.02
    endloop
  endfacet
  facet normal -0.991445 -0.130528 0
    outer loop
      vertex -0.075 0 0.27
      vertex -0.0724444 -0.0194114 0.02
      vertex -0.0724444 -0.0194114 0.27
    endloop
  endfacet
  facet normal -0.92388 -0.382682 0
    outer loop
      vertex -0.0649519 -0.0375 0.02
      vertex -0.0724444 -0.0194114 0.27
      vertex -0.0724444 -0.0194114 0.02
    endloop
  endfacet
  facet normal -0.92388 -0.382682 0
    outer loop
      vertex -0.0724444 -0.0194114 0.27
      vertex -0.0649519 -0.0375 0.02
      vertex -0.0649519 -0.0375 0.27
    endloop
  endfacet
  facet normal -0.793353 -0.608762 0
    outer loop
      vertex -0.053033 -0.053033 0.02
      vertex -0.0649519 -0.0375 0.27
      vertex -0.0649519 -0.0375 0.02
    endloop
  endfacet
  facet normal -0.793353 -0.608762 0
    outer loop
      vertex -0.0649519 -0.0375 0.27
      vertex -0.053033 -0.053033 0.02
      vertex -0.053033 -0.053033 0.27
    endloop
  endfacet
  facet normal -0.608762 -0.793353 0
    outer loop
      vertex -0.053033 -0.053033 0.02
      vertex -0.0375 -0.0649519 0.27
      vertex -0.053033 -0.053033 0.27
    endloop
  endfacet
  facet normal -0.608762 -0.793353 -0
    outer loop
      vertex -0.0375 -0.0649519 0.27
      vertex -0.053033 -0.053033 0.02
      vertex -0.0375 -0.0649519 0.02
    endloop
  endfacet
  facet normal -0.382682 -0.92388 0
    outer loop
      vertex -0.0375 -0.0649519 0.02
      vertex -0.0194114 -0.0724444 0.27
      vertex -0.0375 -0.0649519 0.27
    endloop
  endfacet
  facet normal -0.382682 -0.92388 -0
    outer loop
      vertex -0.0194114 -0.0724444 0.27
      vertex -0.0375 -0.0649519 0.02
      vertex -0.0194114 -0.0724444 0.02
    endloop
  endfacet
  facet normal -0.130528 -0.991445 0
    outer loop
      vertex -0.0194114 -0.0724444 0.02
      vertex 0 -0.075 0.27
      vertex -0.0194114 -0.0724444 0.27
    endloop
  endfacet
  facet normal -0.130528 -0.991445 -0
    outer loop
      vertex 0 -0.075 0.27
      vertex -0.0194114 -0.0724444 0.02
      vertex 0 -0.075 0.02
    endloop
  endfacet
  facet normal 0.130528 -0.991445 0
    outer loop
      vertex 0 -0.075 0.02
      vertex 0.0194114 -0.0724444 0.27
      vertex 0 -0.075 0.27
    endloop
  endfacet
  facet normal 0.130528 -0.991445 0
    outer loop
      vertex 0.0194114 -0.0724444 0.27
      vertex 0 -0.075 0.02
      vertex 0.0194114 -0.0724444 0.02
    endloop
  endfacet
  facet normal 0.382682 -0.92388 0
    outer loop
      vertex 0.0194114 -0.0724444 0.02
      vertex 0.0375 -0.0649519 0.27
      vertex 0.0194114 -0.0724444 0.27
    endloop
  endfacet
  facet normal 0.382682 -0.92388 0
    outer loop
      vertex 0.0375 -0.0649519 0.27
      vertex 0.0194114 -0.0724444 0.02
      vertex 0.0375 -0.0649519 0.02
    endloop
  endfacet
  facet normal 0.608762 -0.793353 0
    outer loop
      vertex 0.0375 -0.0649519 0.02
      vertex 0.053033 -0.053033 0.27
      vertex 0.0375 -0.0649519 0.27
    endloop
  endfacet
  facet normal 0.608762 -0.793353 0
    outer loop
      vertex 0.053033 -0.053033 0.27
      vertex 0.0375 -0.0649519 0.02
      vertex 0.053033 -0.053033 0.02
    endloop
  endfacet
  facet normal 0.793353 -0.608762 0
    outer loop
      vertex 0.053033 -0.053033 0.27
      vertex 0.0649519 -0.0375 0.02
      vertex 0.0649519 -0.0375 0.27
    endloop
  endfacet
  facet normal 0.793353 -0.608762 0
    outer loop
      vertex 0.0649519 -0.0375 0.02
      vertex 0.053033 -0.053033 0.27
      vertex 0.053033 -0.053033 0.02
    endloop
  endfacet
  facet normal 0.92388 -0.382682 0
    outer loop
      vertex 0.0649519 -0.0375 0.27
      vertex 0.0724444 -0.0194114 0.02
      vertex 0.0724444 -0.0194114 0.27
    endloop
  endfacet
  facet normal 0.92388 -0.382682 0
    outer loop
      vertex 0.0724444 -0.0194114 0.02
      vertex 0.0649519 -0.0375 0.27
      vertex 0.0649519 -0.0375 0.02
    endloop
  endfacet
  facet normal 0.991445 -0.130528 0
    outer loop
      vertex 0.0724444 -0.0194114 0.27
      vertex 0.075 0 0.02
      vertex 0.075 0 0.27
    endloop
  endfacet
  facet normal 0.991445 -0.130528 0
    outer loop
      vertex 0.075 0 0.02
      vertex 0.0724444 -0.0194114 0.27
      vertex 0.0724444 -0.0194114 0.02
    endloop
  endfacet
  facet normal 0 0 -1
    outer loop
      vertex 0.0724444 -0.0194114 0.02
      vertex 0.0724444 0.0194114 0.02
      vertex 0.075 0 0.02
    endloop
  endfacet
  facet normal 0 0 -1
    outer loop
      vertex 0.0649519 -0.0375 0.02
      vertex 0.0724444 0.0194114 0.02
      vertex 0.0724444 -0.0194114 0.02
    endloop
  endfacet
  facet normal 0 0 -1
    outer loop
      vertex 0.0649519 -0.0375 0.02
      vertex 0.0649519 0.0375 0.02
      vertex 0.0724444 0.0194114 0.02
    endloop
  endfacet
  facet normal 0 0 -1
    outer loop
      vertex 0.053033 -0.053033 0.02
      vertex 0.0649519 0.0375 0.02
      vertex 0.0649519 -0.0375 0.02
    endloop
  endfacet
  facet normal 0 0 -1
    outer loop
      vertex 0.053033 -0.053033 0.02
      vertex 0.053033 0.053033 0.02
      vertex 0.0649519 0.0375 0.02
    endloop
  endfacet
  facet normal 0 0 -1
    outer loop
      vertex 0.0375 -0.0649519 0.02
      vertex 0.053033 0.053033 0.02
      vertex 0.053033 -0.053033 0.02
    endloop
  endfacet
  facet normal 0 0 -1
    outer loop
      vertex 0.0375 -0.0649519 0.02
      vertex 0.0375 0.0649519 0.02
      vertex 0.053033 0.053033 0.02
    endloop
  endfacet
  facet normal 0 0 -1
    outer loop
      vertex 0.0194114 -0.0724444 0.02
      vertex 0.0375 0.0649519 0.02
      vertex 0.0375 -0.0649519 0.02
    endloop
  endfacet
  facet normal 0 0 -1
    outer loop
      vertex 0.0194114 -0.0724444 0.02
      vertex 0.0194114 0.0724444 0.02
      vertex 0.0375 0.0649519 0.02
    endloop
  endfacet
  facet normal 0 0 -1
    outer loop
      vertex 0 -0.075 0.02
      vertex 0.0194114 0.0724444 0.02
      vertex 0.0194114 -0.0724444 0.02
    endloop
  endfacet
  facet normal 0 0 -1
    outer loop
      vertex 0 -0.075 0.02
      vertex 0 0.075 0.02
      vertex 0.0194114 0.0724444 0.02
    endloop
  endfacet
  facet normal 0 0 -1
    outer loop
      vertex -0.0194114 -0.0724444 0.02
      vertex 0 0.075 0.02
      vertex 0 -0.075 0.02
    endloop
  endfacet
  facet normal 0 0 -1
    outer loop
      vertex -0.0194114 -0.0724444 0.02
      vertex -0.0194114 0.0724444 0.02
      vertex 0 0.075 0.02
    endloop
  endfacet
  facet normal 0 0 -1
    outer loop
      vertex -0.0375 -0.0649519 0.02
      vertex -0.0194114 0.0724444 0.02
      vertex -0.0194114 -0.0724444 0.02
    endloop
  endfacet
  facet normal 0 0 -1
    outer loop
      vertex -0.0375 -0.0649519 0.02
      vertex -0.0375 0.0649519 0.02
      vertex -0.0194114 0.0724444 0.02
    endloop
  endfacet
  facet normal 0 0 -1
    outer loop
      vertex -0.053033 -0.053033 0.02
      vertex -0.0375 0.0649519 0.02
      vertex -0.0375 -0.0649519 0.02
    endloop
  endfacet
  facet normal 0 0 -1
    outer loop
      vertex -0.053033 -0.053033 0.02
      vertex -0.053033 0.053033 0.02
      vertex -0.0375 0.0649519 0.02
    endloop
  endfacet
  facet normal 0 0 -1
    outer loop
      vertex -0.0649519 -0.0375 0.02
      vertex -0.053033 0.053033 0.02
      vertex -0.053033 -0.053033 0.02
    endloop
  endfacet
  facet normal 0 0 -1
    outer loop
      vertex -0.0649519 -0.0375 0.02
      vertex -0.0649519 0.0375 0.02
      vertex -0.053033 0.053033 0.02
    endloop
  endfacet
  facet normal 0 0 -1
    outer loop
      vertex -0.0724444 -0.0194114 0.02
      vertex -0.0649519 0.0375 0.02
      vertex -0.0649519 -0.0375 0.02
    endloop
  endfacet
  facet normal 0 0 -1
    outer loop
      vertex -0.0724444 -0.0194114 0.02
      vertex -0.0724444 0.0194114 0.02
      vertex -0.0649519 0.0375 0.02
    endloop
  endfacet
  facet normal 0 -0 -1
    outer loop
      vertex -0.0724444 0.0194114 0.02
      vertex -0.0724444 -0.0194114 0.02
      vertex -0.075 0 0.02
    endloop
  endfacet
  facet normal 0 0 1
    outer loop
      vertex 0.0724444 0.0194114 0.27
      vertex 0.0724444 -0.0194114 0.27
      vertex 0.075 0 0.27
    endloop
  endfacet
  facet normal 0 0 1
    outer loop
      vertex 0.0649519 0.0375 0.27
      vertex 0.0724444 -0.0194114 0.27
      vertex 0.0724444 0.0194114 0.27
    endloop
  endfacet
  facet normal 0 0 1
    outer loop
      vertex 0.0649519 0.0375 0.27
      vertex 0.0649519 -0.0375 0.27
      vertex 0.0724444 -0.0194114 0.27
    endloop
  endfacet
  facet normal 0 0 1
    outer loop
      vertex 0.053033 0.053033 0.27
      vertex 0.0649519 -0.0375 0.27
      vertex 0.0649519 0.0375 0.27
    endloop
  endfacet
  facet normal 0 0 1
    outer loop
      vertex 0.053033 0.053033 0.27
      vertex 0.053033 -0.053033 0.27
      vertex 0.0649519 -0.0375 0.27
    endloop
  endfacet
  facet normal 0 0 1
    outer loop
      vertex 0.0375 0.0649519 0.27
      vertex 0.053033 -0.053033 0.27
      vertex 0.053033 0.053033 0.27
    endloop
  endfacet
  facet normal 0 0 1
    outer loop
      vertex 0.0375 0.0649519 0.27
      vertex 0.0375 -0.0649519 0.27
      vertex 0.053033 -0.053033 0.27
    endloop
  endfacet
  facet normal 0 0 1
    outer loop
      vertex 0.0194114 0.0724444 0.27
      vertex 0.0375 -0.0649519 0.27
      vertex 0.0375 0.0649519 0.27
    endloop
  endfacet
  facet normal 0 0 1
    outer loop
      vertex 0.0194114 0.0724444 0.27
      vertex 0.0194114 -0.0724444 0.27
      vertex 0.0375 -0.0649519 0.27
    endloop
  endfacet
  facet normal 0 0 1
    outer loop
      vertex 0 0.075 0.27
      vertex 0.0194114 -0.0724444 0.27
      vertex 0.0194114 0.0724444 0.27
    endloop
  endfacet
  facet normal 0 0 1
    outer loop
      vertex 0 0.075 0.27
      vertex 0 -0.075 0.27
      vertex 0.0194114 -0.0724444 0.27
    endloop
  endfacet
  facet normal -0 0 1
    outer loop
      vertex -0.0194114 0.0724444 0.27
      vertex 0 -0.075 0.27
      vertex 0 0.075 0.27
    endloop
  endfacet
  facet normal 0 0 1
    outer loop
      vertex -0.0194114 0.0724444 0.27
      vertex -0.0194114 -0.0724444 0.27
      vertex 0 -0.075 0.27
    endloop
  endfacet
  facet normal -0 0 1
    outer loop
      vertex -0.0375 0.0649519 0.27
      vertex -0.0194114 -0.0724444 0.27
      vertex -0.0194114 0.0724444 0.27
    endloop
  endfacet
  facet normal 0 0 1
    outer loop
      vertex -0.0375 0.0649519 0.27
      vertex -0.0375 -0.0649519 0.27
      vertex -0.0194114 -0.0724444 0.27
    endloop
  endfacet
  facet normal -0 0 1
    outer loop
      vertex -0.053033 0.053033 0.27
      vertex -0.0375 -0.0649519 0.27
      vertex -0.0375 0.0649519 0.27
    endloop
  endfacet
  facet normal 0 0 1
    outer loop
      vertex -0.053033 0.053033 0.27
      vertex -0.053033 -0.053033 0.27
      vertex -0.0375 -0.0649519 0.27
    endloop
  endfacet
  facet normal -0 0 1
    outer loop
      vertex -0.0649519 0.0375 0.27
      vertex -0.053033 -0.053033 0.27
      vertex -0.053033 0.053033 0.27
    endloop
  endfacet
  facet normal 0 0 1
    outer loop
      vertex -0.0649519 0.0375 0.27
      vertex -0.0649519 -0.0375 0.27
      vertex -0.053033 -0.053033 0.27
    endloop
  endfacet
  facet normal -0 0 1
    outer loop
      vertex -0.0724444 0.0194114 0.27
      vertex -0.0649519 -0.0375 0.27
      vertex -0.0649519 0.0375 0.27
    endloop
  endfacet
  facet normal 0 0 1
    outer loop
      vertex -0.0724444 0.0194114 0.27
      vertex -0.0724444 -0.0194114 0.27
      vertex -0.0649519 -0.0375 0.27
    endloop
  endfacet
  facet normal 0 -0 1
    outer loop
      vertex -0.0724444 -0.0194114 0.27
      vertex -0.0724444 0.0194114 0.27
      vertex -0.075 0 0.27
    endloop
  endfacet
endsolid OpenSCAD_Model
