solid OpenSCAD_Model
  facet normal 0.994138 0.108117 0
    outer loop
      vertex 0.0905 0 0.18
      vertex 0.0883842 0.0194548 0.13
      vertex 0.0883842 0.0194548 0.18
    endloop
  endfacet
  facet normal 0.994138 0.108117 0
    outer loop
      vertex 0.0883842 0.0194548 0.13
      vertex 0.0905 0 0.18
      vertex 0.0905 0 0.13
    endloop
  endfacet
  facet normal -1 0 0
    outer loop
      vertex -0.0899695 -0.00978477 0.13
      vertex -0.0899695 0.00978477 0.18
      vertex -0.0899695 0.00978477 0.13
    endloop
  endfacet
  facet normal -1 -0 0
    outer loop
      vertex -0.0899695 0.00978477 0.18
      vertex -0.0899695 -0.00978477 0.13
      vertex -0.0899695 -0.00978477 0.18
    endloop
  endfacet
  facet normal -0.0541402 0.998533 0
    outer loop
      vertex 0.00489957 0.0903673 0.13
      vertex -0.0146413 0.0893078 0.18
      vertex 0.00489957 0.0903673 0.18
    endloop
  endfacet
  facet normal -0.0541402 0.998533 0
    outer loop
      vertex -0.0146413 0.0893078 0.18
      vertex 0.00489957 0.0903673 0.13
      vertex -0.0146413 0.0893078 0.13
    endloop
  endfacet
  facet normal 0.161782 -0.986827 0
    outer loop
      vertex 0.00489957 -0.0903673 0.13
      vertex 0.0242113 -0.0872013 0.18
      vertex 0.00489957 -0.0903673 0.18
    endloop
  endfacet
  facet normal 0.161782 -0.986827 0
    outer loop
      vertex 0.0242113 -0.0872013 0.18
      vertex 0.00489957 -0.0903673 0.13
      vertex 0.0242113 -0.0872013 0.13
    endloop
  endfacet
  facet normal 0.561184 0.827691 -0
    outer loop
      vertex 0.0585885 0.0689757 0.13
      vertex 0.042391 0.0799578 0.18
      vertex 0.0585885 0.0689757 0.18
    endloop
  endfacet
  facet normal 0.561184 0.827691 0
    outer loop
      vertex 0.042391 0.0799578 0.18
      vertex 0.0585885 0.0689757 0.13
      vertex 0.042391 0.0799578 0.13
    endloop
  endfacet
  facet normal 0.37014 0.928976 -0
    outer loop
      vertex 0.042391 0.0799578 0.13
      vertex 0.0242113 0.0872013 0.18
      vertex 0.042391 0.0799578 0.18
    endloop
  endfacet
  facet normal 0.37014 0.928976 0
    outer loop
      vertex 0.0242113 0.0872013 0.18
      vertex 0.042391 0.0799578 0.13
      vertex 0.0242113 0.0872013 0.13
    endloop
  endfacet
  facet normal -0.647384 0.762164 0
    outer loop
      vertex -0.0507874 0.0749058 0.13
      vertex -0.0657026 0.0622368 0.18
      vertex -0.0507874 0.0749058 0.18
    endloop
  endfacet
  facet normal -0.647384 0.762164 0
    outer loop
      vertex -0.0657026 0.0622368 0.18
      vertex -0.0507874 0.0749058 0.13
      vertex -0.0657026 0.0622368 0.13
    endloop
  endfacet
  facet normal -0.468411 0.88351 0
    outer loop
      vertex -0.0334975 0.0840724 0.13
      vertex -0.0507874 0.0749058 0.18
      vertex -0.0334975 0.0840724 0.18
    endloop
  endfacet
  facet normal -0.468411 0.88351 0
    outer loop
      vertex -0.0507874 0.0749058 0.18
      vertex -0.0334975 0.0840724 0.13
      vertex -0.0507874 0.0749058 0.13
    endloop
  endfacet
  facet normal -0.796093 -0.605174 0
    outer loop
      vertex -0.0657026 -0.0622368 0.13
      vertex -0.0775456 -0.0466576 0.18
      vertex -0.0775456 -0.0466576 0.13
    endloop
  endfacet
  facet normal -0.796093 -0.605174 0
    outer loop
      vertex -0.0775456 -0.0466576 0.18
      vertex -0.0657026 -0.0622368 0.13
      vertex -0.0657026 -0.0622368 0.18
    endloop
  endfacet
  facet normal 0.856856 0.515556 0
    outer loop
      vertex 0.0821356 0.038 0.18
      vertex 0.0720464 0.0547683 0.13
      vertex 0.0720464 0.0547683 0.18
    endloop
  endfacet
  facet normal 0.856856 0.515556 0
    outer loop
      vertex 0.0720464 0.0547683 0.13
      vertex 0.0821356 0.038 0.18
      vertex 0.0821356 0.038 0.13
    endloop
  endfacet
  facet normal 0.947653 0.319301 0
    outer loop
      vertex 0.0883842 0.0194548 0.18
      vertex 0.0821356 0.038 0.13
      vertex 0.0821356 0.038 0.18
    endloop
  endfacet
  facet normal 0.947653 0.319301 0
    outer loop
      vertex 0.0821356 0.038 0.13
      vertex 0.0883842 0.0194548 0.18
      vertex 0.0883842 0.0194548 0.13
    endloop
  endfacet
  facet normal 0.725997 0.687698 0
    outer loop
      vertex 0.0720464 0.0547683 0.18
      vertex 0.0585885 0.0689757 0.13
      vertex 0.0585885 0.0689757 0.18
    endloop
  endfacet
  facet normal 0.725997 0.687698 0
    outer loop
      vertex 0.0585885 0.0689757 0.13
      vertex 0.0720464 0.0547683 0.18
      vertex 0.0720464 0.0547683 0.13
    endloop
  endfacet
  facet normal 0.161782 0.986827 -0
    outer loop
      vertex 0.0242113 0.0872013 0.13
      vertex 0.00489957 0.0903673 0.18
      vertex 0.0242113 0.0872013 0.18
    endloop
  endfacet
  facet normal 0.161782 0.986827 0
    outer loop
      vertex 0.00489957 0.0903673 0.18
      vertex 0.0242113 0.0872013 0.13
      vertex 0.00489957 0.0903673 0.13
    endloop
  endfacet
  facet normal -0.907576 0.419888 0
    outer loop
      vertex -0.0857626 0.0288968 0.13
      vertex -0.0775456 0.0466576 0.18
      vertex -0.0775456 0.0466576 0.13
    endloop
  endfacet
  facet normal -0.907576 0.419888 0
    outer loop
      vertex -0.0775456 0.0466576 0.18
      vertex -0.0857626 0.0288968 0.13
      vertex -0.0857626 0.0288968 0.18
    endloop
  endfacet
  facet normal -0.796093 0.605174 0
    outer loop
      vertex -0.0775456 0.0466576 0.13
      vertex -0.0657026 0.0622368 0.18
      vertex -0.0657026 0.0622368 0.13
    endloop
  endfacet
  facet normal -0.796093 0.605174 0
    outer loop
      vertex -0.0657026 0.0622368 0.18
      vertex -0.0775456 0.0466576 0.13
      vertex -0.0775456 0.0466576 0.18
    endloop
  endfacet
  facet normal -0.97662 0.214972 0
    outer loop
      vertex -0.0899695 0.00978477 0.13
      vertex -0.0857626 0.0288968 0.18
      vertex -0.0857626 0.0288968 0.13
    endloop
  endfacet
  facet normal -0.97662 0.214972 0
    outer loop
      vertex -0.0857626 0.0288968 0.18
      vertex -0.0899695 0.00978477 0.13
      vertex -0.0899695 0.00978477 0.18
    endloop
  endfacet
  facet normal 0 0 1
    outer loop
      vertex 0.0883842 0.0194548 0.18
      vertex 0.09 0 0.18
      vertex 0.0905 0 0.18
    endloop
  endfacet
  facet normal 0 0 1
    outer loop
      vertex 0.0883842 0.0194548 0.18
      vertex 0.0878958 0.0193473 0.18
      vertex 0.09 0 0.18
    endloop
  endfacet
  facet normal 0 0 1
    outer loop
      vertex 0.0821356 0.038 0.18
      vertex 0.0878958 0.0193473 0.18
      vertex 0.0883842 0.0194548 0.18
    endloop
  endfacet
  facet normal 0 0 1
    outer loop
      vertex 0.0821356 0.038 0.18
      vertex 0.0816818 0.03779 0.18
      vertex 0.0878958 0.0193473 0.18
    endloop
  endfacet
  facet normal 0 0 1
    outer loop
      vertex 0.0720464 0.0547683 0.18
      vertex 0.0816818 0.03779 0.18
      vertex 0.0821356 0.038 0.18
    endloop
  endfacet
  facet normal 0 0 1
    outer loop
      vertex 0.0720464 0.0547683 0.18
      vertex 0.0716484 0.0544657 0.18
      vertex 0.0816818 0.03779 0.18
    endloop
  endfacet
  facet normal 0 0 1
    outer loop
      vertex 0.0585885 0.0689757 0.18
      vertex 0.0716484 0.0544657 0.18
      vertex 0.0720464 0.0547683 0.18
    endloop
  endfacet
  facet normal 0 0 1
    outer loop
      vertex 0.0585885 0.0689757 0.18
      vertex 0.0582648 0.0685946 0.18
      vertex 0.0716484 0.0544657 0.18
    endloop
  endfacet
  facet normal 0 0 1
    outer loop
      vertex 0.042391 0.0799578 0.18
      vertex 0.0582648 0.0685946 0.18
      vertex 0.0585885 0.0689757 0.18
    endloop
  endfacet
  facet normal 0 0 1
    outer loop
      vertex 0.042391 0.0799578 0.18
      vertex 0.0421568 0.0795161 0.18
      vertex 0.0582648 0.0685946 0.18
    endloop
  endfacet
  facet normal 0 0 1
    outer loop
      vertex 0.0242113 0.0872013 0.18
      vertex 0.0421568 0.0795161 0.18
      vertex 0.042391 0.0799578 0.18
    endloop
  endfacet
  facet normal 0 0 1
    outer loop
      vertex 0.0242113 0.0872013 0.18
      vertex 0.0240775 0.0867195 0.18
      vertex 0.0421568 0.0795161 0.18
    endloop
  endfacet
  facet normal 0 0 1
    outer loop
      vertex 0.00489957 0.0903673 0.18
      vertex 0.0240775 0.0867195 0.18
      vertex 0.0242113 0.0872013 0.18
    endloop
  endfacet
  facet normal 0 0 1
    outer loop
      vertex 0.00489957 0.0903673 0.18
      vertex 0.00487249 0.089868 0.18
      vertex 0.0240775 0.0867195 0.18
    endloop
  endfacet
  facet normal 0 0 1
    outer loop
      vertex 0.00489957 0.0903673 0.18
      vertex -0.0145604 0.0888144 0.18
      vertex 0.00487249 0.089868 0.18
    endloop
  endfacet
  facet normal -0 0 1
    outer loop
      vertex -0.0146413 0.0893078 0.18
      vertex -0.0145604 0.0888144 0.18
      vertex 0.00489957 0.0903673 0.18
    endloop
  endfacet
  facet normal 0 0 1
    outer loop
      vertex -0.0146413 0.0893078 0.18
      vertex -0.0333124 0.0836079 0.18
      vertex -0.0145604 0.0888144 0.18
    endloop
  endfacet
  facet normal -0 0 1
    outer loop
      vertex -0.0334975 0.0840724 0.18
      vertex -0.0333124 0.0836079 0.18
      vertex -0.0146413 0.0893078 0.18
    endloop
  endfacet
  facet normal 0 0 1
    outer loop
      vertex -0.0334975 0.0840724 0.18
      vertex -0.0505068 0.074492 0.18
      vertex -0.0333124 0.0836079 0.18
    endloop
  endfacet
  facet normal -0 0 1
    outer loop
      vertex -0.0507874 0.0749058 0.18
      vertex -0.0505068 0.074492 0.18
      vertex -0.0334975 0.0840724 0.18
    endloop
  endfacet
  facet normal 0 0 1
    outer loop
      vertex -0.0507874 0.0749058 0.18
      vertex -0.0653396 0.0618929 0.18
      vertex -0.0505068 0.074492 0.18
    endloop
  endfacet
  facet normal -0 0 1
    outer loop
      vertex -0.0657026 0.0622368 0.18
      vertex -0.0653396 0.0618929 0.18
      vertex -0.0507874 0.0749058 0.18
    endloop
  endfacet
  facet normal 0 0 1
    outer loop
      vertex -0.0657026 0.0622368 0.18
      vertex -0.0771171 0.0463998 0.18
      vertex -0.0653396 0.0618929 0.18
    endloop
  endfacet
  facet normal -0 0 1
    outer loop
      vertex -0.0775456 0.0466576 0.18
      vertex -0.0771171 0.0463998 0.18
      vertex -0.0657026 0.0622368 0.18
    endloop
  endfacet
  facet normal 0 0 1
    outer loop
      vertex -0.0775456 0.0466576 0.18
      vertex -0.0852888 0.0287371 0.18
      vertex -0.0771171 0.0463998 0.18
    endloop
  endfacet
  facet normal -0 0 1
    outer loop
      vertex -0.0857626 0.0288968 0.18
      vertex -0.0852888 0.0287371 0.18
      vertex -0.0775456 0.0466576 0.18
    endloop
  endfacet
  facet normal 0 0 1
    outer loop
      vertex -0.0857626 0.0288968 0.18
      vertex -0.0894724 0.00973071 0.18
      vertex -0.0852888 0.0287371 0.18
    endloop
  endfacet
  facet normal 0 0 1
    outer loop
      vertex -0.0894724 0.00973071 0.18
      vertex -0.0899695 0.00978477 0.18
      vertex -0.0894724 -0.00973071 0.18
    endloop
  endfacet
  facet normal -0 0 1
    outer loop
      vertex -0.0899695 0.00978477 0.18
      vertex -0.0894724 0.00973071 0.18
      vertex -0.0857626 0.0288968 0.18
    endloop
  endfacet
  facet normal -0 0 1
    outer loop
      vertex 0.09 0 0.18
      vertex 0.0883842 -0.0194548 0.18
      vertex 0.0905 0 0.18
    endloop
  endfacet
  facet normal -0 0 1
    outer loop
      vertex 0.0878958 -0.0193473 0.18
      vertex 0.0883842 -0.0194548 0.18
      vertex 0.09 0 0.18
    endloop
  endfacet
  facet normal 0 0 1
    outer loop
      vertex 0.0878958 -0.0193473 0.18
      vertex 0.0821356 -0.038 0.18
      vertex 0.0883842 -0.0194548 0.18
    endloop
  endfacet
  facet normal -0 0 1
    outer loop
      vertex 0.0816818 -0.03779 0.18
      vertex 0.0821356 -0.038 0.18
      vertex 0.0878958 -0.0193473 0.18
    endloop
  endfacet
  facet normal 0 0 1
    outer loop
      vertex 0.0816818 -0.03779 0.18
      vertex 0.0720464 -0.0547683 0.18
      vertex 0.0821356 -0.038 0.18
    endloop
  endfacet
  facet normal -0 0 1
    outer loop
      vertex 0.0716484 -0.0544657 0.18
      vertex 0.0720464 -0.0547683 0.18
      vertex 0.0816818 -0.03779 0.18
    endloop
  endfacet
  facet normal 0 0 1
    outer loop
      vertex 0.0716484 -0.0544657 0.18
      vertex 0.0585885 -0.0689757 0.18
      vertex 0.0720464 -0.0547683 0.18
    endloop
  endfacet
  facet normal -0 0 1
    outer loop
      vertex 0.0582648 -0.0685946 0.18
      vertex 0.0585885 -0.0689757 0.18
      vertex 0.0716484 -0.0544657 0.18
    endloop
  endfacet
  facet normal 0 0 1
    outer loop
      vertex 0.0582648 -0.0685946 0.18
      vertex 0.042391 -0.0799578 0.18
      vertex 0.0585885 -0.0689757 0.18
    endloop
  endfacet
  facet normal -0 0 1
    outer loop
      vertex 0.0421568 -0.0795161 0.18
      vertex 0.042391 -0.0799578 0.18
      vertex 0.0582648 -0.0685946 0.18
    endloop
  endfacet
  facet normal 0 0 1
    outer loop
      vertex 0.0421568 -0.0795161 0.18
      vertex 0.0242113 -0.0872013 0.18
      vertex 0.042391 -0.0799578 0.18
    endloop
  endfacet
  facet normal -0 0 1
    outer loop
      vertex 0.0240775 -0.0867195 0.18
      vertex 0.0242113 -0.0872013 0.18
      vertex 0.0421568 -0.0795161 0.18
    endloop
  endfacet
  facet normal 0 0 1
    outer loop
      vertex 0.0240775 -0.0867195 0.18
      vertex 0.00489957 -0.0903673 0.18
      vertex 0.0242113 -0.0872013 0.18
    endloop
  endfacet
  facet normal -0 0 1
    outer loop
      vertex 0.00487249 -0.089868 0.18
      vertex 0.00489957 -0.0903673 0.18
      vertex 0.0240775 -0.0867195 0.18
    endloop
  endfacet
  facet normal 0 0 1
    outer loop
      vertex -0.0145604 -0.0888144 0.18
      vertex 0.00489957 -0.0903673 0.18
      vertex 0.00487249 -0.089868 0.18
    endloop
  endfacet
  facet normal 0 0 1
    outer loop
      vertex -0.0145604 -0.0888144 0.18
      vertex -0.0146413 -0.0893078 0.18
      vertex 0.00489957 -0.0903673 0.18
    endloop
  endfacet
  facet normal 0 0 1
    outer loop
      vertex -0.0333124 -0.0836079 0.18
      vertex -0.0146413 -0.0893078 0.18
      vertex -0.0145604 -0.0888144 0.18
    endloop
  endfacet
  facet normal 0 0 1
    outer loop
      vertex -0.0333124 -0.0836079 0.18
      vertex -0.0334975 -0.0840724 0.18
      vertex -0.0146413 -0.0893078 0.18
    endloop
  endfacet
  facet normal 0 0 1
    outer loop
      vertex -0.0505068 -0.074492 0.18
      vertex -0.0334975 -0.0840724 0.18
      vertex -0.0333124 -0.0836079 0.18
    endloop
  endfacet
  facet normal 0 0 1
    outer loop
      vertex -0.0505068 -0.074492 0.18
      vertex -0.0507874 -0.0749058 0.18
      vertex -0.0334975 -0.0840724 0.18
    endloop
  endfacet
  facet normal 0 0 1
    outer loop
      vertex -0.0653396 -0.0618929 0.18
      vertex -0.0507874 -0.0749058 0.18
      vertex -0.0505068 -0.074492 0.18
    endloop
  endfacet
  facet normal 0 0 1
    outer loop
      vertex -0.0653396 -0.0618929 0.18
      vertex -0.0657026 -0.0622368 0.18
      vertex -0.0507874 -0.0749058 0.18
    endloop
  endfacet
  facet normal 0 0 1
    outer loop
      vertex -0.0771171 -0.0463998 0.18
      vertex -0.0657026 -0.0622368 0.18
      vertex -0.0653396 -0.0618929 0.18
    endloop
  endfacet
  facet normal 0 0 1
    outer loop
      vertex -0.0771171 -0.0463998 0.18
      vertex -0.0775456 -0.0466576 0.18
      vertex -0.0657026 -0.0622368 0.18
    endloop
  endfacet
  facet normal 0 0 1
    outer loop
      vertex -0.0852888 -0.0287371 0.18
      vertex -0.0775456 -0.0466576 0.18
      vertex -0.0771171 -0.0463998 0.18
    endloop
  endfacet
  facet normal 0 0 1
    outer loop
      vertex -0.0852888 -0.0287371 0.18
      vertex -0.0857626 -0.0288968 0.18
      vertex -0.0775456 -0.0466576 0.18
    endloop
  endfacet
  facet normal 0 0 1
    outer loop
      vertex -0.0894724 -0.00973071 0.18
      vertex -0.0857626 -0.0288968 0.18
      vertex -0.0852888 -0.0287371 0.18
    endloop
  endfacet
  facet normal 0 0 1
    outer loop
      vertex -0.0894724 -0.00973071 0.18
      vertex -0.0899695 -0.00978477 0.18
      vertex -0.0857626 -0.0288968 0.18
    endloop
  endfacet
  facet normal 0 0 1
    outer loop
      vertex -0.0899695 -0.00978477 0.18
      vertex -0.0894724 -0.00973071 0.18
      vertex -0.0899695 0.00978477 0.18
    endloop
  endfacet
  facet normal -0.267528 0.96355 0
    outer loop
      vertex -0.0146413 0.0893078 0.13
      vertex -0.0334975 0.0840724 0.18
      vertex -0.0146413 0.0893078 0.18
    endloop
  endfacet
  facet normal -0.267528 0.96355 0
    outer loop
      vertex -0.0334975 0.0840724 0.18
      vertex -0.0146413 0.0893078 0.13
      vertex -0.0334975 0.0840724 0.13
    endloop
  endfacet
  facet normal 0.994138 -0.108117 0
    outer loop
      vertex 0.0883842 -0.0194548 0.18
      vertex 0.0905 0 0.13
      vertex 0.0905 0 0.18
    endloop
  endfacet
  facet normal 0.994138 -0.108117 0
    outer loop
      vertex 0.0905 0 0.13
      vertex 0.0883842 -0.0194548 0.18
      vertex 0.0883842 -0.0194548 0.13
    endloop
  endfacet
  facet normal -0.97662 -0.214972 0
    outer loop
      vertex -0.0857626 -0.0288968 0.13
      vertex -0.0899695 -0.00978477 0.18
      vertex -0.0899695 -0.00978477 0.13
    endloop
  endfacet
  facet normal -0.97662 -0.214972 0
    outer loop
      vertex -0.0899695 -0.00978477 0.18
      vertex -0.0857626 -0.0288968 0.13
      vertex -0.0857626 -0.0288968 0.18
    endloop
  endfacet
  facet normal 0.37014 -0.928976 0
    outer loop
      vertex 0.0242113 -0.0872013 0.13
      vertex 0.042391 -0.0799578 0.18
      vertex 0.0242113 -0.0872013 0.18
    endloop
  endfacet
  facet normal 0.37014 -0.928976 0
    outer loop
      vertex 0.042391 -0.0799578 0.18
      vertex 0.0242113 -0.0872013 0.13
      vertex 0.042391 -0.0799578 0.13
    endloop
  endfacet
  facet normal 0.947653 -0.319301 0
    outer loop
      vertex 0.0821356 -0.038 0.18
      vertex 0.0883842 -0.0194548 0.13
      vertex 0.0883842 -0.0194548 0.18
    endloop
  endfacet
  facet normal 0.947653 -0.319301 0
    outer loop
      vertex 0.0883842 -0.0194548 0.13
      vertex 0.0821356 -0.038 0.18
      vertex 0.0821356 -0.038 0.13
    endloop
  endfacet
  facet normal 0 0 -1
    outer loop
      vertex 0.0883842 -0.0194548 0.13
      vertex 0.09 0 0.13
      vertex 0.0905 0 0.13
    endloop
  endfacet
  facet normal 0 0 -1
    outer loop
      vertex 0.0883842 -0.0194548 0.13
      vertex 0.0878958 -0.0193473 0.13
      vertex 0.09 0 0.13
    endloop
  endfacet
  facet normal 0 0 -1
    outer loop
      vertex 0.0821356 -0.038 0.13
      vertex 0.0878958 -0.0193473 0.13
      vertex 0.0883842 -0.0194548 0.13
    endloop
  endfacet
  facet normal 0 0 -1
    outer loop
      vertex 0.0821356 -0.038 0.13
      vertex 0.0816818 -0.03779 0.13
      vertex 0.0878958 -0.0193473 0.13
    endloop
  endfacet
  facet normal 0 0 -1
    outer loop
      vertex 0.0720464 -0.0547683 0.13
      vertex 0.0816818 -0.03779 0.13
      vertex 0.0821356 -0.038 0.13
    endloop
  endfacet
  facet normal 0 0 -1
    outer loop
      vertex 0.0720464 -0.0547683 0.13
      vertex 0.0716484 -0.0544657 0.13
      vertex 0.0816818 -0.03779 0.13
    endloop
  endfacet
  facet normal 0 0 -1
    outer loop
      vertex 0.0585885 -0.0689757 0.13
      vertex 0.0716484 -0.0544657 0.13
      vertex 0.0720464 -0.0547683 0.13
    endloop
  endfacet
  facet normal 0 0 -1
    outer loop
      vertex 0.0585885 -0.0689757 0.13
      vertex 0.0582648 -0.0685946 0.13
      vertex 0.0716484 -0.0544657 0.13
    endloop
  endfacet
  facet normal 0 0 -1
    outer loop
      vertex 0.042391 -0.0799578 0.13
      vertex 0.0582648 -0.0685946 0.13
      vertex 0.0585885 -0.0689757 0.13
    endloop
  endfacet
  facet normal 0 0 -1
    outer loop
      vertex 0.042391 -0.0799578 0.13
      vertex 0.0421568 -0.0795161 0.13
      vertex 0.0582648 -0.0685946 0.13
    endloop
  endfacet
  facet normal 0 0 -1
    outer loop
      vertex 0.0242113 -0.0872013 0.13
      vertex 0.0421568 -0.0795161 0.13
      vertex 0.042391 -0.0799578 0.13
    endloop
  endfacet
  facet normal 0 0 -1
    outer loop
      vertex 0.0242113 -0.0872013 0.13
      vertex 0.0240775 -0.0867195 0.13
      vertex 0.0421568 -0.0795161 0.13
    endloop
  endfacet
  facet normal 0 0 -1
    outer loop
      vertex 0.00489957 -0.0903673 0.13
      vertex 0.0240775 -0.0867195 0.13
      vertex 0.0242113 -0.0872013 0.13
    endloop
  endfacet
  facet normal 0 0 -1
    outer loop
      vertex 0.00489957 -0.0903673 0.13
      vertex 0.00487249 -0.089868 0.13
      vertex 0.0240775 -0.0867195 0.13
    endloop
  endfacet
  facet normal 0 0 -1
    outer loop
      vertex 0.00489957 -0.0903673 0.13
      vertex -0.0145604 -0.0888144 0.13
      vertex 0.00487249 -0.089868 0.13
    endloop
  endfacet
  facet normal 0 0 -1
    outer loop
      vertex -0.0146413 -0.0893078 0.13
      vertex -0.0145604 -0.0888144 0.13
      vertex 0.00489957 -0.0903673 0.13
    endloop
  endfacet
  facet normal 0 0 -1
    outer loop
      vertex -0.0146413 -0.0893078 0.13
      vertex -0.0333124 -0.0836079 0.13
      vertex -0.0145604 -0.0888144 0.13
    endloop
  endfacet
  facet normal 0 0 -1
    outer loop
      vertex -0.0334975 -0.0840724 0.13
      vertex -0.0333124 -0.0836079 0.13
      vertex -0.0146413 -0.0893078 0.13
    endloop
  endfacet
  facet normal 0 0 -1
    outer loop
      vertex -0.0334975 -0.0840724 0.13
      vertex -0.0505068 -0.074492 0.13
      vertex -0.0333124 -0.0836079 0.13
    endloop
  endfacet
  facet normal 0 0 -1
    outer loop
      vertex -0.0507874 -0.0749058 0.13
      vertex -0.0505068 -0.074492 0.13
      vertex -0.0334975 -0.0840724 0.13
    endloop
  endfacet
  facet normal 0 0 -1
    outer loop
      vertex -0.0507874 -0.0749058 0.13
      vertex -0.0653396 -0.0618929 0.13
      vertex -0.0505068 -0.074492 0.13
    endloop
  endfacet
  facet normal 0 0 -1
    outer loop
      vertex -0.0657026 -0.0622368 0.13
      vertex -0.0653396 -0.0618929 0.13
      vertex -0.0507874 -0.0749058 0.13
    endloop
  endfacet
  facet normal 0 0 -1
    outer loop
      vertex -0.0657026 -0.0622368 0.13
      vertex -0.0771171 -0.0463998 0.13
      vertex -0.0653396 -0.0618929 0.13
    endloop
  endfacet
  facet normal 0 0 -1
    outer loop
      vertex -0.0775456 -0.0466576 0.13
      vertex -0.0771171 -0.0463998 0.13
      vertex -0.0657026 -0.0622368 0.13
    endloop
  endfacet
  facet normal 0 0 -1
    outer loop
      vertex -0.0775456 -0.0466576 0.13
      vertex -0.0852888 -0.0287371 0.13
      vertex -0.0771171 -0.0463998 0.13
    endloop
  endfacet
  facet normal 0 0 -1
    outer loop
      vertex -0.0857626 -0.0288968 0.13
      vertex -0.0852888 -0.0287371 0.13
      vertex -0.0775456 -0.0466576 0.13
    endloop
  endfacet
  facet normal 0 0 -1
    outer loop
      vertex -0.0857626 -0.0288968 0.13
      vertex -0.0894724 -0.00973071 0.13
      vertex -0.0852888 -0.0287371 0.13
    endloop
  endfacet
  facet normal -0 0 -1
    outer loop
      vertex -0.0894724 -0.00973071 0.13
      vertex -0.0899695 -0.00978477 0.13
      vertex -0.0894724 0.00973071 0.13
    endloop
  endfacet
  facet normal 0 0 -1
    outer loop
      vertex -0.0899695 -0.00978477 0.13
      vertex -0.0894724 -0.00973071 0.13
      vertex -0.0857626 -0.0288968 0.13
    endloop
  endfacet
  facet normal 0 0 -1
    outer loop
      vertex 0.09 0 0.13
      vertex 0.0883842 0.0194548 0.13
      vertex 0.0905 0 0.13
    endloop
  endfacet
  facet normal 0 0 -1
    outer loop
      vertex 0.0878958 0.0193473 0.13
      vertex 0.0883842 0.0194548 0.13
      vertex 0.09 0 0.13
    endloop
  endfacet
  facet normal 0 0 -1
    outer loop
      vertex 0.0878958 0.0193473 0.13
      vertex 0.0821356 0.038 0.13
      vertex 0.0883842 0.0194548 0.13
    endloop
  endfacet
  facet normal 0 0 -1
    outer loop
      vertex 0.0816818 0.03779 0.13
      vertex 0.0821356 0.038 0.13
      vertex 0.0878958 0.0193473 0.13
    endloop
  endfacet
  facet normal 0 0 -1
    outer loop
      vertex 0.0816818 0.03779 0.13
      vertex 0.0720464 0.0547683 0.13
      vertex 0.0821356 0.038 0.13
    endloop
  endfacet
  facet normal 0 0 -1
    outer loop
      vertex 0.0716484 0.0544657 0.13
      vertex 0.0720464 0.0547683 0.13
      vertex 0.0816818 0.03779 0.13
    endloop
  endfacet
  facet normal 0 0 -1
    outer loop
      vertex 0.0716484 0.0544657 0.13
      vertex 0.0585885 0.0689757 0.13
      vertex 0.0720464 0.0547683 0.13
    endloop
  endfacet
  facet normal 0 0 -1
    outer loop
      vertex 0.0582648 0.0685946 0.13
      vertex 0.0585885 0.0689757 0.13
      vertex 0.0716484 0.0544657 0.13
    endloop
  endfacet
  facet normal 0 0 -1
    outer loop
      vertex 0.0582648 0.0685946 0.13
      vertex 0.042391 0.0799578 0.13
      vertex 0.0585885 0.0689757 0.13
    endloop
  endfacet
  facet normal 0 0 -1
    outer loop
      vertex 0.0421568 0.0795161 0.13
      vertex 0.042391 0.0799578 0.13
      vertex 0.0582648 0.0685946 0.13
    endloop
  endfacet
  facet normal 0 0 -1
    outer loop
      vertex 0.0421568 0.0795161 0.13
      vertex 0.0242113 0.0872013 0.13
      vertex 0.042391 0.0799578 0.13
    endloop
  endfacet
  facet normal 0 0 -1
    outer loop
      vertex 0.0240775 0.0867195 0.13
      vertex 0.0242113 0.0872013 0.13
      vertex 0.0421568 0.0795161 0.13
    endloop
  endfacet
  facet normal 0 0 -1
    outer loop
      vertex 0.0240775 0.0867195 0.13
      vertex 0.00489957 0.0903673 0.13
      vertex 0.0242113 0.0872013 0.13
    endloop
  endfacet
  facet normal 0 0 -1
    outer loop
      vertex 0.00487249 0.089868 0.13
      vertex 0.00489957 0.0903673 0.13
      vertex 0.0240775 0.0867195 0.13
    endloop
  endfacet
  facet normal 0 0 -1
    outer loop
      vertex -0.0145604 0.0888144 0.13
      vertex 0.00489957 0.0903673 0.13
      vertex 0.00487249 0.089868 0.13
    endloop
  endfacet
  facet normal 0 0 -1
    outer loop
      vertex -0.0145604 0.0888144 0.13
      vertex -0.0146413 0.0893078 0.13
      vertex 0.00489957 0.0903673 0.13
    endloop
  endfacet
  facet normal 0 0 -1
    outer loop
      vertex -0.0333124 0.0836079 0.13
      vertex -0.0146413 0.0893078 0.13
      vertex -0.0145604 0.0888144 0.13
    endloop
  endfacet
  facet normal 0 0 -1
    outer loop
      vertex -0.0333124 0.0836079 0.13
      vertex -0.0334975 0.0840724 0.13
      vertex -0.0146413 0.0893078 0.13
    endloop
  endfacet
  facet normal 0 0 -1
    outer loop
      vertex -0.0505068 0.074492 0.13
      vertex -0.0334975 0.0840724 0.13
      vertex -0.0333124 0.0836079 0.13
    endloop
  endfacet
  facet normal 0 0 -1
    outer loop
      vertex -0.0505068 0.074492 0.13
      vertex -0.0507874 0.0749058 0.13
      vertex -0.0334975 0.0840724 0.13
    endloop
  endfacet
  facet normal 0 0 -1
    outer loop
      vertex -0.0653396 0.0618929 0.13
      vertex -0.0507874 0.0749058 0.13
      vertex -0.0505068 0.074492 0.13
    endloop
  endfacet
  facet normal 0 0 -1
    outer loop
      vertex -0.0653396 0.0618929 0.13
      vertex -0.0657026 0.0622368 0.13
      vertex -0.0507874 0.0749058 0.13
    endloop
  endfacet
  facet normal 0 0 -1
    outer loop
      vertex -0.0771171 0.0463998 0.13
      vertex -0.0657026 0.0622368 0.13
      vertex -0.0653396 0.0618929 0.13
    endloop
  endfacet
  facet normal 0 0 -1
    outer loop
      vertex -0.0771171 0.0463998 0.13
      vertex -0.0775456 0.0466576 0.13
      vertex -0.0657026 0.0622368 0.13
    endloop
  endfacet
  facet normal 0 0 -1
    outer loop
      vertex -0.0852888 0.0287371 0.13
      vertex -0.0775456 0.0466576 0.13
      vertex -0.0771171 0.0463998 0.13
    endloop
  endfacet
  facet normal 0 0 -1
    outer loop
      vertex -0.0852888 0.0287371 0.13
      vertex -0.0857626 0.0288968 0.13
      vertex -0.0775456 0.0466576 0.13
    endloop
  endfacet
  facet normal 0 0 -1
    outer loop
      vertex -0.0894724 0.00973071 0.13
      vertex -0.0857626 0.0288968 0.13
      vertex -0.0852888 0.0287371 0.13
    endloop
  endfacet
  facet normal 0 0 -1
    outer loop
      vertex -0.0894724 0.00973071 0.13
      vertex -0.0899695 0.00978477 0.13
      vertex -0.0857626 0.0288968 0.13
    endloop
  endfacet
  facet normal 0 0 -1
    outer loop
      vertex -0.0899695 0.00978477 0.13
      vertex -0.0894724 0.00973071 0.13
      vertex -0.0899695 -0.00978477 0.13
    endloop
  endfacet
  facet normal 0.725997 -0.687698 0
    outer loop
      vertex 0.0585885 -0.0689757 0.18
      vertex 0.0720464 -0.0547683 0.13
      vertex 0.0720464 -0.0547683 0.18
    endloop
  endfacet
  facet normal 0.725997 -0.687698 0
    outer loop
      vertex 0.0720464 -0.0547683 0.13
      vertex 0.0585885 -0.0689757 0.18
      vertex 0.0585885 -0.0689757 0.13
    endloop
  endfacet
  facet normal 0.561184 -0.827691 0
    outer loop
      vertex 0.042391 -0.0799578 0.13
      vertex 0.0585885 -0.0689757 0.18
      vertex 0.042391 -0.0799578 0.18
    endloop
  endfacet
  facet normal 0.561184 -0.827691 0
    outer loop
      vertex 0.0585885 -0.0689757 0.18
      vertex 0.042391 -0.0799578 0.13
      vertex 0.0585885 -0.0689757 0.13
    endloop
  endfacet
  facet normal -0.0541402 -0.998533 0
    outer loop
      vertex -0.0146413 -0.0893078 0.13
      vertex 0.00489957 -0.0903673 0.18
      vertex -0.0146413 -0.0893078 0.18
    endloop
  endfacet
  facet normal -0.0541402 -0.998533 -0
    outer loop
      vertex 0.00489957 -0.0903673 0.18
      vertex -0.0146413 -0.0893078 0.13
      vertex 0.00489957 -0.0903673 0.13
    endloop
  endfacet
  facet normal -0.468411 -0.88351 0
    outer loop
      vertex -0.0507874 -0.0749058 0.13
      vertex -0.0334975 -0.0840724 0.18
      vertex -0.0507874 -0.0749058 0.18
    endloop
  endfacet
  facet normal -0.468411 -0.88351 -0
    outer loop
      vertex -0.0334975 -0.0840724 0.18
      vertex -0.0507874 -0.0749058 0.13
      vertex -0.0334975 -0.0840724 0.13
    endloop
  endfacet
  facet normal -0.267528 -0.96355 0
    outer loop
      vertex -0.0334975 -0.0840724 0.13
      vertex -0.0146413 -0.0893078 0.18
      vertex -0.0334975 -0.0840724 0.18
    endloop
  endfacet
  facet normal -0.267528 -0.96355 -0
    outer loop
      vertex -0.0146413 -0.0893078 0.18
      vertex -0.0334975 -0.0840724 0.13
      vertex -0.0146413 -0.0893078 0.13
    endloop
  endfacet
  facet normal -0.647384 -0.762164 0
    outer loop
      vertex -0.0657026 -0.0622368 0.13
      vertex -0.0507874 -0.0749058 0.18
      vertex -0.0657026 -0.0622368 0.18
    endloop
  endfacet
  facet normal -0.647384 -0.762164 -0
    outer loop
      vertex -0.0507874 -0.0749058 0.18
      vertex -0.0657026 -0.0622368 0.13
      vertex -0.0507874 -0.0749058 0.13
    endloop
  endfacet
  facet normal -0.907576 -0.419888 0
    outer loop
      vertex -0.0775456 -0.0466576 0.13
      vertex -0.0857626 -0.0288968 0.18
      vertex -0.0857626 -0.0288968 0.13
    endloop
  endfacet
  facet normal -0.907576 -0.419888 0
    outer loop
      vertex -0.0857626 -0.0288968 0.18
      vertex -0.0775456 -0.0466576 0.13
      vertex -0.0775456 -0.0466576 0.18
    endloop
  endfacet
  facet normal 0.856856 -0.515556 0
    outer loop
      vertex 0.0720464 -0.0547683 0.18
      vertex 0.0821356 -0.038 0.13
      vertex 0.0821356 -0.038 0.18
    endloop
  endfacet
  facet normal 0.856856 -0.515556 0
    outer loop
      vertex 0.0821356 -0.038 0.13
      vertex 0.0720464 -0.0547683 0.18
      vertex 0.0720464 -0.0547683 0.13
    endloop
  endfacet
  facet normal -0.994138 -0.108122 0
    outer loop
      vertex 0.09 0 0.13
      vertex 0.0878958 0.0193473 0.18
      vertex 0.0878958 0.0193473 0.13
    endloop
  endfacet
  facet normal -0.994138 -0.108122 0
    outer loop
      vertex 0.0878958 0.0193473 0.18
      vertex 0.09 0 0.13
      vertex 0.09 0 0.18
    endloop
  endfacet
  facet normal 1 -0 0
    outer loop
      vertex -0.0894724 -0.00973071 0.18
      vertex -0.0894724 0.00973071 0.13
      vertex -0.0894724 0.00973071 0.18
    endloop
  endfacet
  facet normal 1 0 0
    outer loop
      vertex -0.0894724 0.00973071 0.13
      vertex -0.0894724 -0.00973071 0.18
      vertex -0.0894724 -0.00973071 0.13
    endloop
  endfacet
  facet normal 0.0541378 -0.998533 0
    outer loop
      vertex -0.0145604 0.0888144 0.13
      vertex 0.00487249 0.089868 0.18
      vertex -0.0145604 0.0888144 0.18
    endloop
  endfacet
  facet normal 0.0541378 -0.998533 0
    outer loop
      vertex 0.00487249 0.089868 0.18
      vertex -0.0145604 0.0888144 0.13
      vertex 0.00487249 0.089868 0.13
    endloop
  endfacet
  facet normal -0.161782 0.986827 0
    outer loop
      vertex 0.0240775 -0.0867195 0.13
      vertex 0.00487249 -0.089868 0.18
      vertex 0.0240775 -0.0867195 0.18
    endloop
  endfacet
  facet normal -0.161782 0.986827 0
    outer loop
      vertex 0.00487249 -0.089868 0.18
      vertex 0.0240775 -0.0867195 0.13
      vertex 0.00487249 -0.089868 0.13
    endloop
  endfacet
  facet normal -0.725996 -0.687699 0
    outer loop
      vertex 0.0716484 0.0544657 0.13
      vertex 0.0582648 0.0685946 0.18
      vertex 0.0582648 0.0685946 0.13
    endloop
  endfacet
  facet normal -0.725996 -0.687699 0
    outer loop
      vertex 0.0582648 0.0685946 0.18
      vertex 0.0716484 0.0544657 0.13
      vertex 0.0716484 0.0544657 0.18
    endloop
  endfacet
  facet normal -0.947654 -0.319298 0
    outer loop
      vertex 0.0878958 0.0193473 0.13
      vertex 0.0816818 0.03779 0.18
      vertex 0.0816818 0.03779 0.13
    endloop
  endfacet
  facet normal -0.947654 -0.319298 0
    outer loop
      vertex 0.0816818 0.03779 0.18
      vertex 0.0878958 0.0193473 0.13
      vertex 0.0878958 0.0193473 0.18
    endloop
  endfacet
  facet normal 0.647386 -0.762162 0
    outer loop
      vertex -0.0653396 0.0618929 0.13
      vertex -0.0505068 0.074492 0.18
      vertex -0.0653396 0.0618929 0.18
    endloop
  endfacet
  facet normal 0.647386 -0.762162 0
    outer loop
      vertex -0.0505068 0.074492 0.18
      vertex -0.0653396 0.0618929 0.13
      vertex -0.0505068 0.074492 0.13
    endloop
  endfacet
  facet normal 0.26753 -0.96355 0
    outer loop
      vertex -0.0333124 0.0836079 0.13
      vertex -0.0145604 0.0888144 0.18
      vertex -0.0333124 0.0836079 0.18
    endloop
  endfacet
  facet normal 0.26753 -0.96355 0
    outer loop
      vertex -0.0145604 0.0888144 0.18
      vertex -0.0333124 0.0836079 0.13
      vertex -0.0145604 0.0888144 0.13
    endloop
  endfacet
  facet normal -0.856858 0.515553 0
    outer loop
      vertex 0.0716484 -0.0544657 0.13
      vertex 0.0816818 -0.03779 0.18
      vertex 0.0816818 -0.03779 0.13
    endloop
  endfacet
  facet normal -0.856858 0.515553 0
    outer loop
      vertex 0.0816818 -0.03779 0.18
      vertex 0.0716484 -0.0544657 0.13
      vertex 0.0716484 -0.0544657 0.18
    endloop
  endfacet
  facet normal -0.856858 -0.515553 0
    outer loop
      vertex 0.0816818 0.03779 0.13
      vertex 0.0716484 0.0544657 0.18
      vertex 0.0716484 0.0544657 0.13
    endloop
  endfacet
  facet normal -0.856858 -0.515553 0
    outer loop
      vertex 0.0716484 0.0544657 0.18
      vertex 0.0816818 0.03779 0.13
      vertex 0.0816818 0.03779 0.18
    endloop
  endfacet
  facet normal -0.370136 -0.928978 0
    outer loop
      vertex 0.0240775 0.0867195 0.13
      vertex 0.0421568 0.0795161 0.18
      vertex 0.0240775 0.0867195 0.18
    endloop
  endfacet
  facet normal -0.370136 -0.928978 -0
    outer loop
      vertex 0.0421568 0.0795161 0.18
      vertex 0.0240775 0.0867195 0.13
      vertex 0.0421568 0.0795161 0.13
    endloop
  endfacet
  facet normal -0.161782 -0.986827 0
    outer loop
      vertex 0.00487249 0.089868 0.13
      vertex 0.0240775 0.0867195 0.18
      vertex 0.00487249 0.089868 0.18
    endloop
  endfacet
  facet normal -0.161782 -0.986827 -0
    outer loop
      vertex 0.0240775 0.0867195 0.18
      vertex 0.00487249 0.089868 0.13
      vertex 0.0240775 0.0867195 0.13
    endloop
  endfacet
  facet normal -0.561187 -0.827689 0
    outer loop
      vertex 0.0421568 0.0795161 0.13
      vertex 0.0582648 0.0685946 0.18
      vertex 0.0421568 0.0795161 0.18
    endloop
  endfacet
  facet normal -0.561187 -0.827689 -0
    outer loop
      vertex 0.0582648 0.0685946 0.18
      vertex 0.0421568 0.0795161 0.13
      vertex 0.0582648 0.0685946 0.13
    endloop
  endfacet
  facet normal 0.907574 -0.419892 0
    outer loop
      vertex -0.0852888 0.0287371 0.18
      vertex -0.0771171 0.0463998 0.13
      vertex -0.0771171 0.0463998 0.18
    endloop
  endfacet
  facet normal 0.907574 -0.419892 0
    outer loop
      vertex -0.0771171 0.0463998 0.13
      vertex -0.0852888 0.0287371 0.18
      vertex -0.0852888 0.0287371 0.13
    endloop
  endfacet
  facet normal 0.796094 -0.605173 0
    outer loop
      vertex -0.0771171 0.0463998 0.18
      vertex -0.0653396 0.0618929 0.13
      vertex -0.0653396 0.0618929 0.18
    endloop
  endfacet
  facet normal 0.796094 -0.605173 0
    outer loop
      vertex -0.0653396 0.0618929 0.13
      vertex -0.0771171 0.0463998 0.18
      vertex -0.0771171 0.0463998 0.13
    endloop
  endfacet
  facet normal 0.976621 -0.214969 0
    outer loop
      vertex -0.0894724 0.00973071 0.18
      vertex -0.0852888 0.0287371 0.13
      vertex -0.0852888 0.0287371 0.18
    endloop
  endfacet
  facet normal 0.976621 -0.214969 0
    outer loop
      vertex -0.0852888 0.0287371 0.13
      vertex -0.0894724 0.00973071 0.18
      vertex -0.0894724 0.00973071 0.13
    endloop
  endfacet
  facet normal 0.468409 -0.883512 0
    outer loop
      vertex -0.0505068 0.074492 0.13
      vertex -0.0333124 0.0836079 0.18
      vertex -0.0505068 0.074492 0.18
    endloop
  endfacet
  facet normal 0.468409 -0.883512 0
    outer loop
      vertex -0.0333124 0.0836079 0.18
      vertex -0.0505068 0.074492 0.13
      vertex -0.0333124 0.0836079 0.13
    endloop
  endfacet
  facet normal -0.994138 0.108122 0
    outer loop
      vertex 0.0878958 -0.0193473 0.13
      vertex 0.09 0 0.18
      vertex 0.09 0 0.13
    endloop
  endfacet
  facet normal -0.994138 0.108122 0
    outer loop
      vertex 0.09 0 0.18
      vertex 0.0878958 -0.0193473 0.13
      vertex 0.0878958 -0.0193473 0.18
    endloop
  endfacet
  facet normal 0.976621 0.214969 0
    outer loop
      vertex -0.0852888 -0.0287371 0.18
      vertex -0.0894724 -0.00973071 0.13
      vertex -0.0894724 -0.00973071 0.18
    endloop
  endfacet
  facet normal 0.976621 0.214969 0
    outer loop
      vertex -0.0894724 -0.00973071 0.13
      vertex -0.0852888 -0.0287371 0.18
      vertex -0.0852888 -0.0287371 0.13
    endloop
  endfacet
  facet normal -0.947654 0.319298 0
    outer loop
      vertex 0.0816818 -0.03779 0.13
      vertex 0.0878958 -0.0193473 0.18
      vertex 0.0878958 -0.0193473 0.13
    endloop
  endfacet
  facet normal -0.947654 0.319298 0
    outer loop
      vertex 0.0878958 -0.0193473 0.18
      vertex 0.0816818 -0.03779 0.13
      vertex 0.0816818 -0.03779 0.18
    endloop
  endfacet
  facet normal 0.796094 0.605173 0
    outer loop
      vertex -0.0653396 -0.0618929 0.18
      vertex -0.0771171 -0.0463998 0.13
      vertex -0.0771171 -0.0463998 0.18
    endloop
  endfacet
  facet normal 0.796094 0.605173 0
    outer loop
      vertex -0.0771171 -0.0463998 0.13
      vertex -0.0653396 -0.0618929 0.18
      vertex -0.0653396 -0.0618929 0.13
    endloop
  endfacet
  facet normal -0.370136 0.928978 0
    outer loop
      vertex 0.0421568 -0.0795161 0.13
      vertex 0.0240775 -0.0867195 0.18
      vertex 0.0421568 -0.0795161 0.18
    endloop
  endfacet
  facet normal -0.370136 0.928978 0
    outer loop
      vertex 0.0240775 -0.0867195 0.18
      vertex 0.0421568 -0.0795161 0.13
      vertex 0.0240775 -0.0867195 0.13
    endloop
  endfacet
  facet normal -0.725996 0.687699 0
    outer loop
      vertex 0.0582648 -0.0685946 0.13
      vertex 0.0716484 -0.0544657 0.18
      vertex 0.0716484 -0.0544657 0.13
    endloop
  endfacet
  facet normal -0.725996 0.687699 0
    outer loop
      vertex 0.0716484 -0.0544657 0.18
      vertex 0.0582648 -0.0685946 0.13
      vertex 0.0582648 -0.0685946 0.18
    endloop
  endfacet
  facet normal 0.468409 0.883512 -0
    outer loop
      vertex -0.0333124 -0.0836079 0.13
      vertex -0.0505068 -0.074492 0.18
      vertex -0.0333124 -0.0836079 0.18
    endloop
  endfacet
  facet normal 0.468409 0.883512 0
    outer loop
      vertex -0.0505068 -0.074492 0.18
      vertex -0.0333124 -0.0836079 0.13
      vertex -0.0505068 -0.074492 0.13
    endloop
  endfacet
  facet normal 0.26753 0.96355 -0
    outer loop
      vertex -0.0145604 -0.0888144 0.13
      vertex -0.0333124 -0.0836079 0.18
      vertex -0.0145604 -0.0888144 0.18
    endloop
  endfacet
  facet normal 0.26753 0.96355 0
    outer loop
      vertex -0.0333124 -0.0836079 0.18
      vertex -0.0145604 -0.0888144 0.13
      vertex -0.0333124 -0.0836079 0.13
    endloop
  endfacet
  facet normal 0.0541378 0.998533 -0
    outer loop
      vertex 0.00487249 -0.089868 0.13
      vertex -0.0145604 -0.0888144 0.18
      vertex 0.00487249 -0.089868 0.18
    endloop
  endfacet
  facet normal 0.0541378 0.998533 0
    outer loop
      vertex -0.0145604 -0.0888144 0.18
      vertex 0.00487249 -0.089868 0.13
      vertex -0.0145604 -0.0888144 0.13
    endloop
  endfacet
  facet normal 0.647386 0.762162 -0
    outer loop
      vertex -0.0505068 -0.074492 0.13
      vertex -0.0653396 -0.0618929 0.18
      vertex -0.0505068 -0.074492 0.18
    endloop
  endfacet
  facet normal 0.647386 0.762162 0
    outer loop
      vertex -0.0653396 -0.0618929 0.18
      vertex -0.0505068 -0.074492 0.13
      vertex -0.0653396 -0.0618929 0.13
    endloop
  endfacet
  facet normal 0.907574 0.419892 0
    outer loop
      vertex -0.0771171 -0.0463998 0.18
      vertex -0.0852888 -0.0287371 0.13
      vertex -0.0852888 -0.0287371 0.18
    endloop
  endfacet
  facet normal 0.907574 0.419892 0
    outer loop
      vertex -0.0852888 -0.0287371 0.13
      vertex -0.0771171 -0.0463998 0.18
      vertex -0.0771171 -0.0463998 0.13
    endloop
  endfacet
  facet normal -0.561187 0.827689 0
    outer loop
      vertex 0.0582648 -0.0685946 0.13
      vertex 0.0421568 -0.0795161 0.18
      vertex 0.0582648 -0.0685946 0.18
    endloop
  endfacet
  facet normal -0.561187 0.827689 0
    outer loop
      vertex 0.0421568 -0.0795161 0.18
      vertex 0.0582648 -0.0685946 0.13
      vertex 0.0421568 -0.0795161 0.13
    endloop
  endfacet
endsolid OpenSCAD_Model
