solid OpenSCAD_Model
  facet normal 0.894427 0 -0.447214
    outer loop
      vertex 0.1 0.1 0.015
      vertex 0.09 -0.09 -0.005
      vertex 0.09 0.09 -0.005
    endloop
  endfacet
  facet normal 0.894427 0 -0.447214
    outer loop
      vertex 0.09 -0.09 -0.005
      vertex 0.1 0.1 0.015
      vertex 0.1 -0.1 0.015
    endloop
  endfacet
  facet normal 0 -0.894427 -0.447214
    outer loop
      vertex -0.09 -0.09 -0.005
      vertex 0.1 -0.1 0.015
      vertex -0.1 -0.1 0.015
    endloop
  endfacet
  facet normal 0 -0.894427 -0.447214
    outer loop
      vertex 0.1 -0.1 0.015
      vertex -0.09 -0.09 -0.005
      vertex 0.09 -0.09 -0.005
    endloop
  endfacet
  facet normal 0 0 -1
    outer loop
      vertex -0.09 -0.09 -0.005
      vertex 0.09 0.09 -0.005
      vertex 0.09 -0.09 -0.005
    endloop
  endfacet
  facet normal -0 0 -1
    outer loop
      vertex 0.09 0.09 -0.005
      vertex -0.09 -0.09 -0.005
      vertex -0.09 0.09 -0.005
    endloop
  endfacet
  facet normal 1 -0 0
    outer loop
      vertex 0.1 -0.1 0.035
      vertex 0.1 0.1 0.015
      vertex 0.1 0.1 0.035
    endloop
  endfacet
  facet normal 1 0 0
    outer loop
      vertex 0.1 0.1 0.015
      vertex 0.1 -0.1 0.035
      vertex 0.1 -0.1 0.015
    endloop
  endfacet
  facet normal -1 0 0
    outer loop
      vertex -0.1 -0.1 0.015
      vertex -0.1 0.1 0.035
      vertex -0.1 0.1 0.015
    endloop
  endfacet
  facet normal -1 -0 0
    outer loop
      vertex -0.1 0.1 0.035
      vertex -0.1 -0.1 0.015
      vertex -0.1 -0.1 0.035
    endloop
  endfacet
  facet normal 0 -1 0
    outer loop
      vertex -0.1 -0.1 0.015
      vertex 0.1 -0.1 0.035
      vertex -0.1 -0.1 0.035
    endloop
  endfacet
  facet normal 0 -1 -0
    outer loop
      vertex 0.1 -0.1 0.035
      vertex -0.1 -0.1 0.015
      vertex 0.1 -0.1 0.015
    endloop
  endfacet
  facet normal -0.894427 0 -0.447214
    outer loop
      vertex -0.09 -0.09 -0.005
      vertex -0.1 0.1 0.015
      vertex -0.09 0.09 -0.005
    endloop
  endfacet
  facet normal -0.894427 -0 -0.447214
    outer loop
      vertex -0.1 0.1 0.015
      vertex -0.09 -0.09 -0.005
      vertex -0.1 -0.1 0.015
    endloop
  endfacet
  facet normal 0 1 -0
    outer loop
      vertex 0.1 0.1 0.015
      vertex -0.1 0.1 0.035
      vertex 0.1 0.1 0.035
    endloop
  endfacet
  facet normal 0 1 0
    outer loop
      vertex -0.1 0.1 0.035
      vertex 0.1 0.1 0.015
      vertex -0.1 0.1 0.015
    endloop
  endfacet
  facet normal 0 0.894427 -0.447214
    outer loop
      vertex 0.09 0.09 -0.005
      vertex -0.1 0.1 0.015
      vertex 0.1 0.1 0.015
    endloop
  endfacet
  facet normal 0 0.894427 -0.447214
    outer loop
      vertex -0.1 0.1 0.015
      vertex 0.09 0.09 -0.005
      vertex -0.09 0.09 -0.005
    endloop
  endfacet
  facet normal 0 -0.707107 0.707107
    outer loop
      vertex -0.0902128 -0.0902128 0.0447872
      vertex 0.1 -0.1 0.035
      vertex 0.0902128 -0.0902128 0.0447872
    endloop
  endfacet
  facet normal 0 -0.707107 0.707107
    outer loop
      vertex 0.1 -0.1 0.035
      vertex -0.0902128 -0.0902128 0.0447872
      vertex -0.1 -0.1 0.035
    endloop
  endfacet
  facet normal -0.707107 0 0.707107
    outer loop
      vertex -0.1 0.1 0.035
      vertex -0.0902128 -0.0902128 0.0447872
      vertex -0.0902128 0.0902128 0.0447872
    endloop
  endfacet
  facet normal -0.707107 0 0.707107
    outer loop
      vertex -0.0902128 -0.0902128 0.0447872
      vertex -0.1 0.1 0.035
      vertex -0.1 -0.1 0.035
    endloop
  endfacet
  facet normal 0.707107 0 0.707107
    outer loop
      vertex 0.0902128 0.0902128 0.0447872
      vertex 0.1 -0.1 0.035
      vertex 0.1 0.1 0.035
    endloop
  endfacet
  facet normal 0.707107 0 0.707107
    outer loop
      vertex 0.1 -0.1 0.035
      vertex 0.0902128 0.0902128 0.0447872
      vertex 0.0902128 -0.0902128 0.0447872
    endloop
  endfacet
  facet normal 0 0.707107 0.707107
    outer loop
      vertex 0.1 0.1 0.035
      vertex -0.0902128 0.0902128 0.0447872
      vertex 0.0902128 0.0902128 0.0447872
    endloop
  endfacet
  facet normal 0 0.707107 0.707107
    outer loop
      vertex -0.0902128 0.0902128 0.0447872
      vertex 0.1 0.1 0.035
      vertex -0.1 0.1 0.035
    endloop
  endfacet
  facet normal 0.999764 0 -0.0217339
    outer loop
      vertex 0.1 0.1 0.495
      vertex 0.0902128 -0.0902128 0.0447872
      vertex 0.0902128 0.0902128 0.0447872
    endloop
  endfacet
  facet normal 0.999764 0 -0.0217339
    outer loop
      vertex 0.0902128 -0.0902128 0.0447872
      vertex 0.1 0.1 0.495
      vertex 0.1 -0.1 0.495
    endloop
  endfacet
  facet normal 0 -0.999764 -0.0217339
    outer loop
      vertex -0.0902128 -0.0902128 0.0447872
      vertex 0.1 -0.1 0.495
      vertex -0.1 -0.1 0.495
    endloop
  endfacet
  facet normal 0 -0.999764 -0.0217339
    outer loop
      vertex 0.1 -0.1 0.495
      vertex -0.0902128 -0.0902128 0.0447872
      vertex 0.0902128 -0.0902128 0.0447872
    endloop
  endfacet
  facet normal 1 -0 0
    outer loop
      vertex 0.1 -0.1 0.505
      vertex 0.1 0.1 0.495
      vertex 0.1 0.1 0.505
    endloop
  endfacet
  facet normal 1 0 0
    outer loop
      vertex 0.1 0.1 0.495
      vertex 0.1 -0.1 0.505
      vertex 0.1 -0.1 0.495
    endloop
  endfacet
  facet normal -1 0 0
    outer loop
      vertex -0.1 -0.1 0.495
      vertex -0.1 0.1 0.505
      vertex -0.1 0.1 0.495
    endloop
  endfacet
  facet normal -1 -0 0
    outer loop
      vertex -0.1 0.1 0.505
      vertex -0.1 -0.1 0.495
      vertex -0.1 -0.1 0.505
    endloop
  endfacet
  facet normal 0 -1 0
    outer loop
      vertex -0.1 -0.1 0.495
      vertex 0.1 -0.1 0.505
      vertex -0.1 -0.1 0.505
    endloop
  endfacet
  facet normal 0 -1 -0
    outer loop
      vertex 0.1 -0.1 0.505
      vertex -0.1 -0.1 0.495
      vertex 0.1 -0.1 0.495
    endloop
  endfacet
  facet normal -0.999764 0 -0.0217339
    outer loop
      vertex -0.0902128 -0.0902128 0.0447872
      vertex -0.1 0.1 0.495
      vertex -0.0902128 0.0902128 0.0447872
    endloop
  endfacet
  facet normal -0.999764 -0 -0.0217339
    outer loop
      vertex -0.1 0.1 0.495
      vertex -0.0902128 -0.0902128 0.0447872
      vertex -0.1 -0.1 0.495
    endloop
  endfacet
  facet normal 0 1 -0
    outer loop
      vertex 0.1 0.1 0.495
      vertex -0.1 0.1 0.505
      vertex 0.1 0.1 0.505
    endloop
  endfacet
  facet normal 0 1 0
    outer loop
      vertex -0.1 0.1 0.505
      vertex 0.1 0.1 0.495
      vertex -0.1 0.1 0.495
    endloop
  endfacet
  facet normal 0 0.999764 -0.0217339
    outer loop
      vertex 0.0902128 0.0902128 0.0447872
      vertex -0.1 0.1 0.495
      vertex 0.1 0.1 0.495
    endloop
  endfacet
  facet normal 0 0.999764 -0.0217339
    outer loop
      vertex -0.1 0.1 0.495
      vertex 0.0902128 0.0902128 0.0447872
      vertex -0.0902128 0.0902128 0.0447872
    endloop
  endfacet
  facet normal 0 -0.884918 0.465746
    outer loop
      vertex 0 -0.05 0.6
      vertex -0.1 -0.1 0.505
      vertex 0.1 -0.1 0.505
    endloop
  endfacet
  facet normal 0.884918 0 0.465746
    outer loop
      vertex 0.1 0.1 0.505
      vertex 0.05 0 0.6
      vertex 0.1 -0.1 0.505
    endloop
  endfacet
  facet normal -0.404031 0.60467 0.686391
    outer loop
      vertex -0.0191342 0.046194 0.6
      vertex -0.1 0.1 0.505
      vertex -0.0353553 0.0353553 0.6
    endloop
  endfacet
  facet normal -0.158204 0.795353 0.585137
    outer loop
      vertex 0 0.05 0.6
      vertex -0.1 0.1 0.505
      vertex -0.0191342 0.046194 0.6
    endloop
  endfacet
  facet normal 0.60467 0.404031 0.686391
    outer loop
      vertex 0.1 0.1 0.505
      vertex 0.0353553 0.0353553 0.6
      vertex 0.046194 0.0191342 0.6
    endloop
  endfacet
  facet normal -0.60467 -0.404031 0.686391
    outer loop
      vertex -0.046194 -0.0191342 0.6
      vertex -0.1 -0.1 0.505
      vertex -0.0353553 -0.0353553 0.6
    endloop
  endfacet
  facet normal 0.60467 -0.404031 0.686391
    outer loop
      vertex 0.046194 -0.0191342 0.6
      vertex 0.0353553 -0.0353553 0.6
      vertex 0.1 -0.1 0.505
    endloop
  endfacet
  facet normal 0.158204 0.795353 0.585137
    outer loop
      vertex 0.1 0.1 0.505
      vertex 0 0.05 0.6
      vertex 0.0191342 0.046194 0.6
    endloop
  endfacet
  facet normal -0.404031 -0.60467 0.686391
    outer loop
      vertex -0.0353553 -0.0353553 0.6
      vertex -0.1 -0.1 0.505
      vertex -0.0191342 -0.046194 0.6
    endloop
  endfacet
  facet normal -0.158204 -0.795353 0.585137
    outer loop
      vertex -0.0191342 -0.046194 0.6
      vertex -0.1 -0.1 0.505
      vertex 0 -0.05 0.6
    endloop
  endfacet
  facet normal 0.795353 0.158204 0.585137
    outer loop
      vertex 0.1 0.1 0.505
      vertex 0.046194 0.0191342 0.6
      vertex 0.05 0 0.6
    endloop
  endfacet
  facet normal 0.404031 0.60467 0.686391
    outer loop
      vertex 0.1 0.1 0.505
      vertex 0.0191342 0.046194 0.6
      vertex 0.0353553 0.0353553 0.6
    endloop
  endfacet
  facet normal 0.795353 -0.158204 0.585137
    outer loop
      vertex 0.05 0 0.6
      vertex 0.046194 -0.0191342 0.6
      vertex 0.1 -0.1 0.505
    endloop
  endfacet
  facet normal 0.158204 -0.795353 0.585137
    outer loop
      vertex 0.0191342 -0.046194 0.6
      vertex 0 -0.05 0.6
      vertex 0.1 -0.1 0.505
    endloop
  endfacet
  facet normal 0.404031 -0.60467 0.686391
    outer loop
      vertex 0.0353553 -0.0353553 0.6
      vertex 0.0191342 -0.046194 0.6
      vertex 0.1 -0.1 0.505
    endloop
  endfacet
  facet normal -0.795353 -0.158204 0.585137
    outer loop
      vertex -0.05 0 0.6
      vertex -0.1 -0.1 0.505
      vertex -0.046194 -0.0191342 0.6
    endloop
  endfacet
  facet normal -0 0 1
    outer loop
      vertex 0.0460985 0.0176034 0.6
      vertex 0.05 0 0.6
      vertex 0.046194 0.0191342 0.6
    endloop
  endfacet
  facet normal 0 0 1
    outer loop
      vertex 0.05 0 0.6
      vertex 0.0460985 0.0176034 0.6
      vertex 0.0496 0 0.6
    endloop
  endfacet
  facet normal 0 0 1
    outer loop
      vertex 0.046194 0.0191342 0.6
      vertex 0.0458244 0.0189811 0.6
      vertex 0.0460985 0.0176034 0.6
    endloop
  endfacet
  facet normal 0 0 1
    outer loop
      vertex 0.046194 0.0191342 0.6
      vertex 0.0358529 0.0339046 0.6
      vertex 0.0458244 0.0189811 0.6
    endloop
  endfacet
  facet normal 0 0 1
    outer loop
      vertex 0.0353553 0.0353553 0.6
      vertex 0.0358529 0.0339046 0.6
      vertex 0.046194 0.0191342 0.6
    endloop
  endfacet
  facet normal 0 0 1
    outer loop
      vertex 0.0353553 0.0353553 0.6
      vertex 0.0350725 0.0350725 0.6
      vertex 0.0358529 0.0339046 0.6
    endloop
  endfacet
  facet normal 0 0 1
    outer loop
      vertex 0.0353553 0.0353553 0.6
      vertex 0.0339046 0.0358529 0.6
      vertex 0.0350725 0.0350725 0.6
    endloop
  endfacet
  facet normal 0 0 1
    outer loop
      vertex 0.0191342 0.046194 0.6
      vertex 0.0339046 0.0358529 0.6
      vertex 0.0353553 0.0353553 0.6
    endloop
  endfacet
  facet normal 0 0 1
    outer loop
      vertex 0.0191342 0.046194 0.6
      vertex 0.0189811 0.0458244 0.6
      vertex 0.0339046 0.0358529 0.6
    endloop
  endfacet
  facet normal 0 0 1
    outer loop
      vertex 0.0191342 0.046194 0.6
      vertex 0.0176034 0.0460985 0.6
      vertex 0.0189811 0.0458244 0.6
    endloop
  endfacet
  facet normal 0 0 1
    outer loop
      vertex 0 0.05 0.6
      vertex 0.0176034 0.0460985 0.6
      vertex 0.0191342 0.046194 0.6
    endloop
  endfacet
  facet normal 0 0 1
    outer loop
      vertex 0 0.05 0.6
      vertex 0 0.0496 0.6
      vertex 0.0176034 0.0460985 0.6
    endloop
  endfacet
  facet normal 0 0 1
    outer loop
      vertex 0 0.05 0.6
      vertex -0.0176034 0.0460985 0.6
      vertex 0 0.0496 0.6
    endloop
  endfacet
  facet normal -0 0 1
    outer loop
      vertex -0.0191342 0.046194 0.6
      vertex -0.0176034 0.0460985 0.6
      vertex 0 0.05 0.6
    endloop
  endfacet
  facet normal 0 0 1
    outer loop
      vertex -0.0176034 0.0460985 0.6
      vertex -0.0191342 0.046194 0.6
      vertex -0.0189811 0.0458244 0.6
    endloop
  endfacet
  facet normal 0 0 1
    outer loop
      vertex -0.0191342 0.046194 0.6
      vertex -0.0339046 0.0358529 0.6
      vertex -0.0189811 0.0458244 0.6
    endloop
  endfacet
  facet normal 0 0 1
    outer loop
      vertex -0.0353553 0.0353553 0.6
      vertex -0.0339046 0.0358529 0.6
      vertex -0.0191342 0.046194 0.6
    endloop
  endfacet
  facet normal 0 0 1
    outer loop
      vertex -0.0339046 0.0358529 0.6
      vertex -0.0353553 0.0353553 0.6
      vertex -0.0350725 0.0350725 0.6
    endloop
  endfacet
  facet normal 0 0 1
    outer loop
      vertex -0.0353553 0.0353553 0.6
      vertex -0.0358529 0.0339046 0.6
      vertex -0.0350725 0.0350725 0.6
    endloop
  endfacet
  facet normal 0 0 1
    outer loop
      vertex -0.046194 0.0191342 0.6
      vertex -0.0358529 0.0339046 0.6
      vertex -0.0353553 0.0353553 0.6
    endloop
  endfacet
  facet normal 0 0 1
    outer loop
      vertex -0.0358529 0.0339046 0.6
      vertex -0.046194 0.0191342 0.6
      vertex -0.0458244 0.0189811 0.6
    endloop
  endfacet
  facet normal 0 0 1
    outer loop
      vertex -0.046194 0.0191342 0.6
      vertex -0.0460985 0.0176034 0.6
      vertex -0.0458244 0.0189811 0.6
    endloop
  endfacet
  facet normal 0 0 1
    outer loop
      vertex -0.05 0 0.6
      vertex -0.0460985 0.0176034 0.6
      vertex -0.046194 0.0191342 0.6
    endloop
  endfacet
  facet normal 0 0 1
    outer loop
      vertex -0.0460985 0.0176034 0.6
      vertex -0.05 0 0.6
      vertex -0.0496 0 0.6
    endloop
  endfacet
  facet normal 0 0 1
    outer loop
      vertex 0.0460985 -0.0176034 0.6
      vertex 0.05 0 0.6
      vertex 0.0496 0 0.6
    endloop
  endfacet
  facet normal 0 0 1
    outer loop
      vertex 0.05 0 0.6
      vertex 0.0460985 -0.0176034 0.6
      vertex 0.046194 -0.0191342 0.6
    endloop
  endfacet
  facet normal -0 0 1
    outer loop
      vertex 0.0458244 -0.0189811 0.6
      vertex 0.046194 -0.0191342 0.6
      vertex 0.0460985 -0.0176034 0.6
    endloop
  endfacet
  facet normal 0 0 1
    outer loop
      vertex 0.0358529 -0.0339046 0.6
      vertex 0.046194 -0.0191342 0.6
      vertex 0.0458244 -0.0189811 0.6
    endloop
  endfacet
  facet normal -0 0 1
    outer loop
      vertex 0.0358529 -0.0339046 0.6
      vertex 0.0353553 -0.0353553 0.6
      vertex 0.046194 -0.0191342 0.6
    endloop
  endfacet
  facet normal -0 0 1
    outer loop
      vertex 0.0350725 -0.0350725 0.6
      vertex 0.0353553 -0.0353553 0.6
      vertex 0.0358529 -0.0339046 0.6
    endloop
  endfacet
  facet normal 0 0 1
    outer loop
      vertex 0.0339046 -0.0358529 0.6
      vertex 0.0353553 -0.0353553 0.6
      vertex 0.0350725 -0.0350725 0.6
    endloop
  endfacet
  facet normal -0 0 1
    outer loop
      vertex 0.0339046 -0.0358529 0.6
      vertex 0.0191342 -0.046194 0.6
      vertex 0.0353553 -0.0353553 0.6
    endloop
  endfacet
  facet normal -0 0 1
    outer loop
      vertex 0.0189811 -0.0458244 0.6
      vertex 0.0191342 -0.046194 0.6
      vertex 0.0339046 -0.0358529 0.6
    endloop
  endfacet
  facet normal -0 0 1
    outer loop
      vertex 0.0176034 -0.0460985 0.6
      vertex 0.0191342 -0.046194 0.6
      vertex 0.0189811 -0.0458244 0.6
    endloop
  endfacet
  facet normal 0 0 1
    outer loop
      vertex 0 -0.05 0.6
      vertex 0.0176034 -0.0460985 0.6
      vertex 0 -0.0496 0.6
    endloop
  endfacet
  facet normal 0 0 1
    outer loop
      vertex 0.0176034 -0.0460985 0.6
      vertex 0 -0.05 0.6
      vertex 0.0191342 -0.046194 0.6
    endloop
  endfacet
  facet normal 0 0 1
    outer loop
      vertex -0.0176034 -0.0460985 0.6
      vertex 0 -0.05 0.6
      vertex 0 -0.0496 0.6
    endloop
  endfacet
  facet normal 0 0 1
    outer loop
      vertex -0.0191342 -0.046194 0.6
      vertex -0.0176034 -0.0460985 0.6
      vertex -0.0189811 -0.0458244 0.6
    endloop
  endfacet
  facet normal 0 0 1
    outer loop
      vertex -0.0176034 -0.0460985 0.6
      vertex -0.0191342 -0.046194 0.6
      vertex 0 -0.05 0.6
    endloop
  endfacet
  facet normal 0 0 1
    outer loop
      vertex -0.0339046 -0.0358529 0.6
      vertex -0.0191342 -0.046194 0.6
      vertex -0.0189811 -0.0458244 0.6
    endloop
  endfacet
  facet normal -0 0 1
    outer loop
      vertex -0.0353553 -0.0353553 0.6
      vertex -0.0339046 -0.0358529 0.6
      vertex -0.0350725 -0.0350725 0.6
    endloop
  endfacet
  facet normal 0 0 1
    outer loop
      vertex -0.0339046 -0.0358529 0.6
      vertex -0.0353553 -0.0353553 0.6
      vertex -0.0191342 -0.046194 0.6
    endloop
  endfacet
  facet normal 0 0 1
    outer loop
      vertex -0.0358529 -0.0339046 0.6
      vertex -0.0353553 -0.0353553 0.6
      vertex -0.0350725 -0.0350725 0.6
    endloop
  endfacet
  facet normal -0 0 1
    outer loop
      vertex -0.046194 -0.0191342 0.6
      vertex -0.0358529 -0.0339046 0.6
      vertex -0.0458244 -0.0189811 0.6
    endloop
  endfacet
  facet normal 0 0 1
    outer loop
      vertex -0.0358529 -0.0339046 0.6
      vertex -0.046194 -0.0191342 0.6
      vertex -0.0353553 -0.0353553 0.6
    endloop
  endfacet
  facet normal 0 0 1
    outer loop
      vertex -0.0460985 -0.0176034 0.6
      vertex -0.046194 -0.0191342 0.6
      vertex -0.0458244 -0.0189811 0.6
    endloop
  endfacet
  facet normal -0 0 1
    outer loop
      vertex -0.05 0 0.6
      vertex -0.0460985 -0.0176034 0.6
      vertex -0.0496 0 0.6
    endloop
  endfacet
  facet normal 0 0 1
    outer loop
      vertex -0.0460985 -0.0176034 0.6
      vertex -0.05 0 0.6
      vertex -0.046194 -0.0191342 0.6
    endloop
  endfacet
  facet normal 0 0.884918 0.465746
    outer loop
      vertex 0.1 0.1 0.505
      vertex -0.1 0.1 0.505
      vertex 0 0.05 0.6
    endloop
  endfacet
  facet normal -0.884918 0 0.465746
    outer loop
      vertex -0.1 0.1 0.505
      vertex -0.1 -0.1 0.505
      vertex -0.05 0 0.6
    endloop
  endfacet
  facet normal -0.60467 0.404031 0.686391
    outer loop
      vertex -0.0353553 0.0353553 0.6
      vertex -0.1 0.1 0.505
      vertex -0.046194 0.0191342 0.6
    endloop
  endfacet
  facet normal -0.795353 0.158204 0.585137
    outer loop
      vertex -0.046194 0.0191342 0.6
      vertex -0.1 0.1 0.505
      vertex -0.05 0 0.6
    endloop
  endfacet
  facet normal 0.980597 0.195051 0.0196119
    outer loop
      vertex 0.0460985 0.0176034 0.6
      vertex 0.045 0 0.83
      vertex 0.0496 0 0.6
    endloop
  endfacet
  facet normal -0.195051 -0.980597 0.0196119
    outer loop
      vertex 0 -0.045 0.83
      vertex -0.0176034 -0.0460985 0.6
      vertex 0 -0.0496 0.6
    endloop
  endfacet
  facet normal -0.980597 -0.195051 0.0196119
    outer loop
      vertex -0.045 0 0.83
      vertex -0.0496 0 0.6
      vertex -0.0460985 -0.0176034 0.6
    endloop
  endfacet
  facet normal 0.831311 0.555461 0.0196119
    outer loop
      vertex 0.0458244 0.0189811 0.6
      vertex 0.0358529 0.0339046 0.6
      vertex 0.0415746 0.0172207 0.83
    endloop
  endfacet
  facet normal -0.195051 0.980597 0.0196119
    outer loop
      vertex 0 0.0496 0.6
      vertex -0.0176034 0.0460985 0.6
      vertex 0 0.045 0.83
    endloop
  endfacet
  facet normal -0.83131 -0.555463 0.0196121
    outer loop
      vertex -0.0358529 -0.0339046 0.6
      vertex -0.0318198 -0.0318198 0.83
      vertex -0.0415746 -0.0172207 0.83
    endloop
  endfacet
  facet normal -0.831298 -0.55548 0.0196121
    outer loop
      vertex -0.0318198 -0.0318198 0.83
      vertex -0.0358529 -0.0339046 0.6
      vertex -0.0350725 -0.0350725 0.6
    endloop
  endfacet
  facet normal 0.55548 0.831298 0.0196121
    outer loop
      vertex 0.0339046 0.0358529 0.6
      vertex 0.0318198 0.0318198 0.83
      vertex 0.0350725 0.0350725 0.6
    endloop
  endfacet
  facet normal 0.555463 0.83131 0.0196121
    outer loop
      vertex 0.0318198 0.0318198 0.83
      vertex 0.0339046 0.0358529 0.6
      vertex 0.0172207 0.0415746 0.83
    endloop
  endfacet
  facet normal 0.831298 0.55548 0.0196121
    outer loop
      vertex 0.0318198 0.0318198 0.83
      vertex 0.0358529 0.0339046 0.6
      vertex 0.0350725 0.0350725 0.6
    endloop
  endfacet
  facet normal 0.83131 0.555463 0.0196121
    outer loop
      vertex 0.0358529 0.0339046 0.6
      vertex 0.0318198 0.0318198 0.83
      vertex 0.0415746 0.0172207 0.83
    endloop
  endfacet
  facet normal 0.980589 0.195093 0.0196119
    outer loop
      vertex 0.0415746 0.0172207 0.83
      vertex 0.0460985 0.0176034 0.6
      vertex 0.0458244 0.0189811 0.6
    endloop
  endfacet
  facet normal 0.980597 0.195052 0.019612
    outer loop
      vertex 0.0460985 0.0176034 0.6
      vertex 0.0415746 0.0172207 0.83
      vertex 0.045 0 0.83
    endloop
  endfacet
  facet normal 0.980597 -0.195051 0.0196119
    outer loop
      vertex 0.0496 0 0.6
      vertex 0.045 0 0.83
      vertex 0.0460985 -0.0176034 0.6
    endloop
  endfacet
  facet normal -0.195052 0.980597 0.019612
    outer loop
      vertex -0.0176034 0.0460985 0.6
      vertex -0.0172207 0.0415746 0.83
      vertex 0 0.045 0.83
    endloop
  endfacet
  facet normal -0.195093 0.980589 0.0196119
    outer loop
      vertex -0.0172207 0.0415746 0.83
      vertex -0.0176034 0.0460985 0.6
      vertex -0.0189811 0.0458244 0.6
    endloop
  endfacet
  facet normal -0.980597 0.195051 0.0196119
    outer loop
      vertex -0.0460985 0.0176034 0.6
      vertex -0.0496 0 0.6
      vertex -0.045 0 0.83
    endloop
  endfacet
  facet normal -0.555461 0.831311 0.0196119
    outer loop
      vertex -0.0189811 0.0458244 0.6
      vertex -0.0339046 0.0358529 0.6
      vertex -0.0172207 0.0415746 0.83
    endloop
  endfacet
  facet normal -0.831311 -0.555461 0.0196119
    outer loop
      vertex -0.0415746 -0.0172207 0.83
      vertex -0.0458244 -0.0189811 0.6
      vertex -0.0358529 -0.0339046 0.6
    endloop
  endfacet
  facet normal -0.980597 -0.195052 0.019612
    outer loop
      vertex -0.0460985 -0.0176034 0.6
      vertex -0.0415746 -0.0172207 0.83
      vertex -0.045 0 0.83
    endloop
  endfacet
  facet normal -0.980589 -0.195093 0.0196119
    outer loop
      vertex -0.0415746 -0.0172207 0.83
      vertex -0.0460985 -0.0176034 0.6
      vertex -0.0458244 -0.0189811 0.6
    endloop
  endfacet
  facet normal -0.555461 -0.831311 0.0196119
    outer loop
      vertex -0.0172207 -0.0415746 0.83
      vertex -0.0339046 -0.0358529 0.6
      vertex -0.0189811 -0.0458244 0.6
    endloop
  endfacet
  facet normal -0.195093 -0.980589 0.0196119
    outer loop
      vertex -0.0176034 -0.0460985 0.6
      vertex -0.0172207 -0.0415746 0.83
      vertex -0.0189811 -0.0458244 0.6
    endloop
  endfacet
  facet normal -0.195052 -0.980597 0.019612
    outer loop
      vertex -0.0172207 -0.0415746 0.83
      vertex -0.0176034 -0.0460985 0.6
      vertex 0 -0.045 0.83
    endloop
  endfacet
  facet normal 0.555463 -0.83131 0.0196121
    outer loop
      vertex 0.0339046 -0.0358529 0.6
      vertex 0.0318198 -0.0318198 0.83
      vertex 0.0172207 -0.0415746 0.83
    endloop
  endfacet
  facet normal 0.55548 -0.831298 0.0196121
    outer loop
      vertex 0.0318198 -0.0318198 0.83
      vertex 0.0339046 -0.0358529 0.6
      vertex 0.0350725 -0.0350725 0.6
    endloop
  endfacet
  facet normal 0.195051 -0.980597 0.0196119
    outer loop
      vertex 0 -0.045 0.83
      vertex 0 -0.0496 0.6
      vertex 0.0176034 -0.0460985 0.6
    endloop
  endfacet
  facet normal 0.83131 -0.555463 0.0196121
    outer loop
      vertex 0.0318198 -0.0318198 0.83
      vertex 0.0358529 -0.0339046 0.6
      vertex 0.0415746 -0.0172207 0.83
    endloop
  endfacet
  facet normal 0.831298 -0.55548 0.0196121
    outer loop
      vertex 0.0358529 -0.0339046 0.6
      vertex 0.0318198 -0.0318198 0.83
      vertex 0.0350725 -0.0350725 0.6
    endloop
  endfacet
  facet normal 0.195051 0.980597 0.0196119
    outer loop
      vertex 0 0.0496 0.6
      vertex 0 0.045 0.83
      vertex 0.0176034 0.0460985 0.6
    endloop
  endfacet
  facet normal 0 0 1
    outer loop
      vertex 0.0415746 0.0172207 0.83
      vertex 0.0415746 -0.0172207 0.83
      vertex 0.045 0 0.83
    endloop
  endfacet
  facet normal 0 0 1
    outer loop
      vertex 0.0318198 0.0318198 0.83
      vertex 0.0415746 -0.0172207 0.83
      vertex 0.0415746 0.0172207 0.83
    endloop
  endfacet
  facet normal 0 0 1
    outer loop
      vertex 0.0318198 0.0318198 0.83
      vertex 0.0318198 -0.0318198 0.83
      vertex 0.0415746 -0.0172207 0.83
    endloop
  endfacet
  facet normal 0 0 1
    outer loop
      vertex 0.0172207 0.0415746 0.83
      vertex 0.0318198 -0.0318198 0.83
      vertex 0.0318198 0.0318198 0.83
    endloop
  endfacet
  facet normal 0 0 1
    outer loop
      vertex 0.0172207 0.0415746 0.83
      vertex 0.0172207 -0.0415746 0.83
      vertex 0.0318198 -0.0318198 0.83
    endloop
  endfacet
  facet normal 0 0 1
    outer loop
      vertex 0 0.045 0.83
      vertex 0.0172207 -0.0415746 0.83
      vertex 0.0172207 0.0415746 0.83
    endloop
  endfacet
  facet normal 0 0 1
    outer loop
      vertex 0 0.045 0.83
      vertex 0 -0.045 0.83
      vertex 0.0172207 -0.0415746 0.83
    endloop
  endfacet
  facet normal -0 0 1
    outer loop
      vertex -0.0172207 0.0415746 0.83
      vertex 0 -0.045 0.83
      vertex 0 0.045 0.83
    endloop
  endfacet
  facet normal 0 0 1
    outer loop
      vertex -0.0172207 0.0415746 0.83
      vertex -0.0172207 -0.0415746 0.83
      vertex 0 -0.045 0.83
    endloop
  endfacet
  facet normal -0 0 1
    outer loop
      vertex -0.0318198 0.0318198 0.83
      vertex -0.0172207 -0.0415746 0.83
      vertex -0.0172207 0.0415746 0.83
    endloop
  endfacet
  facet normal 0 0 1
    outer loop
      vertex -0.0318198 0.0318198 0.83
      vertex -0.0318198 -0.0318198 0.83
      vertex -0.0172207 -0.0415746 0.83
    endloop
  endfacet
  facet normal -0 0 1
    outer loop
      vertex -0.0415746 0.0172207 0.83
      vertex -0.0318198 -0.0318198 0.83
      vertex -0.0318198 0.0318198 0.83
    endloop
  endfacet
  facet normal 0 0 1
    outer loop
      vertex -0.0415746 0.0172207 0.83
      vertex -0.0415746 -0.0172207 0.83
      vertex -0.0318198 -0.0318198 0.83
    endloop
  endfacet
  facet normal 0 -0 1
    outer loop
      vertex -0.0415746 -0.0172207 0.83
      vertex -0.0415746 0.0172207 0.83
      vertex -0.045 0 0.83
    endloop
  endfacet
  facet normal -0.980589 0.195093 0.0196119
    outer loop
      vertex -0.0460985 0.0176034 0.6
      vertex -0.0415746 0.0172207 0.83
      vertex -0.0458244 0.0189811 0.6
    endloop
  endfacet
  facet normal -0.980597 0.195052 0.019612
    outer loop
      vertex -0.0415746 0.0172207 0.83
      vertex -0.0460985 0.0176034 0.6
      vertex -0.045 0 0.83
    endloop
  endfacet
  facet normal -0.831298 0.55548 0.0196121
    outer loop
      vertex -0.0358529 0.0339046 0.6
      vertex -0.0318198 0.0318198 0.83
      vertex -0.0350725 0.0350725 0.6
    endloop
  endfacet
  facet normal -0.83131 0.555463 0.0196121
    outer loop
      vertex -0.0318198 0.0318198 0.83
      vertex -0.0358529 0.0339046 0.6
      vertex -0.0415746 0.0172207 0.83
    endloop
  endfacet
  facet normal -0.831311 0.555461 0.0196119
    outer loop
      vertex -0.0358529 0.0339046 0.6
      vertex -0.0458244 0.0189811 0.6
      vertex -0.0415746 0.0172207 0.83
    endloop
  endfacet
  facet normal -0.55548 -0.831298 0.0196121
    outer loop
      vertex -0.0339046 -0.0358529 0.6
      vertex -0.0318198 -0.0318198 0.83
      vertex -0.0350725 -0.0350725 0.6
    endloop
  endfacet
  facet normal -0.555463 -0.83131 0.0196121
    outer loop
      vertex -0.0318198 -0.0318198 0.83
      vertex -0.0339046 -0.0358529 0.6
      vertex -0.0172207 -0.0415746 0.83
    endloop
  endfacet
  facet normal 0.195052 -0.980597 0.019612
    outer loop
      vertex 0.0176034 -0.0460985 0.6
      vertex 0.0172207 -0.0415746 0.83
      vertex 0 -0.045 0.83
    endloop
  endfacet
  facet normal 0.195093 -0.980589 0.0196119
    outer loop
      vertex 0.0172207 -0.0415746 0.83
      vertex 0.0176034 -0.0460985 0.6
      vertex 0.0189811 -0.0458244 0.6
    endloop
  endfacet
  facet normal 0.555461 -0.831311 0.0196119
    outer loop
      vertex 0.0339046 -0.0358529 0.6
      vertex 0.0172207 -0.0415746 0.83
      vertex 0.0189811 -0.0458244 0.6
    endloop
  endfacet
  facet normal 0.831311 -0.555461 0.0196119
    outer loop
      vertex 0.0415746 -0.0172207 0.83
      vertex 0.0358529 -0.0339046 0.6
      vertex 0.0458244 -0.0189811 0.6
    endloop
  endfacet
  facet normal 0.980597 -0.195052 0.019612
    outer loop
      vertex 0.0415746 -0.0172207 0.83
      vertex 0.0460985 -0.0176034 0.6
      vertex 0.045 0 0.83
    endloop
  endfacet
  facet normal 0.980589 -0.195093 0.0196119
    outer loop
      vertex 0.0460985 -0.0176034 0.6
      vertex 0.0415746 -0.0172207 0.83
      vertex 0.0458244 -0.0189811 0.6
    endloop
  endfacet
  facet normal 0.555461 0.831311 0.0196119
    outer loop
      vertex 0.0189811 0.0458244 0.6
      vertex 0.0172207 0.0415746 0.83
      vertex 0.0339046 0.0358529 0.6
    endloop
  endfacet
  facet normal 0.195093 0.980589 0.0196119
    outer loop
      vertex 0.0176034 0.0460985 0.6
      vertex 0.0172207 0.0415746 0.83
      vertex 0.0189811 0.0458244 0.6
    endloop
  endfacet
  facet normal 0.195052 0.980597 0.019612
    outer loop
      vertex 0.0172207 0.0415746 0.83
      vertex 0.0176034 0.0460985 0.6
      vertex 0 0.045 0.83
    endloop
  endfacet
  facet normal -0.555463 0.83131 0.0196121
    outer loop
      vertex -0.0339046 0.0358529 0.6
      vertex -0.0318198 0.0318198 0.83
      vertex -0.0172207 0.0415746 0.83
    endloop
  endfacet
  facet normal -0.55548 0.831298 0.0196121
    outer loop
      vertex -0.0318198 0.0318198 0.83
      vertex -0.0339046 0.0358529 0.6
      vertex -0.0350725 0.0350725 0.6
    endloop
  endfacet
  facet normal -0.899869 0 0.436161
    outer loop
      vertex 0.0855 -0.0855 -0.0049
      vertex 0.095 0.095 0.0147
      vertex 0.0855 0.0855 -0.0049
    endloop
  endfacet
  facet normal -0.899869 0 0.436161
    outer loop
      vertex 0.095 0.095 0.0147
      vertex 0.0855 -0.0855 -0.0049
      vertex 0.095 -0.095 0.0147
    endloop
  endfacet
  facet normal 0 0.899869 0.436161
    outer loop
      vertex 0.0855 -0.0855 -0.0049
      vertex -0.095 -0.095 0.0147
      vertex 0.095 -0.095 0.0147
    endloop
  endfacet
  facet normal 0 0.899869 0.436161
    outer loop
      vertex -0.095 -0.095 0.0147
      vertex 0.0855 -0.0855 -0.0049
      vertex -0.0855 -0.0855 -0.0049
    endloop
  endfacet
  facet normal -0 0 1
    outer loop
      vertex -0.0855 0.0855 -0.0049
      vertex 0.0855 -0.0855 -0.0049
      vertex 0.0855 0.0855 -0.0049
    endloop
  endfacet
  facet normal 0 0 1
    outer loop
      vertex 0.0855 -0.0855 -0.0049
      vertex -0.0855 0.0855 -0.0049
      vertex -0.0855 -0.0855 -0.0049
    endloop
  endfacet
  facet normal -1 0 0
    outer loop
      vertex 0.095 -0.095 0.0147
      vertex 0.095 0.095 0.0343
      vertex 0.095 0.095 0.0147
    endloop
  endfacet
  facet normal -1 -0 0
    outer loop
      vertex 0.095 0.095 0.0343
      vertex 0.095 -0.095 0.0147
      vertex 0.095 -0.095 0.0343
    endloop
  endfacet
  facet normal 1 -0 0
    outer loop
      vertex -0.095 -0.095 0.0343
      vertex -0.095 0.095 0.0147
      vertex -0.095 0.095 0.0343
    endloop
  endfacet
  facet normal 1 0 0
    outer loop
      vertex -0.095 0.095 0.0147
      vertex -0.095 -0.095 0.0343
      vertex -0.095 -0.095 0.0147
    endloop
  endfacet
  facet normal 0 1 -0
    outer loop
      vertex 0.095 -0.095 0.0147
      vertex -0.095 -0.095 0.0343
      vertex 0.095 -0.095 0.0343
    endloop
  endfacet
  facet normal 0 1 0
    outer loop
      vertex -0.095 -0.095 0.0343
      vertex 0.095 -0.095 0.0147
      vertex -0.095 -0.095 0.0147
    endloop
  endfacet
  facet normal 0.899869 0 0.436161
    outer loop
      vertex -0.095 0.095 0.0147
      vertex -0.0855 -0.0855 -0.0049
      vertex -0.0855 0.0855 -0.0049
    endloop
  endfacet
  facet normal 0.899869 0 0.436161
    outer loop
      vertex -0.0855 -0.0855 -0.0049
      vertex -0.095 0.095 0.0147
      vertex -0.095 -0.095 0.0147
    endloop
  endfacet
  facet normal 0 -1 0
    outer loop
      vertex -0.095 0.095 0.0147
      vertex 0.095 0.095 0.0343
      vertex -0.095 0.095 0.0343
    endloop
  endfacet
  facet normal 0 -1 -0
    outer loop
      vertex 0.095 0.095 0.0343
      vertex -0.095 0.095 0.0147
      vertex 0.095 0.095 0.0147
    endloop
  endfacet
  facet normal 0 -0.899869 0.436161
    outer loop
      vertex -0.0855 0.0855 -0.0049
      vertex 0.095 0.095 0.0147
      vertex -0.095 0.095 0.0147
    endloop
  endfacet
  facet normal 0 -0.899869 0.436161
    outer loop
      vertex 0.095 0.095 0.0147
      vertex -0.0855 0.0855 -0.0049
      vertex 0.0855 0.0855 -0.0049
    endloop
  endfacet
  facet normal 0 0.718011 -0.696032
    outer loop
      vertex 0.095 -0.095 0.0343
      vertex -0.0857021 -0.0857021 0.0438915
      vertex 0.0857021 -0.0857021 0.0438915
    endloop
  endfacet
  facet normal 0 0.718011 -0.696032
    outer loop
      vertex -0.0857021 -0.0857021 0.0438915
      vertex 0.095 -0.095 0.0343
      vertex -0.095 -0.095 0.0343
    endloop
  endfacet
  facet normal 0.718011 0 -0.696032
    outer loop
      vertex -0.0857021 -0.0857021 0.0438915
      vertex -0.095 0.095 0.0343
      vertex -0.0857021 0.0857021 0.0438915
    endloop
  endfacet
  facet normal 0.718011 0 -0.696032
    outer loop
      vertex -0.095 0.095 0.0343
      vertex -0.0857021 -0.0857021 0.0438915
      vertex -0.095 -0.095 0.0343
    endloop
  endfacet
  facet normal -0.718011 0 -0.696032
    outer loop
      vertex 0.095 0.095 0.0343
      vertex 0.0857021 -0.0857021 0.0438915
      vertex 0.0857021 0.0857021 0.0438915
    endloop
  endfacet
  facet normal -0.718011 0 -0.696032
    outer loop
      vertex 0.0857021 -0.0857021 0.0438915
      vertex 0.095 0.095 0.0343
      vertex 0.095 -0.095 0.0343
    endloop
  endfacet
  facet normal 0 -0.718011 -0.696032
    outer loop
      vertex -0.095 0.095 0.0343
      vertex 0.0857021 0.0857021 0.0438915
      vertex -0.0857021 0.0857021 0.0438915
    endloop
  endfacet
  facet normal 0 -0.718011 -0.696032
    outer loop
      vertex 0.0857021 0.0857021 0.0438915
      vertex -0.095 0.095 0.0343
      vertex 0.095 0.095 0.0343
    endloop
  endfacet
  facet normal -0.999778 0 0.021069
    outer loop
      vertex 0.0857021 -0.0857021 0.0438915
      vertex 0.095 0.095 0.4851
      vertex 0.0857021 0.0857021 0.0438915
    endloop
  endfacet
  facet normal -0.999778 0 0.021069
    outer loop
      vertex 0.095 0.095 0.4851
      vertex 0.0857021 -0.0857021 0.0438915
      vertex 0.095 -0.095 0.4851
    endloop
  endfacet
  facet normal 0 0.999778 0.021069
    outer loop
      vertex 0.0857021 -0.0857021 0.0438915
      vertex -0.095 -0.095 0.4851
      vertex 0.095 -0.095 0.4851
    endloop
  endfacet
  facet normal 0 0.999778 0.021069
    outer loop
      vertex -0.095 -0.095 0.4851
      vertex 0.0857021 -0.0857021 0.0438915
      vertex -0.0857021 -0.0857021 0.0438915
    endloop
  endfacet
  facet normal -1 0 0
    outer loop
      vertex 0.095 -0.095 0.4851
      vertex 0.095 0.095 0.4949
      vertex 0.095 0.095 0.4851
    endloop
  endfacet
  facet normal -1 -0 0
    outer loop
      vertex 0.095 0.095 0.4949
      vertex 0.095 -0.095 0.4851
      vertex 0.095 -0.095 0.4949
    endloop
  endfacet
  facet normal 1 -0 0
    outer loop
      vertex -0.095 -0.095 0.4949
      vertex -0.095 0.095 0.4851
      vertex -0.095 0.095 0.4949
    endloop
  endfacet
  facet normal 1 0 0
    outer loop
      vertex -0.095 0.095 0.4851
      vertex -0.095 -0.095 0.4949
      vertex -0.095 -0.095 0.4851
    endloop
  endfacet
  facet normal 0 1 -0
    outer loop
      vertex 0.095 -0.095 0.4851
      vertex -0.095 -0.095 0.4949
      vertex 0.095 -0.095 0.4949
    endloop
  endfacet
  facet normal 0 1 0
    outer loop
      vertex -0.095 -0.095 0.4949
      vertex 0.095 -0.095 0.4851
      vertex -0.095 -0.095 0.4851
    endloop
  endfacet
  facet normal 0.999778 0 0.021069
    outer loop
      vertex -0.095 0.095 0.4851
      vertex -0.0857021 -0.0857021 0.0438915
      vertex -0.0857021 0.0857021 0.0438915
    endloop
  endfacet
  facet normal 0.999778 0 0.021069
    outer loop
      vertex -0.0857021 -0.0857021 0.0438915
      vertex -0.095 0.095 0.4851
      vertex -0.095 -0.095 0.4851
    endloop
  endfacet
  facet normal 0 -1 0
    outer loop
      vertex -0.095 0.095 0.4851
      vertex 0.095 0.095 0.4949
      vertex -0.095 0.095 0.4949
    endloop
  endfacet
  facet normal 0 -1 -0
    outer loop
      vertex 0.095 0.095 0.4949
      vertex -0.095 0.095 0.4851
      vertex 0.095 0.095 0.4851
    endloop
  endfacet
  facet normal 0 -0.999778 0.021069
    outer loop
      vertex -0.0857021 0.0857021 0.0438915
      vertex 0.095 0.095 0.4851
      vertex -0.095 0.095 0.4851
    endloop
  endfacet
  facet normal 0 -0.999778 0.021069
    outer loop
      vertex 0.095 0.095 0.4851
      vertex -0.0857021 0.0857021 0.0438915
      vertex 0.0857021 0.0857021 0.0438915
    endloop
  endfacet
  facet normal 0 0.890762 -0.45447
    outer loop
      vertex 0 -0.0475 0.588
      vertex 0.095 -0.095 0.4949
      vertex -0.095 -0.095 0.4949
    endloop
  endfacet
  facet normal -0.890762 -0 -0.45447
    outer loop
      vertex 0.095 0.095 0.4949
      vertex 0.095 -0.095 0.4949
      vertex 0.0475 0 0.588
    endloop
  endfacet
  facet normal 0.409892 -0.613447 -0.675034
    outer loop
      vertex -0.0181775 0.0438843 0.588
      vertex -0.0335876 0.0335876 0.588
      vertex -0.095 0.095 0.4949
    endloop
  endfacet
  facet normal 0.159863 -0.803691 -0.573171
    outer loop
      vertex 0 0.0475 0.588
      vertex -0.0181775 0.0438843 0.588
      vertex -0.095 0.095 0.4949
    endloop
  endfacet
  facet normal -0.613447 -0.409892 -0.675034
    outer loop
      vertex 0.095 0.095 0.4949
      vertex 0.0438843 0.0181775 0.588
      vertex 0.0335876 0.0335876 0.588
    endloop
  endfacet
  facet normal 0.613447 0.409892 -0.675034
    outer loop
      vertex -0.0438843 -0.0181775 0.588
      vertex -0.0335876 -0.0335876 0.588
      vertex -0.095 -0.095 0.4949
    endloop
  endfacet
  facet normal -0.613447 0.409892 -0.675034
    outer loop
      vertex 0.0438843 -0.0181775 0.588
      vertex 0.095 -0.095 0.4949
      vertex 0.0335876 -0.0335876 0.588
    endloop
  endfacet
  facet normal -0.159863 -0.803691 -0.573171
    outer loop
      vertex 0.095 0.095 0.4949
      vertex 0.0181775 0.0438843 0.588
      vertex 0 0.0475 0.588
    endloop
  endfacet
  facet normal 0.409892 0.613447 -0.675034
    outer loop
      vertex -0.0335876 -0.0335876 0.588
      vertex -0.0181775 -0.0438843 0.588
      vertex -0.095 -0.095 0.4949
    endloop
  endfacet
  facet normal 0.159863 0.803691 -0.573171
    outer loop
      vertex -0.0181775 -0.0438843 0.588
      vertex 0 -0.0475 0.588
      vertex -0.095 -0.095 0.4949
    endloop
  endfacet
  facet normal -0.803691 -0.159863 -0.573171
    outer loop
      vertex 0.095 0.095 0.4949
      vertex 0.0475 0 0.588
      vertex 0.0438843 0.0181775 0.588
    endloop
  endfacet
  facet normal -0.409892 -0.613447 -0.675034
    outer loop
      vertex 0.095 0.095 0.4949
      vertex 0.0335876 0.0335876 0.588
      vertex 0.0181775 0.0438843 0.588
    endloop
  endfacet
  facet normal -0.803691 0.159863 -0.573171
    outer loop
      vertex 0.0475 0 0.588
      vertex 0.095 -0.095 0.4949
      vertex 0.0438843 -0.0181775 0.588
    endloop
  endfacet
  facet normal -0.159863 0.803691 -0.573171
    outer loop
      vertex 0.0181775 -0.0438843 0.588
      vertex 0.095 -0.095 0.4949
      vertex 0 -0.0475 0.588
    endloop
  endfacet
  facet normal -0.409892 0.613447 -0.675034
    outer loop
      vertex 0.0335876 -0.0335876 0.588
      vertex 0.095 -0.095 0.4949
      vertex 0.0181775 -0.0438843 0.588
    endloop
  endfacet
  facet normal 0.803691 0.159863 -0.573171
    outer loop
      vertex -0.0475 0 0.588
      vertex -0.0438843 -0.0181775 0.588
      vertex -0.095 -0.095 0.4949
    endloop
  endfacet
  facet normal 0 0 -1
    outer loop
      vertex 0.0437935 -0.0167233 0.588
      vertex 0.0475 0 0.588
      vertex 0.0438843 -0.0181775 0.588
    endloop
  endfacet
  facet normal -0 0 -1
    outer loop
      vertex 0.0475 0 0.588
      vertex 0.0437935 -0.0167233 0.588
      vertex 0.04712 0 0.588
    endloop
  endfacet
  facet normal 0 0 -1
    outer loop
      vertex 0.0438843 -0.0181775 0.588
      vertex 0.0435332 -0.018032 0.588
      vertex 0.0437935 -0.0167233 0.588
    endloop
  endfacet
  facet normal -0 0 -1
    outer loop
      vertex 0.0438843 -0.0181775 0.588
      vertex 0.0340602 -0.0322093 0.588
      vertex 0.0435332 -0.018032 0.588
    endloop
  endfacet
  facet normal 0 0 -1
    outer loop
      vertex 0.0335876 -0.0335876 0.588
      vertex 0.0340602 -0.0322093 0.588
      vertex 0.0438843 -0.0181775 0.588
    endloop
  endfacet
  facet normal 0 0 -1
    outer loop
      vertex 0.0335876 -0.0335876 0.588
      vertex 0.0333189 -0.0333189 0.588
      vertex 0.0340602 -0.0322093 0.588
    endloop
  endfacet
  facet normal -0 0 -1
    outer loop
      vertex 0.0335876 -0.0335876 0.588
      vertex 0.0322093 -0.0340602 0.588
      vertex 0.0333189 -0.0333189 0.588
    endloop
  endfacet
  facet normal 0 0 -1
    outer loop
      vertex 0.0181775 -0.0438843 0.588
      vertex 0.0322093 -0.0340602 0.588
      vertex 0.0335876 -0.0335876 0.588
    endloop
  endfacet
  facet normal 0 0 -1
    outer loop
      vertex 0.0181775 -0.0438843 0.588
      vertex 0.018032 -0.0435332 0.588
      vertex 0.0322093 -0.0340602 0.588
    endloop
  endfacet
  facet normal 0 0 -1
    outer loop
      vertex 0.0181775 -0.0438843 0.588
      vertex 0.0167233 -0.0437935 0.588
      vertex 0.018032 -0.0435332 0.588
    endloop
  endfacet
  facet normal 0 0 -1
    outer loop
      vertex 0 -0.0475 0.588
      vertex 0.0167233 -0.0437935 0.588
      vertex 0.0181775 -0.0438843 0.588
    endloop
  endfacet
  facet normal 0 0 -1
    outer loop
      vertex 0 -0.0475 0.588
      vertex 0 -0.04712 0.588
      vertex 0.0167233 -0.0437935 0.588
    endloop
  endfacet
  facet normal 0 0 -1
    outer loop
      vertex 0 -0.0475 0.588
      vertex -0.0167233 -0.0437935 0.588
      vertex 0 -0.04712 0.588
    endloop
  endfacet
  facet normal 0 0 -1
    outer loop
      vertex -0.0181775 -0.0438843 0.588
      vertex -0.0167233 -0.0437935 0.588
      vertex 0 -0.0475 0.588
    endloop
  endfacet
  facet normal -0 0 -1
    outer loop
      vertex -0.0167233 -0.0437935 0.588
      vertex -0.0181775 -0.0438843 0.588
      vertex -0.018032 -0.0435332 0.588
    endloop
  endfacet
  facet normal 0 0 -1
    outer loop
      vertex -0.0181775 -0.0438843 0.588
      vertex -0.0322093 -0.0340602 0.588
      vertex -0.018032 -0.0435332 0.588
    endloop
  endfacet
  facet normal 0 0 -1
    outer loop
      vertex -0.0335876 -0.0335876 0.588
      vertex -0.0322093 -0.0340602 0.588
      vertex -0.0181775 -0.0438843 0.588
    endloop
  endfacet
  facet normal 0 0 -1
    outer loop
      vertex -0.0322093 -0.0340602 0.588
      vertex -0.0335876 -0.0335876 0.588
      vertex -0.0333189 -0.0333189 0.588
    endloop
  endfacet
  facet normal 0 0 -1
    outer loop
      vertex -0.0335876 -0.0335876 0.588
      vertex -0.0340602 -0.0322093 0.588
      vertex -0.0333189 -0.0333189 0.588
    endloop
  endfacet
  facet normal 0 0 -1
    outer loop
      vertex -0.0438843 -0.0181775 0.588
      vertex -0.0340602 -0.0322093 0.588
      vertex -0.0335876 -0.0335876 0.588
    endloop
  endfacet
  facet normal 0 0 -1
    outer loop
      vertex -0.0340602 -0.0322093 0.588
      vertex -0.0438843 -0.0181775 0.588
      vertex -0.0435332 -0.018032 0.588
    endloop
  endfacet
  facet normal 0 0 -1
    outer loop
      vertex -0.0438843 -0.0181775 0.588
      vertex -0.0437935 -0.0167233 0.588
      vertex -0.0435332 -0.018032 0.588
    endloop
  endfacet
  facet normal 0 0 -1
    outer loop
      vertex -0.0475 0 0.588
      vertex -0.0437935 -0.0167233 0.588
      vertex -0.0438843 -0.0181775 0.588
    endloop
  endfacet
  facet normal 0 0 -1
    outer loop
      vertex -0.0437935 -0.0167233 0.588
      vertex -0.0475 0 0.588
      vertex -0.04712 0 0.588
    endloop
  endfacet
  facet normal 0 0 -1
    outer loop
      vertex 0.0437935 0.0167233 0.588
      vertex 0.0475 0 0.588
      vertex 0.04712 0 0.588
    endloop
  endfacet
  facet normal 0 0 -1
    outer loop
      vertex 0.0475 0 0.588
      vertex 0.0437935 0.0167233 0.588
      vertex 0.0438843 0.0181775 0.588
    endloop
  endfacet
  facet normal 0 0 -1
    outer loop
      vertex 0.0435332 0.018032 0.588
      vertex 0.0438843 0.0181775 0.588
      vertex 0.0437935 0.0167233 0.588
    endloop
  endfacet
  facet normal 0 0 -1
    outer loop
      vertex 0.0340602 0.0322093 0.588
      vertex 0.0438843 0.0181775 0.588
      vertex 0.0435332 0.018032 0.588
    endloop
  endfacet
  facet normal 0 0 -1
    outer loop
      vertex 0.0340602 0.0322093 0.588
      vertex 0.0335876 0.0335876 0.588
      vertex 0.0438843 0.0181775 0.588
    endloop
  endfacet
  facet normal 0 0 -1
    outer loop
      vertex 0.0333189 0.0333189 0.588
      vertex 0.0335876 0.0335876 0.588
      vertex 0.0340602 0.0322093 0.588
    endloop
  endfacet
  facet normal 0 0 -1
    outer loop
      vertex 0.0322093 0.0340602 0.588
      vertex 0.0335876 0.0335876 0.588
      vertex 0.0333189 0.0333189 0.588
    endloop
  endfacet
  facet normal 0 0 -1
    outer loop
      vertex 0.0322093 0.0340602 0.588
      vertex 0.0181775 0.0438843 0.588
      vertex 0.0335876 0.0335876 0.588
    endloop
  endfacet
  facet normal 0 0 -1
    outer loop
      vertex 0.018032 0.0435332 0.588
      vertex 0.0181775 0.0438843 0.588
      vertex 0.0322093 0.0340602 0.588
    endloop
  endfacet
  facet normal 0 0 -1
    outer loop
      vertex 0.0167233 0.0437935 0.588
      vertex 0.0181775 0.0438843 0.588
      vertex 0.018032 0.0435332 0.588
    endloop
  endfacet
  facet normal 0 0 -1
    outer loop
      vertex 0 0.0475 0.588
      vertex 0.0167233 0.0437935 0.588
      vertex 0 0.04712 0.588
    endloop
  endfacet
  facet normal 0 0 -1
    outer loop
      vertex 0.0167233 0.0437935 0.588
      vertex 0 0.0475 0.588
      vertex 0.0181775 0.0438843 0.588
    endloop
  endfacet
  facet normal 0 0 -1
    outer loop
      vertex -0.0167233 0.0437935 0.588
      vertex 0 0.0475 0.588
      vertex 0 0.04712 0.588
    endloop
  endfacet
  facet normal 0 0 -1
    outer loop
      vertex -0.0181775 0.0438843 0.588
      vertex -0.0167233 0.0437935 0.588
      vertex -0.018032 0.0435332 0.588
    endloop
  endfacet
  facet normal 0 0 -1
    outer loop
      vertex -0.0167233 0.0437935 0.588
      vertex -0.0181775 0.0438843 0.588
      vertex 0 0.0475 0.588
    endloop
  endfacet
  facet normal 0 0 -1
    outer loop
      vertex -0.0322093 0.0340602 0.588
      vertex -0.0181775 0.0438843 0.588
      vertex -0.018032 0.0435332 0.588
    endloop
  endfacet
  facet normal 0 0 -1
    outer loop
      vertex -0.0335876 0.0335876 0.588
      vertex -0.0322093 0.0340602 0.588
      vertex -0.0333189 0.0333189 0.588
    endloop
  endfacet
  facet normal -0 0 -1
    outer loop
      vertex -0.0322093 0.0340602 0.588
      vertex -0.0335876 0.0335876 0.588
      vertex -0.0181775 0.0438843 0.588
    endloop
  endfacet
  facet normal 0 0 -1
    outer loop
      vertex -0.0340602 0.0322093 0.588
      vertex -0.0335876 0.0335876 0.588
      vertex -0.0333189 0.0333189 0.588
    endloop
  endfacet
  facet normal 0 0 -1
    outer loop
      vertex -0.0438843 0.0181775 0.588
      vertex -0.0340602 0.0322093 0.588
      vertex -0.0435332 0.018032 0.588
    endloop
  endfacet
  facet normal -0 0 -1
    outer loop
      vertex -0.0340602 0.0322093 0.588
      vertex -0.0438843 0.0181775 0.588
      vertex -0.0335876 0.0335876 0.588
    endloop
  endfacet
  facet normal 0 0 -1
    outer loop
      vertex -0.0437935 0.0167233 0.588
      vertex -0.0438843 0.0181775 0.588
      vertex -0.0435332 0.018032 0.588
    endloop
  endfacet
  facet normal 0 0 -1
    outer loop
      vertex -0.0475 0 0.588
      vertex -0.0437935 0.0167233 0.588
      vertex -0.04712 0 0.588
    endloop
  endfacet
  facet normal -0 0 -1
    outer loop
      vertex -0.0437935 0.0167233 0.588
      vertex -0.0475 0 0.588
      vertex -0.0438843 0.0181775 0.588
    endloop
  endfacet
  facet normal -0 -0.890762 -0.45447
    outer loop
      vertex 0.095 0.095 0.4949
      vertex 0 0.0475 0.588
      vertex -0.095 0.095 0.4949
    endloop
  endfacet
  facet normal 0.890762 0 -0.45447
    outer loop
      vertex -0.095 0.095 0.4949
      vertex -0.0475 0 0.588
      vertex -0.095 -0.095 0.4949
    endloop
  endfacet
  facet normal 0.613447 -0.409892 -0.675034
    outer loop
      vertex -0.0335876 0.0335876 0.588
      vertex -0.0438843 0.0181775 0.588
      vertex -0.095 0.095 0.4949
    endloop
  endfacet
  facet normal 0.803691 -0.159863 -0.573171
    outer loop
      vertex -0.0438843 0.0181775 0.588
      vertex -0.0475 0 0.588
      vertex -0.095 0.095 0.4949
    endloop
  endfacet
  facet normal -0.980608 -0.195057 -0.0190118
    outer loop
      vertex 0.0437935 0.0167233 0.588
      vertex 0.04712 0 0.588
      vertex 0.04275 0 0.8134
    endloop
  endfacet
  facet normal 0.195057 0.980608 -0.0190118
    outer loop
      vertex 0 -0.04275 0.8134
      vertex 0 -0.04712 0.588
      vertex -0.0167233 -0.0437935 0.588
    endloop
  endfacet
  facet normal 0.980608 0.195057 -0.0190118
    outer loop
      vertex -0.04275 0 0.8134
      vertex -0.0437935 -0.0167233 0.588
      vertex -0.04712 0 0.588
    endloop
  endfacet
  facet normal -0.831318 -0.555471 -0.0190119
    outer loop
      vertex 0.0435332 0.018032 0.588
      vertex 0.0394958 0.0163597 0.8134
      vertex 0.0340602 0.0322093 0.588
    endloop
  endfacet
  facet normal 0.195057 -0.980608 -0.0190118
    outer loop
      vertex 0 0.04712 0.588
      vertex 0 0.04275 0.8134
      vertex -0.0167233 0.0437935 0.588
    endloop
  endfacet
  facet normal 0.83132 0.555468 -0.0190116
    outer loop
      vertex -0.0302288 -0.0302288 0.8134
      vertex -0.0340602 -0.0322093 0.588
      vertex -0.0394958 -0.0163597 0.8134
    endloop
  endfacet
  facet normal 0.831358 0.555412 -0.0190118
    outer loop
      vertex -0.0340602 -0.0322093 0.588
      vertex -0.0302288 -0.0302288 0.8134
      vertex -0.0333189 -0.0333189 0.588
    endloop
  endfacet
  facet normal -0.555468 -0.83132 -0.0190116
    outer loop
      vertex 0.0322093 0.0340602 0.588
      vertex 0.0302288 0.0302288 0.8134
      vertex 0.0163597 0.0394958 0.8134
    endloop
  endfacet
  facet normal -0.555412 -0.831358 -0.0190118
    outer loop
      vertex 0.0302288 0.0302288 0.8134
      vertex 0.0322093 0.0340602 0.588
      vertex 0.0333189 0.0333189 0.588
    endloop
  endfacet
  facet normal -0.831358 -0.555412 -0.0190118
    outer loop
      vertex 0.0340602 0.0322093 0.588
      vertex 0.0302288 0.0302288 0.8134
      vertex 0.0333189 0.0333189 0.588
    endloop
  endfacet
  facet normal -0.83132 -0.555468 -0.0190116
    outer loop
      vertex 0.0302288 0.0302288 0.8134
      vertex 0.0340602 0.0322093 0.588
      vertex 0.0394958 0.0163597 0.8134
    endloop
  endfacet
  facet normal -0.98061 -0.195043 -0.0190119
    outer loop
      vertex 0.0437935 0.0167233 0.588
      vertex 0.0394958 0.0163597 0.8134
      vertex 0.0435332 0.018032 0.588
    endloop
  endfacet
  facet normal -0.980607 -0.195058 -0.0190119
    outer loop
      vertex 0.0394958 0.0163597 0.8134
      vertex 0.0437935 0.0167233 0.588
      vertex 0.04275 0 0.8134
    endloop
  endfacet
  facet normal -0.980608 0.195057 -0.0190118
    outer loop
      vertex 0.04712 0 0.588
      vertex 0.0437935 -0.0167233 0.588
      vertex 0.04275 0 0.8134
    endloop
  endfacet
  facet normal 0.195043 -0.98061 -0.0190119
    outer loop
      vertex -0.0167233 0.0437935 0.588
      vertex -0.0163597 0.0394958 0.8134
      vertex -0.018032 0.0435332 0.588
    endloop
  endfacet
  facet normal 0.195058 -0.980607 -0.0190119
    outer loop
      vertex -0.0163597 0.0394958 0.8134
      vertex -0.0167233 0.0437935 0.588
      vertex 0 0.04275 0.8134
    endloop
  endfacet
  facet normal 0.980608 -0.195057 -0.0190118
    outer loop
      vertex -0.0437935 0.0167233 0.588
      vertex -0.04275 0 0.8134
      vertex -0.04712 0 0.588
    endloop
  endfacet
  facet normal 0.555471 -0.831318 -0.0190119
    outer loop
      vertex -0.018032 0.0435332 0.588
      vertex -0.0163597 0.0394958 0.8134
      vertex -0.0322093 0.0340602 0.588
    endloop
  endfacet
  facet normal 0.831318 0.555471 -0.0190119
    outer loop
      vertex -0.0394958 -0.0163597 0.8134
      vertex -0.0340602 -0.0322093 0.588
      vertex -0.0435332 -0.018032 0.588
    endloop
  endfacet
  facet normal 0.980607 0.195058 -0.0190119
    outer loop
      vertex -0.0394958 -0.0163597 0.8134
      vertex -0.0437935 -0.0167233 0.588
      vertex -0.04275 0 0.8134
    endloop
  endfacet
  facet normal 0.98061 0.195043 -0.0190119
    outer loop
      vertex -0.0437935 -0.0167233 0.588
      vertex -0.0394958 -0.0163597 0.8134
      vertex -0.0435332 -0.018032 0.588
    endloop
  endfacet
  facet normal 0.555471 0.831318 -0.0190119
    outer loop
      vertex -0.0163597 -0.0394958 0.8134
      vertex -0.018032 -0.0435332 0.588
      vertex -0.0322093 -0.0340602 0.588
    endloop
  endfacet
  facet normal 0.195058 0.980607 -0.0190119
    outer loop
      vertex -0.0167233 -0.0437935 0.588
      vertex -0.0163597 -0.0394958 0.8134
      vertex 0 -0.04275 0.8134
    endloop
  endfacet
  facet normal 0.195043 0.98061 -0.0190119
    outer loop
      vertex -0.0163597 -0.0394958 0.8134
      vertex -0.0167233 -0.0437935 0.588
      vertex -0.018032 -0.0435332 0.588
    endloop
  endfacet
  facet normal -0.555412 0.831358 -0.0190118
    outer loop
      vertex 0.0322093 -0.0340602 0.588
      vertex 0.0302288 -0.0302288 0.8134
      vertex 0.0333189 -0.0333189 0.588
    endloop
  endfacet
  facet normal -0.555468 0.83132 -0.0190116
    outer loop
      vertex 0.0302288 -0.0302288 0.8134
      vertex 0.0322093 -0.0340602 0.588
      vertex 0.0163597 -0.0394958 0.8134
    endloop
  endfacet
  facet normal -0.195057 0.980608 -0.0190118
    outer loop
      vertex 0 -0.04275 0.8134
      vertex 0.0167233 -0.0437935 0.588
      vertex 0 -0.04712 0.588
    endloop
  endfacet
  facet normal -0.83132 0.555468 -0.0190116
    outer loop
      vertex 0.0340602 -0.0322093 0.588
      vertex 0.0302288 -0.0302288 0.8134
      vertex 0.0394958 -0.0163597 0.8134
    endloop
  endfacet
  facet normal -0.831358 0.555412 -0.0190118
    outer loop
      vertex 0.0302288 -0.0302288 0.8134
      vertex 0.0340602 -0.0322093 0.588
      vertex 0.0333189 -0.0333189 0.588
    endloop
  endfacet
  facet normal -0.195057 -0.980608 -0.0190118
    outer loop
      vertex 0 0.04712 0.588
      vertex 0.0167233 0.0437935 0.588
      vertex 0 0.04275 0.8134
    endloop
  endfacet
  facet normal 0 0 -1
    outer loop
      vertex 0.0394958 -0.0163597 0.8134
      vertex 0.0394958 0.0163597 0.8134
      vertex 0.04275 0 0.8134
    endloop
  endfacet
  facet normal 0 0 -1
    outer loop
      vertex 0.0302288 -0.0302288 0.8134
      vertex 0.0394958 0.0163597 0.8134
      vertex 0.0394958 -0.0163597 0.8134
    endloop
  endfacet
  facet normal 0 0 -1
    outer loop
      vertex 0.0302288 -0.0302288 0.8134
      vertex 0.0302288 0.0302288 0.8134
      vertex 0.0394958 0.0163597 0.8134
    endloop
  endfacet
  facet normal 0 0 -1
    outer loop
      vertex 0.0163597 -0.0394958 0.8134
      vertex 0.0302288 0.0302288 0.8134
      vertex 0.0302288 -0.0302288 0.8134
    endloop
  endfacet
  facet normal 0 0 -1
    outer loop
      vertex 0.0163597 -0.0394958 0.8134
      vertex 0.0163597 0.0394958 0.8134
      vertex 0.0302288 0.0302288 0.8134
    endloop
  endfacet
  facet normal 0 0 -1
    outer loop
      vertex 0 -0.04275 0.8134
      vertex 0.0163597 0.0394958 0.8134
      vertex 0.0163597 -0.0394958 0.8134
    endloop
  endfacet
  facet normal 0 0 -1
    outer loop
      vertex 0 -0.04275 0.8134
      vertex 0 0.04275 0.8134
      vertex 0.0163597 0.0394958 0.8134
    endloop
  endfacet
  facet normal 0 0 -1
    outer loop
      vertex -0.0163597 -0.0394958 0.8134
      vertex 0 0.04275 0.8134
      vertex 0 -0.04275 0.8134
    endloop
  endfacet
  facet normal 0 0 -1
    outer loop
      vertex -0.0163597 -0.0394958 0.8134
      vertex -0.0163597 0.0394958 0.8134
      vertex 0 0.04275 0.8134
    endloop
  endfacet
  facet normal 0 0 -1
    outer loop
      vertex -0.0302288 -0.0302288 0.8134
      vertex -0.0163597 0.0394958 0.8134
      vertex -0.0163597 -0.0394958 0.8134
    endloop
  endfacet
  facet normal 0 0 -1
    outer loop
      vertex -0.0302288 -0.0302288 0.8134
      vertex -0.0302288 0.0302288 0.8134
      vertex -0.0163597 0.0394958 0.8134
    endloop
  endfacet
  facet normal 0 0 -1
    outer loop
      vertex -0.0394958 -0.0163597 0.8134
      vertex -0.0302288 0.0302288 0.8134
      vertex -0.0302288 -0.0302288 0.8134
    endloop
  endfacet
  facet normal 0 0 -1
    outer loop
      vertex -0.0394958 -0.0163597 0.8134
      vertex -0.0394958 0.0163597 0.8134
      vertex -0.0302288 0.0302288 0.8134
    endloop
  endfacet
  facet normal 0 -0 -1
    outer loop
      vertex -0.0394958 0.0163597 0.8134
      vertex -0.0394958 -0.0163597 0.8134
      vertex -0.04275 0 0.8134
    endloop
  endfacet
  facet normal 0.98061 -0.195043 -0.0190119
    outer loop
      vertex -0.0394958 0.0163597 0.8134
      vertex -0.0437935 0.0167233 0.588
      vertex -0.0435332 0.018032 0.588
    endloop
  endfacet
  facet normal 0.980607 -0.195058 -0.0190119
    outer loop
      vertex -0.0437935 0.0167233 0.588
      vertex -0.0394958 0.0163597 0.8134
      vertex -0.04275 0 0.8134
    endloop
  endfacet
  facet normal 0.831358 -0.555412 -0.0190118
    outer loop
      vertex -0.0302288 0.0302288 0.8134
      vertex -0.0340602 0.0322093 0.588
      vertex -0.0333189 0.0333189 0.588
    endloop
  endfacet
  facet normal 0.83132 -0.555468 -0.0190116
    outer loop
      vertex -0.0340602 0.0322093 0.588
      vertex -0.0302288 0.0302288 0.8134
      vertex -0.0394958 0.0163597 0.8134
    endloop
  endfacet
  facet normal 0.831318 -0.555471 -0.0190119
    outer loop
      vertex -0.0340602 0.0322093 0.588
      vertex -0.0394958 0.0163597 0.8134
      vertex -0.0435332 0.018032 0.588
    endloop
  endfacet
  facet normal 0.555468 0.83132 -0.0190116
    outer loop
      vertex -0.0322093 -0.0340602 0.588
      vertex -0.0302288 -0.0302288 0.8134
      vertex -0.0163597 -0.0394958 0.8134
    endloop
  endfacet
  facet normal 0.555412 0.831358 -0.0190118
    outer loop
      vertex -0.0302288 -0.0302288 0.8134
      vertex -0.0322093 -0.0340602 0.588
      vertex -0.0333189 -0.0333189 0.588
    endloop
  endfacet
  facet normal -0.195043 0.98061 -0.0190119
    outer loop
      vertex 0.0167233 -0.0437935 0.588
      vertex 0.0163597 -0.0394958 0.8134
      vertex 0.018032 -0.0435332 0.588
    endloop
  endfacet
  facet normal -0.195058 0.980607 -0.0190119
    outer loop
      vertex 0.0163597 -0.0394958 0.8134
      vertex 0.0167233 -0.0437935 0.588
      vertex 0 -0.04275 0.8134
    endloop
  endfacet
  facet normal -0.555471 0.831318 -0.0190119
    outer loop
      vertex 0.0322093 -0.0340602 0.588
      vertex 0.018032 -0.0435332 0.588
      vertex 0.0163597 -0.0394958 0.8134
    endloop
  endfacet
  facet normal -0.831318 0.555471 -0.0190119
    outer loop
      vertex 0.0394958 -0.0163597 0.8134
      vertex 0.0435332 -0.018032 0.588
      vertex 0.0340602 -0.0322093 0.588
    endloop
  endfacet
  facet normal -0.980607 0.195058 -0.0190119
    outer loop
      vertex 0.0437935 -0.0167233 0.588
      vertex 0.0394958 -0.0163597 0.8134
      vertex 0.04275 0 0.8134
    endloop
  endfacet
  facet normal -0.98061 0.195043 -0.0190119
    outer loop
      vertex 0.0394958 -0.0163597 0.8134
      vertex 0.0437935 -0.0167233 0.588
      vertex 0.0435332 -0.018032 0.588
    endloop
  endfacet
  facet normal -0.555471 -0.831318 -0.0190119
    outer loop
      vertex 0.018032 0.0435332 0.588
      vertex 0.0322093 0.0340602 0.588
      vertex 0.0163597 0.0394958 0.8134
    endloop
  endfacet
  facet normal -0.195058 -0.980607 -0.0190119
    outer loop
      vertex 0.0167233 0.0437935 0.588
      vertex 0.0163597 0.0394958 0.8134
      vertex 0 0.04275 0.8134
    endloop
  endfacet
  facet normal -0.195043 -0.98061 -0.0190119
    outer loop
      vertex 0.0163597 0.0394958 0.8134
      vertex 0.0167233 0.0437935 0.588
      vertex 0.018032 0.0435332 0.588
    endloop
  endfacet
  facet normal 0.555412 -0.831358 -0.0190118
    outer loop
      vertex -0.0322093 0.0340602 0.588
      vertex -0.0302288 0.0302288 0.8134
      vertex -0.0333189 0.0333189 0.588
    endloop
  endfacet
  facet normal 0.555468 -0.83132 -0.0190116
    outer loop
      vertex -0.0302288 0.0302288 0.8134
      vertex -0.0322093 0.0340602 0.588
      vertex -0.0163597 0.0394958 0.8134
    endloop
  endfacet
endsolid OpenSCAD_Model
