solid OpenSCAD_Model
  facet normal -1 0 0
    outer loop
      vertex -0.5 -0.475 0.347813
      vertex -0.5 0.475 0.284775
      vertex -0.5 0.475 0.264699
    endloop
  endfacet
  facet normal -1 0 0
    outer loop
      vertex -0.5 0.475 0.284775
      vertex -0.5 -0.475 0.347813
      vertex -0.5 -0.475 0.367889
    endloop
  endfacet
  facet normal -2.30921e-05 0.0871555 0.996195
    outer loop
      vertex 0.482322 0.482322 0.284134
      vertex 0.5 -0.475 0.367889
      vertex 0.5 0.475 0.284775
    endloop
  endfacet
  facet normal 2.27415e-05 0.0871563 0.996195
    outer loop
      vertex 0.482322 0.482322 0.284134
      vertex 0.482322 -0.482322 0.36853
      vertex 0.5 -0.475 0.367889
    endloop
  endfacet
  facet normal -0 0.0871416 0.996196
    outer loop
      vertex -0.482322 0.482322 0.284134
      vertex 0.482322 0.482322 0.284134
      vertex 0.475854 0.497938 0.282768
    endloop
  endfacet
  facet normal 0 0.0871563 0.996195
    outer loop
      vertex 0.482322 0.482322 0.284134
      vertex -0.482322 -0.482322 0.36853
      vertex 0.482322 -0.482322 0.36853
    endloop
  endfacet
  facet normal 0 0.0871476 0.996195
    outer loop
      vertex 0.482322 -0.482322 0.36853
      vertex -0.482322 -0.482322 0.36853
      vertex 0.475722 -0.498257 0.369924
    endloop
  endfacet
  facet normal 0 0.0871416 0.996196
    outer loop
      vertex -0.482322 0.482322 0.284134
      vertex 0.475854 0.497938 0.282768
      vertex -0.475854 0.497938 0.282768
    endloop
  endfacet
  facet normal 0 0.0871563 0.996195
    outer loop
      vertex 0.482322 0.482322 0.284134
      vertex -0.482322 0.482322 0.284134
      vertex -0.482322 -0.482322 0.36853
    endloop
  endfacet
  facet normal 0 0.0871476 0.996195
    outer loop
      vertex 0.475722 -0.498257 0.369924
      vertex -0.482322 -0.482322 0.36853
      vertex -0.475722 -0.498257 0.369924
    endloop
  endfacet
  facet normal 2.27415e-05 0.0871563 0.996195
    outer loop
      vertex -0.5 0.475 0.284775
      vertex -0.482322 -0.482322 0.36853
      vertex -0.482322 0.482322 0.284134
    endloop
  endfacet
  facet normal -2.30921e-05 0.0871555 0.996195
    outer loop
      vertex -0.482322 -0.482322 0.36853
      vertex -0.5 0.475 0.284775
      vertex -0.5 -0.475 0.367889
    endloop
  endfacet
  facet normal 1 -0 0
    outer loop
      vertex 0.5 -0.475 0.347813
      vertex 0.5 0.475 0.284775
      vertex 0.5 -0.475 0.367889
    endloop
  endfacet
  facet normal 1 0 0
    outer loop
      vertex 0.5 0.475 0.284775
      vertex 0.5 -0.475 0.347813
      vertex 0.5 0.475 0.264699
    endloop
  endfacet
  facet normal 3.32602e-05 -0.0871555 -0.996195
    outer loop
      vertex 0.482322 -0.482322 0.348453
      vertex 0.5 0.475 0.264699
      vertex 0.5 -0.475 0.347813
    endloop
  endfacet
  facet normal 2.31693e-05 -0.0871553 -0.996195
    outer loop
      vertex 0.482322 -0.482322 0.348453
      vertex 0.482322 0.482322 0.264058
      vertex 0.5 0.475 0.264699
    endloop
  endfacet
  facet normal 0 -0.0871553 -0.996195
    outer loop
      vertex -0.482322 -0.482322 0.348453
      vertex 0.482322 0.482322 0.264058
      vertex 0.482322 -0.482322 0.348453
    endloop
  endfacet
  facet normal 0 -0.0871767 -0.996193
    outer loop
      vertex -0.482322 -0.482322 0.348453
      vertex 0.482322 -0.482322 0.348453
      vertex 0.475 -0.5 0.35
    endloop
  endfacet
  facet normal 0 -0.0871767 -0.996193
    outer loop
      vertex -0.482322 -0.482322 0.348453
      vertex 0.475 -0.5 0.35
      vertex -0.475 -0.5 0.35
    endloop
  endfacet
  facet normal 0 -0.0871553 -0.996195
    outer loop
      vertex -0.482322 0.482322 0.264058
      vertex 0.482322 0.482322 0.264058
      vertex -0.482322 -0.482322 0.348453
    endloop
  endfacet
  facet normal -0 -0.087175 -0.996193
    outer loop
      vertex 0.482322 0.482322 0.264058
      vertex -0.482322 0.482322 0.264058
      vertex 0.476576 0.496195 0.262844
    endloop
  endfacet
  facet normal -0 -0.087175 -0.996193
    outer loop
      vertex 0.476576 0.496195 0.262844
      vertex -0.482322 0.482322 0.264058
      vertex -0.476576 0.496195 0.262844
    endloop
  endfacet
  facet normal -3.3183e-05 -0.0871553 -0.996195
    outer loop
      vertex -0.5 -0.475 0.347813
      vertex -0.482322 0.482322 0.264058
      vertex -0.482322 -0.482322 0.348453
    endloop
  endfacet
  facet normal -2.30921e-05 -0.0871555 -0.996195
    outer loop
      vertex -0.482322 0.482322 0.264058
      vertex -0.5 -0.475 0.347813
      vertex -0.5 0.475 0.264699
    endloop
  endfacet
  facet normal 0 -0.996195 0.0871496
    outer loop
      vertex -0.475 -0.5 0.35
      vertex 0.475722 -0.498257 0.369924
      vertex -0.475722 -0.498257 0.369924
    endloop
  endfacet
  facet normal 0 -0.996195 0.0871496
    outer loop
      vertex 0.475722 -0.498257 0.369924
      vertex -0.475 -0.5 0.35
      vertex 0.475 -0.5 0.35
    endloop
  endfacet
  facet normal 0 0.996195 -0.0871496
    outer loop
      vertex 0.476576 0.496195 0.262844
      vertex -0.475854 0.497938 0.282768
      vertex 0.475854 0.497938 0.282768
    endloop
  endfacet
  facet normal 0 0.996195 -0.0871496
    outer loop
      vertex -0.475854 0.497938 0.282768
      vertex 0.476576 0.496195 0.262844
      vertex -0.476576 0.496195 0.262844
    endloop
  endfacet
  facet normal 0 0 1
    outer loop
      vertex 0.482322 0.517678 0.44
      vertex -0.475 0.5 0.44
      vertex 0.475 0.5 0.44
    endloop
  endfacet
  facet normal 0 0 1
    outer loop
      vertex -0.482322 0.517678 0.44
      vertex 0.482322 0.517678 0.44
      vertex 0.487929 0.52 0.44
    endloop
  endfacet
  facet normal 0 0 1
    outer loop
      vertex 0.482322 0.517678 0.44
      vertex -0.482322 0.517678 0.44
      vertex -0.475 0.5 0.44
    endloop
  endfacet
  facet normal 0 -0 1
    outer loop
      vertex -0.482322 0.517678 0.44
      vertex 0.487929 0.52 0.44
      vertex -0.487929 0.52 0.44
    endloop
  endfacet
  facet normal 0 1 -0
    outer loop
      vertex 0.487929 0.52 0.29
      vertex -0.487929 0.52 0.44
      vertex 0.487929 0.52 0.44
    endloop
  endfacet
  facet normal 0 1 0
    outer loop
      vertex -0.487929 0.52 0.44
      vertex 0.487929 0.52 0.29
      vertex -0.487929 0.52 0.29
    endloop
  endfacet
  facet normal 0 0 -1
    outer loop
      vertex -0.475 0.5 0.29
      vertex 0.482322 0.517678 0.29
      vertex 0.475 0.5 0.29
    endloop
  endfacet
  facet normal 0 0 -1
    outer loop
      vertex -0.482322 0.517678 0.29
      vertex 0.482322 0.517678 0.29
      vertex -0.475 0.5 0.29
    endloop
  endfacet
  facet normal 0 0 -1
    outer loop
      vertex 0.482322 0.517678 0.29
      vertex -0.482322 0.517678 0.29
      vertex 0.487929 0.52 0.29
    endloop
  endfacet
  facet normal -0 0 -1
    outer loop
      vertex 0.487929 0.52 0.29
      vertex -0.482322 0.517678 0.29
      vertex -0.487929 0.52 0.29
    endloop
  endfacet
  facet normal 0 -1 0
    outer loop
      vertex -0.475 0.5 0.29
      vertex 0.475 0.5 0.44
      vertex -0.475 0.5 0.44
    endloop
  endfacet
  facet normal 0 -1 -0
    outer loop
      vertex 0.475 0.5 0.44
      vertex -0.475 0.5 0.29
      vertex 0.475 0.5 0.29
    endloop
  endfacet
  facet normal -1 0 0
    outer loop
      vertex -0.5 -0.475 0.997813
      vertex -0.5 0.475 0.934775
      vertex -0.5 0.475 0.914699
    endloop
  endfacet
  facet normal -1 0 0
    outer loop
      vertex -0.5 0.475 0.934775
      vertex -0.5 -0.475 0.997813
      vertex -0.5 -0.475 1.01789
    endloop
  endfacet
  facet normal -2.26577e-05 0.0871565 0.996195
    outer loop
      vertex 0.482322 0.482322 0.934134
      vertex 0.5 -0.475 1.01789
      vertex 0.5 0.475 0.934775
    endloop
  endfacet
  facet normal -3.36107e-05 0.0871563 0.996195
    outer loop
      vertex 0.482322 0.482322 0.934134
      vertex 0.482322 -0.482322 1.01853
      vertex 0.5 -0.475 1.01789
    endloop
  endfacet
  facet normal -0 0.0871416 0.996196
    outer loop
      vertex -0.482322 0.482322 0.934134
      vertex 0.482322 0.482322 0.934134
      vertex 0.475854 0.497938 0.932768
    endloop
  endfacet
  facet normal 0 0.0871563 0.996195
    outer loop
      vertex 0.482322 0.482322 0.934134
      vertex -0.482322 -0.482322 1.01853
      vertex 0.482322 -0.482322 1.01853
    endloop
  endfacet
  facet normal 0 0.0868994 0.996217
    outer loop
      vertex 0.482322 -0.482322 1.01853
      vertex -0.482322 -0.482322 1.01853
      vertex 0.475722 -0.498257 1.01992
    endloop
  endfacet
  facet normal 0 0.0871416 0.996196
    outer loop
      vertex -0.482322 0.482322 0.934134
      vertex 0.475854 0.497938 0.932768
      vertex -0.475854 0.497938 0.932768
    endloop
  endfacet
  facet normal 0 0.0871563 0.996195
    outer loop
      vertex 0.482322 0.482322 0.934134
      vertex -0.482322 0.482322 0.934134
      vertex -0.482322 -0.482322 1.01853
    endloop
  endfacet
  facet normal 0 0.0868994 0.996217
    outer loop
      vertex 0.475722 -0.498257 1.01992
      vertex -0.482322 -0.482322 1.01853
      vertex -0.475722 -0.498257 1.01992
    endloop
  endfacet
  facet normal 2.27415e-05 0.0871563 0.996195
    outer loop
      vertex -0.5 0.475 0.934775
      vertex -0.482322 -0.482322 1.01853
      vertex -0.482322 0.482322 0.934134
    endloop
  endfacet
  facet normal 3.36945e-05 0.0871565 0.996195
    outer loop
      vertex -0.482322 -0.482322 1.01853
      vertex -0.5 0.475 0.934775
      vertex -0.5 -0.475 1.01789
    endloop
  endfacet
  facet normal 1 -0 0
    outer loop
      vertex 0.5 -0.475 0.997813
      vertex 0.5 0.475 0.934775
      vertex 0.5 -0.475 1.01789
    endloop
  endfacet
  facet normal 1 0 0
    outer loop
      vertex 0.5 0.475 0.934775
      vertex 0.5 -0.475 0.997813
      vertex 0.5 0.475 0.914699
    endloop
  endfacet
  facet normal 3.32602e-05 -0.0871555 -0.996195
    outer loop
      vertex 0.482322 -0.482322 0.998453
      vertex 0.5 0.475 0.914699
      vertex 0.5 -0.475 0.997813
    endloop
  endfacet
  facet normal 2.31693e-05 -0.0871553 -0.996195
    outer loop
      vertex 0.482322 -0.482322 0.998453
      vertex 0.482322 0.482322 0.914058
      vertex 0.5 0.475 0.914699
    endloop
  endfacet
  facet normal 0 -0.0871553 -0.996195
    outer loop
      vertex -0.482322 -0.482322 0.998453
      vertex 0.482322 0.482322 0.914058
      vertex 0.482322 -0.482322 0.998453
    endloop
  endfacet
  facet normal 0 -0.0871767 -0.996193
    outer loop
      vertex -0.482322 -0.482322 0.998453
      vertex 0.482322 -0.482322 0.998453
      vertex 0.475 -0.5 1
    endloop
  endfacet
  facet normal 0 -0.0871767 -0.996193
    outer loop
      vertex -0.482322 -0.482322 0.998453
      vertex 0.475 -0.5 1
      vertex -0.475 -0.5 1
    endloop
  endfacet
  facet normal 0 -0.0871553 -0.996195
    outer loop
      vertex -0.482322 0.482322 0.914058
      vertex 0.482322 0.482322 0.914058
      vertex -0.482322 -0.482322 0.998453
    endloop
  endfacet
  facet normal -0 -0.087175 -0.996193
    outer loop
      vertex 0.482322 0.482322 0.914058
      vertex -0.482322 0.482322 0.914058
      vertex 0.476576 0.496195 0.912844
    endloop
  endfacet
  facet normal -0 -0.087175 -0.996193
    outer loop
      vertex 0.476576 0.496195 0.912844
      vertex -0.482322 0.482322 0.914058
      vertex -0.476576 0.496195 0.912844
    endloop
  endfacet
  facet normal -3.3183e-05 -0.0871553 -0.996195
    outer loop
      vertex -0.5 -0.475 0.997813
      vertex -0.482322 0.482322 0.914058
      vertex -0.482322 -0.482322 0.998453
    endloop
  endfacet
  facet normal -2.30921e-05 -0.0871555 -0.996195
    outer loop
      vertex -0.482322 0.482322 0.914058
      vertex -0.5 -0.475 0.997813
      vertex -0.5 0.475 0.914699
    endloop
  endfacet
  facet normal 0 -0.996194 0.087167
    outer loop
      vertex -0.475 -0.5 1
      vertex 0.475722 -0.498257 1.01992
      vertex -0.475722 -0.498257 1.01992
    endloop
  endfacet
  facet normal 0 -0.996194 0.087167
    outer loop
      vertex 0.475722 -0.498257 1.01992
      vertex -0.475 -0.5 1
      vertex 0.475 -0.5 1
    endloop
  endfacet
  facet normal 0 0.996195 -0.0871496
    outer loop
      vertex 0.476576 0.496195 0.912844
      vertex -0.475854 0.497938 0.932768
      vertex 0.475854 0.497938 0.932768
    endloop
  endfacet
  facet normal 0 0.996195 -0.0871496
    outer loop
      vertex -0.475854 0.497938 0.932768
      vertex 0.476576 0.496195 0.912844
      vertex -0.476576 0.496195 0.912844
    endloop
  endfacet
  facet normal 0 0 1
    outer loop
      vertex 0.482322 0.517678 1.09
      vertex -0.475 0.5 1.09
      vertex 0.475 0.5 1.09
    endloop
  endfacet
  facet normal 0 0 1
    outer loop
      vertex -0.482322 0.517678 1.09
      vertex 0.482322 0.517678 1.09
      vertex 0.487929 0.52 1.09
    endloop
  endfacet
  facet normal 0 0 1
    outer loop
      vertex 0.482322 0.517678 1.09
      vertex -0.482322 0.517678 1.09
      vertex -0.475 0.5 1.09
    endloop
  endfacet
  facet normal 0 -0 1
    outer loop
      vertex -0.482322 0.517678 1.09
      vertex 0.487929 0.52 1.09
      vertex -0.487929 0.52 1.09
    endloop
  endfacet
  facet normal 0 1 -0
    outer loop
      vertex 0.487929 0.52 0.94
      vertex -0.487929 0.52 1.09
      vertex 0.487929 0.52 1.09
    endloop
  endfacet
  facet normal 0 1 0
    outer loop
      vertex -0.487929 0.52 1.09
      vertex 0.487929 0.52 0.94
      vertex -0.487929 0.52 0.94
    endloop
  endfacet
  facet normal 0 0 -1
    outer loop
      vertex -0.475 0.5 0.94
      vertex 0.482322 0.517678 0.94
      vertex 0.475 0.5 0.94
    endloop
  endfacet
  facet normal 0 0 -1
    outer loop
      vertex -0.482322 0.517678 0.94
      vertex 0.482322 0.517678 0.94
      vertex -0.475 0.5 0.94
    endloop
  endfacet
  facet normal 0 0 -1
    outer loop
      vertex 0.482322 0.517678 0.94
      vertex -0.482322 0.517678 0.94
      vertex 0.487929 0.52 0.94
    endloop
  endfacet
  facet normal -0 0 -1
    outer loop
      vertex 0.487929 0.52 0.94
      vertex -0.482322 0.517678 0.94
      vertex -0.487929 0.52 0.94
    endloop
  endfacet
  facet normal 0 -1 0
    outer loop
      vertex -0.475 0.5 0.94
      vertex 0.475 0.5 1.09
      vertex -0.475 0.5 1.09
    endloop
  endfacet
  facet normal 0 -1 -0
    outer loop
      vertex 0.475 0.5 1.09
      vertex -0.475 0.5 0.94
      vertex 0.475 0.5 0.94
    endloop
  endfacet
  facet normal 0.923888 0.382663 -0
    outer loop
      vertex -0.475 -0.5 0
      vertex -0.482322 -0.482322 0.348453
      vertex -0.475 -0.5 0.35
    endloop
  endfacet
  facet normal 0.923888 0.382663 0
    outer loop
      vertex -0.482322 -0.482322 0.348453
      vertex -0.475 -0.5 0
      vertex -0.482322 -0.482322 0
    endloop
  endfacet
  facet normal 0.92389 0.382659 0
    outer loop
      vertex -0.482322 -0.482322 1.5
      vertex -0.475722 -0.498257 1.01992
      vertex -0.482322 -0.482322 1.01853
    endloop
  endfacet
  facet normal 0.923888 0.382663 -1.38254e-07
    outer loop
      vertex -0.475 -0.5 1.5
      vertex -0.475722 -0.498257 1.01992
      vertex -0.482322 -0.482322 1.5
    endloop
  endfacet
  facet normal 0.923875 0.382695 0
    outer loop
      vertex -0.475722 -0.498257 1.01992
      vertex -0.475 -0.5 1.5
      vertex -0.475 -0.5 1
    endloop
  endfacet
  facet normal 0.92389 0.382659 0
    outer loop
      vertex -0.482322 -0.482322 0.998453
      vertex -0.475722 -0.498257 0.369924
      vertex -0.482322 -0.482322 0.36853
    endloop
  endfacet
  facet normal 0.923888 0.382663 -1.05366e-07
    outer loop
      vertex -0.475 -0.5 1
      vertex -0.475722 -0.498257 0.369924
      vertex -0.482322 -0.482322 0.998453
    endloop
  endfacet
  facet normal 0.923875 0.382695 0
    outer loop
      vertex -0.475722 -0.498257 0.369924
      vertex -0.475 -0.5 1
      vertex -0.475 -0.5 0.35
    endloop
  endfacet
  facet normal -0.923888 0.382663 0
    outer loop
      vertex -0.525 -0.5 0
      vertex -0.517678 -0.482322 1.5
      vertex -0.517678 -0.482322 0
    endloop
  endfacet
  facet normal -0.923888 0.382663 0
    outer loop
      vertex -0.517678 -0.482322 1.5
      vertex -0.525 -0.5 0
      vertex -0.525 -0.5 1.5
    endloop
  endfacet
  facet normal 0.382663 -0.923888 0
    outer loop
      vertex -0.5 -0.525 0
      vertex -0.482322 -0.517678 1.5
      vertex -0.5 -0.525 1.5
    endloop
  endfacet
  facet normal 0.382663 -0.923888 0
    outer loop
      vertex -0.482322 -0.517678 1.5
      vertex -0.5 -0.525 0
      vertex -0.482322 -0.517678 0
    endloop
  endfacet
  facet normal -0.382663 0.923888 0
    outer loop
      vertex -0.5 -0.475 1.01789
      vertex -0.517678 -0.482322 1.5
      vertex -0.5 -0.475 1.5
    endloop
  endfacet
  facet normal -0.382663 0.923888 0
    outer loop
      vertex -0.5 -0.475 0.997813
      vertex -0.517678 -0.482322 1.5
      vertex -0.5 -0.475 1.01789
    endloop
  endfacet
  facet normal -0.382663 0.923888 0
    outer loop
      vertex -0.517678 -0.482322 0
      vertex -0.5 -0.475 0.997813
      vertex -0.5 -0.475 0.367889
    endloop
  endfacet
  facet normal -0.382663 0.923888 0
    outer loop
      vertex -0.517678 -0.482322 0
      vertex -0.5 -0.475 0.367889
      vertex -0.5 -0.475 0.347813
    endloop
  endfacet
  facet normal -0.382663 0.923888 0
    outer loop
      vertex -0.517678 -0.482322 0
      vertex -0.5 -0.475 0.347813
      vertex -0.5 -0.475 0
    endloop
  endfacet
  facet normal -0.382663 0.923888 0
    outer loop
      vertex -0.5 -0.475 0.997813
      vertex -0.517678 -0.482322 0
      vertex -0.517678 -0.482322 1.5
    endloop
  endfacet
  facet normal 0.382663 0.923888 -0
    outer loop
      vertex -0.482322 -0.482322 0
      vertex -0.5 -0.475 0.347813
      vertex -0.482322 -0.482322 0.348453
    endloop
  endfacet
  facet normal 0.382663 0.923888 0
    outer loop
      vertex -0.5 -0.475 0.347813
      vertex -0.482322 -0.482322 0
      vertex -0.5 -0.475 0
    endloop
  endfacet
  facet normal 0.382663 0.923888 -0
    outer loop
      vertex -0.482322 -0.482322 1.01853
      vertex -0.5 -0.475 1.5
      vertex -0.482322 -0.482322 1.5
    endloop
  endfacet
  facet normal 0.382663 0.923888 0
    outer loop
      vertex -0.5 -0.475 1.5
      vertex -0.482322 -0.482322 1.01853
      vertex -0.5 -0.475 1.01789
    endloop
  endfacet
  facet normal 0.382663 0.923888 -0
    outer loop
      vertex -0.482322 -0.482322 0.36853
      vertex -0.5 -0.475 0.997813
      vertex -0.482322 -0.482322 0.998453
    endloop
  endfacet
  facet normal 0.382663 0.923888 0
    outer loop
      vertex -0.5 -0.475 0.997813
      vertex -0.482322 -0.482322 0.36853
      vertex -0.5 -0.475 0.367889
    endloop
  endfacet
  facet normal 0 0 1
    outer loop
      vertex -0.482322 -0.482322 1.5
      vertex -0.482322 -0.517678 1.5
      vertex -0.475 -0.5 1.5
    endloop
  endfacet
  facet normal 0 0 1
    outer loop
      vertex -0.5 -0.475 1.5
      vertex -0.482322 -0.517678 1.5
      vertex -0.482322 -0.482322 1.5
    endloop
  endfacet
  facet normal 0 0 1
    outer loop
      vertex -0.5 -0.475 1.5
      vertex -0.5 -0.525 1.5
      vertex -0.482322 -0.517678 1.5
    endloop
  endfacet
  facet normal -0 0 1
    outer loop
      vertex -0.517678 -0.482322 1.5
      vertex -0.5 -0.525 1.5
      vertex -0.5 -0.475 1.5
    endloop
  endfacet
  facet normal 0 0 1
    outer loop
      vertex -0.517678 -0.482322 1.5
      vertex -0.517678 -0.517678 1.5
      vertex -0.5 -0.525 1.5
    endloop
  endfacet
  facet normal 0 -0 1
    outer loop
      vertex -0.517678 -0.517678 1.5
      vertex -0.517678 -0.482322 1.5
      vertex -0.525 -0.5 1.5
    endloop
  endfacet
  facet normal 0.923888 -0.382663 0
    outer loop
      vertex -0.482322 -0.517678 1.5
      vertex -0.475 -0.5 1
      vertex -0.475 -0.5 1.5
    endloop
  endfacet
  facet normal 0.923888 -0.382663 0
    outer loop
      vertex -0.482322 -0.517678 0
      vertex -0.475 -0.5 1
      vertex -0.482322 -0.517678 1.5
    endloop
  endfacet
  facet normal 0.923888 -0.382663 0
    outer loop
      vertex -0.475 -0.5 1
      vertex -0.482322 -0.517678 0
      vertex -0.475 -0.5 0.35
    endloop
  endfacet
  facet normal 0.923888 -0.382663 0
    outer loop
      vertex -0.475 -0.5 0.35
      vertex -0.482322 -0.517678 0
      vertex -0.475 -0.5 0
    endloop
  endfacet
  facet normal -0.923888 -0.382663 0
    outer loop
      vertex -0.517678 -0.517678 0
      vertex -0.525 -0.5 1.5
      vertex -0.525 -0.5 0
    endloop
  endfacet
  facet normal -0.923888 -0.382663 0
    outer loop
      vertex -0.525 -0.5 1.5
      vertex -0.517678 -0.517678 0
      vertex -0.517678 -0.517678 1.5
    endloop
  endfacet
  facet normal 0 0 -1
    outer loop
      vertex -0.482322 -0.517678 0
      vertex -0.482322 -0.482322 0
      vertex -0.475 -0.5 0
    endloop
  endfacet
  facet normal 0 0 -1
    outer loop
      vertex -0.5 -0.525 0
      vertex -0.482322 -0.482322 0
      vertex -0.482322 -0.517678 0
    endloop
  endfacet
  facet normal 0 0 -1
    outer loop
      vertex -0.5 -0.525 0
      vertex -0.5 -0.475 0
      vertex -0.482322 -0.482322 0
    endloop
  endfacet
  facet normal 0 0 -1
    outer loop
      vertex -0.517678 -0.517678 0
      vertex -0.5 -0.475 0
      vertex -0.5 -0.525 0
    endloop
  endfacet
  facet normal 0 0 -1
    outer loop
      vertex -0.517678 -0.517678 0
      vertex -0.517678 -0.482322 0
      vertex -0.5 -0.475 0
    endloop
  endfacet
  facet normal 0 -0 -1
    outer loop
      vertex -0.517678 -0.482322 0
      vertex -0.517678 -0.517678 0
      vertex -0.525 -0.5 0
    endloop
  endfacet
  facet normal -0.382663 -0.923888 0
    outer loop
      vertex -0.517678 -0.517678 0
      vertex -0.5 -0.525 1.5
      vertex -0.517678 -0.517678 1.5
    endloop
  endfacet
  facet normal -0.382663 -0.923888 -0
    outer loop
      vertex -0.5 -0.525 1.5
      vertex -0.517678 -0.517678 0
      vertex -0.5 -0.525 0
    endloop
  endfacet
  facet normal 0.923888 0.382663 0
    outer loop
      vertex -0.475 0.5 0.29
      vertex -0.482322 0.517678 0
      vertex -0.482322 0.517678 0.29
    endloop
  endfacet
  facet normal 0.923888 0.382663 0
    outer loop
      vertex -0.482322 0.517678 0
      vertex -0.475 0.5 0.29
      vertex -0.475 0.5 0
    endloop
  endfacet
  facet normal 0.923888 0.382663 0
    outer loop
      vertex -0.475 0.5 1.5
      vertex -0.482322 0.517678 1.09
      vertex -0.482322 0.517678 1.5
    endloop
  endfacet
  facet normal 0.923888 0.382663 0
    outer loop
      vertex -0.482322 0.517678 1.09
      vertex -0.475 0.5 1.5
      vertex -0.475 0.5 1.09
    endloop
  endfacet
  facet normal 0.923888 0.382663 0
    outer loop
      vertex -0.475 0.5 0.94
      vertex -0.482322 0.517678 0.44
      vertex -0.482322 0.517678 0.94
    endloop
  endfacet
  facet normal 0.923888 0.382663 0
    outer loop
      vertex -0.482322 0.517678 0.44
      vertex -0.475 0.5 0.94
      vertex -0.475 0.5 0.44
    endloop
  endfacet
  facet normal -0.923888 0.382663 0
    outer loop
      vertex -0.525 0.5 0
      vertex -0.517678 0.517678 1.5
      vertex -0.517678 0.517678 0
    endloop
  endfacet
  facet normal -0.923888 0.382663 0
    outer loop
      vertex -0.517678 0.517678 1.5
      vertex -0.525 0.5 0
      vertex -0.525 0.5 1.5
    endloop
  endfacet
  facet normal 0.382614 0.923908 0
    outer loop
      vertex -0.482322 0.517678 0.29
      vertex -0.482322 0.517678 0
      vertex -0.487929 0.52 0.29
    endloop
  endfacet
  facet normal 0.382614 0.923908 0
    outer loop
      vertex -0.482322 0.517678 0.94
      vertex -0.482322 0.517678 0.44
      vertex -0.487929 0.52 0.94
    endloop
  endfacet
  facet normal 0.382614 0.923908 0
    outer loop
      vertex -0.487929 0.52 1.09
      vertex -0.482322 0.517678 1.5
      vertex -0.482322 0.517678 1.09
    endloop
  endfacet
  facet normal 0.382663 0.923888 -7.82401e-07
    outer loop
      vertex -0.482322 0.517678 1.5
      vertex -0.487929 0.52 1.09
      vertex -0.5 0.525 1.5
    endloop
  endfacet
  facet normal 0.382685 0.923879 -0
    outer loop
      vertex -0.487929 0.52 0.94
      vertex -0.5 0.525 1.5
      vertex -0.487929 0.52 1.09
    endloop
  endfacet
  facet normal 0.382614 0.923908 -0
    outer loop
      vertex -0.487929 0.52 0.44
      vertex -0.487929 0.52 0.94
      vertex -0.482322 0.517678 0.44
    endloop
  endfacet
  facet normal 0.382685 0.923879 0
    outer loop
      vertex -0.487929 0.52 0.94
      vertex -0.487929 0.52 0.44
      vertex -0.5 0.525 1.5
    endloop
  endfacet
  facet normal 0.382685 0.923879 0
    outer loop
      vertex -0.5 0.525 0
      vertex -0.487929 0.52 0.44
      vertex -0.487929 0.52 0.29
    endloop
  endfacet
  facet normal 0.382685 0.923879 0
    outer loop
      vertex -0.487929 0.52 0.44
      vertex -0.5 0.525 0
      vertex -0.5 0.525 1.5
    endloop
  endfacet
  facet normal 0.382663 0.923888 1.10615e-06
    outer loop
      vertex -0.5 0.525 0
      vertex -0.487929 0.52 0.29
      vertex -0.482322 0.517678 0
    endloop
  endfacet
  facet normal 0 0 -1
    outer loop
      vertex -0.482322 0.482322 0
      vertex -0.482322 0.517678 0
      vertex -0.475 0.5 0
    endloop
  endfacet
  facet normal 0 0 -1
    outer loop
      vertex -0.5 0.475 0
      vertex -0.482322 0.517678 0
      vertex -0.482322 0.482322 0
    endloop
  endfacet
  facet normal 0 0 -1
    outer loop
      vertex -0.5 0.475 0
      vertex -0.5 0.525 0
      vertex -0.482322 0.517678 0
    endloop
  endfacet
  facet normal 0 0 -1
    outer loop
      vertex -0.517678 0.482322 0
      vertex -0.5 0.525 0
      vertex -0.5 0.475 0
    endloop
  endfacet
  facet normal 0 0 -1
    outer loop
      vertex -0.517678 0.482322 0
      vertex -0.517678 0.517678 0
      vertex -0.5 0.525 0
    endloop
  endfacet
  facet normal 0 -0 -1
    outer loop
      vertex -0.517678 0.517678 0
      vertex -0.517678 0.482322 0
      vertex -0.525 0.5 0
    endloop
  endfacet
  facet normal 0 0 1
    outer loop
      vertex -0.482322 0.517678 1.5
      vertex -0.482322 0.482322 1.5
      vertex -0.475 0.5 1.5
    endloop
  endfacet
  facet normal 0 0 1
    outer loop
      vertex -0.5 0.525 1.5
      vertex -0.482322 0.482322 1.5
      vertex -0.482322 0.517678 1.5
    endloop
  endfacet
  facet normal 0 0 1
    outer loop
      vertex -0.5 0.525 1.5
      vertex -0.5 0.475 1.5
      vertex -0.482322 0.482322 1.5
    endloop
  endfacet
  facet normal -0 0 1
    outer loop
      vertex -0.517678 0.517678 1.5
      vertex -0.5 0.475 1.5
      vertex -0.5 0.525 1.5
    endloop
  endfacet
  facet normal 0 0 1
    outer loop
      vertex -0.517678 0.517678 1.5
      vertex -0.517678 0.482322 1.5
      vertex -0.5 0.475 1.5
    endloop
  endfacet
  facet normal 0 -0 1
    outer loop
      vertex -0.517678 0.482322 1.5
      vertex -0.517678 0.517678 1.5
      vertex -0.525 0.5 1.5
    endloop
  endfacet
  facet normal -0.382663 0.923888 0
    outer loop
      vertex -0.5 0.525 0
      vertex -0.517678 0.517678 1.5
      vertex -0.5 0.525 1.5
    endloop
  endfacet
  facet normal -0.382663 0.923888 0
    outer loop
      vertex -0.517678 0.517678 1.5
      vertex -0.5 0.525 0
      vertex -0.517678 0.517678 0
    endloop
  endfacet
  facet normal 0.382663 -0.923888 0
    outer loop
      vertex -0.5 0.475 0
      vertex -0.482322 0.482322 0.264058
      vertex -0.5 0.475 0.264699
    endloop
  endfacet
  facet normal 0.382663 -0.923888 0
    outer loop
      vertex -0.482322 0.482322 0.264058
      vertex -0.5 0.475 0
      vertex -0.482322 0.482322 0
    endloop
  endfacet
  facet normal 0.382663 -0.923888 0
    outer loop
      vertex -0.5 0.475 0.934775
      vertex -0.482322 0.482322 1.5
      vertex -0.5 0.475 1.5
    endloop
  endfacet
  facet normal 0.382663 -0.923888 0
    outer loop
      vertex -0.482322 0.482322 1.5
      vertex -0.5 0.475 0.934775
      vertex -0.482322 0.482322 0.934134
    endloop
  endfacet
  facet normal 0.382663 -0.923888 0
    outer loop
      vertex -0.5 0.475 0.284775
      vertex -0.482322 0.482322 0.914058
      vertex -0.5 0.475 0.914699
    endloop
  endfacet
  facet normal 0.382663 -0.923888 0
    outer loop
      vertex -0.482322 0.482322 0.914058
      vertex -0.5 0.475 0.284775
      vertex -0.482322 0.482322 0.284134
    endloop
  endfacet
  facet normal 0.923889 -0.382662 4.48192e-08
    outer loop
      vertex -0.482322 0.482322 0.914058
      vertex -0.475 0.5 0.44
      vertex -0.476576 0.496195 0.912844
    endloop
  endfacet
  facet normal 0.923888 -0.382663 0
    outer loop
      vertex -0.475 0.5 0.44
      vertex -0.482322 0.482322 0.914058
      vertex -0.482322 0.482322 0.284134
    endloop
  endfacet
  facet normal 0.923887 -0.382665 3.57806e-07
    outer loop
      vertex -0.475 0.5 0.44
      vertex -0.482322 0.482322 0.284134
      vertex -0.475854 0.497938 0.282768
    endloop
  endfacet
  facet normal 0.923888 -0.382663 0
    outer loop
      vertex -0.482322 0.482322 1.5
      vertex -0.475 0.5 1.09
      vertex -0.475 0.5 1.5
    endloop
  endfacet
  facet normal 0.923888 -0.382663 0
    outer loop
      vertex -0.482322 0.482322 0.934134
      vertex -0.475 0.5 1.09
      vertex -0.482322 0.482322 1.5
    endloop
  endfacet
  facet normal 0.923906 -0.382618 -7.85119e-06
    outer loop
      vertex -0.476576 0.496195 0.912844
      vertex -0.475 0.5 0.94
      vertex -0.475854 0.497938 0.932768
    endloop
  endfacet
  facet normal 0.923887 -0.382666 0
    outer loop
      vertex -0.475 0.5 0.94
      vertex -0.476576 0.496195 0.912844
      vertex -0.475 0.5 0.44
    endloop
  endfacet
  facet normal 0.923897 -0.382642 0
    outer loop
      vertex -0.475 0.5 0.44
      vertex -0.475854 0.497938 0.282768
      vertex -0.475 0.5 0.29
    endloop
  endfacet
  facet normal 0.923888 -0.382663 0
    outer loop
      vertex -0.475 0.5 1.09
      vertex -0.482322 0.482322 0.934134
      vertex -0.475 0.5 0.94
    endloop
  endfacet
  facet normal 0.923887 -0.382665 7.59852e-06
    outer loop
      vertex -0.475 0.5 0.94
      vertex -0.482322 0.482322 0.934134
      vertex -0.475854 0.497938 0.932768
    endloop
  endfacet
  facet normal 0.923906 -0.382618 -7.85119e-06
    outer loop
      vertex -0.476576 0.496195 0.262844
      vertex -0.475 0.5 0.29
      vertex -0.475854 0.497938 0.282768
    endloop
  endfacet
  facet normal 0.923887 -0.382666 0
    outer loop
      vertex -0.475 0.5 0.29
      vertex -0.476576 0.496195 0.262844
      vertex -0.475 0.5 0
    endloop
  endfacet
  facet normal 0.923889 -0.382662 0
    outer loop
      vertex -0.482322 0.482322 0
      vertex -0.476576 0.496195 0.262844
      vertex -0.482322 0.482322 0.264058
    endloop
  endfacet
  facet normal 0.923888 -0.382663 6.32289e-08
    outer loop
      vertex -0.476576 0.496195 0.262844
      vertex -0.482322 0.482322 0
      vertex -0.475 0.5 0
    endloop
  endfacet
  facet normal -0.382663 -0.923888 0
    outer loop
      vertex -0.517678 0.482322 1.5
      vertex -0.5 0.475 0.934775
      vertex -0.5 0.475 1.5
    endloop
  endfacet
  facet normal -0.382663 -0.923888 0
    outer loop
      vertex -0.517678 0.482322 1.5
      vertex -0.5 0.475 0.914699
      vertex -0.5 0.475 0.934775
    endloop
  endfacet
  facet normal -0.382663 -0.923888 0
    outer loop
      vertex -0.517678 0.482322 0
      vertex -0.5 0.475 0.914699
      vertex -0.517678 0.482322 1.5
    endloop
  endfacet
  facet normal -0.382663 -0.923888 -0
    outer loop
      vertex -0.5 0.475 0.914699
      vertex -0.517678 0.482322 0
      vertex -0.5 0.475 0.284775
    endloop
  endfacet
  facet normal -0.382663 -0.923888 -0
    outer loop
      vertex -0.5 0.475 0.284775
      vertex -0.517678 0.482322 0
      vertex -0.5 0.475 0.264699
    endloop
  endfacet
  facet normal -0.382663 -0.923888 -0
    outer loop
      vertex -0.5 0.475 0.264699
      vertex -0.517678 0.482322 0
      vertex -0.5 0.475 0
    endloop
  endfacet
  facet normal -0.923888 -0.382663 0
    outer loop
      vertex -0.517678 0.482322 0
      vertex -0.525 0.5 1.5
      vertex -0.525 0.5 0
    endloop
  endfacet
  facet normal -0.923888 -0.382663 0
    outer loop
      vertex -0.525 0.5 1.5
      vertex -0.517678 0.482322 0
      vertex -0.517678 0.482322 1.5
    endloop
  endfacet
  facet normal 0.923888 0.382663 0
    outer loop
      vertex 0.525 -0.5 1.5
      vertex 0.517678 -0.482322 0
      vertex 0.517678 -0.482322 1.5
    endloop
  endfacet
  facet normal 0.923888 0.382663 0
    outer loop
      vertex 0.517678 -0.482322 0
      vertex 0.525 -0.5 1.5
      vertex 0.525 -0.5 0
    endloop
  endfacet
  facet normal -0.923888 -0.382663 0
    outer loop
      vertex 0.482322 -0.517678 0
      vertex 0.475 -0.5 0.35
      vertex 0.475 -0.5 0
    endloop
  endfacet
  facet normal -0.923888 -0.382663 0
    outer loop
      vertex 0.475 -0.5 0.35
      vertex 0.482322 -0.517678 0
      vertex 0.475 -0.5 1
    endloop
  endfacet
  facet normal -0.923888 -0.382663 -0
    outer loop
      vertex 0.482322 -0.517678 1.5
      vertex 0.475 -0.5 1
      vertex 0.482322 -0.517678 0
    endloop
  endfacet
  facet normal -0.923888 -0.382663 0
    outer loop
      vertex 0.475 -0.5 1
      vertex 0.482322 -0.517678 1.5
      vertex 0.475 -0.5 1.5
    endloop
  endfacet
  facet normal -0.382663 0.923888 0
    outer loop
      vertex 0.482322 -0.482322 0
      vertex 0.5 -0.475 0.347813
      vertex 0.5 -0.475 0
    endloop
  endfacet
  facet normal -0.382663 0.923888 0
    outer loop
      vertex 0.5 -0.475 0.347813
      vertex 0.482322 -0.482322 0
      vertex 0.482322 -0.482322 0.348453
    endloop
  endfacet
  facet normal -0.382663 0.923888 0
    outer loop
      vertex 0.5 -0.475 1.5
      vertex 0.482322 -0.482322 1.01853
      vertex 0.482322 -0.482322 1.5
    endloop
  endfacet
  facet normal -0.382663 0.923888 0
    outer loop
      vertex 0.482322 -0.482322 1.01853
      vertex 0.5 -0.475 1.5
      vertex 0.5 -0.475 1.01789
    endloop
  endfacet
  facet normal -0.382663 0.923888 0
    outer loop
      vertex 0.5 -0.475 0.997813
      vertex 0.482322 -0.482322 0.36853
      vertex 0.482322 -0.482322 0.998453
    endloop
  endfacet
  facet normal -0.382663 0.923888 0
    outer loop
      vertex 0.482322 -0.482322 0.36853
      vertex 0.5 -0.475 0.997813
      vertex 0.5 -0.475 0.367889
    endloop
  endfacet
  facet normal 0.382663 0.923888 0
    outer loop
      vertex 0.517678 -0.482322 1.5
      vertex 0.5 -0.475 1.01789
      vertex 0.5 -0.475 1.5
    endloop
  endfacet
  facet normal 0.382663 0.923888 0
    outer loop
      vertex 0.517678 -0.482322 1.5
      vertex 0.5 -0.475 0.997813
      vertex 0.5 -0.475 1.01789
    endloop
  endfacet
  facet normal 0.382663 0.923888 -0
    outer loop
      vertex 0.517678 -0.482322 0
      vertex 0.5 -0.475 0.997813
      vertex 0.517678 -0.482322 1.5
    endloop
  endfacet
  facet normal 0.382663 0.923888 0
    outer loop
      vertex 0.5 -0.475 0.997813
      vertex 0.517678 -0.482322 0
      vertex 0.5 -0.475 0.367889
    endloop
  endfacet
  facet normal 0.382663 0.923888 0
    outer loop
      vertex 0.5 -0.475 0.367889
      vertex 0.517678 -0.482322 0
      vertex 0.5 -0.475 0.347813
    endloop
  endfacet
  facet normal 0.382663 0.923888 0
    outer loop
      vertex 0.5 -0.475 0.347813
      vertex 0.517678 -0.482322 0
      vertex 0.5 -0.475 0
    endloop
  endfacet
  facet normal 0 0 1
    outer loop
      vertex 0.517678 -0.482322 1.5
      vertex 0.517678 -0.517678 1.5
      vertex 0.525 -0.5 1.5
    endloop
  endfacet
  facet normal 0 0 1
    outer loop
      vertex 0.5 -0.475 1.5
      vertex 0.517678 -0.517678 1.5
      vertex 0.517678 -0.482322 1.5
    endloop
  endfacet
  facet normal 0 0 1
    outer loop
      vertex 0.5 -0.475 1.5
      vertex 0.5 -0.525 1.5
      vertex 0.517678 -0.517678 1.5
    endloop
  endfacet
  facet normal -0 0 1
    outer loop
      vertex 0.482322 -0.482322 1.5
      vertex 0.5 -0.525 1.5
      vertex 0.5 -0.475 1.5
    endloop
  endfacet
  facet normal 0 0 1
    outer loop
      vertex 0.482322 -0.482322 1.5
      vertex 0.482322 -0.517678 1.5
      vertex 0.5 -0.525 1.5
    endloop
  endfacet
  facet normal 0 -0 1
    outer loop
      vertex 0.482322 -0.517678 1.5
      vertex 0.482322 -0.482322 1.5
      vertex 0.475 -0.5 1.5
    endloop
  endfacet
  facet normal -0.923888 0.382663 0
    outer loop
      vertex 0.475 -0.5 0
      vertex 0.482322 -0.482322 0.348453
      vertex 0.482322 -0.482322 0
    endloop
  endfacet
  facet normal -0.923888 0.382663 0
    outer loop
      vertex 0.482322 -0.482322 0.348453
      vertex 0.475 -0.5 0
      vertex 0.475 -0.5 0.35
    endloop
  endfacet
  facet normal -0.92389 0.382659 0
    outer loop
      vertex 0.475722 -0.498257 1.01992
      vertex 0.482322 -0.482322 1.5
      vertex 0.482322 -0.482322 1.01853
    endloop
  endfacet
  facet normal -0.923875 0.382695 0
    outer loop
      vertex 0.475 -0.5 1.5
      vertex 0.475722 -0.498257 1.01992
      vertex 0.475 -0.5 1
    endloop
  endfacet
  facet normal -0.923888 0.382663 -1.38254e-07
    outer loop
      vertex 0.475722 -0.498257 1.01992
      vertex 0.475 -0.5 1.5
      vertex 0.482322 -0.482322 1.5
    endloop
  endfacet
  facet normal -0.92389 0.382659 0
    outer loop
      vertex 0.475722 -0.498257 0.369924
      vertex 0.482322 -0.482322 0.998453
      vertex 0.482322 -0.482322 0.36853
    endloop
  endfacet
  facet normal -0.923875 0.382695 0
    outer loop
      vertex 0.475 -0.5 1
      vertex 0.475722 -0.498257 0.369924
      vertex 0.475 -0.5 0.35
    endloop
  endfacet
  facet normal -0.923888 0.382663 -1.05366e-07
    outer loop
      vertex 0.475722 -0.498257 0.369924
      vertex 0.475 -0.5 1
      vertex 0.482322 -0.482322 0.998453
    endloop
  endfacet
  facet normal 0 0 -1
    outer loop
      vertex 0.517678 -0.517678 0
      vertex 0.517678 -0.482322 0
      vertex 0.525 -0.5 0
    endloop
  endfacet
  facet normal 0 0 -1
    outer loop
      vertex 0.5 -0.525 0
      vertex 0.517678 -0.482322 0
      vertex 0.517678 -0.517678 0
    endloop
  endfacet
  facet normal 0 0 -1
    outer loop
      vertex 0.5 -0.525 0
      vertex 0.5 -0.475 0
      vertex 0.517678 -0.482322 0
    endloop
  endfacet
  facet normal 0 0 -1
    outer loop
      vertex 0.482322 -0.517678 0
      vertex 0.5 -0.475 0
      vertex 0.5 -0.525 0
    endloop
  endfacet
  facet normal 0 0 -1
    outer loop
      vertex 0.482322 -0.517678 0
      vertex 0.482322 -0.482322 0
      vertex 0.5 -0.475 0
    endloop
  endfacet
  facet normal 0 -0 -1
    outer loop
      vertex 0.482322 -0.482322 0
      vertex 0.482322 -0.517678 0
      vertex 0.475 -0.5 0
    endloop
  endfacet
  facet normal 0.382663 -0.923888 0
    outer loop
      vertex 0.5 -0.525 0
      vertex 0.517678 -0.517678 1.5
      vertex 0.5 -0.525 1.5
    endloop
  endfacet
  facet normal 0.382663 -0.923888 0
    outer loop
      vertex 0.517678 -0.517678 1.5
      vertex 0.5 -0.525 0
      vertex 0.517678 -0.517678 0
    endloop
  endfacet
  facet normal -0.382663 -0.923888 0
    outer loop
      vertex 0.482322 -0.517678 0
      vertex 0.5 -0.525 1.5
      vertex 0.482322 -0.517678 1.5
    endloop
  endfacet
  facet normal -0.382663 -0.923888 -0
    outer loop
      vertex 0.5 -0.525 1.5
      vertex 0.482322 -0.517678 0
      vertex 0.5 -0.525 0
    endloop
  endfacet
  facet normal 0.923888 -0.382663 0
    outer loop
      vertex 0.517678 -0.517678 1.5
      vertex 0.525 -0.5 0
      vertex 0.525 -0.5 1.5
    endloop
  endfacet
  facet normal 0.923888 -0.382663 0
    outer loop
      vertex 0.525 -0.5 0
      vertex 0.517678 -0.517678 1.5
      vertex 0.517678 -0.517678 0
    endloop
  endfacet
  facet normal 0.923888 0.382663 0
    outer loop
      vertex 0.525 0.5 1.5
      vertex 0.517678 0.517678 0
      vertex 0.517678 0.517678 1.5
    endloop
  endfacet
  facet normal 0.923888 0.382663 0
    outer loop
      vertex 0.517678 0.517678 0
      vertex 0.525 0.5 1.5
      vertex 0.525 0.5 0
    endloop
  endfacet
  facet normal -0.382663 0.923888 -7.82401e-07
    outer loop
      vertex 0.5 0.525 1.5
      vertex 0.487929 0.52 1.09
      vertex 0.482322 0.517678 1.5
    endloop
  endfacet
  facet normal -0.382685 0.923879 0
    outer loop
      vertex 0.5 0.525 1.5
      vertex 0.487929 0.52 0.94
      vertex 0.487929 0.52 1.09
    endloop
  endfacet
  facet normal -0.382614 0.923908 0
    outer loop
      vertex 0.487929 0.52 0.94
      vertex 0.487929 0.52 0.44
      vertex 0.482322 0.517678 0.94
    endloop
  endfacet
  facet normal -0.382685 0.923879 0
    outer loop
      vertex 0.5 0.525 1.5
      vertex 0.487929 0.52 0.44
      vertex 0.487929 0.52 0.94
    endloop
  endfacet
  facet normal -0.382685 0.923879 0
    outer loop
      vertex 0.5 0.525 0
      vertex 0.487929 0.52 0.44
      vertex 0.5 0.525 1.5
    endloop
  endfacet
  facet normal -0.382685 0.923879 0
    outer loop
      vertex 0.487929 0.52 0.44
      vertex 0.5 0.525 0
      vertex 0.487929 0.52 0.29
    endloop
  endfacet
  facet normal -0.382663 0.923888 1.10615e-06
    outer loop
      vertex 0.482322 0.517678 0
      vertex 0.487929 0.52 0.29
      vertex 0.5 0.525 0
    endloop
  endfacet
  facet normal -0.382614 0.923908 0
    outer loop
      vertex 0.487929 0.52 0.29
      vertex 0.482322 0.517678 0
      vertex 0.482322 0.517678 0.29
    endloop
  endfacet
  facet normal -0.382614 0.923908 0
    outer loop
      vertex 0.482322 0.517678 1.5
      vertex 0.487929 0.52 1.09
      vertex 0.482322 0.517678 1.09
    endloop
  endfacet
  facet normal -0.382614 0.923908 0
    outer loop
      vertex 0.482322 0.517678 0.94
      vertex 0.487929 0.52 0.44
      vertex 0.482322 0.517678 0.44
    endloop
  endfacet
  facet normal 0.382663 0.923888 -0
    outer loop
      vertex 0.517678 0.517678 0
      vertex 0.5 0.525 1.5
      vertex 0.517678 0.517678 1.5
    endloop
  endfacet
  facet normal 0.382663 0.923888 0
    outer loop
      vertex 0.5 0.525 1.5
      vertex 0.517678 0.517678 0
      vertex 0.5 0.525 0
    endloop
  endfacet
  facet normal 0 0 1
    outer loop
      vertex 0.517678 0.517678 1.5
      vertex 0.517678 0.482322 1.5
      vertex 0.525 0.5 1.5
    endloop
  endfacet
  facet normal 0 0 1
    outer loop
      vertex 0.5 0.525 1.5
      vertex 0.517678 0.482322 1.5
      vertex 0.517678 0.517678 1.5
    endloop
  endfacet
  facet normal 0 0 1
    outer loop
      vertex 0.5 0.525 1.5
      vertex 0.5 0.475 1.5
      vertex 0.517678 0.482322 1.5
    endloop
  endfacet
  facet normal -0 0 1
    outer loop
      vertex 0.482322 0.517678 1.5
      vertex 0.5 0.475 1.5
      vertex 0.5 0.525 1.5
    endloop
  endfacet
  facet normal 0 0 1
    outer loop
      vertex 0.482322 0.517678 1.5
      vertex 0.482322 0.482322 1.5
      vertex 0.5 0.475 1.5
    endloop
  endfacet
  facet normal 0 -0 1
    outer loop
      vertex 0.482322 0.482322 1.5
      vertex 0.482322 0.517678 1.5
      vertex 0.475 0.5 1.5
    endloop
  endfacet
  facet normal -0.923888 0.382663 0
    outer loop
      vertex 0.475 0.5 0
      vertex 0.482322 0.517678 0.29
      vertex 0.482322 0.517678 0
    endloop
  endfacet
  facet normal -0.923888 0.382663 0
    outer loop
      vertex 0.482322 0.517678 0.29
      vertex 0.475 0.5 0
      vertex 0.475 0.5 0.29
    endloop
  endfacet
  facet normal -0.923888 0.382663 0
    outer loop
      vertex 0.475 0.5 1.09
      vertex 0.482322 0.517678 1.5
      vertex 0.482322 0.517678 1.09
    endloop
  endfacet
  facet normal -0.923888 0.382663 0
    outer loop
      vertex 0.482322 0.517678 1.5
      vertex 0.475 0.5 1.09
      vertex 0.475 0.5 1.5
    endloop
  endfacet
  facet normal -0.923888 0.382663 0
    outer loop
      vertex 0.475 0.5 0.44
      vertex 0.482322 0.517678 0.94
      vertex 0.482322 0.517678 0.44
    endloop
  endfacet
  facet normal -0.923888 0.382663 0
    outer loop
      vertex 0.482322 0.517678 0.94
      vertex 0.475 0.5 0.44
      vertex 0.475 0.5 0.94
    endloop
  endfacet
  facet normal 0 0 -1
    outer loop
      vertex 0.517678 0.482322 0
      vertex 0.517678 0.517678 0
      vertex 0.525 0.5 0
    endloop
  endfacet
  facet normal 0 0 -1
    outer loop
      vertex 0.5 0.475 0
      vertex 0.517678 0.517678 0
      vertex 0.517678 0.482322 0
    endloop
  endfacet
  facet normal 0 0 -1
    outer loop
      vertex 0.5 0.475 0
      vertex 0.5 0.525 0
      vertex 0.517678 0.517678 0
    endloop
  endfacet
  facet normal 0 0 -1
    outer loop
      vertex 0.482322 0.482322 0
      vertex 0.5 0.525 0
      vertex 0.5 0.475 0
    endloop
  endfacet
  facet normal 0 0 -1
    outer loop
      vertex 0.482322 0.482322 0
      vertex 0.482322 0.517678 0
      vertex 0.5 0.525 0
    endloop
  endfacet
  facet normal 0 -0 -1
    outer loop
      vertex 0.482322 0.517678 0
      vertex 0.482322 0.482322 0
      vertex 0.475 0.5 0
    endloop
  endfacet
  facet normal 0.923888 -0.382663 0
    outer loop
      vertex 0.517678 0.482322 1.5
      vertex 0.525 0.5 0
      vertex 0.525 0.5 1.5
    endloop
  endfacet
  facet normal 0.923888 -0.382663 0
    outer loop
      vertex 0.525 0.5 0
      vertex 0.517678 0.482322 1.5
      vertex 0.517678 0.482322 0
    endloop
  endfacet
  facet normal -0.382663 -0.923888 0
    outer loop
      vertex 0.5 0.475 0
      vertex 0.482322 0.482322 0.264058
      vertex 0.482322 0.482322 0
    endloop
  endfacet
  facet normal -0.382663 -0.923888 0
    outer loop
      vertex 0.482322 0.482322 0.264058
      vertex 0.5 0.475 0
      vertex 0.5 0.475 0.264699
    endloop
  endfacet
  facet normal -0.382663 -0.923888 0
    outer loop
      vertex 0.482322 0.482322 1.5
      vertex 0.5 0.475 0.934775
      vertex 0.5 0.475 1.5
    endloop
  endfacet
  facet normal -0.382663 -0.923888 0
    outer loop
      vertex 0.5 0.475 0.934775
      vertex 0.482322 0.482322 1.5
      vertex 0.482322 0.482322 0.934134
    endloop
  endfacet
  facet normal -0.382663 -0.923888 0
    outer loop
      vertex 0.482322 0.482322 0.914058
      vertex 0.5 0.475 0.284775
      vertex 0.5 0.475 0.914699
    endloop
  endfacet
  facet normal -0.382663 -0.923888 0
    outer loop
      vertex 0.5 0.475 0.284775
      vertex 0.482322 0.482322 0.914058
      vertex 0.482322 0.482322 0.284134
    endloop
  endfacet
  facet normal -0.923906 -0.382618 -7.85119e-06
    outer loop
      vertex 0.475 0.5 0.94
      vertex 0.476576 0.496195 0.912844
      vertex 0.475854 0.497938 0.932768
    endloop
  endfacet
  facet normal -0.923888 -0.382663 -0
    outer loop
      vertex 0.482322 0.482322 0.914058
      vertex 0.475 0.5 0.44
      vertex 0.482322 0.482322 0.284134
    endloop
  endfacet
  facet normal -0.923889 -0.382662 4.48192e-08
    outer loop
      vertex 0.475 0.5 0.44
      vertex 0.482322 0.482322 0.914058
      vertex 0.476576 0.496195 0.912844
    endloop
  endfacet
  facet normal -0.923887 -0.382666 0
    outer loop
      vertex 0.476576 0.496195 0.262844
      vertex 0.475 0.5 0.29
      vertex 0.475 0.5 0
    endloop
  endfacet
  facet normal -0.923887 -0.382665 7.59852e-06
    outer loop
      vertex 0.482322 0.482322 0.284134
      vertex 0.475 0.5 0.29
      vertex 0.475854 0.497938 0.282768
    endloop
  endfacet
  facet normal -0.923888 -0.382663 0
    outer loop
      vertex 0.475 0.5 0.29
      vertex 0.482322 0.482322 0.284134
      vertex 0.475 0.5 0.44
    endloop
  endfacet
  facet normal -0.923887 -0.382666 0
    outer loop
      vertex 0.476576 0.496195 0.912844
      vertex 0.475 0.5 0.94
      vertex 0.475 0.5 0.44
    endloop
  endfacet
  facet normal -0.923887 -0.382665 7.59852e-06
    outer loop
      vertex 0.482322 0.482322 0.934134
      vertex 0.475 0.5 0.94
      vertex 0.475854 0.497938 0.932768
    endloop
  endfacet
  facet normal -0.923906 -0.382618 -7.85119e-06
    outer loop
      vertex 0.475 0.5 0.29
      vertex 0.476576 0.496195 0.262844
      vertex 0.475854 0.497938 0.282768
    endloop
  endfacet
  facet normal -0.923888 -0.382663 6.32289e-08
    outer loop
      vertex 0.482322 0.482322 0
      vertex 0.476576 0.496195 0.262844
      vertex 0.475 0.5 0
    endloop
  endfacet
  facet normal -0.923889 -0.382662 0
    outer loop
      vertex 0.476576 0.496195 0.262844
      vertex 0.482322 0.482322 0
      vertex 0.482322 0.482322 0.264058
    endloop
  endfacet
  facet normal -0.923888 -0.382663 0
    outer loop
      vertex 0.475 0.5 0.94
      vertex 0.482322 0.482322 0.934134
      vertex 0.475 0.5 1.09
    endloop
  endfacet
  facet normal -0.923888 -0.382663 -0
    outer loop
      vertex 0.482322 0.482322 1.5
      vertex 0.475 0.5 1.09
      vertex 0.482322 0.482322 0.934134
    endloop
  endfacet
  facet normal -0.923888 -0.382663 0
    outer loop
      vertex 0.475 0.5 1.09
      vertex 0.482322 0.482322 1.5
      vertex 0.475 0.5 1.5
    endloop
  endfacet
  facet normal 0.382663 -0.923888 0
    outer loop
      vertex 0.5 0.475 0.934775
      vertex 0.517678 0.482322 1.5
      vertex 0.5 0.475 1.5
    endloop
  endfacet
  facet normal 0.382663 -0.923888 0
    outer loop
      vertex 0.5 0.475 0.914699
      vertex 0.517678 0.482322 1.5
      vertex 0.5 0.475 0.934775
    endloop
  endfacet
  facet normal 0.382663 -0.923888 0
    outer loop
      vertex 0.517678 0.482322 0
      vertex 0.5 0.475 0.914699
      vertex 0.5 0.475 0.284775
    endloop
  endfacet
  facet normal 0.382663 -0.923888 0
    outer loop
      vertex 0.517678 0.482322 0
      vertex 0.5 0.475 0.284775
      vertex 0.5 0.475 0.264699
    endloop
  endfacet
  facet normal 0.382663 -0.923888 0
    outer loop
      vertex 0.517678 0.482322 0
      vertex 0.5 0.475 0.264699
      vertex 0.5 0.475 0
    endloop
  endfacet
  facet normal 0.382663 -0.923888 0
    outer loop
      vertex 0.5 0.475 0.914699
      vertex 0.517678 0.482322 0
      vertex 0.517678 0.482322 1.5
    endloop
  endfacet
endsolid OpenSCAD_Model
