solid OpenSCAD_Model
  facet normal 0.951059 0.30901 0
    outer loop
      vertex 0.143159 0.0764526 0.193795
      vertex 0.135915 0.0987479 0.1715
      vertex 0.135915 0.0987479 0.183825
    endloop
  endfacet
  facet normal -0.951059 0.30901 0
    outer loop
      vertex -0.135915 0.0987479 0.1715
      vertex -0.143159 0.0764526 0.193795
      vertex -0.135915 0.0987479 0.183825
    endloop
  endfacet
  facet normal 0 1 0
    outer loop
      vertex 0.0311868 0.159777 0.0812779
      vertex 0.0519148 0.159777 0.124868
      vertex 0.0519148 0.159777 0.0905066
    endloop
  endfacet
  facet normal 0 1 0
    outer loop
      vertex 0.0519148 0.159777 0.124868
      vertex 0.0311868 0.159777 0.0812779
      vertex 0 0.159777 0.108
    endloop
  endfacet
  facet normal 0 1 0
    outer loop
      vertex -0.0311868 0.159777 0.0812779
      vertex 0 0.159777 0.108
      vertex 0.0311868 0.159777 0.0812779
    endloop
  endfacet
  facet normal 0 1 0
    outer loop
      vertex 0 0.159777 0.108
      vertex -0.0311868 0.159777 0.0812779
      vertex -0.0519148 0.159777 0.124868
    endloop
  endfacet
  facet normal 0 1 0
    outer loop
      vertex -0.0519148 0.159777 0.124868
      vertex -0.0311868 0.159777 0.0812779
      vertex -0.0519148 0.159777 0.0905066
    endloop
  endfacet
  facet normal 0 1 0
    outer loop
      vertex -0.0360289 0.159777 0.2475
      vertex -0.0519148 0.159777 0.2475
      vertex -0.0519148 0.159777 0.275015
    endloop
  endfacet
  facet normal 0 1 -0
    outer loop
      vertex 0.0519148 0.159777 0.2475
      vertex 0.0360289 0.159777 0.2475
      vertex 0.0519148 0.159777 0.275015
    endloop
  endfacet
  facet normal 0 1 0
    outer loop
      vertex 0.0259808 0.159777 0.177
      vertex -0.0259808 0.159777 0.177
      vertex 0 0.159777 0.222
    endloop
  endfacet
  facet normal 0.587791 0.809013 -9.36107e-06
    outer loop
      vertex 0.105801 0.120627 0.142377
      vertex 0.135915 0.0987479 0.1715
      vertex 0.129904 0.103115 0.153
    endloop
  endfacet
  facet normal 0.587785 0.809017 -0
    outer loop
      vertex 0.135915 0.0987479 0.1715
      vertex 0.105801 0.120627 0.142377
      vertex 0.135915 0.0987479 0.183825
    endloop
  endfacet
  facet normal 0.587792 0.809012 -1.08832e-05
    outer loop
      vertex 0.0881678 0.133438 0.106647
      vertex 0.105801 0.120627 0.142377
      vertex 0.129904 0.103115 0.153
    endloop
  endfacet
  facet normal 0.58778 0.809021 -1.83752e-06
    outer loop
      vertex 0.0881678 0.133438 0.106647
      vertex 0.0519148 0.159777 0.124868
      vertex 0.105801 0.120627 0.142377
    endloop
  endfacet
  facet normal 0.58778 0.809021 0
    outer loop
      vertex 0.0519148 0.159777 0.124868
      vertex 0.0881678 0.133438 0.106647
      vertex 0.0519148 0.159777 0.0905066
    endloop
  endfacet
  facet normal 0.58778 0.809021 -3.30741e-06
    outer loop
      vertex 0.113971 0.114691 0.2475
      vertex 0.0519148 0.159777 0.275015
      vertex 0.075 0.143005 0.315
    endloop
  endfacet
  facet normal 0.587781 0.80902 0
    outer loop
      vertex 0.0519148 0.159777 0.275015
      vertex 0.113971 0.114691 0.2475
      vertex 0.0519148 0.159777 0.2475
    endloop
  endfacet
  facet normal -0.587785 0.809017 0
    outer loop
      vertex -0.105801 0.120627 0.142377
      vertex -0.135915 0.0987479 0.1715
      vertex -0.135915 0.0987479 0.183825
    endloop
  endfacet
  facet normal -0.587791 0.809013 -9.36107e-06
    outer loop
      vertex -0.135915 0.0987479 0.1715
      vertex -0.105801 0.120627 0.142377
      vertex -0.129904 0.103115 0.153
    endloop
  endfacet
  facet normal -0.587792 0.809012 -1.08832e-05
    outer loop
      vertex -0.105801 0.120627 0.142377
      vertex -0.0881678 0.133438 0.106647
      vertex -0.129904 0.103115 0.153
    endloop
  endfacet
  facet normal -0.58778 0.809021 -1.83752e-06
    outer loop
      vertex -0.0519148 0.159777 0.124868
      vertex -0.0881678 0.133438 0.106647
      vertex -0.105801 0.120627 0.142377
    endloop
  endfacet
  facet normal -0.58778 0.809021 0
    outer loop
      vertex -0.0881678 0.133438 0.106647
      vertex -0.0519148 0.159777 0.124868
      vertex -0.0519148 0.159777 0.0905066
    endloop
  endfacet
  facet normal -0.587781 0.80902 0
    outer loop
      vertex -0.113971 0.114691 0.2475
      vertex -0.0519148 0.159777 0.275015
      vertex -0.0519148 0.159777 0.2475
    endloop
  endfacet
  facet normal -0.58778 0.809021 -3.30741e-06
    outer loop
      vertex -0.0519148 0.159777 0.275015
      vertex -0.113971 0.114691 0.2475
      vertex -0.075 0.143005 0.315
    endloop
  endfacet
  facet normal 0 -1 0
    outer loop
      vertex -0.0311868 -0.159777 0.0812779
      vertex -0.0519148 -0.159777 0.124868
      vertex -0.0519148 -0.159777 0.0905066
    endloop
  endfacet
  facet normal 0 -1 0
    outer loop
      vertex -0.0519148 -0.159777 0.124868
      vertex -0.0311868 -0.159777 0.0812779
      vertex 0 -0.159777 0.108
    endloop
  endfacet
  facet normal 0 -1 0
    outer loop
      vertex 0.0311868 -0.159777 0.0812779
      vertex 0 -0.159777 0.108
      vertex -0.0311868 -0.159777 0.0812779
    endloop
  endfacet
  facet normal 0 -1 0
    outer loop
      vertex 0 -0.159777 0.108
      vertex 0.0311868 -0.159777 0.0812779
      vertex 0.0519148 -0.159777 0.124868
    endloop
  endfacet
  facet normal 0 -1 -0
    outer loop
      vertex 0.0519148 -0.159777 0.124868
      vertex 0.0311868 -0.159777 0.0812779
      vertex 0.0519148 -0.159777 0.0905066
    endloop
  endfacet
  facet normal 0 -1 0
    outer loop
      vertex -0.0519148 -0.159777 0.275015
      vertex -0.0519148 -0.159777 0.2475
      vertex -0.0360289 -0.159777 0.2475
    endloop
  endfacet
  facet normal 0 -1 -0
    outer loop
      vertex 0.0519148 -0.159777 0.275015
      vertex 0.0360289 -0.159777 0.2475
      vertex 0.0519148 -0.159777 0.2475
    endloop
  endfacet
  facet normal 0 -1 -0
    outer loop
      vertex 0 -0.159777 0.222
      vertex -0.0259808 -0.159777 0.177
      vertex 0.0259808 -0.159777 0.177
    endloop
  endfacet
  facet normal 0.587785 -0.809017 0
    outer loop
      vertex 0.105801 -0.120627 0.142377
      vertex 0.135915 -0.0987479 0.1715
      vertex 0.135915 -0.0987479 0.183825
    endloop
  endfacet
  facet normal 0.587791 -0.809013 -9.36107e-06
    outer loop
      vertex 0.135915 -0.0987479 0.1715
      vertex 0.105801 -0.120627 0.142377
      vertex 0.129904 -0.103115 0.153
    endloop
  endfacet
  facet normal 0.587792 -0.809012 -1.08832e-05
    outer loop
      vertex 0.105801 -0.120627 0.142377
      vertex 0.0881678 -0.133438 0.106647
      vertex 0.129904 -0.103115 0.153
    endloop
  endfacet
  facet normal 0.58778 -0.809021 -1.83752e-06
    outer loop
      vertex 0.0519148 -0.159777 0.124868
      vertex 0.0881678 -0.133438 0.106647
      vertex 0.105801 -0.120627 0.142377
    endloop
  endfacet
  facet normal 0.58778 -0.809021 0
    outer loop
      vertex 0.0881678 -0.133438 0.106647
      vertex 0.0519148 -0.159777 0.124868
      vertex 0.0519148 -0.159777 0.0905066
    endloop
  endfacet
  facet normal 0.587781 -0.80902 0
    outer loop
      vertex 0.113971 -0.114691 0.2475
      vertex 0.0519148 -0.159777 0.275015
      vertex 0.0519148 -0.159777 0.2475
    endloop
  endfacet
  facet normal 0.58778 -0.809021 -3.30741e-06
    outer loop
      vertex 0.0519148 -0.159777 0.275015
      vertex 0.113971 -0.114691 0.2475
      vertex 0.075 -0.143005 0.315
    endloop
  endfacet
  facet normal 0.951059 -0.30901 0
    outer loop
      vertex 0.135915 -0.0987479 0.183825
      vertex 0.135915 -0.0987479 0.1715
      vertex 0.143159 -0.0764526 0.193795
    endloop
  endfacet
  facet normal -0.587791 -0.809013 -9.36107e-06
    outer loop
      vertex -0.105801 -0.120627 0.142377
      vertex -0.135915 -0.0987479 0.1715
      vertex -0.129904 -0.103115 0.153
    endloop
  endfacet
  facet normal -0.587785 -0.809017 0
    outer loop
      vertex -0.135915 -0.0987479 0.1715
      vertex -0.105801 -0.120627 0.142377
      vertex -0.135915 -0.0987479 0.183825
    endloop
  endfacet
  facet normal -0.587792 -0.809012 -1.08832e-05
    outer loop
      vertex -0.0881678 -0.133438 0.106647
      vertex -0.105801 -0.120627 0.142377
      vertex -0.129904 -0.103115 0.153
    endloop
  endfacet
  facet normal -0.58778 -0.809021 -1.83752e-06
    outer loop
      vertex -0.0881678 -0.133438 0.106647
      vertex -0.0519148 -0.159777 0.124868
      vertex -0.105801 -0.120627 0.142377
    endloop
  endfacet
  facet normal -0.58778 -0.809021 -0
    outer loop
      vertex -0.0519148 -0.159777 0.124868
      vertex -0.0881678 -0.133438 0.106647
      vertex -0.0519148 -0.159777 0.0905066
    endloop
  endfacet
  facet normal -0.58778 -0.809021 -3.30741e-06
    outer loop
      vertex -0.113971 -0.114691 0.2475
      vertex -0.0519148 -0.159777 0.275015
      vertex -0.075 -0.143005 0.315
    endloop
  endfacet
  facet normal -0.587781 -0.80902 -0
    outer loop
      vertex -0.0519148 -0.159777 0.275015
      vertex -0.113971 -0.114691 0.2475
      vertex -0.0519148 -0.159777 0.2475
    endloop
  endfacet
  facet normal -0.951059 -0.30901 -0
    outer loop
      vertex -0.135915 -0.0987479 0.183825
      vertex -0.143159 -0.0764526 0.193795
      vertex -0.135915 -0.0987479 0.1715
    endloop
  endfacet
  facet normal 0 -1 0
    outer loop
      vertex -0.0100465 0.159684 0.111264
      vertex -0.0100465 0.159684 0.0812779
      vertex 0 0.159684 0.108
    endloop
  endfacet
  facet normal 0 -1 0
    outer loop
      vertex 0.0100465 0.159684 0.0812779
      vertex 0 0.159684 0.108
      vertex -0.0100465 0.159684 0.0812779
    endloop
  endfacet
  facet normal 0 -1 0
    outer loop
      vertex 0 0.159684 0.108
      vertex 0.0100465 0.159684 0.0812779
      vertex 0.0100465 0.159684 0.111264
    endloop
  endfacet
  facet normal 0 -1 0
    outer loop
      vertex -0.0100465 0.159684 0.204599
      vertex 0.0100465 0.159684 0.204599
      vertex 0 0.159684 0.222
    endloop
  endfacet
  facet normal 0 -1 0
    outer loop
      vertex -0.0100465 0.159684 0.177
      vertex 0.0100465 0.159684 0.204599
      vertex -0.0100465 0.159684 0.204599
    endloop
  endfacet
  facet normal 0 -1 -0
    outer loop
      vertex 0.0100465 0.159684 0.204599
      vertex -0.0100465 0.159684 0.177
      vertex 0.0100465 0.159684 0.177
    endloop
  endfacet
  facet normal 0 1 0
    outer loop
      vertex 0.0100465 -0.159684 0.111264
      vertex 0.0100465 -0.159684 0.0812779
      vertex 0 -0.159684 0.108
    endloop
  endfacet
  facet normal 0 1 0
    outer loop
      vertex -0.0100465 -0.159684 0.0812779
      vertex 0 -0.159684 0.108
      vertex 0.0100465 -0.159684 0.0812779
    endloop
  endfacet
  facet normal 0 1 0
    outer loop
      vertex 0 -0.159684 0.108
      vertex -0.0100465 -0.159684 0.0812779
      vertex -0.0100465 -0.159684 0.111264
    endloop
  endfacet
  facet normal 0 1 0
    outer loop
      vertex 0.0100465 -0.159684 0.204599
      vertex -0.0100465 -0.159684 0.204599
      vertex 0 -0.159684 0.222
    endloop
  endfacet
  facet normal 0 1 -0
    outer loop
      vertex 0.0100465 -0.159684 0.177
      vertex -0.0100465 -0.159684 0.204599
      vertex 0.0100465 -0.159684 0.204599
    endloop
  endfacet
  facet normal 0 1 0
    outer loop
      vertex -0.0100465 -0.159684 0.204599
      vertex 0.0100465 -0.159684 0.177
      vertex -0.0100465 -0.159684 0.177
    endloop
  endfacet
  facet normal -0.684518 -0.728996 0
    outer loop
      vertex 0.105801 0.119701 0.142377
      vertex 0.116635 0.109528 0.138263
      vertex 0.116635 0.109528 0.157288
    endloop
  endfacet
  facet normal -0.684583 -0.728935 0
    outer loop
      vertex 0.101988 0.123282 0.121996
      vertex 0.105801 0.119701 0.142377
      vertex 0.101988 0.123282 0.141138
    endloop
  endfacet
  facet normal -0.684523 -0.728992 -2.12846e-05
    outer loop
      vertex 0.105801 0.119701 0.142377
      vertex 0.101988 0.123282 0.121996
      vertex 0.116635 0.109528 0.138263
    endloop
  endfacet
  facet normal -0.684554 -0.728962 0
    outer loop
      vertex 0.113971 0.112029 0.2475
      vertex 0.101988 0.123282 0.268256
      vertex 0.101988 0.123282 0.2475
    endloop
  endfacet
  facet normal 0.684518 -0.728996 0
    outer loop
      vertex -0.116635 0.109528 0.138263
      vertex -0.105801 0.119701 0.142377
      vertex -0.116635 0.109528 0.157288
    endloop
  endfacet
  facet normal 0.684523 -0.728992 -2.12846e-05
    outer loop
      vertex -0.101988 0.123282 0.121996
      vertex -0.105801 0.119701 0.142377
      vertex -0.116635 0.109528 0.138263
    endloop
  endfacet
  facet normal 0.684583 -0.728935 0
    outer loop
      vertex -0.105801 0.119701 0.142377
      vertex -0.101988 0.123282 0.121996
      vertex -0.101988 0.123282 0.141138
    endloop
  endfacet
  facet normal 0.684554 -0.728962 0
    outer loop
      vertex -0.101988 0.123282 0.2475
      vertex -0.101988 0.123282 0.268256
      vertex -0.113971 0.112029 0.2475
    endloop
  endfacet
  facet normal 0.368136 -0.929772 0
    outer loop
      vertex -0.0681247 0.144772 0.0977237
      vertex -0.0494427 0.152169 0.124065
      vertex -0.0681247 0.144772 0.130135
    endloop
  endfacet
  facet normal 0.368136 -0.929772 0
    outer loop
      vertex -0.0494427 0.152169 0.124065
      vertex -0.0681247 0.144772 0.0977237
      vertex -0.0494427 0.152169 0.0894059
    endloop
  endfacet
  facet normal 0.368136 -0.929772 0
    outer loop
      vertex -0.0681247 0.144772 0.2475
      vertex -0.0494427 0.152169 0.270733
      vertex -0.0681247 0.144772 0.303092
    endloop
  endfacet
  facet normal 0.368136 -0.929772 0
    outer loop
      vertex -0.0494427 0.152169 0.270733
      vertex -0.0681247 0.144772 0.2475
      vertex -0.0494427 0.152169 0.2475
    endloop
  endfacet
  facet normal -0.904825 0.425783 0
    outer loop
      vertex 0.140209 -0.0770806 0.189735
      vertex 0.143159 -0.0708116 0.193795
      vertex 0.140209 -0.0770806 0.184716
    endloop
  endfacet
  facet normal -0.904825 -0.425783 0
    outer loop
      vertex 0.143159 0.0708116 0.193795
      vertex 0.140209 0.0770806 0.189735
      vertex 0.140209 0.0770806 0.184716
    endloop
  endfacet
  facet normal -0.368136 -0.929772 0
    outer loop
      vertex 0.0494427 0.152169 0.124065
      vertex 0.0681247 0.144772 0.0977237
      vertex 0.0681247 0.144772 0.130135
    endloop
  endfacet
  facet normal -0.368136 -0.929772 0
    outer loop
      vertex 0.0681247 0.144772 0.0977237
      vertex 0.0494427 0.152169 0.124065
      vertex 0.0494427 0.152169 0.0894059
    endloop
  endfacet
  facet normal -0.368136 -0.929772 0
    outer loop
      vertex 0.0681247 0.144772 0.2475
      vertex 0.0494427 0.152169 0.270733
      vertex 0.0494427 0.152169 0.2475
    endloop
  endfacet
  facet normal -0.368136 -0.929772 0
    outer loop
      vertex 0.0494427 0.152169 0.270733
      vertex 0.0681247 0.144772 0.2475
      vertex 0.0681247 0.144772 0.303092
    endloop
  endfacet
  facet normal -0.58777 -0.809028 0
    outer loop
      vertex 0.0857323 0.135092 0.135856
      vertex 0.101988 0.123282 0.121996
      vertex 0.101988 0.123282 0.141138
    endloop
  endfacet
  facet normal -0.587777 -0.809023 -1.26964e-05
    outer loop
      vertex 0.0857323 0.135092 0.135856
      vertex 0.0881678 0.133323 0.106647
      vertex 0.101988 0.123282 0.121996
    endloop
  endfacet
  facet normal -0.587678 -0.809095 0
    outer loop
      vertex 0.0881678 0.133323 0.106647
      vertex 0.0857323 0.135092 0.135856
      vertex 0.0857323 0.135092 0.105563
    endloop
  endfacet
  facet normal -0.58777 -0.809028 0
    outer loop
      vertex 0.0857323 0.135092 0.2475
      vertex 0.101988 0.123282 0.268256
      vertex 0.0857323 0.135092 0.296411
    endloop
  endfacet
  facet normal -0.58777 -0.809028 -0
    outer loop
      vertex 0.101988 0.123282 0.268256
      vertex 0.0857323 0.135092 0.2475
      vertex 0.101988 0.123282 0.2475
    endloop
  endfacet
  facet normal 0.904825 -0.425783 0
    outer loop
      vertex -0.140209 0.0770806 0.184716
      vertex -0.140209 0.0770806 0.189735
      vertex -0.143159 0.0708116 0.193795
    endloop
  endfacet
  facet normal 0.770517 -0.637419 0
    outer loop
      vertex -0.129443 0.0940456 0.152488
      vertex -0.116635 0.109528 0.157288
      vertex -0.129443 0.0940456 0.174917
    endloop
  endfacet
  facet normal 0.770517 -0.637419 0
    outer loop
      vertex -0.116635 0.109528 0.157288
      vertex -0.129443 0.0940456 0.152488
      vertex -0.116635 0.109528 0.138263
    endloop
  endfacet
  facet normal 0.481759 -0.876304 0
    outer loop
      vertex -0.0857323 0.135092 0.105563
      vertex -0.0681247 0.144772 0.130135
      vertex -0.0857323 0.135092 0.135856
    endloop
  endfacet
  facet normal 0.481759 -0.876304 0
    outer loop
      vertex -0.0681247 0.144772 0.130135
      vertex -0.0857323 0.135092 0.105563
      vertex -0.0681247 0.144772 0.0977237
    endloop
  endfacet
  facet normal 0.481745 -0.876311 4.72554e-05
    outer loop
      vertex -0.0857323 0.135092 0.296411
      vertex -0.0681247 0.144772 0.303092
      vertex -0.075 0.140993 0.315
    endloop
  endfacet
  facet normal 0.481759 -0.876304 0
    outer loop
      vertex -0.0681247 0.144772 0.2475
      vertex -0.0857323 0.135092 0.296411
      vertex -0.0857323 0.135092 0.2475
    endloop
  endfacet
  facet normal 0.481759 -0.876304 0
    outer loop
      vertex -0.0857323 0.135092 0.296411
      vertex -0.0681247 0.144772 0.2475
      vertex -0.0681247 0.144772 0.303092
    endloop
  endfacet
  facet normal 0.248694 -0.968582 0
    outer loop
      vertex -0.0494427 0.152169 0.0894059
      vertex -0.029981 0.157166 0.117741
      vertex -0.0494427 0.152169 0.124065
    endloop
  endfacet
  facet normal 0.248679 -0.968586 1.11051e-05
    outer loop
      vertex -0.0311868 0.156856 0.0812779
      vertex -0.029981 0.157166 0.117741
      vertex -0.0494427 0.152169 0.0894059
    endloop
  endfacet
  facet normal 0.248994 -0.968505 0
    outer loop
      vertex -0.029981 0.157166 0.117741
      vertex -0.0311868 0.156856 0.0812779
      vertex -0.029981 0.157166 0.0812779
    endloop
  endfacet
  facet normal 0.248685 -0.968585 0
    outer loop
      vertex -0.0360289 0.155613 0.2475
      vertex -0.0494427 0.152169 0.270733
      vertex -0.0494427 0.152169 0.2475
    endloop
  endfacet
  facet normal -0.125318 0.992117 0
    outer loop
      vertex 0.029981 -0.157166 0.0812779
      vertex 0.0100465 -0.159684 0.111264
      vertex 0.029981 -0.157166 0.117741
    endloop
  endfacet
  facet normal -0.125318 0.992117 0
    outer loop
      vertex 0.0100465 -0.159684 0.111264
      vertex 0.029981 -0.157166 0.0812779
      vertex 0.0100465 -0.159684 0.0812779
    endloop
  endfacet
  facet normal -0.125335 0.992114 0
    outer loop
      vertex 0.0100465 -0.159684 0.204599
      vertex 0.0259808 -0.157671 0.177
      vertex 0.0100465 -0.159684 0.177
    endloop
  endfacet
  facet normal -0.368136 0.929772 0
    outer loop
      vertex 0.0681247 -0.144772 0.0977237
      vertex 0.0494427 -0.152169 0.124065
      vertex 0.0681247 -0.144772 0.130135
    endloop
  endfacet
  facet normal -0.368136 0.929772 0
    outer loop
      vertex 0.0494427 -0.152169 0.124065
      vertex 0.0681247 -0.144772 0.0977237
      vertex 0.0494427 -0.152169 0.0894059
    endloop
  endfacet
  facet normal -0.368136 0.929772 0
    outer loop
      vertex 0.0681247 -0.144772 0.2475
      vertex 0.0494427 -0.152169 0.270733
      vertex 0.0681247 -0.144772 0.303092
    endloop
  endfacet
  facet normal -0.368136 0.929772 0
    outer loop
      vertex 0.0494427 -0.152169 0.270733
      vertex 0.0681247 -0.144772 0.2475
      vertex 0.0494427 -0.152169 0.2475
    endloop
  endfacet
  facet normal -0.770517 -0.637419 0
    outer loop
      vertex 0.129443 0.0940456 0.152488
      vertex 0.116635 0.109528 0.157288
      vertex 0.116635 0.109528 0.138263
    endloop
  endfacet
  facet normal -0.770517 -0.637419 0
    outer loop
      vertex 0.116635 0.109528 0.157288
      vertex 0.129443 0.0940456 0.152488
      vertex 0.129443 0.0940456 0.174917
    endloop
  endfacet
  facet normal -0.844355 -0.535785 0
    outer loop
      vertex 0.129904 0.0933191 0.153
      vertex 0.129443 0.0940456 0.174917
      vertex 0.129443 0.0940456 0.152488
    endloop
  endfacet
  facet normal -0.844335 -0.535815 1.41264e-06
    outer loop
      vertex 0.140209 0.0770806 0.184716
      vertex 0.129443 0.0940456 0.174917
      vertex 0.129904 0.0933191 0.153
    endloop
  endfacet
  facet normal -0.844335 -0.535816 0
    outer loop
      vertex 0.129443 0.0940456 0.174917
      vertex 0.140209 0.0770806 0.184716
      vertex 0.140209 0.0770806 0.189735
    endloop
  endfacet
  facet normal -0.248694 -0.968582 0
    outer loop
      vertex 0.029981 0.157166 0.117741
      vertex 0.0494427 0.152169 0.0894059
      vertex 0.0494427 0.152169 0.124065
    endloop
  endfacet
  facet normal -0.248994 -0.968505 0
    outer loop
      vertex 0.0311868 0.156856 0.0812779
      vertex 0.029981 0.157166 0.117741
      vertex 0.029981 0.157166 0.0812779
    endloop
  endfacet
  facet normal -0.248679 -0.968586 1.11051e-05
    outer loop
      vertex 0.029981 0.157166 0.117741
      vertex 0.0311868 0.156856 0.0812779
      vertex 0.0494427 0.152169 0.0894059
    endloop
  endfacet
  facet normal -0.248685 -0.968585 0
    outer loop
      vertex 0.0494427 0.152169 0.2475
      vertex 0.0494427 0.152169 0.270733
      vertex 0.0360289 0.155613 0.2475
    endloop
  endfacet
  facet normal -0.125318 -0.992117 0
    outer loop
      vertex 0.029981 0.157166 0.0812779
      vertex 0.0100465 0.159684 0.111264
      vertex 0.0100465 0.159684 0.0812779
    endloop
  endfacet
  facet normal -0.125318 -0.992117 0
    outer loop
      vertex 0.0100465 0.159684 0.111264
      vertex 0.029981 0.157166 0.0812779
      vertex 0.029981 0.157166 0.117741
    endloop
  endfacet
  facet normal -0.125335 -0.992114 0
    outer loop
      vertex 0.0259808 0.157671 0.177
      vertex 0.0100465 0.159684 0.204599
      vertex 0.0100465 0.159684 0.177
    endloop
  endfacet
  facet normal -0.481759 -0.876304 0
    outer loop
      vertex 0.0681247 0.144772 0.130135
      vertex 0.0857323 0.135092 0.105563
      vertex 0.0857323 0.135092 0.135856
    endloop
  endfacet
  facet normal -0.481759 -0.876304 0
    outer loop
      vertex 0.0857323 0.135092 0.105563
      vertex 0.0681247 0.144772 0.130135
      vertex 0.0681247 0.144772 0.0977237
    endloop
  endfacet
  facet normal -0.481745 -0.876311 4.72554e-05
    outer loop
      vertex 0.0681247 0.144772 0.303092
      vertex 0.0857323 0.135092 0.296411
      vertex 0.075 0.140993 0.315
    endloop
  endfacet
  facet normal -0.481759 -0.876304 0
    outer loop
      vertex 0.0681247 0.144772 0.2475
      vertex 0.0857323 0.135092 0.296411
      vertex 0.0681247 0.144772 0.303092
    endloop
  endfacet
  facet normal -0.481759 -0.876304 -0
    outer loop
      vertex 0.0857323 0.135092 0.296411
      vertex 0.0681247 0.144772 0.2475
      vertex 0.0857323 0.135092 0.2475
    endloop
  endfacet
  facet normal 0.844355 -0.535785 0
    outer loop
      vertex -0.129443 0.0940456 0.174917
      vertex -0.129904 0.0933191 0.153
      vertex -0.129443 0.0940456 0.152488
    endloop
  endfacet
  facet normal 0.844335 -0.535816 0
    outer loop
      vertex -0.140209 0.0770806 0.184716
      vertex -0.129443 0.0940456 0.174917
      vertex -0.140209 0.0770806 0.189735
    endloop
  endfacet
  facet normal 0.844335 -0.535815 1.41264e-06
    outer loop
      vertex -0.129443 0.0940456 0.174917
      vertex -0.140209 0.0770806 0.184716
      vertex -0.129904 0.0933191 0.153
    endloop
  endfacet
  facet normal 0.58777 -0.809028 0
    outer loop
      vertex -0.101988 0.123282 0.121996
      vertex -0.0857323 0.135092 0.135856
      vertex -0.101988 0.123282 0.141138
    endloop
  endfacet
  facet normal 0.587777 -0.809023 -1.26964e-05
    outer loop
      vertex -0.0881678 0.133323 0.106647
      vertex -0.0857323 0.135092 0.135856
      vertex -0.101988 0.123282 0.121996
    endloop
  endfacet
  facet normal 0.587678 -0.809095 0
    outer loop
      vertex -0.0857323 0.135092 0.135856
      vertex -0.0881678 0.133323 0.106647
      vertex -0.0857323 0.135092 0.105563
    endloop
  endfacet
  facet normal 0.58777 -0.809028 0
    outer loop
      vertex -0.0857323 0.135092 0.2475
      vertex -0.101988 0.123282 0.268256
      vertex -0.101988 0.123282 0.2475
    endloop
  endfacet
  facet normal 0.58777 -0.809028 0
    outer loop
      vertex -0.101988 0.123282 0.268256
      vertex -0.0857323 0.135092 0.2475
      vertex -0.0857323 0.135092 0.296411
    endloop
  endfacet
  facet normal 0.125318 -0.992117 0
    outer loop
      vertex -0.029981 0.157166 0.0812779
      vertex -0.0100465 0.159684 0.111264
      vertex -0.029981 0.157166 0.117741
    endloop
  endfacet
  facet normal 0.125318 -0.992117 0
    outer loop
      vertex -0.0100465 0.159684 0.111264
      vertex -0.029981 0.157166 0.0812779
      vertex -0.0100465 0.159684 0.0812779
    endloop
  endfacet
  facet normal 0.125335 -0.992114 0
    outer loop
      vertex -0.0100465 0.159684 0.177
      vertex -0.0100465 0.159684 0.204599
      vertex -0.0259808 0.157671 0.177
    endloop
  endfacet
  facet normal -0.770517 0.637419 0
    outer loop
      vertex 0.116635 -0.109528 0.157288
      vertex 0.129443 -0.0940456 0.152488
      vertex 0.116635 -0.109528 0.138263
    endloop
  endfacet
  facet normal -0.770517 0.637419 0
    outer loop
      vertex 0.129443 -0.0940456 0.152488
      vertex 0.116635 -0.109528 0.157288
      vertex 0.129443 -0.0940456 0.174917
    endloop
  endfacet
  facet normal 0.770517 0.637419 0
    outer loop
      vertex -0.116635 -0.109528 0.157288
      vertex -0.129443 -0.0940456 0.152488
      vertex -0.129443 -0.0940456 0.174917
    endloop
  endfacet
  facet normal 0.770517 0.637419 0
    outer loop
      vertex -0.129443 -0.0940456 0.152488
      vertex -0.116635 -0.109528 0.157288
      vertex -0.116635 -0.109528 0.138263
    endloop
  endfacet
  facet normal -0.844335 0.535815 1.41264e-06
    outer loop
      vertex 0.129443 -0.0940456 0.174917
      vertex 0.140209 -0.0770806 0.184716
      vertex 0.129904 -0.0933191 0.153
    endloop
  endfacet
  facet normal -0.844355 0.535785 0
    outer loop
      vertex 0.129443 -0.0940456 0.174917
      vertex 0.129904 -0.0933191 0.153
      vertex 0.129443 -0.0940456 0.152488
    endloop
  endfacet
  facet normal -0.844335 0.535816 0
    outer loop
      vertex 0.140209 -0.0770806 0.184716
      vertex 0.129443 -0.0940456 0.174917
      vertex 0.140209 -0.0770806 0.189735
    endloop
  endfacet
  facet normal -0.248694 0.968582 0
    outer loop
      vertex 0.0494427 -0.152169 0.0894059
      vertex 0.029981 -0.157166 0.117741
      vertex 0.0494427 -0.152169 0.124065
    endloop
  endfacet
  facet normal -0.248679 0.968586 1.11051e-05
    outer loop
      vertex 0.0311868 -0.156856 0.0812779
      vertex 0.029981 -0.157166 0.117741
      vertex 0.0494427 -0.152169 0.0894059
    endloop
  endfacet
  facet normal -0.248994 0.968505 0
    outer loop
      vertex 0.029981 -0.157166 0.117741
      vertex 0.0311868 -0.156856 0.0812779
      vertex 0.029981 -0.157166 0.0812779
    endloop
  endfacet
  facet normal -0.248685 0.968585 0
    outer loop
      vertex 0.0494427 -0.152169 0.270733
      vertex 0.0494427 -0.152169 0.2475
      vertex 0.0360289 -0.155613 0.2475
    endloop
  endfacet
  facet normal -0.684518 0.728996 0
    outer loop
      vertex 0.116635 -0.109528 0.138263
      vertex 0.105801 -0.119701 0.142377
      vertex 0.116635 -0.109528 0.157288
    endloop
  endfacet
  facet normal -0.684523 0.728992 -2.12846e-05
    outer loop
      vertex 0.101988 -0.123282 0.121996
      vertex 0.105801 -0.119701 0.142377
      vertex 0.116635 -0.109528 0.138263
    endloop
  endfacet
  facet normal -0.684583 0.728935 0
    outer loop
      vertex 0.105801 -0.119701 0.142377
      vertex 0.101988 -0.123282 0.121996
      vertex 0.101988 -0.123282 0.141138
    endloop
  endfacet
  facet normal -0.684554 0.728962 0
    outer loop
      vertex 0.101988 -0.123282 0.268256
      vertex 0.113971 -0.112029 0.2475
      vertex 0.101988 -0.123282 0.2475
    endloop
  endfacet
  facet normal -0.58777 0.809028 0
    outer loop
      vertex 0.101988 -0.123282 0.121996
      vertex 0.0857323 -0.135092 0.135856
      vertex 0.101988 -0.123282 0.141138
    endloop
  endfacet
  facet normal -0.587777 0.809023 -1.26964e-05
    outer loop
      vertex 0.0881678 -0.133323 0.106647
      vertex 0.0857323 -0.135092 0.135856
      vertex 0.101988 -0.123282 0.121996
    endloop
  endfacet
  facet normal -0.587678 0.809095 0
    outer loop
      vertex 0.0857323 -0.135092 0.135856
      vertex 0.0881678 -0.133323 0.106647
      vertex 0.0857323 -0.135092 0.105563
    endloop
  endfacet
  facet normal -0.58777 0.809028 0
    outer loop
      vertex 0.0857323 -0.135092 0.2475
      vertex 0.101988 -0.123282 0.268256
      vertex 0.101988 -0.123282 0.2475
    endloop
  endfacet
  facet normal -0.58777 0.809028 0
    outer loop
      vertex 0.101988 -0.123282 0.268256
      vertex 0.0857323 -0.135092 0.2475
      vertex 0.0857323 -0.135092 0.296411
    endloop
  endfacet
  facet normal -0.481759 0.876304 0
    outer loop
      vertex 0.0857323 -0.135092 0.105563
      vertex 0.0681247 -0.144772 0.130135
      vertex 0.0857323 -0.135092 0.135856
    endloop
  endfacet
  facet normal -0.481759 0.876304 0
    outer loop
      vertex 0.0681247 -0.144772 0.130135
      vertex 0.0857323 -0.135092 0.105563
      vertex 0.0681247 -0.144772 0.0977237
    endloop
  endfacet
  facet normal -0.481745 0.876311 4.72554e-05
    outer loop
      vertex 0.0857323 -0.135092 0.296411
      vertex 0.0681247 -0.144772 0.303092
      vertex 0.075 -0.140993 0.315
    endloop
  endfacet
  facet normal -0.481759 0.876304 0
    outer loop
      vertex 0.0681247 -0.144772 0.2475
      vertex 0.0857323 -0.135092 0.296411
      vertex 0.0857323 -0.135092 0.2475
    endloop
  endfacet
  facet normal -0.481759 0.876304 0
    outer loop
      vertex 0.0857323 -0.135092 0.296411
      vertex 0.0681247 -0.144772 0.2475
      vertex 0.0681247 -0.144772 0.303092
    endloop
  endfacet
  facet normal 0.125318 0.992117 0
    outer loop
      vertex -0.029981 -0.157166 0.0812779
      vertex -0.0100465 -0.159684 0.111264
      vertex -0.0100465 -0.159684 0.0812779
    endloop
  endfacet
  facet normal 0.125318 0.992117 0
    outer loop
      vertex -0.0100465 -0.159684 0.111264
      vertex -0.029981 -0.157166 0.0812779
      vertex -0.029981 -0.157166 0.117741
    endloop
  endfacet
  facet normal 0.125335 0.992114 0
    outer loop
      vertex -0.0100465 -0.159684 0.204599
      vertex -0.0100465 -0.159684 0.177
      vertex -0.0259808 -0.157671 0.177
    endloop
  endfacet
  facet normal 0.248694 0.968582 0
    outer loop
      vertex -0.029981 -0.157166 0.117741
      vertex -0.0494427 -0.152169 0.0894059
      vertex -0.0494427 -0.152169 0.124065
    endloop
  endfacet
  facet normal 0.248994 0.968505 0
    outer loop
      vertex -0.0311868 -0.156856 0.0812779
      vertex -0.029981 -0.157166 0.117741
      vertex -0.029981 -0.157166 0.0812779
    endloop
  endfacet
  facet normal 0.248679 0.968586 1.11051e-05
    outer loop
      vertex -0.029981 -0.157166 0.117741
      vertex -0.0311868 -0.156856 0.0812779
      vertex -0.0494427 -0.152169 0.0894059
    endloop
  endfacet
  facet normal 0.248685 0.968585 0
    outer loop
      vertex -0.0494427 -0.152169 0.270733
      vertex -0.0360289 -0.155613 0.2475
      vertex -0.0494427 -0.152169 0.2475
    endloop
  endfacet
  facet normal 0.844335 0.535816 0
    outer loop
      vertex -0.129443 -0.0940456 0.174917
      vertex -0.140209 -0.0770806 0.184716
      vertex -0.140209 -0.0770806 0.189735
    endloop
  endfacet
  facet normal 0.844335 0.535815 1.41264e-06
    outer loop
      vertex -0.140209 -0.0770806 0.184716
      vertex -0.129443 -0.0940456 0.174917
      vertex -0.129904 -0.0933191 0.153
    endloop
  endfacet
  facet normal 0.844355 0.535785 0
    outer loop
      vertex -0.129904 -0.0933191 0.153
      vertex -0.129443 -0.0940456 0.174917
      vertex -0.129443 -0.0940456 0.152488
    endloop
  endfacet
  facet normal 0.904825 0.425783 0
    outer loop
      vertex -0.140209 -0.0770806 0.189735
      vertex -0.140209 -0.0770806 0.184716
      vertex -0.143159 -0.0708116 0.193795
    endloop
  endfacet
  facet normal 0.684518 0.728996 0
    outer loop
      vertex -0.105801 -0.119701 0.142377
      vertex -0.116635 -0.109528 0.138263
      vertex -0.116635 -0.109528 0.157288
    endloop
  endfacet
  facet normal 0.684583 0.728935 -0
    outer loop
      vertex -0.101988 -0.123282 0.121996
      vertex -0.105801 -0.119701 0.142377
      vertex -0.101988 -0.123282 0.141138
    endloop
  endfacet
  facet normal 0.684523 0.728992 -2.12846e-05
    outer loop
      vertex -0.105801 -0.119701 0.142377
      vertex -0.101988 -0.123282 0.121996
      vertex -0.116635 -0.109528 0.138263
    endloop
  endfacet
  facet normal 0.684554 0.728962 0
    outer loop
      vertex -0.101988 -0.123282 0.268256
      vertex -0.101988 -0.123282 0.2475
      vertex -0.113971 -0.112029 0.2475
    endloop
  endfacet
  facet normal 0.58777 0.809028 0
    outer loop
      vertex -0.0857323 -0.135092 0.135856
      vertex -0.101988 -0.123282 0.121996
      vertex -0.101988 -0.123282 0.141138
    endloop
  endfacet
  facet normal 0.587777 0.809023 -1.26964e-05
    outer loop
      vertex -0.0857323 -0.135092 0.135856
      vertex -0.0881678 -0.133323 0.106647
      vertex -0.101988 -0.123282 0.121996
    endloop
  endfacet
  facet normal 0.587678 0.809095 0
    outer loop
      vertex -0.0881678 -0.133323 0.106647
      vertex -0.0857323 -0.135092 0.135856
      vertex -0.0857323 -0.135092 0.105563
    endloop
  endfacet
  facet normal 0.58777 0.809028 -0
    outer loop
      vertex -0.0857323 -0.135092 0.2475
      vertex -0.101988 -0.123282 0.268256
      vertex -0.0857323 -0.135092 0.296411
    endloop
  endfacet
  facet normal 0.58777 0.809028 0
    outer loop
      vertex -0.101988 -0.123282 0.268256
      vertex -0.0857323 -0.135092 0.2475
      vertex -0.101988 -0.123282 0.2475
    endloop
  endfacet
  facet normal 0.368136 0.929772 0
    outer loop
      vertex -0.0494427 -0.152169 0.124065
      vertex -0.0681247 -0.144772 0.0977237
      vertex -0.0681247 -0.144772 0.130135
    endloop
  endfacet
  facet normal 0.368136 0.929772 0
    outer loop
      vertex -0.0681247 -0.144772 0.0977237
      vertex -0.0494427 -0.152169 0.124065
      vertex -0.0494427 -0.152169 0.0894059
    endloop
  endfacet
  facet normal 0.368136 0.929772 0
    outer loop
      vertex -0.0681247 -0.144772 0.2475
      vertex -0.0494427 -0.152169 0.270733
      vertex -0.0494427 -0.152169 0.2475
    endloop
  endfacet
  facet normal 0.368136 0.929772 0
    outer loop
      vertex -0.0494427 -0.152169 0.270733
      vertex -0.0681247 -0.144772 0.2475
      vertex -0.0681247 -0.144772 0.303092
    endloop
  endfacet
  facet normal 0.481759 0.876304 0
    outer loop
      vertex -0.0681247 -0.144772 0.130135
      vertex -0.0857323 -0.135092 0.105563
      vertex -0.0857323 -0.135092 0.135856
    endloop
  endfacet
  facet normal 0.481759 0.876304 0
    outer loop
      vertex -0.0857323 -0.135092 0.105563
      vertex -0.0681247 -0.144772 0.130135
      vertex -0.0681247 -0.144772 0.0977237
    endloop
  endfacet
  facet normal 0.481745 0.876311 4.72554e-05
    outer loop
      vertex -0.0681247 -0.144772 0.303092
      vertex -0.0857323 -0.135092 0.296411
      vertex -0.075 -0.140993 0.315
    endloop
  endfacet
  facet normal 0.481759 0.876304 -0
    outer loop
      vertex -0.0681247 -0.144772 0.2475
      vertex -0.0857323 -0.135092 0.296411
      vertex -0.0681247 -0.144772 0.303092
    endloop
  endfacet
  facet normal 0.481759 0.876304 0
    outer loop
      vertex -0.0857323 -0.135092 0.296411
      vertex -0.0681247 -0.144772 0.2475
      vertex -0.0857323 -0.135092 0.2475
    endloop
  endfacet
  facet normal 0 0 -1
    outer loop
      vertex 0.029981 0.157166 0.0812779
      vertex 0.0311868 0.159777 0.0812779
      vertex 0.0311868 0.156856 0.0812779
    endloop
  endfacet
  facet normal 0 0 -1
    outer loop
      vertex 0.0100465 0.159684 0.0812779
      vertex 0.0311868 0.159777 0.0812779
      vertex 0.029981 0.157166 0.0812779
    endloop
  endfacet
  facet normal 0 0 -1
    outer loop
      vertex -0.0100465 0.159684 0.0812779
      vertex 0.0311868 0.159777 0.0812779
      vertex 0.0100465 0.159684 0.0812779
    endloop
  endfacet
  facet normal 0 0 -1
    outer loop
      vertex -0.0100465 0.159684 0.0812779
      vertex -0.0311868 0.159777 0.0812779
      vertex 0.0311868 0.159777 0.0812779
    endloop
  endfacet
  facet normal 0 0 -1
    outer loop
      vertex -0.029981 0.157166 0.0812779
      vertex -0.0311868 0.159777 0.0812779
      vertex -0.0100465 0.159684 0.0812779
    endloop
  endfacet
  facet normal 0 0 -1
    outer loop
      vertex -0.0311868 0.159777 0.0812779
      vertex -0.029981 0.157166 0.0812779
      vertex -0.0311868 0.156856 0.0812779
    endloop
  endfacet
  facet normal 0 0 -1
    outer loop
      vertex 0.0311868 -0.159777 0.0812779
      vertex 0.029981 -0.157166 0.0812779
      vertex 0.0311868 -0.156856 0.0812779
    endloop
  endfacet
  facet normal 0 0 -1
    outer loop
      vertex 0.0311868 -0.159777 0.0812779
      vertex 0.0100465 -0.159684 0.0812779
      vertex 0.029981 -0.157166 0.0812779
    endloop
  endfacet
  facet normal 0 0 -1
    outer loop
      vertex 0.0311868 -0.159777 0.0812779
      vertex -0.0100465 -0.159684 0.0812779
      vertex 0.0100465 -0.159684 0.0812779
    endloop
  endfacet
  facet normal 0 0 -1
    outer loop
      vertex -0.0311868 -0.159777 0.0812779
      vertex -0.0100465 -0.159684 0.0812779
      vertex 0.0311868 -0.159777 0.0812779
    endloop
  endfacet
  facet normal 0 0 -1
    outer loop
      vertex -0.0311868 -0.159777 0.0812779
      vertex -0.029981 -0.157166 0.0812779
      vertex -0.0100465 -0.159684 0.0812779
    endloop
  endfacet
  facet normal -0 0 -1
    outer loop
      vertex -0.029981 -0.157166 0.0812779
      vertex -0.0311868 -0.159777 0.0812779
      vertex -0.0311868 -0.156856 0.0812779
    endloop
  endfacet
  facet normal -0.951057 0 -0.309016
    outer loop
      vertex -0.129904 0.0933191 0.153
      vertex -0.135915 0.0987479 0.1715
      vertex -0.129904 0.103115 0.153
    endloop
  endfacet
  facet normal -0.951057 -4.78153e-06 -0.309015
    outer loop
      vertex -0.140209 0.0770806 0.184716
      vertex -0.135915 0.0987479 0.1715
      vertex -0.129904 0.0933191 0.153
    endloop
  endfacet
  facet normal -0.951055 -9.96393e-06 -0.309023
    outer loop
      vertex -0.140209 0.0770806 0.184716
      vertex -0.143159 0.0764526 0.193795
      vertex -0.135915 0.0987479 0.1715
    endloop
  endfacet
  facet normal -0.951055 -0 -0.309022
    outer loop
      vertex -0.143159 0.0764526 0.193795
      vertex -0.140209 0.0770806 0.184716
      vertex -0.143159 0.0708116 0.193795
    endloop
  endfacet
  facet normal -0.951055 0 -0.309022
    outer loop
      vertex -0.140209 -0.0770806 0.184716
      vertex -0.143159 -0.0764526 0.193795
      vertex -0.143159 -0.0708116 0.193795
    endloop
  endfacet
  facet normal -0.951057 4.78153e-06 -0.309015
    outer loop
      vertex -0.135915 -0.0987479 0.1715
      vertex -0.140209 -0.0770806 0.184716
      vertex -0.129904 -0.0933191 0.153
    endloop
  endfacet
  facet normal -0.951055 9.96393e-06 -0.309023
    outer loop
      vertex -0.140209 -0.0770806 0.184716
      vertex -0.135915 -0.0987479 0.1715
      vertex -0.143159 -0.0764526 0.193795
    endloop
  endfacet
  facet normal -0.951057 0 -0.309016
    outer loop
      vertex -0.135915 -0.0987479 0.1715
      vertex -0.129904 -0.0933191 0.153
      vertex -0.129904 -0.103115 0.153
    endloop
  endfacet
  facet normal -0.743147 0 -0.669128
    outer loop
      vertex -0.101988 0.123282 0.121996
      vertex -0.0881678 0.133438 0.106647
      vertex -0.0881678 0.133323 0.106647
    endloop
  endfacet
  facet normal -0.743092 -0.000167641 -0.669189
    outer loop
      vertex -0.101988 0.123282 0.121996
      vertex -0.129904 0.103115 0.153
      vertex -0.0881678 0.133438 0.106647
    endloop
  endfacet
  facet normal -0.743161 4.54483e-05 -0.669113
    outer loop
      vertex -0.116635 0.109528 0.138263
      vertex -0.129904 0.103115 0.153
      vertex -0.101988 0.123282 0.121996
    endloop
  endfacet
  facet normal -0.743151 -1.57379e-07 -0.669124
    outer loop
      vertex -0.129443 0.0940456 0.152488
      vertex -0.129904 0.103115 0.153
      vertex -0.116635 0.109528 0.138263
    endloop
  endfacet
  facet normal -0.74315 -0 -0.669125
    outer loop
      vertex -0.129904 0.103115 0.153
      vertex -0.129443 0.0940456 0.152488
      vertex -0.129904 0.0933191 0.153
    endloop
  endfacet
  facet normal -0.74315 0 -0.669125
    outer loop
      vertex -0.129443 -0.0940456 0.152488
      vertex -0.129904 -0.103115 0.153
      vertex -0.129904 -0.0933191 0.153
    endloop
  endfacet
  facet normal -0.743151 1.57379e-07 -0.669124
    outer loop
      vertex -0.116635 -0.109528 0.138263
      vertex -0.129904 -0.103115 0.153
      vertex -0.129443 -0.0940456 0.152488
    endloop
  endfacet
  facet normal -0.743161 -4.54483e-05 -0.669113
    outer loop
      vertex -0.101988 -0.123282 0.121996
      vertex -0.129904 -0.103115 0.153
      vertex -0.116635 -0.109528 0.138263
    endloop
  endfacet
  facet normal -0.743147 0 -0.669128
    outer loop
      vertex -0.0881678 -0.133438 0.106647
      vertex -0.101988 -0.123282 0.121996
      vertex -0.0881678 -0.133323 0.106647
    endloop
  endfacet
  facet normal -0.743092 0.000167641 -0.669189
    outer loop
      vertex -0.101988 -0.123282 0.121996
      vertex -0.0881678 -0.133438 0.106647
      vertex -0.129904 -0.103115 0.153
    endloop
  endfacet
  facet normal -0.406735 0 -0.913546
    outer loop
      vertex -0.0494427 0.152169 0.0894059
      vertex -0.0311868 0.159777 0.0812779
      vertex -0.0311868 0.156856 0.0812779
    endloop
  endfacet
  facet normal -0.406737 6.02661e-06 -0.913545
    outer loop
      vertex -0.0494427 0.152169 0.0894059
      vertex -0.0519148 0.159777 0.0905066
      vertex -0.0311868 0.159777 0.0812779
    endloop
  endfacet
  facet normal -0.40674 4.80648e-06 -0.913544
    outer loop
      vertex -0.0681247 0.144772 0.0977237
      vertex -0.0519148 0.159777 0.0905066
      vertex -0.0494427 0.152169 0.0894059
    endloop
  endfacet
  facet normal -0.406726 -1.31203e-05 -0.91355
    outer loop
      vertex -0.0857323 0.135092 0.105563
      vertex -0.0519148 0.159777 0.0905066
      vertex -0.0681247 0.144772 0.0977237
    endloop
  endfacet
  facet normal -0.406626 -0 -0.913595
    outer loop
      vertex -0.0881678 0.133438 0.106647
      vertex -0.0857323 0.135092 0.105563
      vertex -0.0881678 0.133323 0.106647
    endloop
  endfacet
  facet normal -0.405176 -0.00255351 -0.914235
    outer loop
      vertex -0.0857323 0.135092 0.105563
      vertex -0.0881678 0.133438 0.106647
      vertex -0.0519148 0.159777 0.0905066
    endloop
  endfacet
  facet normal -0.406735 0 -0.913546
    outer loop
      vertex -0.0311868 -0.159777 0.0812779
      vertex -0.0494427 -0.152169 0.0894059
      vertex -0.0311868 -0.156856 0.0812779
    endloop
  endfacet
  facet normal -0.406737 -6.02661e-06 -0.913545
    outer loop
      vertex -0.0519148 -0.159777 0.0905066
      vertex -0.0494427 -0.152169 0.0894059
      vertex -0.0311868 -0.159777 0.0812779
    endloop
  endfacet
  facet normal -0.40674 -4.80648e-06 -0.913544
    outer loop
      vertex -0.0519148 -0.159777 0.0905066
      vertex -0.0681247 -0.144772 0.0977237
      vertex -0.0494427 -0.152169 0.0894059
    endloop
  endfacet
  facet normal -0.406726 1.31203e-05 -0.91355
    outer loop
      vertex -0.0519148 -0.159777 0.0905066
      vertex -0.0857323 -0.135092 0.105563
      vertex -0.0681247 -0.144772 0.0977237
    endloop
  endfacet
  facet normal -0.405176 0.00255351 -0.914235
    outer loop
      vertex -0.0881678 -0.133438 0.106647
      vertex -0.0857323 -0.135092 0.105563
      vertex -0.0519148 -0.159777 0.0905066
    endloop
  endfacet
  facet normal -0.406626 0 -0.913595
    outer loop
      vertex -0.0857323 -0.135092 0.105563
      vertex -0.0881678 -0.133438 0.106647
      vertex -0.0881678 -0.133323 0.106647
    endloop
  endfacet
  facet normal 0.951057 0 -0.309016
    outer loop
      vertex 0.135915 0.0987479 0.1715
      vertex 0.129904 0.0933191 0.153
      vertex 0.129904 0.103115 0.153
    endloop
  endfacet
  facet normal 0.951057 -4.78153e-06 -0.309015
    outer loop
      vertex 0.135915 0.0987479 0.1715
      vertex 0.140209 0.0770806 0.184716
      vertex 0.129904 0.0933191 0.153
    endloop
  endfacet
  facet normal 0.951055 -9.96393e-06 -0.309023
    outer loop
      vertex 0.143159 0.0764526 0.193795
      vertex 0.140209 0.0770806 0.184716
      vertex 0.135915 0.0987479 0.1715
    endloop
  endfacet
  facet normal 0.951055 0 -0.309022
    outer loop
      vertex 0.140209 0.0770806 0.184716
      vertex 0.143159 0.0764526 0.193795
      vertex 0.143159 0.0708116 0.193795
    endloop
  endfacet
  facet normal 0.951055 0 -0.309022
    outer loop
      vertex 0.143159 -0.0764526 0.193795
      vertex 0.140209 -0.0770806 0.184716
      vertex 0.143159 -0.0708116 0.193795
    endloop
  endfacet
  facet normal 0.951055 9.96393e-06 -0.309023
    outer loop
      vertex 0.135915 -0.0987479 0.1715
      vertex 0.140209 -0.0770806 0.184716
      vertex 0.143159 -0.0764526 0.193795
    endloop
  endfacet
  facet normal 0.951057 4.78153e-06 -0.309015
    outer loop
      vertex 0.140209 -0.0770806 0.184716
      vertex 0.135915 -0.0987479 0.1715
      vertex 0.129904 -0.0933191 0.153
    endloop
  endfacet
  facet normal 0.951057 0 -0.309016
    outer loop
      vertex 0.129904 -0.0933191 0.153
      vertex 0.135915 -0.0987479 0.1715
      vertex 0.129904 -0.103115 0.153
    endloop
  endfacet
  facet normal 0.743147 0 -0.669128
    outer loop
      vertex 0.0881678 0.133438 0.106647
      vertex 0.101988 0.123282 0.121996
      vertex 0.0881678 0.133323 0.106647
    endloop
  endfacet
  facet normal 0.743092 -0.000167641 -0.669189
    outer loop
      vertex 0.129904 0.103115 0.153
      vertex 0.101988 0.123282 0.121996
      vertex 0.0881678 0.133438 0.106647
    endloop
  endfacet
  facet normal 0.743161 4.54483e-05 -0.669113
    outer loop
      vertex 0.129904 0.103115 0.153
      vertex 0.116635 0.109528 0.138263
      vertex 0.101988 0.123282 0.121996
    endloop
  endfacet
  facet normal 0.743151 -1.57379e-07 -0.669124
    outer loop
      vertex 0.129904 0.103115 0.153
      vertex 0.129443 0.0940456 0.152488
      vertex 0.116635 0.109528 0.138263
    endloop
  endfacet
  facet normal 0.74315 0 -0.669125
    outer loop
      vertex 0.129443 0.0940456 0.152488
      vertex 0.129904 0.103115 0.153
      vertex 0.129904 0.0933191 0.153
    endloop
  endfacet
  facet normal 0.74315 0 -0.669125
    outer loop
      vertex 0.129904 -0.103115 0.153
      vertex 0.129443 -0.0940456 0.152488
      vertex 0.129904 -0.0933191 0.153
    endloop
  endfacet
  facet normal 0.743151 1.57379e-07 -0.669124
    outer loop
      vertex 0.129904 -0.103115 0.153
      vertex 0.116635 -0.109528 0.138263
      vertex 0.129443 -0.0940456 0.152488
    endloop
  endfacet
  facet normal 0.743161 -4.54483e-05 -0.669113
    outer loop
      vertex 0.129904 -0.103115 0.153
      vertex 0.101988 -0.123282 0.121996
      vertex 0.116635 -0.109528 0.138263
    endloop
  endfacet
  facet normal 0.743092 0.000167641 -0.669189
    outer loop
      vertex 0.0881678 -0.133438 0.106647
      vertex 0.101988 -0.123282 0.121996
      vertex 0.129904 -0.103115 0.153
    endloop
  endfacet
  facet normal 0.743147 0 -0.669128
    outer loop
      vertex 0.101988 -0.123282 0.121996
      vertex 0.0881678 -0.133438 0.106647
      vertex 0.0881678 -0.133323 0.106647
    endloop
  endfacet
  facet normal 0.406626 0 -0.913595
    outer loop
      vertex 0.0857323 0.135092 0.105563
      vertex 0.0881678 0.133438 0.106647
      vertex 0.0881678 0.133323 0.106647
    endloop
  endfacet
  facet normal 0.405176 -0.00255351 -0.914235
    outer loop
      vertex 0.0857323 0.135092 0.105563
      vertex 0.0519148 0.159777 0.0905066
      vertex 0.0881678 0.133438 0.106647
    endloop
  endfacet
  facet normal 0.406726 -1.31203e-05 -0.91355
    outer loop
      vertex 0.0681247 0.144772 0.0977237
      vertex 0.0519148 0.159777 0.0905066
      vertex 0.0857323 0.135092 0.105563
    endloop
  endfacet
  facet normal 0.40674 4.80648e-06 -0.913544
    outer loop
      vertex 0.0494427 0.152169 0.0894059
      vertex 0.0519148 0.159777 0.0905066
      vertex 0.0681247 0.144772 0.0977237
    endloop
  endfacet
  facet normal 0.406735 0 -0.913546
    outer loop
      vertex 0.0311868 0.159777 0.0812779
      vertex 0.0494427 0.152169 0.0894059
      vertex 0.0311868 0.156856 0.0812779
    endloop
  endfacet
  facet normal 0.406737 6.02661e-06 -0.913545
    outer loop
      vertex 0.0494427 0.152169 0.0894059
      vertex 0.0311868 0.159777 0.0812779
      vertex 0.0519148 0.159777 0.0905066
    endloop
  endfacet
  facet normal 0.406626 0 -0.913595
    outer loop
      vertex 0.0881678 -0.133438 0.106647
      vertex 0.0857323 -0.135092 0.105563
      vertex 0.0881678 -0.133323 0.106647
    endloop
  endfacet
  facet normal 0.405176 0.00255351 -0.914235
    outer loop
      vertex 0.0519148 -0.159777 0.0905066
      vertex 0.0857323 -0.135092 0.105563
      vertex 0.0881678 -0.133438 0.106647
    endloop
  endfacet
  facet normal 0.406726 1.31203e-05 -0.91355
    outer loop
      vertex 0.0519148 -0.159777 0.0905066
      vertex 0.0681247 -0.144772 0.0977237
      vertex 0.0857323 -0.135092 0.105563
    endloop
  endfacet
  facet normal 0.40674 -4.80648e-06 -0.913544
    outer loop
      vertex 0.0519148 -0.159777 0.0905066
      vertex 0.0494427 -0.152169 0.0894059
      vertex 0.0681247 -0.144772 0.0977237
    endloop
  endfacet
  facet normal 0.406737 -6.02661e-06 -0.913545
    outer loop
      vertex 0.0311868 -0.159777 0.0812779
      vertex 0.0494427 -0.152169 0.0894059
      vertex 0.0519148 -0.159777 0.0905066
    endloop
  endfacet
  facet normal 0.406735 0 -0.913546
    outer loop
      vertex 0.0494427 -0.152169 0.0894059
      vertex 0.0311868 -0.159777 0.0812779
      vertex 0.0311868 -0.156856 0.0812779
    endloop
  endfacet
  facet normal 0.308991 0 0.951065
    outer loop
      vertex 0 0.159777 0.108
      vertex -0.0100465 0.159684 0.111264
      vertex 0 0.159684 0.108
    endloop
  endfacet
  facet normal 0.309013 -0.00284736 0.951053
    outer loop
      vertex -0.0519148 0.159777 0.124868
      vertex -0.0100465 0.159684 0.111264
      vertex 0 0.159777 0.108
    endloop
  endfacet
  facet normal 0.30902 -7.05581e-05 0.951055
    outer loop
      vertex -0.0519148 0.159777 0.124868
      vertex -0.029981 0.157166 0.117741
      vertex -0.0100465 0.159684 0.111264
    endloop
  endfacet
  facet normal 0.309032 3.44766e-05 0.951052
    outer loop
      vertex -0.0519148 0.159777 0.124868
      vertex -0.0494427 0.152169 0.124065
      vertex -0.029981 0.157166 0.117741
    endloop
  endfacet
  facet normal 0.309002 2.37204e-05 0.951062
    outer loop
      vertex -0.0519148 0.159777 0.124868
      vertex -0.0681247 0.144772 0.130135
      vertex -0.0494427 0.152169 0.124065
    endloop
  endfacet
  facet normal 0.309004 2.11974e-05 0.951061
    outer loop
      vertex -0.0519148 0.159777 0.124868
      vertex -0.0857323 0.135092 0.135856
      vertex -0.0681247 0.144772 0.130135
    endloop
  endfacet
  facet normal 0.309929 -0.00138083 0.950759
    outer loop
      vertex -0.105801 0.120627 0.142377
      vertex -0.0857323 0.135092 0.135856
      vertex -0.0519148 0.159777 0.124868
    endloop
  endfacet
  facet normal 0.30921 -0.00027743 0.950994
    outer loop
      vertex -0.0857323 0.135092 0.135856
      vertex -0.105801 0.120627 0.142377
      vertex -0.101988 0.123282 0.141138
    endloop
  endfacet
  facet normal 0.309035 0 0.951051
    outer loop
      vertex -0.101988 0.123282 0.141138
      vertex -0.105801 0.120627 0.142377
      vertex -0.105801 0.119701 0.142377
    endloop
  endfacet
  facet normal 0.308991 0 0.951065
    outer loop
      vertex -0.0100465 -0.159684 0.111264
      vertex 0 -0.159777 0.108
      vertex 0 -0.159684 0.108
    endloop
  endfacet
  facet normal 0.309013 0.00284736 0.951053
    outer loop
      vertex -0.0100465 -0.159684 0.111264
      vertex -0.0519148 -0.159777 0.124868
      vertex 0 -0.159777 0.108
    endloop
  endfacet
  facet normal 0.30902 7.05581e-05 0.951055
    outer loop
      vertex -0.029981 -0.157166 0.117741
      vertex -0.0519148 -0.159777 0.124868
      vertex -0.0100465 -0.159684 0.111264
    endloop
  endfacet
  facet normal 0.309032 -3.44766e-05 0.951052
    outer loop
      vertex -0.0494427 -0.152169 0.124065
      vertex -0.0519148 -0.159777 0.124868
      vertex -0.029981 -0.157166 0.117741
    endloop
  endfacet
  facet normal 0.309002 -2.37204e-05 0.951062
    outer loop
      vertex -0.0681247 -0.144772 0.130135
      vertex -0.0519148 -0.159777 0.124868
      vertex -0.0494427 -0.152169 0.124065
    endloop
  endfacet
  facet normal 0.309004 -2.11974e-05 0.951061
    outer loop
      vertex -0.0857323 -0.135092 0.135856
      vertex -0.0519148 -0.159777 0.124868
      vertex -0.0681247 -0.144772 0.130135
    endloop
  endfacet
  facet normal 0.30921 0.00027743 0.950994
    outer loop
      vertex -0.105801 -0.120627 0.142377
      vertex -0.0857323 -0.135092 0.135856
      vertex -0.101988 -0.123282 0.141138
    endloop
  endfacet
  facet normal 0.309929 0.00138083 0.950759
    outer loop
      vertex -0.0857323 -0.135092 0.135856
      vertex -0.105801 -0.120627 0.142377
      vertex -0.0519148 -0.159777 0.124868
    endloop
  endfacet
  facet normal 0.309035 -0 0.951051
    outer loop
      vertex -0.105801 -0.120627 0.142377
      vertex -0.101988 -0.123282 0.141138
      vertex -0.105801 -0.119701 0.142377
    endloop
  endfacet
  facet normal 0.809003 0 0.587804
    outer loop
      vertex -0.105801 0.120627 0.142377
      vertex -0.116635 0.109528 0.157288
      vertex -0.105801 0.119701 0.142377
    endloop
  endfacet
  facet normal 0.809042 -0.000107504 0.587751
    outer loop
      vertex -0.135915 0.0987479 0.183825
      vertex -0.116635 0.109528 0.157288
      vertex -0.105801 0.120627 0.142377
    endloop
  endfacet
  facet normal 0.80902 4.4845e-06 0.587781
    outer loop
      vertex -0.135915 0.0987479 0.183825
      vertex -0.129443 0.0940456 0.174917
      vertex -0.116635 0.109528 0.157288
    endloop
  endfacet
  facet normal 0.809017 -5.24682e-06 0.587785
    outer loop
      vertex -0.135915 0.0987479 0.183825
      vertex -0.140209 0.0770806 0.189735
      vertex -0.129443 0.0940456 0.174917
    endloop
  endfacet
  facet normal 0.808994 8.25722e-06 0.587817
    outer loop
      vertex -0.143159 0.0764526 0.193795
      vertex -0.140209 0.0770806 0.189735
      vertex -0.135915 0.0987479 0.183825
    endloop
  endfacet
  facet normal 0.808995 0 0.587816
    outer loop
      vertex -0.140209 0.0770806 0.189735
      vertex -0.143159 0.0764526 0.193795
      vertex -0.143159 0.0708116 0.193795
    endloop
  endfacet
  facet normal 0.808995 -0 0.587816
    outer loop
      vertex -0.143159 -0.0764526 0.193795
      vertex -0.140209 -0.0770806 0.189735
      vertex -0.143159 -0.0708116 0.193795
    endloop
  endfacet
  facet normal 0.808994 -8.25722e-06 0.587817
    outer loop
      vertex -0.135915 -0.0987479 0.183825
      vertex -0.140209 -0.0770806 0.189735
      vertex -0.143159 -0.0764526 0.193795
    endloop
  endfacet
  facet normal 0.809017 5.24682e-06 0.587785
    outer loop
      vertex -0.140209 -0.0770806 0.189735
      vertex -0.135915 -0.0987479 0.183825
      vertex -0.129443 -0.0940456 0.174917
    endloop
  endfacet
  facet normal 0.80902 -4.4845e-06 0.587781
    outer loop
      vertex -0.135915 -0.0987479 0.183825
      vertex -0.116635 -0.109528 0.157288
      vertex -0.129443 -0.0940456 0.174917
    endloop
  endfacet
  facet normal 0.809042 0.000107504 0.587751
    outer loop
      vertex -0.105801 -0.120627 0.142377
      vertex -0.116635 -0.109528 0.157288
      vertex -0.135915 -0.0987479 0.183825
    endloop
  endfacet
  facet normal 0.809003 0 0.587804
    outer loop
      vertex -0.116635 -0.109528 0.157288
      vertex -0.105801 -0.120627 0.142377
      vertex -0.105801 -0.119701 0.142377
    endloop
  endfacet
  facet normal -0.309035 0 0.951051
    outer loop
      vertex 0.105801 0.120627 0.142377
      vertex 0.101988 0.123282 0.141138
      vertex 0.105801 0.119701 0.142377
    endloop
  endfacet
  facet normal -0.30921 -0.00027743 0.950994
    outer loop
      vertex 0.105801 0.120627 0.142377
      vertex 0.0857323 0.135092 0.135856
      vertex 0.101988 0.123282 0.141138
    endloop
  endfacet
  facet normal -0.309929 -0.00138083 0.950759
    outer loop
      vertex 0.0519148 0.159777 0.124868
      vertex 0.0857323 0.135092 0.135856
      vertex 0.105801 0.120627 0.142377
    endloop
  endfacet
  facet normal -0.309004 2.11974e-05 0.951061
    outer loop
      vertex 0.0519148 0.159777 0.124868
      vertex 0.0681247 0.144772 0.130135
      vertex 0.0857323 0.135092 0.135856
    endloop
  endfacet
  facet normal -0.309002 2.37204e-05 0.951062
    outer loop
      vertex 0.0519148 0.159777 0.124868
      vertex 0.0494427 0.152169 0.124065
      vertex 0.0681247 0.144772 0.130135
    endloop
  endfacet
  facet normal -0.309032 3.44766e-05 0.951052
    outer loop
      vertex 0.0519148 0.159777 0.124868
      vertex 0.029981 0.157166 0.117741
      vertex 0.0494427 0.152169 0.124065
    endloop
  endfacet
  facet normal -0.30902 -7.05581e-05 0.951055
    outer loop
      vertex 0.0519148 0.159777 0.124868
      vertex 0.0100465 0.159684 0.111264
      vertex 0.029981 0.157166 0.117741
    endloop
  endfacet
  facet normal -0.309013 -0.00284736 0.951053
    outer loop
      vertex 0 0.159777 0.108
      vertex 0.0100465 0.159684 0.111264
      vertex 0.0519148 0.159777 0.124868
    endloop
  endfacet
  facet normal -0.308991 0 0.951065
    outer loop
      vertex 0.0100465 0.159684 0.111264
      vertex 0 0.159777 0.108
      vertex 0 0.159684 0.108
    endloop
  endfacet
  facet normal -0.309035 0 0.951051
    outer loop
      vertex 0.101988 -0.123282 0.141138
      vertex 0.105801 -0.120627 0.142377
      vertex 0.105801 -0.119701 0.142377
    endloop
  endfacet
  facet normal -0.30921 0.00027743 0.950994
    outer loop
      vertex 0.0857323 -0.135092 0.135856
      vertex 0.105801 -0.120627 0.142377
      vertex 0.101988 -0.123282 0.141138
    endloop
  endfacet
  facet normal -0.309929 0.00138083 0.950759
    outer loop
      vertex 0.0857323 -0.135092 0.135856
      vertex 0.0519148 -0.159777 0.124868
      vertex 0.105801 -0.120627 0.142377
    endloop
  endfacet
  facet normal -0.309004 -2.11974e-05 0.951061
    outer loop
      vertex 0.0681247 -0.144772 0.130135
      vertex 0.0519148 -0.159777 0.124868
      vertex 0.0857323 -0.135092 0.135856
    endloop
  endfacet
  facet normal -0.309002 -2.37204e-05 0.951062
    outer loop
      vertex 0.0494427 -0.152169 0.124065
      vertex 0.0519148 -0.159777 0.124868
      vertex 0.0681247 -0.144772 0.130135
    endloop
  endfacet
  facet normal -0.309032 -3.44766e-05 0.951052
    outer loop
      vertex 0.029981 -0.157166 0.117741
      vertex 0.0519148 -0.159777 0.124868
      vertex 0.0494427 -0.152169 0.124065
    endloop
  endfacet
  facet normal -0.30902 7.05581e-05 0.951055
    outer loop
      vertex 0.0100465 -0.159684 0.111264
      vertex 0.0519148 -0.159777 0.124868
      vertex 0.029981 -0.157166 0.117741
    endloop
  endfacet
  facet normal -0.308991 0 0.951065
    outer loop
      vertex 0 -0.159777 0.108
      vertex 0.0100465 -0.159684 0.111264
      vertex 0 -0.159684 0.108
    endloop
  endfacet
  facet normal -0.309013 0.00284736 0.951053
    outer loop
      vertex 0.0100465 -0.159684 0.111264
      vertex 0 -0.159777 0.108
      vertex 0.0519148 -0.159777 0.124868
    endloop
  endfacet
  facet normal -0.809003 0 0.587804
    outer loop
      vertex 0.116635 0.109528 0.157288
      vertex 0.105801 0.120627 0.142377
      vertex 0.105801 0.119701 0.142377
    endloop
  endfacet
  facet normal -0.809042 -0.000107504 0.587751
    outer loop
      vertex 0.116635 0.109528 0.157288
      vertex 0.135915 0.0987479 0.183825
      vertex 0.105801 0.120627 0.142377
    endloop
  endfacet
  facet normal -0.80902 4.4845e-06 0.587781
    outer loop
      vertex 0.129443 0.0940456 0.174917
      vertex 0.135915 0.0987479 0.183825
      vertex 0.116635 0.109528 0.157288
    endloop
  endfacet
  facet normal -0.809017 -5.24682e-06 0.587785
    outer loop
      vertex 0.140209 0.0770806 0.189735
      vertex 0.135915 0.0987479 0.183825
      vertex 0.129443 0.0940456 0.174917
    endloop
  endfacet
  facet normal -0.808994 8.25722e-06 0.587817
    outer loop
      vertex 0.140209 0.0770806 0.189735
      vertex 0.143159 0.0764526 0.193795
      vertex 0.135915 0.0987479 0.183825
    endloop
  endfacet
  facet normal -0.808995 0 0.587816
    outer loop
      vertex 0.143159 0.0764526 0.193795
      vertex 0.140209 0.0770806 0.189735
      vertex 0.143159 0.0708116 0.193795
    endloop
  endfacet
  facet normal -0.808995 0 0.587816
    outer loop
      vertex 0.140209 -0.0770806 0.189735
      vertex 0.143159 -0.0764526 0.193795
      vertex 0.143159 -0.0708116 0.193795
    endloop
  endfacet
  facet normal -0.809017 5.24682e-06 0.587785
    outer loop
      vertex 0.135915 -0.0987479 0.183825
      vertex 0.140209 -0.0770806 0.189735
      vertex 0.129443 -0.0940456 0.174917
    endloop
  endfacet
  facet normal -0.808994 -8.25722e-06 0.587817
    outer loop
      vertex 0.140209 -0.0770806 0.189735
      vertex 0.135915 -0.0987479 0.183825
      vertex 0.143159 -0.0764526 0.193795
    endloop
  endfacet
  facet normal -0.80902 -4.4845e-06 0.587781
    outer loop
      vertex 0.116635 -0.109528 0.157288
      vertex 0.135915 -0.0987479 0.183825
      vertex 0.129443 -0.0940456 0.174917
    endloop
  endfacet
  facet normal -0.809003 0 0.587804
    outer loop
      vertex 0.105801 -0.120627 0.142377
      vertex 0.116635 -0.109528 0.157288
      vertex 0.105801 -0.119701 0.142377
    endloop
  endfacet
  facet normal -0.809042 0.000107504 0.587751
    outer loop
      vertex 0.116635 -0.109528 0.157288
      vertex 0.105801 -0.120627 0.142377
      vertex 0.135915 -0.0987479 0.183825
    endloop
  endfacet
  facet normal 0 0 -1
    outer loop
      vertex 0.101988 0.123282 0.2475
      vertex 0.113971 0.114691 0.2475
      vertex 0.113971 0.112029 0.2475
    endloop
  endfacet
  facet normal 0 0 -1
    outer loop
      vertex 0.0857323 0.135092 0.2475
      vertex 0.113971 0.114691 0.2475
      vertex 0.101988 0.123282 0.2475
    endloop
  endfacet
  facet normal 0 0 -1
    outer loop
      vertex 0.0857323 0.135092 0.2475
      vertex 0.0519148 0.159777 0.2475
      vertex 0.113971 0.114691 0.2475
    endloop
  endfacet
  facet normal 0 0 -1
    outer loop
      vertex 0.0681247 0.144772 0.2475
      vertex 0.0519148 0.159777 0.2475
      vertex 0.0857323 0.135092 0.2475
    endloop
  endfacet
  facet normal 0 0 -1
    outer loop
      vertex 0.0494427 0.152169 0.2475
      vertex 0.0519148 0.159777 0.2475
      vertex 0.0681247 0.144772 0.2475
    endloop
  endfacet
  facet normal 0 0 -1
    outer loop
      vertex 0.0360289 0.159777 0.2475
      vertex 0.0494427 0.152169 0.2475
      vertex 0.0360289 0.155613 0.2475
    endloop
  endfacet
  facet normal 0 0 -1
    outer loop
      vertex 0.0494427 0.152169 0.2475
      vertex 0.0360289 0.159777 0.2475
      vertex 0.0519148 0.159777 0.2475
    endloop
  endfacet
  facet normal -0 0 -1
    outer loop
      vertex 0.113971 -0.114691 0.2475
      vertex 0.101988 -0.123282 0.2475
      vertex 0.113971 -0.112029 0.2475
    endloop
  endfacet
  facet normal 0 0 -1
    outer loop
      vertex 0.113971 -0.114691 0.2475
      vertex 0.0857323 -0.135092 0.2475
      vertex 0.101988 -0.123282 0.2475
    endloop
  endfacet
  facet normal 0 0 -1
    outer loop
      vertex 0.0519148 -0.159777 0.2475
      vertex 0.0857323 -0.135092 0.2475
      vertex 0.113971 -0.114691 0.2475
    endloop
  endfacet
  facet normal 0 0 -1
    outer loop
      vertex 0.0519148 -0.159777 0.2475
      vertex 0.0681247 -0.144772 0.2475
      vertex 0.0857323 -0.135092 0.2475
    endloop
  endfacet
  facet normal 0 0 -1
    outer loop
      vertex 0.0519148 -0.159777 0.2475
      vertex 0.0494427 -0.152169 0.2475
      vertex 0.0681247 -0.144772 0.2475
    endloop
  endfacet
  facet normal 0 0 -1
    outer loop
      vertex 0.0360289 -0.159777 0.2475
      vertex 0.0494427 -0.152169 0.2475
      vertex 0.0519148 -0.159777 0.2475
    endloop
  endfacet
  facet normal 0 0 -1
    outer loop
      vertex 0.0494427 -0.152169 0.2475
      vertex 0.0360289 -0.159777 0.2475
      vertex 0.0360289 -0.155613 0.2475
    endloop
  endfacet
  facet normal -0.866022 0 0.500006
    outer loop
      vertex 0.0494427 0.152169 0.270733
      vertex 0.0360289 0.159777 0.2475
      vertex 0.0360289 0.155613 0.2475
    endloop
  endfacet
  facet normal -0.866024 -1.48615e-05 0.500003
    outer loop
      vertex 0.0360289 0.159777 0.2475
      vertex 0.0494427 0.152169 0.270733
      vertex 0.0519148 0.159777 0.275015
    endloop
  endfacet
  facet normal -0.866031 -5.11183e-06 0.49999
    outer loop
      vertex 0.0681247 0.144772 0.303092
      vertex 0.0519148 0.159777 0.275015
      vertex 0.0494427 0.152169 0.270733
    endloop
  endfacet
  facet normal -0.866014 6.91704e-05 0.500019
    outer loop
      vertex 0.0681247 0.144772 0.303092
      vertex 0.075 0.143005 0.315
      vertex 0.0519148 0.159777 0.275015
    endloop
  endfacet
  facet normal -0.866019 0 0.500012
    outer loop
      vertex 0.075 0.143005 0.315
      vertex 0.0681247 0.144772 0.303092
      vertex 0.075 0.140993 0.315
    endloop
  endfacet
  facet normal -0.866019 0 0.500012
    outer loop
      vertex 0.0681247 -0.144772 0.303092
      vertex 0.075 -0.143005 0.315
      vertex 0.075 -0.140993 0.315
    endloop
  endfacet
  facet normal -0.866031 5.11183e-06 0.49999
    outer loop
      vertex 0.0519148 -0.159777 0.275015
      vertex 0.0681247 -0.144772 0.303092
      vertex 0.0494427 -0.152169 0.270733
    endloop
  endfacet
  facet normal -0.866022 0 0.500006
    outer loop
      vertex 0.0360289 -0.159777 0.2475
      vertex 0.0494427 -0.152169 0.270733
      vertex 0.0360289 -0.155613 0.2475
    endloop
  endfacet
  facet normal -0.866024 1.48615e-05 0.500003
    outer loop
      vertex 0.0519148 -0.159777 0.275015
      vertex 0.0494427 -0.152169 0.270733
      vertex 0.0360289 -0.159777 0.2475
    endloop
  endfacet
  facet normal -0.866014 -6.91704e-05 0.500019
    outer loop
      vertex 0.0681247 -0.144772 0.303092
      vertex 0.0519148 -0.159777 0.275015
      vertex 0.075 -0.143005 0.315
    endloop
  endfacet
  facet normal 0.866034 0 0.499985
    outer loop
      vertex 0.101988 -0.123282 0.268256
      vertex 0.113971 -0.114691 0.2475
      vertex 0.113971 -0.112029 0.2475
    endloop
  endfacet
  facet normal 0.867067 -0.00585673 0.498157
    outer loop
      vertex 0.0857323 -0.135092 0.296411
      vertex 0.113971 -0.114691 0.2475
      vertex 0.101988 -0.123282 0.268256
    endloop
  endfacet
  facet normal 0.865993 0.000185335 0.500057
    outer loop
      vertex 0.0857323 -0.135092 0.296411
      vertex 0.075 -0.143005 0.315
      vertex 0.113971 -0.114691 0.2475
    endloop
  endfacet
  facet normal 0.866027 -0 0.499998
    outer loop
      vertex 0.075 -0.143005 0.315
      vertex 0.0857323 -0.135092 0.296411
      vertex 0.075 -0.140993 0.315
    endloop
  endfacet
  facet normal 0.866027 0 0.499998
    outer loop
      vertex 0.0857323 0.135092 0.296411
      vertex 0.075 0.143005 0.315
      vertex 0.075 0.140993 0.315
    endloop
  endfacet
  facet normal 0.865568 -0.0024737 0.500786
    outer loop
      vertex 0.101988 0.123282 0.268256
      vertex 0.075 0.143005 0.315
      vertex 0.0857323 0.135092 0.296411
    endloop
  endfacet
  facet normal 0.866618 0.00328904 0.498961
    outer loop
      vertex 0.101988 0.123282 0.268256
      vertex 0.113971 0.114691 0.2475
      vertex 0.075 0.143005 0.315
    endloop
  endfacet
  facet normal 0.866034 0 0.499985
    outer loop
      vertex 0.113971 0.114691 0.2475
      vertex 0.101988 0.123282 0.268256
      vertex 0.113971 0.112029 0.2475
    endloop
  endfacet
  facet normal 0 0 -1
    outer loop
      vertex -0.0494427 0.152169 0.2475
      vertex -0.0360289 0.159777 0.2475
      vertex -0.0360289 0.155613 0.2475
    endloop
  endfacet
  facet normal 0 0 -1
    outer loop
      vertex -0.0494427 0.152169 0.2475
      vertex -0.0519148 0.159777 0.2475
      vertex -0.0360289 0.159777 0.2475
    endloop
  endfacet
  facet normal 0 0 -1
    outer loop
      vertex -0.0681247 0.144772 0.2475
      vertex -0.0519148 0.159777 0.2475
      vertex -0.0494427 0.152169 0.2475
    endloop
  endfacet
  facet normal 0 0 -1
    outer loop
      vertex -0.0857323 0.135092 0.2475
      vertex -0.0519148 0.159777 0.2475
      vertex -0.0681247 0.144772 0.2475
    endloop
  endfacet
  facet normal 0 0 -1
    outer loop
      vertex -0.101988 0.123282 0.2475
      vertex -0.0519148 0.159777 0.2475
      vertex -0.0857323 0.135092 0.2475
    endloop
  endfacet
  facet normal -0 0 -1
    outer loop
      vertex -0.101988 0.123282 0.2475
      vertex -0.113971 0.114691 0.2475
      vertex -0.0519148 0.159777 0.2475
    endloop
  endfacet
  facet normal 0 0 -1
    outer loop
      vertex -0.113971 0.114691 0.2475
      vertex -0.101988 0.123282 0.2475
      vertex -0.113971 0.112029 0.2475
    endloop
  endfacet
  facet normal 0 0 -1
    outer loop
      vertex -0.0360289 -0.159777 0.2475
      vertex -0.0494427 -0.152169 0.2475
      vertex -0.0360289 -0.155613 0.2475
    endloop
  endfacet
  facet normal 0 0 -1
    outer loop
      vertex -0.0519148 -0.159777 0.2475
      vertex -0.0494427 -0.152169 0.2475
      vertex -0.0360289 -0.159777 0.2475
    endloop
  endfacet
  facet normal 0 0 -1
    outer loop
      vertex -0.0519148 -0.159777 0.2475
      vertex -0.0681247 -0.144772 0.2475
      vertex -0.0494427 -0.152169 0.2475
    endloop
  endfacet
  facet normal 0 0 -1
    outer loop
      vertex -0.0519148 -0.159777 0.2475
      vertex -0.0857323 -0.135092 0.2475
      vertex -0.0681247 -0.144772 0.2475
    endloop
  endfacet
  facet normal 0 0 -1
    outer loop
      vertex -0.0519148 -0.159777 0.2475
      vertex -0.101988 -0.123282 0.2475
      vertex -0.0857323 -0.135092 0.2475
    endloop
  endfacet
  facet normal 0 0 -1
    outer loop
      vertex -0.113971 -0.114691 0.2475
      vertex -0.101988 -0.123282 0.2475
      vertex -0.0519148 -0.159777 0.2475
    endloop
  endfacet
  facet normal 0 0 -1
    outer loop
      vertex -0.101988 -0.123282 0.2475
      vertex -0.113971 -0.114691 0.2475
      vertex -0.113971 -0.112029 0.2475
    endloop
  endfacet
  facet normal -0.866027 0 0.499998
    outer loop
      vertex -0.075 0.143005 0.315
      vertex -0.0857323 0.135092 0.296411
      vertex -0.075 0.140993 0.315
    endloop
  endfacet
  facet normal -0.865568 -0.0024737 0.500786
    outer loop
      vertex -0.075 0.143005 0.315
      vertex -0.101988 0.123282 0.268256
      vertex -0.0857323 0.135092 0.296411
    endloop
  endfacet
  facet normal -0.866618 0.00328904 0.498961
    outer loop
      vertex -0.113971 0.114691 0.2475
      vertex -0.101988 0.123282 0.268256
      vertex -0.075 0.143005 0.315
    endloop
  endfacet
  facet normal -0.866034 0 0.499985
    outer loop
      vertex -0.101988 0.123282 0.268256
      vertex -0.113971 0.114691 0.2475
      vertex -0.113971 0.112029 0.2475
    endloop
  endfacet
  facet normal -0.866034 0 0.499985
    outer loop
      vertex -0.113971 -0.114691 0.2475
      vertex -0.101988 -0.123282 0.268256
      vertex -0.113971 -0.112029 0.2475
    endloop
  endfacet
  facet normal -0.867067 -0.00585673 0.498157
    outer loop
      vertex -0.113971 -0.114691 0.2475
      vertex -0.0857323 -0.135092 0.296411
      vertex -0.101988 -0.123282 0.268256
    endloop
  endfacet
  facet normal -0.866027 0 0.499998
    outer loop
      vertex -0.0857323 -0.135092 0.296411
      vertex -0.075 -0.143005 0.315
      vertex -0.075 -0.140993 0.315
    endloop
  endfacet
  facet normal -0.865993 0.000185335 0.500057
    outer loop
      vertex -0.075 -0.143005 0.315
      vertex -0.0857323 -0.135092 0.296411
      vertex -0.113971 -0.114691 0.2475
    endloop
  endfacet
  facet normal 0.866024 -1.48615e-05 0.500003
    outer loop
      vertex -0.0494427 0.152169 0.270733
      vertex -0.0360289 0.159777 0.2475
      vertex -0.0519148 0.159777 0.275015
    endloop
  endfacet
  facet normal 0.866022 0 0.500006
    outer loop
      vertex -0.0360289 0.159777 0.2475
      vertex -0.0494427 0.152169 0.270733
      vertex -0.0360289 0.155613 0.2475
    endloop
  endfacet
  facet normal 0.866031 -5.11183e-06 0.49999
    outer loop
      vertex -0.0519148 0.159777 0.275015
      vertex -0.0681247 0.144772 0.303092
      vertex -0.0494427 0.152169 0.270733
    endloop
  endfacet
  facet normal 0.866014 6.91704e-05 0.500019
    outer loop
      vertex -0.075 0.143005 0.315
      vertex -0.0681247 0.144772 0.303092
      vertex -0.0519148 0.159777 0.275015
    endloop
  endfacet
  facet normal 0.866019 0 0.500012
    outer loop
      vertex -0.0681247 0.144772 0.303092
      vertex -0.075 0.143005 0.315
      vertex -0.075 0.140993 0.315
    endloop
  endfacet
  facet normal 0.866019 -0 0.500012
    outer loop
      vertex -0.075 -0.143005 0.315
      vertex -0.0681247 -0.144772 0.303092
      vertex -0.075 -0.140993 0.315
    endloop
  endfacet
  facet normal 0.866014 -6.91704e-05 0.500019
    outer loop
      vertex -0.0519148 -0.159777 0.275015
      vertex -0.0681247 -0.144772 0.303092
      vertex -0.075 -0.143005 0.315
    endloop
  endfacet
  facet normal 0.866031 5.11183e-06 0.49999
    outer loop
      vertex -0.0681247 -0.144772 0.303092
      vertex -0.0519148 -0.159777 0.275015
      vertex -0.0494427 -0.152169 0.270733
    endloop
  endfacet
  facet normal 0.866024 1.48615e-05 0.500003
    outer loop
      vertex -0.0360289 -0.159777 0.2475
      vertex -0.0494427 -0.152169 0.270733
      vertex -0.0519148 -0.159777 0.275015
    endloop
  endfacet
  facet normal 0.866022 0 0.500006
    outer loop
      vertex -0.0494427 -0.152169 0.270733
      vertex -0.0360289 -0.159777 0.2475
      vertex -0.0360289 -0.155613 0.2475
    endloop
  endfacet
  facet normal 0 0 -1
    outer loop
      vertex 0.0100465 0.159684 0.177
      vertex 0.0259808 0.159777 0.177
      vertex 0.0259808 0.157671 0.177
    endloop
  endfacet
  facet normal 0 0 -1
    outer loop
      vertex -0.0100465 0.159684 0.177
      vertex 0.0259808 0.159777 0.177
      vertex 0.0100465 0.159684 0.177
    endloop
  endfacet
  facet normal 0 0 -1
    outer loop
      vertex -0.0100465 0.159684 0.177
      vertex -0.0259808 0.159777 0.177
      vertex 0.0259808 0.159777 0.177
    endloop
  endfacet
  facet normal 0 0 -1
    outer loop
      vertex -0.0259808 0.159777 0.177
      vertex -0.0100465 0.159684 0.177
      vertex -0.0259808 0.157671 0.177
    endloop
  endfacet
  facet normal 0 0 -1
    outer loop
      vertex 0.0259808 -0.159777 0.177
      vertex 0.0100465 -0.159684 0.177
      vertex 0.0259808 -0.157671 0.177
    endloop
  endfacet
  facet normal 0 0 -1
    outer loop
      vertex 0.0259808 -0.159777 0.177
      vertex -0.0100465 -0.159684 0.177
      vertex 0.0100465 -0.159684 0.177
    endloop
  endfacet
  facet normal 0 0 -1
    outer loop
      vertex -0.0259808 -0.159777 0.177
      vertex -0.0100465 -0.159684 0.177
      vertex 0.0259808 -0.159777 0.177
    endloop
  endfacet
  facet normal -0 0 -1
    outer loop
      vertex -0.0100465 -0.159684 0.177
      vertex -0.0259808 -0.159777 0.177
      vertex -0.0259808 -0.157671 0.177
    endloop
  endfacet
  facet normal -0.866025 0.000123996 0.500001
    outer loop
      vertex -0.0259808 0.159777 0.177
      vertex -0.0100465 0.159684 0.204599
      vertex 0 0.159777 0.222
    endloop
  endfacet
  facet normal -0.866025 0 0.5
    outer loop
      vertex -0.0100465 0.159684 0.204599
      vertex -0.0259808 0.159777 0.177
      vertex -0.0259808 0.157671 0.177
    endloop
  endfacet
  facet normal -0.866025 0 0.500001
    outer loop
      vertex 0 0.159777 0.222
      vertex -0.0100465 0.159684 0.204599
      vertex 0 0.159684 0.222
    endloop
  endfacet
  facet normal -0.866025 0 0.5
    outer loop
      vertex -0.0259808 -0.159777 0.177
      vertex -0.0100465 -0.159684 0.204599
      vertex -0.0259808 -0.157671 0.177
    endloop
  endfacet
  facet normal -0.866025 -0.000123996 0.500001
    outer loop
      vertex 0 -0.159777 0.222
      vertex -0.0100465 -0.159684 0.204599
      vertex -0.0259808 -0.159777 0.177
    endloop
  endfacet
  facet normal -0.866025 0 0.500001
    outer loop
      vertex -0.0100465 -0.159684 0.204599
      vertex 0 -0.159777 0.222
      vertex 0 -0.159684 0.222
    endloop
  endfacet
  facet normal 0.866025 0 0.500001
    outer loop
      vertex 0.0100465 0.159684 0.204599
      vertex 0 0.159777 0.222
      vertex 0 0.159684 0.222
    endloop
  endfacet
  facet normal 0.866025 0.000123996 0.500001
    outer loop
      vertex 0 0.159777 0.222
      vertex 0.0100465 0.159684 0.204599
      vertex 0.0259808 0.159777 0.177
    endloop
  endfacet
  facet normal 0.866025 0 0.5
    outer loop
      vertex 0.0259808 0.159777 0.177
      vertex 0.0100465 0.159684 0.204599
      vertex 0.0259808 0.157671 0.177
    endloop
  endfacet
  facet normal 0.866025 0 0.500001
    outer loop
      vertex 0 -0.159684 0.222
      vertex 0 -0.159777 0.222
      vertex 0.0100465 -0.159684 0.204599
    endloop
  endfacet
  facet normal 0.866025 0 0.5
    outer loop
      vertex 0.0100465 -0.159684 0.204599
      vertex 0.0259808 -0.159777 0.177
      vertex 0.0259808 -0.157671 0.177
    endloop
  endfacet
  facet normal 0.866025 -0.000123996 0.500001
    outer loop
      vertex 0.0259808 -0.159777 0.177
      vertex 0.0100465 -0.159684 0.204599
      vertex 0 -0.159777 0.222
    endloop
  endfacet
endsolid OpenSCAD_Model
