solid OpenSCAD_Model
  facet normal 0.998025 0.062813 0
    outer loop
      vertex 0.152 0 0.32
      vertex 0.150801 0.0190507 0
      vertex 0.150801 0.0190507 0.32
    endloop
  endfacet
  facet normal 0.998025 0.062813 0
    outer loop
      vertex 0.150801 0.0190507 0
      vertex 0.152 0 0.32
      vertex 0.152 0 0
    endloop
  endfacet
  facet normal 0.982295 0.187341 0
    outer loop
      vertex 0.150801 0.0190507 0.32
      vertex 0.147225 0.0378009 0
      vertex 0.147225 0.0378009 0.32
    endloop
  endfacet
  facet normal 0.982295 0.187341 0
    outer loop
      vertex 0.147225 0.0378009 0
      vertex 0.150801 0.0190507 0.32
      vertex 0.150801 0.0190507 0
    endloop
  endfacet
  facet normal 0.95105 0.309036 0
    outer loop
      vertex 0.147225 0.0378009 0.32
      vertex 0.141326 0.0559549 0
      vertex 0.141326 0.0559549 0.32
    endloop
  endfacet
  facet normal 0.95105 0.309036 0
    outer loop
      vertex 0.141326 0.0559549 0
      vertex 0.147225 0.0378009 0.32
      vertex 0.147225 0.0378009 0
    endloop
  endfacet
  facet normal 0.904836 0.42576 0
    outer loop
      vertex 0.141326 0.0559549 0.32
      vertex 0.133199 0.0732266 0
      vertex 0.133199 0.0732266 0.32
    endloop
  endfacet
  facet normal 0.904836 0.42576 0
    outer loop
      vertex 0.133199 0.0732266 0
      vertex 0.141326 0.0559549 0.32
      vertex 0.141326 0.0559549 0
    endloop
  endfacet
  facet normal 0.844329 0.535826 0
    outer loop
      vertex 0.133199 0.0732266 0.32
      vertex 0.122971 0.0893434 0
      vertex 0.122971 0.0893434 0.32
    endloop
  endfacet
  facet normal 0.844329 0.535826 0
    outer loop
      vertex 0.122971 0.0893434 0
      vertex 0.133199 0.0732266 0.32
      vertex 0.133199 0.0732266 0
    endloop
  endfacet
  facet normal 0.770492 0.637449 0
    outer loop
      vertex 0.122971 0.0893434 0.32
      vertex 0.110803 0.104051 0
      vertex 0.110803 0.104051 0.32
    endloop
  endfacet
  facet normal 0.770492 0.637449 0
    outer loop
      vertex 0.110803 0.104051 0
      vertex 0.122971 0.0893434 0.32
      vertex 0.122971 0.0893434 0
    endloop
  endfacet
  facet normal 0.684556 0.72896 -0
    outer loop
      vertex 0.110803 0.104051 0
      vertex 0.0968884 0.117118 0.32
      vertex 0.110803 0.104051 0.32
    endloop
  endfacet
  facet normal 0.684556 0.72896 0
    outer loop
      vertex 0.0968884 0.117118 0.32
      vertex 0.110803 0.104051 0
      vertex 0.0968884 0.117118 0
    endloop
  endfacet
  facet normal 0.587793 0.809011 -0
    outer loop
      vertex 0.0968884 0.117118 0
      vertex 0.0814457 0.128338 0.32
      vertex 0.0968884 0.117118 0.32
    endloop
  endfacet
  facet normal 0.587793 0.809011 0
    outer loop
      vertex 0.0814457 0.128338 0.32
      vertex 0.0968884 0.117118 0
      vertex 0.0814457 0.128338 0
    endloop
  endfacet
  facet normal 0.481759 0.876303 -0
    outer loop
      vertex 0.0814457 0.128338 0
      vertex 0.0647185 0.137534 0.32
      vertex 0.0814457 0.128338 0.32
    endloop
  endfacet
  facet normal 0.481759 0.876303 0
    outer loop
      vertex 0.0647185 0.137534 0.32
      vertex 0.0814457 0.128338 0
      vertex 0.0647185 0.137534 0
    endloop
  endfacet
  facet normal 0.36813 0.929775 -0
    outer loop
      vertex 0.0647185 0.137534 0
      vertex 0.0469706 0.144561 0.32
      vertex 0.0647185 0.137534 0.32
    endloop
  endfacet
  facet normal 0.36813 0.929775 0
    outer loop
      vertex 0.0469706 0.144561 0.32
      vertex 0.0647185 0.137534 0
      vertex 0.0469706 0.144561 0
    endloop
  endfacet
  facet normal 0.248687 0.968584 -0
    outer loop
      vertex 0.0469706 0.144561 0
      vertex 0.028482 0.149308 0.32
      vertex 0.0469706 0.144561 0.32
    endloop
  endfacet
  facet normal 0.248687 0.968584 0
    outer loop
      vertex 0.028482 0.149308 0.32
      vertex 0.0469706 0.144561 0
      vertex 0.028482 0.149308 0
    endloop
  endfacet
  facet normal 0.125312 0.992117 -0
    outer loop
      vertex 0.028482 0.149308 0
      vertex 0.00954416 0.1517 0.32
      vertex 0.028482 0.149308 0.32
    endloop
  endfacet
  facet normal 0.125312 0.992117 0
    outer loop
      vertex 0.00954416 0.1517 0.32
      vertex 0.028482 0.149308 0
      vertex 0.00954416 0.1517 0
    endloop
  endfacet
  facet normal 0 1 -0
    outer loop
      vertex 0.00954416 0.1517 0
      vertex -0.00954416 0.1517 0.32
      vertex 0.00954416 0.1517 0.32
    endloop
  endfacet
  facet normal 0 1 0
    outer loop
      vertex -0.00954416 0.1517 0.32
      vertex 0.00954416 0.1517 0
      vertex -0.00954416 0.1517 0
    endloop
  endfacet
  facet normal -0.125312 0.992117 0
    outer loop
      vertex -0.00954416 0.1517 0
      vertex -0.028482 0.149308 0.32
      vertex -0.00954416 0.1517 0.32
    endloop
  endfacet
  facet normal -0.125312 0.992117 0
    outer loop
      vertex -0.028482 0.149308 0.32
      vertex -0.00954416 0.1517 0
      vertex -0.028482 0.149308 0
    endloop
  endfacet
  facet normal -0.248687 0.968584 0
    outer loop
      vertex -0.028482 0.149308 0
      vertex -0.0469706 0.144561 0.32
      vertex -0.028482 0.149308 0.32
    endloop
  endfacet
  facet normal -0.248687 0.968584 0
    outer loop
      vertex -0.0469706 0.144561 0.32
      vertex -0.028482 0.149308 0
      vertex -0.0469706 0.144561 0
    endloop
  endfacet
  facet normal -0.36813 0.929775 0
    outer loop
      vertex -0.0469706 0.144561 0
      vertex -0.0647185 0.137534 0.32
      vertex -0.0469706 0.144561 0.32
    endloop
  endfacet
  facet normal -0.36813 0.929775 0
    outer loop
      vertex -0.0647185 0.137534 0.32
      vertex -0.0469706 0.144561 0
      vertex -0.0647185 0.137534 0
    endloop
  endfacet
  facet normal -0.481759 0.876303 0
    outer loop
      vertex -0.0647185 0.137534 0
      vertex -0.0814457 0.128338 0.32
      vertex -0.0647185 0.137534 0.32
    endloop
  endfacet
  facet normal -0.481759 0.876303 0
    outer loop
      vertex -0.0814457 0.128338 0.32
      vertex -0.0647185 0.137534 0
      vertex -0.0814457 0.128338 0
    endloop
  endfacet
  facet normal -0.587793 0.809011 0
    outer loop
      vertex -0.0814457 0.128338 0
      vertex -0.0968884 0.117118 0.32
      vertex -0.0814457 0.128338 0.32
    endloop
  endfacet
  facet normal -0.587793 0.809011 0
    outer loop
      vertex -0.0968884 0.117118 0.32
      vertex -0.0814457 0.128338 0
      vertex -0.0968884 0.117118 0
    endloop
  endfacet
  facet normal -0.684556 0.72896 0
    outer loop
      vertex -0.0968884 0.117118 0
      vertex -0.110803 0.104051 0.32
      vertex -0.0968884 0.117118 0.32
    endloop
  endfacet
  facet normal -0.684556 0.72896 0
    outer loop
      vertex -0.110803 0.104051 0.32
      vertex -0.0968884 0.117118 0
      vertex -0.110803 0.104051 0
    endloop
  endfacet
  facet normal -0.770492 0.637449 0
    outer loop
      vertex -0.122971 0.0893434 0
      vertex -0.110803 0.104051 0.32
      vertex -0.110803 0.104051 0
    endloop
  endfacet
  facet normal -0.770492 0.637449 0
    outer loop
      vertex -0.110803 0.104051 0.32
      vertex -0.122971 0.0893434 0
      vertex -0.122971 0.0893434 0.32
    endloop
  endfacet
  facet normal -0.844329 0.535826 0
    outer loop
      vertex -0.133199 0.0732266 0
      vertex -0.122971 0.0893434 0.32
      vertex -0.122971 0.0893434 0
    endloop
  endfacet
  facet normal -0.844329 0.535826 0
    outer loop
      vertex -0.122971 0.0893434 0.32
      vertex -0.133199 0.0732266 0
      vertex -0.133199 0.0732266 0.32
    endloop
  endfacet
  facet normal -0.904836 0.42576 0
    outer loop
      vertex -0.141326 0.0559549 0
      vertex -0.133199 0.0732266 0.32
      vertex -0.133199 0.0732266 0
    endloop
  endfacet
  facet normal -0.904836 0.42576 0
    outer loop
      vertex -0.133199 0.0732266 0.32
      vertex -0.141326 0.0559549 0
      vertex -0.141326 0.0559549 0.32
    endloop
  endfacet
  facet normal -0.95105 0.309036 0
    outer loop
      vertex -0.147225 0.0378009 0
      vertex -0.141326 0.0559549 0.32
      vertex -0.141326 0.0559549 0
    endloop
  endfacet
  facet normal -0.95105 0.309036 0
    outer loop
      vertex -0.141326 0.0559549 0.32
      vertex -0.147225 0.0378009 0
      vertex -0.147225 0.0378009 0.32
    endloop
  endfacet
  facet normal -0.982295 0.187341 0
    outer loop
      vertex -0.150801 0.0190507 0
      vertex -0.147225 0.0378009 0.32
      vertex -0.147225 0.0378009 0
    endloop
  endfacet
  facet normal -0.982295 0.187341 0
    outer loop
      vertex -0.147225 0.0378009 0.32
      vertex -0.150801 0.0190507 0
      vertex -0.150801 0.0190507 0.32
    endloop
  endfacet
  facet normal -0.998025 0.062813 0
    outer loop
      vertex -0.152 0 0
      vertex -0.150801 0.0190507 0.32
      vertex -0.150801 0.0190507 0
    endloop
  endfacet
  facet normal -0.998025 0.062813 0
    outer loop
      vertex -0.150801 0.0190507 0.32
      vertex -0.152 0 0
      vertex -0.152 0 0.32
    endloop
  endfacet
  facet normal -0.998025 -0.062813 0
    outer loop
      vertex -0.150801 -0.0190507 0
      vertex -0.152 0 0.32
      vertex -0.152 0 0
    endloop
  endfacet
  facet normal -0.998025 -0.062813 0
    outer loop
      vertex -0.152 0 0.32
      vertex -0.150801 -0.0190507 0
      vertex -0.150801 -0.0190507 0.32
    endloop
  endfacet
  facet normal -0.982295 -0.187341 0
    outer loop
      vertex -0.147225 -0.0378009 0
      vertex -0.150801 -0.0190507 0.32
      vertex -0.150801 -0.0190507 0
    endloop
  endfacet
  facet normal -0.982295 -0.187341 0
    outer loop
      vertex -0.150801 -0.0190507 0.32
      vertex -0.147225 -0.0378009 0
      vertex -0.147225 -0.0378009 0.32
    endloop
  endfacet
  facet normal -0.95105 -0.309036 0
    outer loop
      vertex -0.141326 -0.0559549 0
      vertex -0.147225 -0.0378009 0.32
      vertex -0.147225 -0.0378009 0
    endloop
  endfacet
  facet normal -0.95105 -0.309036 0
    outer loop
      vertex -0.147225 -0.0378009 0.32
      vertex -0.141326 -0.0559549 0
      vertex -0.141326 -0.0559549 0.32
    endloop
  endfacet
  facet normal -0.904836 -0.42576 0
    outer loop
      vertex -0.133199 -0.0732266 0
      vertex -0.141326 -0.0559549 0.32
      vertex -0.141326 -0.0559549 0
    endloop
  endfacet
  facet normal -0.904836 -0.42576 0
    outer loop
      vertex -0.141326 -0.0559549 0.32
      vertex -0.133199 -0.0732266 0
      vertex -0.133199 -0.0732266 0.32
    endloop
  endfacet
  facet normal -0.844329 -0.535826 0
    outer loop
      vertex -0.122971 -0.0893434 0
      vertex -0.133199 -0.0732266 0.32
      vertex -0.133199 -0.0732266 0
    endloop
  endfacet
  facet normal -0.844329 -0.535826 0
    outer loop
      vertex -0.133199 -0.0732266 0.32
      vertex -0.122971 -0.0893434 0
      vertex -0.122971 -0.0893434 0.32
    endloop
  endfacet
  facet normal -0.770492 -0.637449 0
    outer loop
      vertex -0.110803 -0.104051 0
      vertex -0.122971 -0.0893434 0.32
      vertex -0.122971 -0.0893434 0
    endloop
  endfacet
  facet normal -0.770492 -0.637449 0
    outer loop
      vertex -0.122971 -0.0893434 0.32
      vertex -0.110803 -0.104051 0
      vertex -0.110803 -0.104051 0.32
    endloop
  endfacet
  facet normal -0.684556 -0.72896 0
    outer loop
      vertex -0.110803 -0.104051 0
      vertex -0.0968884 -0.117118 0.32
      vertex -0.110803 -0.104051 0.32
    endloop
  endfacet
  facet normal -0.684556 -0.72896 -0
    outer loop
      vertex -0.0968884 -0.117118 0.32
      vertex -0.110803 -0.104051 0
      vertex -0.0968884 -0.117118 0
    endloop
  endfacet
  facet normal -0.587793 -0.809011 0
    outer loop
      vertex -0.0968884 -0.117118 0
      vertex -0.0814457 -0.128338 0.32
      vertex -0.0968884 -0.117118 0.32
    endloop
  endfacet
  facet normal -0.587793 -0.809011 -0
    outer loop
      vertex -0.0814457 -0.128338 0.32
      vertex -0.0968884 -0.117118 0
      vertex -0.0814457 -0.128338 0
    endloop
  endfacet
  facet normal -0.481759 -0.876303 0
    outer loop
      vertex -0.0814457 -0.128338 0
      vertex -0.0647185 -0.137534 0.32
      vertex -0.0814457 -0.128338 0.32
    endloop
  endfacet
  facet normal -0.481759 -0.876303 -0
    outer loop
      vertex -0.0647185 -0.137534 0.32
      vertex -0.0814457 -0.128338 0
      vertex -0.0647185 -0.137534 0
    endloop
  endfacet
  facet normal -0.36813 -0.929775 0
    outer loop
      vertex -0.0647185 -0.137534 0
      vertex -0.0469706 -0.144561 0.32
      vertex -0.0647185 -0.137534 0.32
    endloop
  endfacet
  facet normal -0.36813 -0.929775 -0
    outer loop
      vertex -0.0469706 -0.144561 0.32
      vertex -0.0647185 -0.137534 0
      vertex -0.0469706 -0.144561 0
    endloop
  endfacet
  facet normal -0.248687 -0.968584 0
    outer loop
      vertex -0.0469706 -0.144561 0
      vertex -0.028482 -0.149308 0.32
      vertex -0.0469706 -0.144561 0.32
    endloop
  endfacet
  facet normal -0.248687 -0.968584 -0
    outer loop
      vertex -0.028482 -0.149308 0.32
      vertex -0.0469706 -0.144561 0
      vertex -0.028482 -0.149308 0
    endloop
  endfacet
  facet normal -0.125312 -0.992117 0
    outer loop
      vertex -0.028482 -0.149308 0
      vertex -0.00954416 -0.1517 0.32
      vertex -0.028482 -0.149308 0.32
    endloop
  endfacet
  facet normal -0.125312 -0.992117 -0
    outer loop
      vertex -0.00954416 -0.1517 0.32
      vertex -0.028482 -0.149308 0
      vertex -0.00954416 -0.1517 0
    endloop
  endfacet
  facet normal 0 -1 0
    outer loop
      vertex -0.00954416 -0.1517 0
      vertex 0.00954416 -0.1517 0.32
      vertex -0.00954416 -0.1517 0.32
    endloop
  endfacet
  facet normal 0 -1 -0
    outer loop
      vertex 0.00954416 -0.1517 0.32
      vertex -0.00954416 -0.1517 0
      vertex 0.00954416 -0.1517 0
    endloop
  endfacet
  facet normal 0.125312 -0.992117 0
    outer loop
      vertex 0.00954416 -0.1517 0
      vertex 0.028482 -0.149308 0.32
      vertex 0.00954416 -0.1517 0.32
    endloop
  endfacet
  facet normal 0.125312 -0.992117 0
    outer loop
      vertex 0.028482 -0.149308 0.32
      vertex 0.00954416 -0.1517 0
      vertex 0.028482 -0.149308 0
    endloop
  endfacet
  facet normal 0.248687 -0.968584 0
    outer loop
      vertex 0.028482 -0.149308 0
      vertex 0.0469706 -0.144561 0.32
      vertex 0.028482 -0.149308 0.32
    endloop
  endfacet
  facet normal 0.248687 -0.968584 0
    outer loop
      vertex 0.0469706 -0.144561 0.32
      vertex 0.028482 -0.149308 0
      vertex 0.0469706 -0.144561 0
    endloop
  endfacet
  facet normal 0.36813 -0.929775 0
    outer loop
      vertex 0.0469706 -0.144561 0
      vertex 0.0647185 -0.137534 0.32
      vertex 0.0469706 -0.144561 0.32
    endloop
  endfacet
  facet normal 0.36813 -0.929775 0
    outer loop
      vertex 0.0647185 -0.137534 0.32
      vertex 0.0469706 -0.144561 0
      vertex 0.0647185 -0.137534 0
    endloop
  endfacet
  facet normal 0.481759 -0.876303 0
    outer loop
      vertex 0.0647185 -0.137534 0
      vertex 0.0814457 -0.128338 0.32
      vertex 0.0647185 -0.137534 0.32
    endloop
  endfacet
  facet normal 0.481759 -0.876303 0
    outer loop
      vertex 0.0814457 -0.128338 0.32
      vertex 0.0647185 -0.137534 0
      vertex 0.0814457 -0.128338 0
    endloop
  endfacet
  facet normal 0.587793 -0.809011 0
    outer loop
      vertex 0.0814457 -0.128338 0
      vertex 0.0968884 -0.117118 0.32
      vertex 0.0814457 -0.128338 0.32
    endloop
  endfacet
  facet normal 0.587793 -0.809011 0
    outer loop
      vertex 0.0968884 -0.117118 0.32
      vertex 0.0814457 -0.128338 0
      vertex 0.0968884 -0.117118 0
    endloop
  endfacet
  facet normal 0.684556 -0.72896 0
    outer loop
      vertex 0.0968884 -0.117118 0
      vertex 0.110803 -0.104051 0.32
      vertex 0.0968884 -0.117118 0.32
    endloop
  endfacet
  facet normal 0.684556 -0.72896 0
    outer loop
      vertex 0.110803 -0.104051 0.32
      vertex 0.0968884 -0.117118 0
      vertex 0.110803 -0.104051 0
    endloop
  endfacet
  facet normal 0.770492 -0.637449 0
    outer loop
      vertex 0.110803 -0.104051 0.32
      vertex 0.122971 -0.0893434 0
      vertex 0.122971 -0.0893434 0.32
    endloop
  endfacet
  facet normal 0.770492 -0.637449 0
    outer loop
      vertex 0.122971 -0.0893434 0
      vertex 0.110803 -0.104051 0.32
      vertex 0.110803 -0.104051 0
    endloop
  endfacet
  facet normal 0.844329 -0.535826 0
    outer loop
      vertex 0.122971 -0.0893434 0.32
      vertex 0.133199 -0.0732266 0
      vertex 0.133199 -0.0732266 0.32
    endloop
  endfacet
  facet normal 0.844329 -0.535826 0
    outer loop
      vertex 0.133199 -0.0732266 0
      vertex 0.122971 -0.0893434 0.32
      vertex 0.122971 -0.0893434 0
    endloop
  endfacet
  facet normal 0.904836 -0.42576 0
    outer loop
      vertex 0.133199 -0.0732266 0.32
      vertex 0.141326 -0.0559549 0
      vertex 0.141326 -0.0559549 0.32
    endloop
  endfacet
  facet normal 0.904836 -0.42576 0
    outer loop
      vertex 0.141326 -0.0559549 0
      vertex 0.133199 -0.0732266 0.32
      vertex 0.133199 -0.0732266 0
    endloop
  endfacet
  facet normal 0.95105 -0.309036 0
    outer loop
      vertex 0.141326 -0.0559549 0.32
      vertex 0.147225 -0.0378009 0
      vertex 0.147225 -0.0378009 0.32
    endloop
  endfacet
  facet normal 0.95105 -0.309036 0
    outer loop
      vertex 0.147225 -0.0378009 0
      vertex 0.141326 -0.0559549 0.32
      vertex 0.141326 -0.0559549 0
    endloop
  endfacet
  facet normal 0.982295 -0.187341 0
    outer loop
      vertex 0.147225 -0.0378009 0.32
      vertex 0.150801 -0.0190507 0
      vertex 0.150801 -0.0190507 0.32
    endloop
  endfacet
  facet normal 0.982295 -0.187341 0
    outer loop
      vertex 0.150801 -0.0190507 0
      vertex 0.147225 -0.0378009 0.32
      vertex 0.147225 -0.0378009 0
    endloop
  endfacet
  facet normal 0.998025 -0.062813 0
    outer loop
      vertex 0.150801 -0.0190507 0.32
      vertex 0.152 0 0
      vertex 0.152 0 0.32
    endloop
  endfacet
  facet normal 0.998025 -0.062813 0
    outer loop
      vertex 0.152 0 0
      vertex 0.150801 -0.0190507 0.32
      vertex 0.150801 -0.0190507 0
    endloop
  endfacet
  facet normal 0 0 -1
    outer loop
      vertex 0.150801 -0.0190507 0
      vertex 0.150801 0.0190507 0
      vertex 0.152 0 0
    endloop
  endfacet
  facet normal 0 0 -1
    outer loop
      vertex 0.147225 -0.0378009 0
      vertex 0.150801 0.0190507 0
      vertex 0.150801 -0.0190507 0
    endloop
  endfacet
  facet normal 0 0 -1
    outer loop
      vertex 0.147225 -0.0378009 0
      vertex 0.147225 0.0378009 0
      vertex 0.150801 0.0190507 0
    endloop
  endfacet
  facet normal 0 0 -1
    outer loop
      vertex 0.141326 -0.0559549 0
      vertex 0.147225 0.0378009 0
      vertex 0.147225 -0.0378009 0
    endloop
  endfacet
  facet normal 0 0 -1
    outer loop
      vertex 0.141326 -0.0559549 0
      vertex 0.141326 0.0559549 0
      vertex 0.147225 0.0378009 0
    endloop
  endfacet
  facet normal 0 0 -1
    outer loop
      vertex 0.133199 -0.0732266 0
      vertex 0.141326 0.0559549 0
      vertex 0.141326 -0.0559549 0
    endloop
  endfacet
  facet normal 0 0 -1
    outer loop
      vertex 0.133199 -0.0732266 0
      vertex 0.133199 0.0732266 0
      vertex 0.141326 0.0559549 0
    endloop
  endfacet
  facet normal 0 0 -1
    outer loop
      vertex 0.122971 -0.0893434 0
      vertex 0.133199 0.0732266 0
      vertex 0.133199 -0.0732266 0
    endloop
  endfacet
  facet normal 0 0 -1
    outer loop
      vertex 0.122971 -0.0893434 0
      vertex 0.122971 0.0893434 0
      vertex 0.133199 0.0732266 0
    endloop
  endfacet
  facet normal 0 0 -1
    outer loop
      vertex 0.110803 -0.104051 0
      vertex 0.122971 0.0893434 0
      vertex 0.122971 -0.0893434 0
    endloop
  endfacet
  facet normal 0 0 -1
    outer loop
      vertex 0.110803 -0.104051 0
      vertex 0.110803 0.104051 0
      vertex 0.122971 0.0893434 0
    endloop
  endfacet
  facet normal 0 0 -1
    outer loop
      vertex 0.0968884 -0.117118 0
      vertex 0.110803 0.104051 0
      vertex 0.110803 -0.104051 0
    endloop
  endfacet
  facet normal 0 0 -1
    outer loop
      vertex 0.0968884 -0.117118 0
      vertex 0.0968884 0.117118 0
      vertex 0.110803 0.104051 0
    endloop
  endfacet
  facet normal 0 0 -1
    outer loop
      vertex 0.0814457 -0.128338 0
      vertex 0.0968884 0.117118 0
      vertex 0.0968884 -0.117118 0
    endloop
  endfacet
  facet normal 0 0 -1
    outer loop
      vertex 0.0814457 -0.128338 0
      vertex 0.0814457 0.128338 0
      vertex 0.0968884 0.117118 0
    endloop
  endfacet
  facet normal 0 0 -1
    outer loop
      vertex 0.0647185 -0.137534 0
      vertex 0.0814457 0.128338 0
      vertex 0.0814457 -0.128338 0
    endloop
  endfacet
  facet normal 0 0 -1
    outer loop
      vertex 0.0647185 -0.137534 0
      vertex 0.0647185 0.137534 0
      vertex 0.0814457 0.128338 0
    endloop
  endfacet
  facet normal 0 0 -1
    outer loop
      vertex 0.0469706 -0.144561 0
      vertex 0.0647185 0.137534 0
      vertex 0.0647185 -0.137534 0
    endloop
  endfacet
  facet normal 0 0 -1
    outer loop
      vertex 0.0469706 -0.144561 0
      vertex 0.0469706 0.144561 0
      vertex 0.0647185 0.137534 0
    endloop
  endfacet
  facet normal 0 0 -1
    outer loop
      vertex 0.028482 -0.149308 0
      vertex 0.0469706 0.144561 0
      vertex 0.0469706 -0.144561 0
    endloop
  endfacet
  facet normal 0 0 -1
    outer loop
      vertex 0.028482 -0.149308 0
      vertex 0.028482 0.149308 0
      vertex 0.0469706 0.144561 0
    endloop
  endfacet
  facet normal 0 0 -1
    outer loop
      vertex 0.00954416 -0.1517 0
      vertex 0.028482 0.149308 0
      vertex 0.028482 -0.149308 0
    endloop
  endfacet
  facet normal 0 0 -1
    outer loop
      vertex 0.00954416 -0.1517 0
      vertex 0.00954416 0.1517 0
      vertex 0.028482 0.149308 0
    endloop
  endfacet
  facet normal 0 0 -1
    outer loop
      vertex -0.00954416 -0.1517 0
      vertex 0.00954416 0.1517 0
      vertex 0.00954416 -0.1517 0
    endloop
  endfacet
  facet normal 0 0 -1
    outer loop
      vertex -0.00954416 -0.1517 0
      vertex -0.00954416 0.1517 0
      vertex 0.00954416 0.1517 0
    endloop
  endfacet
  facet normal 0 0 -1
    outer loop
      vertex -0.028482 -0.149308 0
      vertex -0.00954416 0.1517 0
      vertex -0.00954416 -0.1517 0
    endloop
  endfacet
  facet normal 0 0 -1
    outer loop
      vertex -0.028482 -0.149308 0
      vertex -0.028482 0.149308 0
      vertex -0.00954416 0.1517 0
    endloop
  endfacet
  facet normal 0 0 -1
    outer loop
      vertex -0.0469706 -0.144561 0
      vertex -0.028482 0.149308 0
      vertex -0.028482 -0.149308 0
    endloop
  endfacet
  facet normal 0 0 -1
    outer loop
      vertex -0.0469706 -0.144561 0
      vertex -0.0469706 0.144561 0
      vertex -0.028482 0.149308 0
    endloop
  endfacet
  facet normal 0 0 -1
    outer loop
      vertex -0.0647185 -0.137534 0
      vertex -0.0469706 0.144561 0
      vertex -0.0469706 -0.144561 0
    endloop
  endfacet
  facet normal 0 0 -1
    outer loop
      vertex -0.0647185 -0.137534 0
      vertex -0.0647185 0.137534 0
      vertex -0.0469706 0.144561 0
    endloop
  endfacet
  facet normal 0 0 -1
    outer loop
      vertex -0.0814457 -0.128338 0
      vertex -0.0647185 0.137534 0
      vertex -0.0647185 -0.137534 0
    endloop
  endfacet
  facet normal 0 0 -1
    outer loop
      vertex -0.0814457 -0.128338 0
      vertex -0.0814457 0.128338 0
      vertex -0.0647185 0.137534 0
    endloop
  endfacet
  facet normal 0 0 -1
    outer loop
      vertex -0.0968884 -0.117118 0
      vertex -0.0814457 0.128338 0
      vertex -0.0814457 -0.128338 0
    endloop
  endfacet
  facet normal 0 0 -1
    outer loop
      vertex -0.0968884 -0.117118 0
      vertex -0.0968884 0.117118 0
      vertex -0.0814457 0.128338 0
    endloop
  endfacet
  facet normal 0 0 -1
    outer loop
      vertex -0.110803 -0.104051 0
      vertex -0.0968884 0.117118 0
      vertex -0.0968884 -0.117118 0
    endloop
  endfacet
  facet normal 0 0 -1
    outer loop
      vertex -0.110803 -0.104051 0
      vertex -0.110803 0.104051 0
      vertex -0.0968884 0.117118 0
    endloop
  endfacet
  facet normal 0 0 -1
    outer loop
      vertex -0.122971 -0.0893434 0
      vertex -0.110803 0.104051 0
      vertex -0.110803 -0.104051 0
    endloop
  endfacet
  facet normal 0 0 -1
    outer loop
      vertex -0.122971 -0.0893434 0
      vertex -0.122971 0.0893434 0
      vertex -0.110803 0.104051 0
    endloop
  endfacet
  facet normal 0 0 -1
    outer loop
      vertex -0.133199 -0.0732266 0
      vertex -0.122971 0.0893434 0
      vertex -0.122971 -0.0893434 0
    endloop
  endfacet
  facet normal 0 0 -1
    outer loop
      vertex -0.133199 -0.0732266 0
      vertex -0.133199 0.0732266 0
      vertex -0.122971 0.0893434 0
    endloop
  endfacet
  facet normal 0 0 -1
    outer loop
      vertex -0.141326 -0.0559549 0
      vertex -0.133199 0.0732266 0
      vertex -0.133199 -0.0732266 0
    endloop
  endfacet
  facet normal 0 0 -1
    outer loop
      vertex -0.141326 -0.0559549 0
      vertex -0.141326 0.0559549 0
      vertex -0.133199 0.0732266 0
    endloop
  endfacet
  facet normal 0 0 -1
    outer loop
      vertex -0.147225 -0.0378009 0
      vertex -0.141326 0.0559549 0
      vertex -0.141326 -0.0559549 0
    endloop
  endfacet
  facet normal 0 0 -1
    outer loop
      vertex -0.147225 -0.0378009 0
      vertex -0.147225 0.0378009 0
      vertex -0.141326 0.0559549 0
    endloop
  endfacet
  facet normal 0 0 -1
    outer loop
      vertex -0.150801 -0.0190507 0
      vertex -0.147225 0.0378009 0
      vertex -0.147225 -0.0378009 0
    endloop
  endfacet
  facet normal 0 0 -1
    outer loop
      vertex -0.150801 -0.0190507 0
      vertex -0.150801 0.0190507 0
      vertex -0.147225 0.0378009 0
    endloop
  endfacet
  facet normal 0 -0 -1
    outer loop
      vertex -0.150801 0.0190507 0
      vertex -0.150801 -0.0190507 0
      vertex -0.152 0 0
    endloop
  endfacet
  facet normal 0 0 1
    outer loop
      vertex 0.150801 0.0190507 0.32
      vertex 0.150801 -0.0190507 0.32
      vertex 0.152 0 0.32
    endloop
  endfacet
  facet normal 0 0 1
    outer loop
      vertex 0.147225 0.0378009 0.32
      vertex 0.150801 -0.0190507 0.32
      vertex 0.150801 0.0190507 0.32
    endloop
  endfacet
  facet normal 0 0 1
    outer loop
      vertex 0.147225 0.0378009 0.32
      vertex 0.147225 -0.0378009 0.32
      vertex 0.150801 -0.0190507 0.32
    endloop
  endfacet
  facet normal 0 0 1
    outer loop
      vertex 0.141326 0.0559549 0.32
      vertex 0.147225 -0.0378009 0.32
      vertex 0.147225 0.0378009 0.32
    endloop
  endfacet
  facet normal 0 0 1
    outer loop
      vertex 0.141326 0.0559549 0.32
      vertex 0.141326 -0.0559549 0.32
      vertex 0.147225 -0.0378009 0.32
    endloop
  endfacet
  facet normal 0 0 1
    outer loop
      vertex 0.133199 0.0732266 0.32
      vertex 0.141326 -0.0559549 0.32
      vertex 0.141326 0.0559549 0.32
    endloop
  endfacet
  facet normal 0 0 1
    outer loop
      vertex 0.133199 0.0732266 0.32
      vertex 0.133199 -0.0732266 0.32
      vertex 0.141326 -0.0559549 0.32
    endloop
  endfacet
  facet normal 0 0 1
    outer loop
      vertex 0.122971 0.0893434 0.32
      vertex 0.133199 -0.0732266 0.32
      vertex 0.133199 0.0732266 0.32
    endloop
  endfacet
  facet normal 0 0 1
    outer loop
      vertex 0.122971 0.0893434 0.32
      vertex 0.122971 -0.0893434 0.32
      vertex 0.133199 -0.0732266 0.32
    endloop
  endfacet
  facet normal 0 0 1
    outer loop
      vertex 0.110803 0.104051 0.32
      vertex 0.122971 -0.0893434 0.32
      vertex 0.122971 0.0893434 0.32
    endloop
  endfacet
  facet normal 0 0 1
    outer loop
      vertex 0.110803 0.104051 0.32
      vertex 0.110803 -0.104051 0.32
      vertex 0.122971 -0.0893434 0.32
    endloop
  endfacet
  facet normal 0 0 1
    outer loop
      vertex 0.0968884 0.117118 0.32
      vertex 0.110803 -0.104051 0.32
      vertex 0.110803 0.104051 0.32
    endloop
  endfacet
  facet normal 0 0 1
    outer loop
      vertex 0.0968884 0.117118 0.32
      vertex 0.0968884 -0.117118 0.32
      vertex 0.110803 -0.104051 0.32
    endloop
  endfacet
  facet normal 0 0 1
    outer loop
      vertex 0.0814457 0.128338 0.32
      vertex 0.0968884 -0.117118 0.32
      vertex 0.0968884 0.117118 0.32
    endloop
  endfacet
  facet normal 0 0 1
    outer loop
      vertex 0.0814457 0.128338 0.32
      vertex 0.0814457 -0.128338 0.32
      vertex 0.0968884 -0.117118 0.32
    endloop
  endfacet
  facet normal 0 0 1
    outer loop
      vertex 0.0647185 0.137534 0.32
      vertex 0.0814457 -0.128338 0.32
      vertex 0.0814457 0.128338 0.32
    endloop
  endfacet
  facet normal 0 0 1
    outer loop
      vertex 0.0647185 0.137534 0.32
      vertex 0.0647185 -0.137534 0.32
      vertex 0.0814457 -0.128338 0.32
    endloop
  endfacet
  facet normal 0 0 1
    outer loop
      vertex 0.0469706 0.144561 0.32
      vertex 0.0647185 -0.137534 0.32
      vertex 0.0647185 0.137534 0.32
    endloop
  endfacet
  facet normal 0 0 1
    outer loop
      vertex 0.0469706 0.144561 0.32
      vertex 0.0469706 -0.144561 0.32
      vertex 0.0647185 -0.137534 0.32
    endloop
  endfacet
  facet normal 0 0 1
    outer loop
      vertex 0.028482 0.149308 0.32
      vertex 0.0469706 -0.144561 0.32
      vertex 0.0469706 0.144561 0.32
    endloop
  endfacet
  facet normal 0 0 1
    outer loop
      vertex 0.028482 0.149308 0.32
      vertex 0.028482 -0.149308 0.32
      vertex 0.0469706 -0.144561 0.32
    endloop
  endfacet
  facet normal 0 0 1
    outer loop
      vertex 0.00954416 0.1517 0.32
      vertex 0.028482 -0.149308 0.32
      vertex 0.028482 0.149308 0.32
    endloop
  endfacet
  facet normal 0 0 1
    outer loop
      vertex 0.00954416 0.1517 0.32
      vertex 0.00954416 -0.1517 0.32
      vertex 0.028482 -0.149308 0.32
    endloop
  endfacet
  facet normal -0 0 1
    outer loop
      vertex -0.00954416 0.1517 0.32
      vertex 0.00954416 -0.1517 0.32
      vertex 0.00954416 0.1517 0.32
    endloop
  endfacet
  facet normal 0 0 1
    outer loop
      vertex -0.00954416 0.1517 0.32
      vertex -0.00954416 -0.1517 0.32
      vertex 0.00954416 -0.1517 0.32
    endloop
  endfacet
  facet normal -0 0 1
    outer loop
      vertex -0.028482 0.149308 0.32
      vertex -0.00954416 -0.1517 0.32
      vertex -0.00954416 0.1517 0.32
    endloop
  endfacet
  facet normal 0 0 1
    outer loop
      vertex -0.028482 0.149308 0.32
      vertex -0.028482 -0.149308 0.32
      vertex -0.00954416 -0.1517 0.32
    endloop
  endfacet
  facet normal -0 0 1
    outer loop
      vertex -0.0469706 0.144561 0.32
      vertex -0.028482 -0.149308 0.32
      vertex -0.028482 0.149308 0.32
    endloop
  endfacet
  facet normal 0 0 1
    outer loop
      vertex -0.0469706 0.144561 0.32
      vertex -0.0469706 -0.144561 0.32
      vertex -0.028482 -0.149308 0.32
    endloop
  endfacet
  facet normal -0 0 1
    outer loop
      vertex -0.0647185 0.137534 0.32
      vertex -0.0469706 -0.144561 0.32
      vertex -0.0469706 0.144561 0.32
    endloop
  endfacet
  facet normal 0 0 1
    outer loop
      vertex -0.0647185 0.137534 0.32
      vertex -0.0647185 -0.137534 0.32
      vertex -0.0469706 -0.144561 0.32
    endloop
  endfacet
  facet normal -0 0 1
    outer loop
      vertex -0.0814457 0.128338 0.32
      vertex -0.0647185 -0.137534 0.32
      vertex -0.0647185 0.137534 0.32
    endloop
  endfacet
  facet normal 0 0 1
    outer loop
      vertex -0.0814457 0.128338 0.32
      vertex -0.0814457 -0.128338 0.32
      vertex -0.0647185 -0.137534 0.32
    endloop
  endfacet
  facet normal -0 0 1
    outer loop
      vertex -0.0968884 0.117118 0.32
      vertex -0.0814457 -0.128338 0.32
      vertex -0.0814457 0.128338 0.32
    endloop
  endfacet
  facet normal 0 0 1
    outer loop
      vertex -0.0968884 0.117118 0.32
      vertex -0.0968884 -0.117118 0.32
      vertex -0.0814457 -0.128338 0.32
    endloop
  endfacet
  facet normal -0 0 1
    outer loop
      vertex -0.110803 0.104051 0.32
      vertex -0.0968884 -0.117118 0.32
      vertex -0.0968884 0.117118 0.32
    endloop
  endfacet
  facet normal 0 0 1
    outer loop
      vertex -0.110803 0.104051 0.32
      vertex -0.110803 -0.104051 0.32
      vertex -0.0968884 -0.117118 0.32
    endloop
  endfacet
  facet normal -0 0 1
    outer loop
      vertex -0.122971 0.0893434 0.32
      vertex -0.110803 -0.104051 0.32
      vertex -0.110803 0.104051 0.32
    endloop
  endfacet
  facet normal 0 0 1
    outer loop
      vertex -0.122971 0.0893434 0.32
      vertex -0.122971 -0.0893434 0.32
      vertex -0.110803 -0.104051 0.32
    endloop
  endfacet
  facet normal -0 0 1
    outer loop
      vertex -0.133199 0.0732266 0.32
      vertex -0.122971 -0.0893434 0.32
      vertex -0.122971 0.0893434 0.32
    endloop
  endfacet
  facet normal 0 0 1
    outer loop
      vertex -0.133199 0.0732266 0.32
      vertex -0.133199 -0.0732266 0.32
      vertex -0.122971 -0.0893434 0.32
    endloop
  endfacet
  facet normal -0 0 1
    outer loop
      vertex -0.141326 0.0559549 0.32
      vertex -0.133199 -0.0732266 0.32
      vertex -0.133199 0.0732266 0.32
    endloop
  endfacet
  facet normal 0 0 1
    outer loop
      vertex -0.141326 0.0559549 0.32
      vertex -0.141326 -0.0559549 0.32
      vertex -0.133199 -0.0732266 0.32
    endloop
  endfacet
  facet normal -0 0 1
    outer loop
      vertex -0.147225 0.0378009 0.32
      vertex -0.141326 -0.0559549 0.32
      vertex -0.141326 0.0559549 0.32
    endloop
  endfacet
  facet normal 0 0 1
    outer loop
      vertex -0.147225 0.0378009 0.32
      vertex -0.147225 -0.0378009 0.32
      vertex -0.141326 -0.0559549 0.32
    endloop
  endfacet
  facet normal -0 0 1
    outer loop
      vertex -0.150801 0.0190507 0.32
      vertex -0.147225 -0.0378009 0.32
      vertex -0.147225 0.0378009 0.32
    endloop
  endfacet
  facet normal 0 0 1
    outer loop
      vertex -0.150801 0.0190507 0.32
      vertex -0.150801 -0.0190507 0.32
      vertex -0.147225 -0.0378009 0.32
    endloop
  endfacet
  facet normal 0 -0 1
    outer loop
      vertex -0.150801 -0.0190507 0.32
      vertex -0.150801 0.0190507 0.32
      vertex -0.152 0 0.32
    endloop
  endfacet
endsolid OpenSCAD_Model
