solid OpenSCAD_Model
  facet normal 0.998027 0.0627819 0
    outer loop
      vertex 0.19 0 0.4
      vertex 0.188502 0.0238133 0
      vertex 0.188502 0.0238133 0.4
    endloop
  endfacet
  facet normal 0.998027 0.0627819 0
    outer loop
      vertex 0.188502 0.0238133 0
      vertex 0.19 0 0.4
      vertex 0.19 0 0
    endloop
  endfacet
  facet normal 0.982287 0.187381 0
    outer loop
      vertex 0.188502 0.0238133 0.4
      vertex 0.184031 0.0472511 0
      vertex 0.184031 0.0472511 0.4
    endloop
  endfacet
  facet normal 0.982287 0.187381 0
    outer loop
      vertex 0.184031 0.0472511 0
      vertex 0.188502 0.0238133 0.4
      vertex 0.188502 0.0238133 0
    endloop
  endfacet
  facet normal 0.95106 0.309007 0
    outer loop
      vertex 0.184031 0.0472511 0.4
      vertex 0.176658 0.0699437 0
      vertex 0.176658 0.0699437 0.4
    endloop
  endfacet
  facet normal 0.95106 0.309007 0
    outer loop
      vertex 0.176658 0.0699437 0
      vertex 0.184031 0.0472511 0.4
      vertex 0.184031 0.0472511 0
    endloop
  endfacet
  facet normal 0.904815 0.425805 0
    outer loop
      vertex 0.176658 0.0699437 0.4
      vertex 0.166498 0.0915332 0
      vertex 0.166498 0.0915332 0.4
    endloop
  endfacet
  facet normal 0.904815 0.425805 0
    outer loop
      vertex 0.166498 0.0915332 0
      vertex 0.176658 0.0699437 0.4
      vertex 0.176658 0.0699437 0
    endloop
  endfacet
  facet normal 0.844326 0.535829 0
    outer loop
      vertex 0.166498 0.0915332 0.4
      vertex 0.153713 0.111679 0
      vertex 0.153713 0.111679 0.4
    endloop
  endfacet
  facet normal 0.844326 0.535829 0
    outer loop
      vertex 0.153713 0.111679 0
      vertex 0.166498 0.0915332 0.4
      vertex 0.166498 0.0915332 0
    endloop
  endfacet
  facet normal 0.770521 0.637414 0
    outer loop
      vertex 0.153713 0.111679 0.4
      vertex 0.138504 0.130064 0
      vertex 0.138504 0.130064 0.4
    endloop
  endfacet
  facet normal 0.770521 0.637414 0
    outer loop
      vertex 0.138504 0.130064 0
      vertex 0.153713 0.111679 0.4
      vertex 0.153713 0.111679 0
    endloop
  endfacet
  facet normal 0.684567 0.72895 -0
    outer loop
      vertex 0.138504 0.130064 0
      vertex 0.121111 0.146398 0.4
      vertex 0.138504 0.130064 0.4
    endloop
  endfacet
  facet normal 0.684567 0.72895 0
    outer loop
      vertex 0.121111 0.146398 0.4
      vertex 0.138504 0.130064 0
      vertex 0.121111 0.146398 0
    endloop
  endfacet
  facet normal 0.587753 0.80904 -0
    outer loop
      vertex 0.121111 0.146398 0
      vertex 0.101807 0.160422 0.4
      vertex 0.121111 0.146398 0.4
    endloop
  endfacet
  facet normal 0.587753 0.80904 0
    outer loop
      vertex 0.101807 0.160422 0.4
      vertex 0.121111 0.146398 0
      vertex 0.101807 0.160422 0
    endloop
  endfacet
  facet normal 0.481761 0.876303 -0
    outer loop
      vertex 0.101807 0.160422 0
      vertex 0.0808981 0.171917 0.4
      vertex 0.101807 0.160422 0.4
    endloop
  endfacet
  facet normal 0.481761 0.876303 0
    outer loop
      vertex 0.0808981 0.171917 0.4
      vertex 0.101807 0.160422 0
      vertex 0.0808981 0.171917 0
    endloop
  endfacet
  facet normal 0.368138 0.929771 -0
    outer loop
      vertex 0.0808981 0.171917 0
      vertex 0.0587132 0.180701 0.4
      vertex 0.0808981 0.171917 0.4
    endloop
  endfacet
  facet normal 0.368138 0.929771 0
    outer loop
      vertex 0.0587132 0.180701 0.4
      vertex 0.0808981 0.171917 0
      vertex 0.0587132 0.180701 0
    endloop
  endfacet
  facet normal 0.248697 0.968581 -0
    outer loop
      vertex 0.0587132 0.180701 0
      vertex 0.0356025 0.186635 0.4
      vertex 0.0587132 0.180701 0.4
    endloop
  endfacet
  facet normal 0.248697 0.968581 0
    outer loop
      vertex 0.0356025 0.186635 0.4
      vertex 0.0587132 0.180701 0
      vertex 0.0356025 0.186635 0
    endloop
  endfacet
  facet normal 0.125312 0.992117 -0
    outer loop
      vertex 0.0356025 0.186635 0
      vertex 0.0119302 0.189625 0.4
      vertex 0.0356025 0.186635 0.4
    endloop
  endfacet
  facet normal 0.125312 0.992117 0
    outer loop
      vertex 0.0119302 0.189625 0.4
      vertex 0.0356025 0.186635 0
      vertex 0.0119302 0.189625 0
    endloop
  endfacet
  facet normal 0 1 -0
    outer loop
      vertex 0.0119302 0.189625 0
      vertex -0.0119302 0.189625 0.4
      vertex 0.0119302 0.189625 0.4
    endloop
  endfacet
  facet normal 0 1 0
    outer loop
      vertex -0.0119302 0.189625 0.4
      vertex 0.0119302 0.189625 0
      vertex -0.0119302 0.189625 0
    endloop
  endfacet
  facet normal -0.125312 0.992117 0
    outer loop
      vertex -0.0119302 0.189625 0
      vertex -0.0356025 0.186635 0.4
      vertex -0.0119302 0.189625 0.4
    endloop
  endfacet
  facet normal -0.125312 0.992117 0
    outer loop
      vertex -0.0356025 0.186635 0.4
      vertex -0.0119302 0.189625 0
      vertex -0.0356025 0.186635 0
    endloop
  endfacet
  facet normal -0.248697 0.968581 0
    outer loop
      vertex -0.0356025 0.186635 0
      vertex -0.0587132 0.180701 0.4
      vertex -0.0356025 0.186635 0.4
    endloop
  endfacet
  facet normal -0.248697 0.968581 0
    outer loop
      vertex -0.0587132 0.180701 0.4
      vertex -0.0356025 0.186635 0
      vertex -0.0587132 0.180701 0
    endloop
  endfacet
  facet normal -0.368138 0.929771 0
    outer loop
      vertex -0.0587132 0.180701 0
      vertex -0.0808981 0.171917 0.4
      vertex -0.0587132 0.180701 0.4
    endloop
  endfacet
  facet normal -0.368138 0.929771 0
    outer loop
      vertex -0.0808981 0.171917 0.4
      vertex -0.0587132 0.180701 0
      vertex -0.0808981 0.171917 0
    endloop
  endfacet
  facet normal -0.481761 0.876303 0
    outer loop
      vertex -0.0808981 0.171917 0
      vertex -0.101807 0.160422 0.4
      vertex -0.0808981 0.171917 0.4
    endloop
  endfacet
  facet normal -0.481761 0.876303 0
    outer loop
      vertex -0.101807 0.160422 0.4
      vertex -0.0808981 0.171917 0
      vertex -0.101807 0.160422 0
    endloop
  endfacet
  facet normal -0.587753 0.80904 0
    outer loop
      vertex -0.101807 0.160422 0
      vertex -0.121111 0.146398 0.4
      vertex -0.101807 0.160422 0.4
    endloop
  endfacet
  facet normal -0.587753 0.80904 0
    outer loop
      vertex -0.121111 0.146398 0.4
      vertex -0.101807 0.160422 0
      vertex -0.121111 0.146398 0
    endloop
  endfacet
  facet normal -0.684567 0.72895 0
    outer loop
      vertex -0.121111 0.146398 0
      vertex -0.138504 0.130064 0.4
      vertex -0.121111 0.146398 0.4
    endloop
  endfacet
  facet normal -0.684567 0.72895 0
    outer loop
      vertex -0.138504 0.130064 0.4
      vertex -0.121111 0.146398 0
      vertex -0.138504 0.130064 0
    endloop
  endfacet
  facet normal -0.770521 0.637414 0
    outer loop
      vertex -0.153713 0.111679 0
      vertex -0.138504 0.130064 0.4
      vertex -0.138504 0.130064 0
    endloop
  endfacet
  facet normal -0.770521 0.637414 0
    outer loop
      vertex -0.138504 0.130064 0.4
      vertex -0.153713 0.111679 0
      vertex -0.153713 0.111679 0.4
    endloop
  endfacet
  facet normal -0.844326 0.535829 0
    outer loop
      vertex -0.166498 0.0915332 0
      vertex -0.153713 0.111679 0.4
      vertex -0.153713 0.111679 0
    endloop
  endfacet
  facet normal -0.844326 0.535829 0
    outer loop
      vertex -0.153713 0.111679 0.4
      vertex -0.166498 0.0915332 0
      vertex -0.166498 0.0915332 0.4
    endloop
  endfacet
  facet normal -0.904815 0.425805 0
    outer loop
      vertex -0.176658 0.0699437 0
      vertex -0.166498 0.0915332 0.4
      vertex -0.166498 0.0915332 0
    endloop
  endfacet
  facet normal -0.904815 0.425805 0
    outer loop
      vertex -0.166498 0.0915332 0.4
      vertex -0.176658 0.0699437 0
      vertex -0.176658 0.0699437 0.4
    endloop
  endfacet
  facet normal -0.95106 0.309007 0
    outer loop
      vertex -0.184031 0.0472511 0
      vertex -0.176658 0.0699437 0.4
      vertex -0.176658 0.0699437 0
    endloop
  endfacet
  facet normal -0.95106 0.309007 0
    outer loop
      vertex -0.176658 0.0699437 0.4
      vertex -0.184031 0.0472511 0
      vertex -0.184031 0.0472511 0.4
    endloop
  endfacet
  facet normal -0.982287 0.187381 0
    outer loop
      vertex -0.188502 0.0238133 0
      vertex -0.184031 0.0472511 0.4
      vertex -0.184031 0.0472511 0
    endloop
  endfacet
  facet normal -0.982287 0.187381 0
    outer loop
      vertex -0.184031 0.0472511 0.4
      vertex -0.188502 0.0238133 0
      vertex -0.188502 0.0238133 0.4
    endloop
  endfacet
  facet normal -0.998027 0.0627819 0
    outer loop
      vertex -0.19 0 0
      vertex -0.188502 0.0238133 0.4
      vertex -0.188502 0.0238133 0
    endloop
  endfacet
  facet normal -0.998027 0.0627819 0
    outer loop
      vertex -0.188502 0.0238133 0.4
      vertex -0.19 0 0
      vertex -0.19 0 0.4
    endloop
  endfacet
  facet normal -0.998027 -0.0627819 0
    outer loop
      vertex -0.188502 -0.0238133 0
      vertex -0.19 0 0.4
      vertex -0.19 0 0
    endloop
  endfacet
  facet normal -0.998027 -0.0627819 0
    outer loop
      vertex -0.19 0 0.4
      vertex -0.188502 -0.0238133 0
      vertex -0.188502 -0.0238133 0.4
    endloop
  endfacet
  facet normal -0.982287 -0.187381 0
    outer loop
      vertex -0.184031 -0.0472511 0
      vertex -0.188502 -0.0238133 0.4
      vertex -0.188502 -0.0238133 0
    endloop
  endfacet
  facet normal -0.982287 -0.187381 0
    outer loop
      vertex -0.188502 -0.0238133 0.4
      vertex -0.184031 -0.0472511 0
      vertex -0.184031 -0.0472511 0.4
    endloop
  endfacet
  facet normal -0.95106 -0.309007 0
    outer loop
      vertex -0.176658 -0.0699437 0
      vertex -0.184031 -0.0472511 0.4
      vertex -0.184031 -0.0472511 0
    endloop
  endfacet
  facet normal -0.95106 -0.309007 0
    outer loop
      vertex -0.184031 -0.0472511 0.4
      vertex -0.176658 -0.0699437 0
      vertex -0.176658 -0.0699437 0.4
    endloop
  endfacet
  facet normal -0.904815 -0.425805 0
    outer loop
      vertex -0.166498 -0.0915332 0
      vertex -0.176658 -0.0699437 0.4
      vertex -0.176658 -0.0699437 0
    endloop
  endfacet
  facet normal -0.904815 -0.425805 0
    outer loop
      vertex -0.176658 -0.0699437 0.4
      vertex -0.166498 -0.0915332 0
      vertex -0.166498 -0.0915332 0.4
    endloop
  endfacet
  facet normal -0.844326 -0.535829 0
    outer loop
      vertex -0.153713 -0.111679 0
      vertex -0.166498 -0.0915332 0.4
      vertex -0.166498 -0.0915332 0
    endloop
  endfacet
  facet normal -0.844326 -0.535829 0
    outer loop
      vertex -0.166498 -0.0915332 0.4
      vertex -0.153713 -0.111679 0
      vertex -0.153713 -0.111679 0.4
    endloop
  endfacet
  facet normal -0.770521 -0.637414 0
    outer loop
      vertex -0.138504 -0.130064 0
      vertex -0.153713 -0.111679 0.4
      vertex -0.153713 -0.111679 0
    endloop
  endfacet
  facet normal -0.770521 -0.637414 0
    outer loop
      vertex -0.153713 -0.111679 0.4
      vertex -0.138504 -0.130064 0
      vertex -0.138504 -0.130064 0.4
    endloop
  endfacet
  facet normal -0.684567 -0.72895 0
    outer loop
      vertex -0.138504 -0.130064 0
      vertex -0.121111 -0.146398 0.4
      vertex -0.138504 -0.130064 0.4
    endloop
  endfacet
  facet normal -0.684567 -0.72895 -0
    outer loop
      vertex -0.121111 -0.146398 0.4
      vertex -0.138504 -0.130064 0
      vertex -0.121111 -0.146398 0
    endloop
  endfacet
  facet normal -0.587753 -0.80904 0
    outer loop
      vertex -0.121111 -0.146398 0
      vertex -0.101807 -0.160422 0.4
      vertex -0.121111 -0.146398 0.4
    endloop
  endfacet
  facet normal -0.587753 -0.80904 -0
    outer loop
      vertex -0.101807 -0.160422 0.4
      vertex -0.121111 -0.146398 0
      vertex -0.101807 -0.160422 0
    endloop
  endfacet
  facet normal -0.481761 -0.876303 0
    outer loop
      vertex -0.101807 -0.160422 0
      vertex -0.0808981 -0.171917 0.4
      vertex -0.101807 -0.160422 0.4
    endloop
  endfacet
  facet normal -0.481761 -0.876303 -0
    outer loop
      vertex -0.0808981 -0.171917 0.4
      vertex -0.101807 -0.160422 0
      vertex -0.0808981 -0.171917 0
    endloop
  endfacet
  facet normal -0.368138 -0.929771 0
    outer loop
      vertex -0.0808981 -0.171917 0
      vertex -0.0587132 -0.180701 0.4
      vertex -0.0808981 -0.171917 0.4
    endloop
  endfacet
  facet normal -0.368138 -0.929771 -0
    outer loop
      vertex -0.0587132 -0.180701 0.4
      vertex -0.0808981 -0.171917 0
      vertex -0.0587132 -0.180701 0
    endloop
  endfacet
  facet normal -0.248697 -0.968581 0
    outer loop
      vertex -0.0587132 -0.180701 0
      vertex -0.0356025 -0.186635 0.4
      vertex -0.0587132 -0.180701 0.4
    endloop
  endfacet
  facet normal -0.248697 -0.968581 -0
    outer loop
      vertex -0.0356025 -0.186635 0.4
      vertex -0.0587132 -0.180701 0
      vertex -0.0356025 -0.186635 0
    endloop
  endfacet
  facet normal -0.125312 -0.992117 0
    outer loop
      vertex -0.0356025 -0.186635 0
      vertex -0.0119302 -0.189625 0.4
      vertex -0.0356025 -0.186635 0.4
    endloop
  endfacet
  facet normal -0.125312 -0.992117 -0
    outer loop
      vertex -0.0119302 -0.189625 0.4
      vertex -0.0356025 -0.186635 0
      vertex -0.0119302 -0.189625 0
    endloop
  endfacet
  facet normal 0 -1 0
    outer loop
      vertex -0.0119302 -0.189625 0
      vertex 0.0119302 -0.189625 0.4
      vertex -0.0119302 -0.189625 0.4
    endloop
  endfacet
  facet normal 0 -1 -0
    outer loop
      vertex 0.0119302 -0.189625 0.4
      vertex -0.0119302 -0.189625 0
      vertex 0.0119302 -0.189625 0
    endloop
  endfacet
  facet normal 0.125312 -0.992117 0
    outer loop
      vertex 0.0119302 -0.189625 0
      vertex 0.0356025 -0.186635 0.4
      vertex 0.0119302 -0.189625 0.4
    endloop
  endfacet
  facet normal 0.125312 -0.992117 0
    outer loop
      vertex 0.0356025 -0.186635 0.4
      vertex 0.0119302 -0.189625 0
      vertex 0.0356025 -0.186635 0
    endloop
  endfacet
  facet normal 0.248697 -0.968581 0
    outer loop
      vertex 0.0356025 -0.186635 0
      vertex 0.0587132 -0.180701 0.4
      vertex 0.0356025 -0.186635 0.4
    endloop
  endfacet
  facet normal 0.248697 -0.968581 0
    outer loop
      vertex 0.0587132 -0.180701 0.4
      vertex 0.0356025 -0.186635 0
      vertex 0.0587132 -0.180701 0
    endloop
  endfacet
  facet normal 0.368138 -0.929771 0
    outer loop
      vertex 0.0587132 -0.180701 0
      vertex 0.0808981 -0.171917 0.4
      vertex 0.0587132 -0.180701 0.4
    endloop
  endfacet
  facet normal 0.368138 -0.929771 0
    outer loop
      vertex 0.0808981 -0.171917 0.4
      vertex 0.0587132 -0.180701 0
      vertex 0.0808981 -0.171917 0
    endloop
  endfacet
  facet normal 0.481761 -0.876303 0
    outer loop
      vertex 0.0808981 -0.171917 0
      vertex 0.101807 -0.160422 0.4
      vertex 0.0808981 -0.171917 0.4
    endloop
  endfacet
  facet normal 0.481761 -0.876303 0
    outer loop
      vertex 0.101807 -0.160422 0.4
      vertex 0.0808981 -0.171917 0
      vertex 0.101807 -0.160422 0
    endloop
  endfacet
  facet normal 0.587753 -0.80904 0
    outer loop
      vertex 0.101807 -0.160422 0
      vertex 0.121111 -0.146398 0.4
      vertex 0.101807 -0.160422 0.4
    endloop
  endfacet
  facet normal 0.587753 -0.80904 0
    outer loop
      vertex 0.121111 -0.146398 0.4
      vertex 0.101807 -0.160422 0
      vertex 0.121111 -0.146398 0
    endloop
  endfacet
  facet normal 0.684567 -0.72895 0
    outer loop
      vertex 0.121111 -0.146398 0
      vertex 0.138504 -0.130064 0.4
      vertex 0.121111 -0.146398 0.4
    endloop
  endfacet
  facet normal 0.684567 -0.72895 0
    outer loop
      vertex 0.138504 -0.130064 0.4
      vertex 0.121111 -0.146398 0
      vertex 0.138504 -0.130064 0
    endloop
  endfacet
  facet normal 0.770521 -0.637414 0
    outer loop
      vertex 0.138504 -0.130064 0.4
      vertex 0.153713 -0.111679 0
      vertex 0.153713 -0.111679 0.4
    endloop
  endfacet
  facet normal 0.770521 -0.637414 0
    outer loop
      vertex 0.153713 -0.111679 0
      vertex 0.138504 -0.130064 0.4
      vertex 0.138504 -0.130064 0
    endloop
  endfacet
  facet normal 0.844326 -0.535829 0
    outer loop
      vertex 0.153713 -0.111679 0.4
      vertex 0.166498 -0.0915332 0
      vertex 0.166498 -0.0915332 0.4
    endloop
  endfacet
  facet normal 0.844326 -0.535829 0
    outer loop
      vertex 0.166498 -0.0915332 0
      vertex 0.153713 -0.111679 0.4
      vertex 0.153713 -0.111679 0
    endloop
  endfacet
  facet normal 0.904815 -0.425805 0
    outer loop
      vertex 0.166498 -0.0915332 0.4
      vertex 0.176658 -0.0699437 0
      vertex 0.176658 -0.0699437 0.4
    endloop
  endfacet
  facet normal 0.904815 -0.425805 0
    outer loop
      vertex 0.176658 -0.0699437 0
      vertex 0.166498 -0.0915332 0.4
      vertex 0.166498 -0.0915332 0
    endloop
  endfacet
  facet normal 0.95106 -0.309007 0
    outer loop
      vertex 0.176658 -0.0699437 0.4
      vertex 0.184031 -0.0472511 0
      vertex 0.184031 -0.0472511 0.4
    endloop
  endfacet
  facet normal 0.95106 -0.309007 0
    outer loop
      vertex 0.184031 -0.0472511 0
      vertex 0.176658 -0.0699437 0.4
      vertex 0.176658 -0.0699437 0
    endloop
  endfacet
  facet normal 0.982287 -0.187381 0
    outer loop
      vertex 0.184031 -0.0472511 0.4
      vertex 0.188502 -0.0238133 0
      vertex 0.188502 -0.0238133 0.4
    endloop
  endfacet
  facet normal 0.982287 -0.187381 0
    outer loop
      vertex 0.188502 -0.0238133 0
      vertex 0.184031 -0.0472511 0.4
      vertex 0.184031 -0.0472511 0
    endloop
  endfacet
  facet normal 0.998027 -0.0627819 0
    outer loop
      vertex 0.188502 -0.0238133 0.4
      vertex 0.19 0 0
      vertex 0.19 0 0.4
    endloop
  endfacet
  facet normal 0.998027 -0.0627819 0
    outer loop
      vertex 0.19 0 0
      vertex 0.188502 -0.0238133 0.4
      vertex 0.188502 -0.0238133 0
    endloop
  endfacet
  facet normal 0 0 -1
    outer loop
      vertex 0.188502 -0.0238133 0
      vertex 0.188502 0.0238133 0
      vertex 0.19 0 0
    endloop
  endfacet
  facet normal 0 0 -1
    outer loop
      vertex 0.184031 -0.0472511 0
      vertex 0.188502 0.0238133 0
      vertex 0.188502 -0.0238133 0
    endloop
  endfacet
  facet normal 0 0 -1
    outer loop
      vertex 0.184031 -0.0472511 0
      vertex 0.184031 0.0472511 0
      vertex 0.188502 0.0238133 0
    endloop
  endfacet
  facet normal 0 0 -1
    outer loop
      vertex 0.176658 -0.0699437 0
      vertex 0.184031 0.0472511 0
      vertex 0.184031 -0.0472511 0
    endloop
  endfacet
  facet normal 0 0 -1
    outer loop
      vertex 0.176658 -0.0699437 0
      vertex 0.176658 0.0699437 0
      vertex 0.184031 0.0472511 0
    endloop
  endfacet
  facet normal 0 0 -1
    outer loop
      vertex 0.166498 -0.0915332 0
      vertex 0.176658 0.0699437 0
      vertex 0.176658 -0.0699437 0
    endloop
  endfacet
  facet normal 0 0 -1
    outer loop
      vertex 0.166498 -0.0915332 0
      vertex 0.166498 0.0915332 0
      vertex 0.176658 0.0699437 0
    endloop
  endfacet
  facet normal 0 0 -1
    outer loop
      vertex 0.153713 -0.111679 0
      vertex 0.166498 0.0915332 0
      vertex 0.166498 -0.0915332 0
    endloop
  endfacet
  facet normal 0 0 -1
    outer loop
      vertex 0.153713 -0.111679 0
      vertex 0.153713 0.111679 0
      vertex 0.166498 0.0915332 0
    endloop
  endfacet
  facet normal 0 0 -1
    outer loop
      vertex 0.138504 -0.130064 0
      vertex 0.153713 0.111679 0
      vertex 0.153713 -0.111679 0
    endloop
  endfacet
  facet normal 0 0 -1
    outer loop
      vertex 0.138504 -0.130064 0
      vertex 0.138504 0.130064 0
      vertex 0.153713 0.111679 0
    endloop
  endfacet
  facet normal 0 0 -1
    outer loop
      vertex 0.121111 -0.146398 0
      vertex 0.138504 0.130064 0
      vertex 0.138504 -0.130064 0
    endloop
  endfacet
  facet normal 0 0 -1
    outer loop
      vertex 0.121111 -0.146398 0
      vertex 0.121111 0.146398 0
      vertex 0.138504 0.130064 0
    endloop
  endfacet
  facet normal 0 0 -1
    outer loop
      vertex 0.101807 -0.160422 0
      vertex 0.121111 0.146398 0
      vertex 0.121111 -0.146398 0
    endloop
  endfacet
  facet normal 0 0 -1
    outer loop
      vertex 0.101807 -0.160422 0
      vertex 0.101807 0.160422 0
      vertex 0.121111 0.146398 0
    endloop
  endfacet
  facet normal 0 0 -1
    outer loop
      vertex 0.0808981 -0.171917 0
      vertex 0.101807 0.160422 0
      vertex 0.101807 -0.160422 0
    endloop
  endfacet
  facet normal 0 0 -1
    outer loop
      vertex 0.0808981 -0.171917 0
      vertex 0.0808981 0.171917 0
      vertex 0.101807 0.160422 0
    endloop
  endfacet
  facet normal 0 0 -1
    outer loop
      vertex 0.0587132 -0.180701 0
      vertex 0.0808981 0.171917 0
      vertex 0.0808981 -0.171917 0
    endloop
  endfacet
  facet normal 0 0 -1
    outer loop
      vertex 0.0587132 -0.180701 0
      vertex 0.0587132 0.180701 0
      vertex 0.0808981 0.171917 0
    endloop
  endfacet
  facet normal 0 0 -1
    outer loop
      vertex 0.0356025 -0.186635 0
      vertex 0.0587132 0.180701 0
      vertex 0.0587132 -0.180701 0
    endloop
  endfacet
  facet normal 0 0 -1
    outer loop
      vertex 0.0356025 -0.186635 0
      vertex 0.0356025 0.186635 0
      vertex 0.0587132 0.180701 0
    endloop
  endfacet
  facet normal 0 0 -1
    outer loop
      vertex 0.0119302 -0.189625 0
      vertex 0.0356025 0.186635 0
      vertex 0.0356025 -0.186635 0
    endloop
  endfacet
  facet normal 0 0 -1
    outer loop
      vertex 0.0119302 -0.189625 0
      vertex 0.0119302 0.189625 0
      vertex 0.0356025 0.186635 0
    endloop
  endfacet
  facet normal 0 0 -1
    outer loop
      vertex -0.0119302 -0.189625 0
      vertex 0.0119302 0.189625 0
      vertex 0.0119302 -0.189625 0
    endloop
  endfacet
  facet normal 0 0 -1
    outer loop
      vertex -0.0119302 -0.189625 0
      vertex -0.0119302 0.189625 0
      vertex 0.0119302 0.189625 0
    endloop
  endfacet
  facet normal 0 0 -1
    outer loop
      vertex -0.0356025 -0.186635 0
      vertex -0.0119302 0.189625 0
      vertex -0.0119302 -0.189625 0
    endloop
  endfacet
  facet normal 0 0 -1
    outer loop
      vertex -0.0356025 -0.186635 0
      vertex -0.0356025 0.186635 0
      vertex -0.0119302 0.189625 0
    endloop
  endfacet
  facet normal 0 0 -1
    outer loop
      vertex -0.0587132 -0.180701 0
      vertex -0.0356025 0.186635 0
      vertex -0.0356025 -0.186635 0
    endloop
  endfacet
  facet normal 0 0 -1
    outer loop
      vertex -0.0587132 -0.180701 0
      vertex -0.0587132 0.180701 0
      vertex -0.0356025 0.186635 0
    endloop
  endfacet
  facet normal 0 0 -1
    outer loop
      vertex -0.0808981 -0.171917 0
      vertex -0.0587132 0.180701 0
      vertex -0.0587132 -0.180701 0
    endloop
  endfacet
  facet normal 0 0 -1
    outer loop
      vertex -0.0808981 -0.171917 0
      vertex -0.0808981 0.171917 0
      vertex -0.0587132 0.180701 0
    endloop
  endfacet
  facet normal 0 0 -1
    outer loop
      vertex -0.101807 -0.160422 0
      vertex -0.0808981 0.171917 0
      vertex -0.0808981 -0.171917 0
    endloop
  endfacet
  facet normal 0 0 -1
    outer loop
      vertex -0.101807 -0.160422 0
      vertex -0.101807 0.160422 0
      vertex -0.0808981 0.171917 0
    endloop
  endfacet
  facet normal 0 0 -1
    outer loop
      vertex -0.121111 -0.146398 0
      vertex -0.101807 0.160422 0
      vertex -0.101807 -0.160422 0
    endloop
  endfacet
  facet normal 0 0 -1
    outer loop
      vertex -0.121111 -0.146398 0
      vertex -0.121111 0.146398 0
      vertex -0.101807 0.160422 0
    endloop
  endfacet
  facet normal 0 0 -1
    outer loop
      vertex -0.138504 -0.130064 0
      vertex -0.121111 0.146398 0
      vertex -0.121111 -0.146398 0
    endloop
  endfacet
  facet normal 0 0 -1
    outer loop
      vertex -0.138504 -0.130064 0
      vertex -0.138504 0.130064 0
      vertex -0.121111 0.146398 0
    endloop
  endfacet
  facet normal 0 0 -1
    outer loop
      vertex -0.153713 -0.111679 0
      vertex -0.138504 0.130064 0
      vertex -0.138504 -0.130064 0
    endloop
  endfacet
  facet normal 0 0 -1
    outer loop
      vertex -0.153713 -0.111679 0
      vertex -0.153713 0.111679 0
      vertex -0.138504 0.130064 0
    endloop
  endfacet
  facet normal 0 0 -1
    outer loop
      vertex -0.166498 -0.0915332 0
      vertex -0.153713 0.111679 0
      vertex -0.153713 -0.111679 0
    endloop
  endfacet
  facet normal 0 0 -1
    outer loop
      vertex -0.166498 -0.0915332 0
      vertex -0.166498 0.0915332 0
      vertex -0.153713 0.111679 0
    endloop
  endfacet
  facet normal 0 0 -1
    outer loop
      vertex -0.176658 -0.0699437 0
      vertex -0.166498 0.0915332 0
      vertex -0.166498 -0.0915332 0
    endloop
  endfacet
  facet normal 0 0 -1
    outer loop
      vertex -0.176658 -0.0699437 0
      vertex -0.176658 0.0699437 0
      vertex -0.166498 0.0915332 0
    endloop
  endfacet
  facet normal 0 0 -1
    outer loop
      vertex -0.184031 -0.0472511 0
      vertex -0.176658 0.0699437 0
      vertex -0.176658 -0.0699437 0
    endloop
  endfacet
  facet normal 0 0 -1
    outer loop
      vertex -0.184031 -0.0472511 0
      vertex -0.184031 0.0472511 0
      vertex -0.176658 0.0699437 0
    endloop
  endfacet
  facet normal 0 0 -1
    outer loop
      vertex -0.188502 -0.0238133 0
      vertex -0.184031 0.0472511 0
      vertex -0.184031 -0.0472511 0
    endloop
  endfacet
  facet normal 0 0 -1
    outer loop
      vertex -0.188502 -0.0238133 0
      vertex -0.188502 0.0238133 0
      vertex -0.184031 0.0472511 0
    endloop
  endfacet
  facet normal 0 -0 -1
    outer loop
      vertex -0.188502 0.0238133 0
      vertex -0.188502 -0.0238133 0
      vertex -0.19 0 0
    endloop
  endfacet
  facet normal 0 0 1
    outer loop
      vertex 0.188502 0.0238133 0.4
      vertex 0.188502 -0.0238133 0.4
      vertex 0.19 0 0.4
    endloop
  endfacet
  facet normal 0 0 1
    outer loop
      vertex 0.184031 0.0472511 0.4
      vertex 0.188502 -0.0238133 0.4
      vertex 0.188502 0.0238133 0.4
    endloop
  endfacet
  facet normal 0 0 1
    outer loop
      vertex 0.184031 0.0472511 0.4
      vertex 0.184031 -0.0472511 0.4
      vertex 0.188502 -0.0238133 0.4
    endloop
  endfacet
  facet normal 0 0 1
    outer loop
      vertex 0.176658 0.0699437 0.4
      vertex 0.184031 -0.0472511 0.4
      vertex 0.184031 0.0472511 0.4
    endloop
  endfacet
  facet normal 0 0 1
    outer loop
      vertex 0.176658 0.0699437 0.4
      vertex 0.176658 -0.0699437 0.4
      vertex 0.184031 -0.0472511 0.4
    endloop
  endfacet
  facet normal 0 0 1
    outer loop
      vertex 0.166498 0.0915332 0.4
      vertex 0.176658 -0.0699437 0.4
      vertex 0.176658 0.0699437 0.4
    endloop
  endfacet
  facet normal 0 0 1
    outer loop
      vertex 0.166498 0.0915332 0.4
      vertex 0.166498 -0.0915332 0.4
      vertex 0.176658 -0.0699437 0.4
    endloop
  endfacet
  facet normal 0 0 1
    outer loop
      vertex 0.153713 0.111679 0.4
      vertex 0.166498 -0.0915332 0.4
      vertex 0.166498 0.0915332 0.4
    endloop
  endfacet
  facet normal 0 0 1
    outer loop
      vertex 0.153713 0.111679 0.4
      vertex 0.153713 -0.111679 0.4
      vertex 0.166498 -0.0915332 0.4
    endloop
  endfacet
  facet normal 0 0 1
    outer loop
      vertex 0.138504 0.130064 0.4
      vertex 0.153713 -0.111679 0.4
      vertex 0.153713 0.111679 0.4
    endloop
  endfacet
  facet normal 0 0 1
    outer loop
      vertex 0.138504 0.130064 0.4
      vertex 0.138504 -0.130064 0.4
      vertex 0.153713 -0.111679 0.4
    endloop
  endfacet
  facet normal 0 0 1
    outer loop
      vertex 0.121111 0.146398 0.4
      vertex 0.138504 -0.130064 0.4
      vertex 0.138504 0.130064 0.4
    endloop
  endfacet
  facet normal 0 0 1
    outer loop
      vertex 0.121111 0.146398 0.4
      vertex 0.121111 -0.146398 0.4
      vertex 0.138504 -0.130064 0.4
    endloop
  endfacet
  facet normal 0 0 1
    outer loop
      vertex 0.101807 0.160422 0.4
      vertex 0.121111 -0.146398 0.4
      vertex 0.121111 0.146398 0.4
    endloop
  endfacet
  facet normal 0 0 1
    outer loop
      vertex 0.101807 0.160422 0.4
      vertex 0.101807 -0.160422 0.4
      vertex 0.121111 -0.146398 0.4
    endloop
  endfacet
  facet normal 0 0 1
    outer loop
      vertex 0.0808981 0.171917 0.4
      vertex 0.101807 -0.160422 0.4
      vertex 0.101807 0.160422 0.4
    endloop
  endfacet
  facet normal 0 0 1
    outer loop
      vertex 0.0808981 0.171917 0.4
      vertex 0.0808981 -0.171917 0.4
      vertex 0.101807 -0.160422 0.4
    endloop
  endfacet
  facet normal 0 0 1
    outer loop
      vertex 0.0587132 0.180701 0.4
      vertex 0.0808981 -0.171917 0.4
      vertex 0.0808981 0.171917 0.4
    endloop
  endfacet
  facet normal 0 0 1
    outer loop
      vertex 0.0587132 0.180701 0.4
      vertex 0.0587132 -0.180701 0.4
      vertex 0.0808981 -0.171917 0.4
    endloop
  endfacet
  facet normal 0 0 1
    outer loop
      vertex 0.0356025 0.186635 0.4
      vertex 0.0587132 -0.180701 0.4
      vertex 0.0587132 0.180701 0.4
    endloop
  endfacet
  facet normal 0 0 1
    outer loop
      vertex 0.0356025 0.186635 0.4
      vertex 0.0356025 -0.186635 0.4
      vertex 0.0587132 -0.180701 0.4
    endloop
  endfacet
  facet normal 0 0 1
    outer loop
      vertex 0.0119302 0.189625 0.4
      vertex 0.0356025 -0.186635 0.4
      vertex 0.0356025 0.186635 0.4
    endloop
  endfacet
  facet normal 0 0 1
    outer loop
      vertex 0.0119302 0.189625 0.4
      vertex 0.0119302 -0.189625 0.4
      vertex 0.0356025 -0.186635 0.4
    endloop
  endfacet
  facet normal -0 0 1
    outer loop
      vertex -0.0119302 0.189625 0.4
      vertex 0.0119302 -0.189625 0.4
      vertex 0.0119302 0.189625 0.4
    endloop
  endfacet
  facet normal 0 0 1
    outer loop
      vertex -0.0119302 0.189625 0.4
      vertex -0.0119302 -0.189625 0.4
      vertex 0.0119302 -0.189625 0.4
    endloop
  endfacet
  facet normal -0 0 1
    outer loop
      vertex -0.0356025 0.186635 0.4
      vertex -0.0119302 -0.189625 0.4
      vertex -0.0119302 0.189625 0.4
    endloop
  endfacet
  facet normal 0 0 1
    outer loop
      vertex -0.0356025 0.186635 0.4
      vertex -0.0356025 -0.186635 0.4
      vertex -0.0119302 -0.189625 0.4
    endloop
  endfacet
  facet normal -0 0 1
    outer loop
      vertex -0.0587132 0.180701 0.4
      vertex -0.0356025 -0.186635 0.4
      vertex -0.0356025 0.186635 0.4
    endloop
  endfacet
  facet normal 0 0 1
    outer loop
      vertex -0.0587132 0.180701 0.4
      vertex -0.0587132 -0.180701 0.4
      vertex -0.0356025 -0.186635 0.4
    endloop
  endfacet
  facet normal -0 0 1
    outer loop
      vertex -0.0808981 0.171917 0.4
      vertex -0.0587132 -0.180701 0.4
      vertex -0.0587132 0.180701 0.4
    endloop
  endfacet
  facet normal 0 0 1
    outer loop
      vertex -0.0808981 0.171917 0.4
      vertex -0.0808981 -0.171917 0.4
      vertex -0.0587132 -0.180701 0.4
    endloop
  endfacet
  facet normal -0 0 1
    outer loop
      vertex -0.101807 0.160422 0.4
      vertex -0.0808981 -0.171917 0.4
      vertex -0.0808981 0.171917 0.4
    endloop
  endfacet
  facet normal 0 0 1
    outer loop
      vertex -0.101807 0.160422 0.4
      vertex -0.101807 -0.160422 0.4
      vertex -0.0808981 -0.171917 0.4
    endloop
  endfacet
  facet normal -0 0 1
    outer loop
      vertex -0.121111 0.146398 0.4
      vertex -0.101807 -0.160422 0.4
      vertex -0.101807 0.160422 0.4
    endloop
  endfacet
  facet normal 0 0 1
    outer loop
      vertex -0.121111 0.146398 0.4
      vertex -0.121111 -0.146398 0.4
      vertex -0.101807 -0.160422 0.4
    endloop
  endfacet
  facet normal -0 0 1
    outer loop
      vertex -0.138504 0.130064 0.4
      vertex -0.121111 -0.146398 0.4
      vertex -0.121111 0.146398 0.4
    endloop
  endfacet
  facet normal 0 0 1
    outer loop
      vertex -0.138504 0.130064 0.4
      vertex -0.138504 -0.130064 0.4
      vertex -0.121111 -0.146398 0.4
    endloop
  endfacet
  facet normal -0 0 1
    outer loop
      vertex -0.153713 0.111679 0.4
      vertex -0.138504 -0.130064 0.4
      vertex -0.138504 0.130064 0.4
    endloop
  endfacet
  facet normal 0 0 1
    outer loop
      vertex -0.153713 0.111679 0.4
      vertex -0.153713 -0.111679 0.4
      vertex -0.138504 -0.130064 0.4
    endloop
  endfacet
  facet normal -0 0 1
    outer loop
      vertex -0.166498 0.0915332 0.4
      vertex -0.153713 -0.111679 0.4
      vertex -0.153713 0.111679 0.4
    endloop
  endfacet
  facet normal 0 0 1
    outer loop
      vertex -0.166498 0.0915332 0.4
      vertex -0.166498 -0.0915332 0.4
      vertex -0.153713 -0.111679 0.4
    endloop
  endfacet
  facet normal -0 0 1
    outer loop
      vertex -0.176658 0.0699437 0.4
      vertex -0.166498 -0.0915332 0.4
      vertex -0.166498 0.0915332 0.4
    endloop
  endfacet
  facet normal 0 0 1
    outer loop
      vertex -0.176658 0.0699437 0.4
      vertex -0.176658 -0.0699437 0.4
      vertex -0.166498 -0.0915332 0.4
    endloop
  endfacet
  facet normal -0 0 1
    outer loop
      vertex -0.184031 0.0472511 0.4
      vertex -0.176658 -0.0699437 0.4
      vertex -0.176658 0.0699437 0.4
    endloop
  endfacet
  facet normal 0 0 1
    outer loop
      vertex -0.184031 0.0472511 0.4
      vertex -0.184031 -0.0472511 0.4
      vertex -0.176658 -0.0699437 0.4
    endloop
  endfacet
  facet normal -0 0 1
    outer loop
      vertex -0.188502 0.0238133 0.4
      vertex -0.184031 -0.0472511 0.4
      vertex -0.184031 0.0472511 0.4
    endloop
  endfacet
  facet normal 0 0 1
    outer loop
      vertex -0.188502 0.0238133 0.4
      vertex -0.188502 -0.0238133 0.4
      vertex -0.184031 -0.0472511 0.4
    endloop
  endfacet
  facet normal 0 -0 1
    outer loop
      vertex -0.188502 -0.0238133 0.4
      vertex -0.188502 0.0238133 0.4
      vertex -0.19 0 0.4
    endloop
  endfacet
endsolid OpenSCAD_Model
