solid OpenSCAD_Model
  facet normal 0.998026 0.062808 0
    outer loop
      vertex 0.16 0 0.4
      vertex 0.158738 0.0200533 0
      vertex 0.158738 0.0200533 0.4
    endloop
  endfacet
  facet normal 0.998026 0.062808 0
    outer loop
      vertex 0.158738 0.0200533 0
      vertex 0.16 0 0.4
      vertex 0.16 0 0
    endloop
  endfacet
  facet normal -0.998028 0.0627759 0
    outer loop
      vertex -0.16 0 0.104
      vertex -0.158742 0.02 0.288
      vertex -0.158742 0.02 0.104
    endloop
  endfacet
  facet normal -0.998028 0.0627759 0
    outer loop
      vertex -0.158742 0.02 0.288
      vertex -0.16 0 0.104
      vertex -0.16 0 0.288
    endloop
  endfacet
  facet normal -0.997196 0.0748365 0
    outer loop
      vertex -0.158738 0.0200533 0
      vertex -0.158742 0.02 0.08
      vertex -0.158738 0.0200533 0.4
    endloop
  endfacet
  facet normal -0.998026 0.062808 -8.05543e-06
    outer loop
      vertex -0.16 0 0
      vertex -0.158742 0.02 0.08
      vertex -0.158738 0.0200533 0
    endloop
  endfacet
  facet normal -0.998028 0.0627759 0
    outer loop
      vertex -0.158742 0.02 0.08
      vertex -0.16 0 0
      vertex -0.16 0 0.08
    endloop
  endfacet
  facet normal -0.997196 0.0748365 0
    outer loop
      vertex -0.158742 0.02 0.104
      vertex -0.158738 0.0200533 0.4
      vertex -0.158742 0.02 0.08
    endloop
  endfacet
  facet normal -0.997196 0.0748365 0
    outer loop
      vertex -0.158742 0.02 0.288
      vertex -0.158738 0.0200533 0.4
      vertex -0.158742 0.02 0.104
    endloop
  endfacet
  facet normal -0.997196 0.0748365 0
    outer loop
      vertex -0.158742 0.02 0.32
      vertex -0.158738 0.0200533 0.4
      vertex -0.158742 0.02 0.288
    endloop
  endfacet
  facet normal -0.998028 0.0627759 8.07691e-06
    outer loop
      vertex -0.16 0 0.32
      vertex -0.158738 0.0200533 0.4
      vertex -0.158742 0.02 0.32
    endloop
  endfacet
  facet normal -0.998026 0.062808 0
    outer loop
      vertex -0.158738 0.0200533 0.4
      vertex -0.16 0 0.32
      vertex -0.16 0 0.4
    endloop
  endfacet
  facet normal 0 1 -0
    outer loop
      vertex 0.0100465 0.159684 0
      vertex -0.0100465 0.159684 0.4
      vertex 0.0100465 0.159684 0.4
    endloop
  endfacet
  facet normal 0 1 0
    outer loop
      vertex -0.0100465 0.159684 0.4
      vertex 0.0100465 0.159684 0
      vertex -0.0100465 0.159684 0
    endloop
  endfacet
  facet normal 0 -1 0
    outer loop
      vertex -0.0100465 -0.159684 0
      vertex 0.0100465 -0.159684 0.4
      vertex -0.0100465 -0.159684 0.4
    endloop
  endfacet
  facet normal 0 -1 -0
    outer loop
      vertex 0.0100465 -0.159684 0.4
      vertex -0.0100465 -0.159684 0
      vertex 0.0100465 -0.159684 0
    endloop
  endfacet
  facet normal 0.684535 0.72898 -0
    outer loop
      vertex 0.116635 0.109528 0
      vertex 0.101988 0.123282 0.4
      vertex 0.116635 0.109528 0.4
    endloop
  endfacet
  facet normal 0.684535 0.72898 0
    outer loop
      vertex 0.101988 0.123282 0.4
      vertex 0.116635 0.109528 0
      vertex 0.101988 0.123282 0
    endloop
  endfacet
  facet normal -0.684535 0.72898 0
    outer loop
      vertex -0.101988 0.123282 0
      vertex -0.116635 0.109528 0.4
      vertex -0.101988 0.123282 0.4
    endloop
  endfacet
  facet normal -0.684535 0.72898 0
    outer loop
      vertex -0.116635 0.109528 0.4
      vertex -0.101988 0.123282 0
      vertex -0.116635 0.109528 0
    endloop
  endfacet
  facet normal -0.368136 0.929772 0
    outer loop
      vertex -0.0494427 0.152169 0
      vertex -0.0681247 0.144772 0.4
      vertex -0.0494427 0.152169 0.4
    endloop
  endfacet
  facet normal -0.368136 0.929772 0
    outer loop
      vertex -0.0681247 0.144772 0.4
      vertex -0.0494427 0.152169 0
      vertex -0.0681247 0.144772 0
    endloop
  endfacet
  facet normal 0.904831 0.425772 0
    outer loop
      vertex 0.148764 0.0588999 0.4
      vertex 0.140209 0.0770806 0
      vertex 0.140209 0.0770806 0.4
    endloop
  endfacet
  facet normal 0.904831 0.425772 0
    outer loop
      vertex 0.140209 0.0770806 0
      vertex 0.148764 0.0588999 0.4
      vertex 0.148764 0.0588999 0
    endloop
  endfacet
  facet normal 0.368136 0.929772 -0
    outer loop
      vertex 0.0681247 0.144772 0
      vertex 0.0494427 0.152169 0.4
      vertex 0.0681247 0.144772 0.4
    endloop
  endfacet
  facet normal 0.368136 0.929772 0
    outer loop
      vertex 0.0494427 0.152169 0.4
      vertex 0.0681247 0.144772 0
      vertex 0.0494427 0.152169 0
    endloop
  endfacet
  facet normal 0.58777 0.809028 -0
    outer loop
      vertex 0.101988 0.123282 0
      vertex 0.0857323 0.135092 0.4
      vertex 0.101988 0.123282 0.4
    endloop
  endfacet
  facet normal 0.58777 0.809028 0
    outer loop
      vertex 0.0857323 0.135092 0.4
      vertex 0.101988 0.123282 0
      vertex 0.0857323 0.135092 0
    endloop
  endfacet
  facet normal -0.904831 0.425772 0
    outer loop
      vertex -0.148764 0.0588999 0
      vertex -0.140209 0.0770806 0.4
      vertex -0.140209 0.0770806 0
    endloop
  endfacet
  facet normal -0.904831 0.425772 0
    outer loop
      vertex -0.140209 0.0770806 0.4
      vertex -0.148764 0.0588999 0
      vertex -0.148764 0.0588999 0.4
    endloop
  endfacet
  facet normal -0.770517 0.637419 0
    outer loop
      vertex -0.129443 0.0940456 0
      vertex -0.116635 0.109528 0.4
      vertex -0.116635 0.109528 0
    endloop
  endfacet
  facet normal -0.770517 0.637419 0
    outer loop
      vertex -0.116635 0.109528 0.4
      vertex -0.129443 0.0940456 0
      vertex -0.129443 0.0940456 0.4
    endloop
  endfacet
  facet normal -0.951057 0.309015 0
    outer loop
      vertex -0.154973 0.0397904 0
      vertex -0.148764 0.0588999 0.4
      vertex -0.148764 0.0588999 0
    endloop
  endfacet
  facet normal -0.951057 0.309015 0
    outer loop
      vertex -0.148764 0.0588999 0.4
      vertex -0.154973 0.0397904 0
      vertex -0.154973 0.0397904 0.4
    endloop
  endfacet
  facet normal -0.481759 0.876304 0
    outer loop
      vertex -0.0681247 0.144772 0
      vertex -0.0857323 0.135092 0.4
      vertex -0.0681247 0.144772 0.4
    endloop
  endfacet
  facet normal -0.481759 0.876304 0
    outer loop
      vertex -0.0857323 0.135092 0.4
      vertex -0.0681247 0.144772 0
      vertex -0.0857323 0.135092 0
    endloop
  endfacet
  facet normal -0.248694 0.968582 0
    outer loop
      vertex -0.029981 0.157166 0
      vertex -0.0494427 0.152169 0.4
      vertex -0.029981 0.157166 0.4
    endloop
  endfacet
  facet normal -0.248694 0.968582 0
    outer loop
      vertex -0.0494427 0.152169 0.4
      vertex -0.029981 0.157166 0
      vertex -0.0494427 0.152169 0
    endloop
  endfacet
  facet normal 0.368136 -0.929772 0
    outer loop
      vertex 0.0494427 -0.152169 0
      vertex 0.0681247 -0.144772 0.4
      vertex 0.0494427 -0.152169 0.4
    endloop
  endfacet
  facet normal 0.368136 -0.929772 0
    outer loop
      vertex 0.0681247 -0.144772 0.4
      vertex 0.0494427 -0.152169 0
      vertex 0.0681247 -0.144772 0
    endloop
  endfacet
  facet normal 0.951057 0.309015 0
    outer loop
      vertex 0.154973 0.0397904 0.4
      vertex 0.148764 0.0588999 0
      vertex 0.148764 0.0588999 0.4
    endloop
  endfacet
  facet normal 0.951057 0.309015 0
    outer loop
      vertex 0.148764 0.0588999 0
      vertex 0.154973 0.0397904 0.4
      vertex 0.154973 0.0397904 0
    endloop
  endfacet
  facet normal 0.982288 0.187379 0
    outer loop
      vertex 0.158738 0.0200533 0.4
      vertex 0.154973 0.0397904 0
      vertex 0.154973 0.0397904 0.4
    endloop
  endfacet
  facet normal 0.982288 0.187379 0
    outer loop
      vertex 0.154973 0.0397904 0
      vertex 0.158738 0.0200533 0.4
      vertex 0.158738 0.0200533 0
    endloop
  endfacet
  facet normal 0.770517 0.637419 0
    outer loop
      vertex 0.129443 0.0940456 0.4
      vertex 0.116635 0.109528 0
      vertex 0.116635 0.109528 0.4
    endloop
  endfacet
  facet normal 0.770517 0.637419 0
    outer loop
      vertex 0.116635 0.109528 0
      vertex 0.129443 0.0940456 0.4
      vertex 0.129443 0.0940456 0
    endloop
  endfacet
  facet normal 0.844335 0.535816 0
    outer loop
      vertex 0.140209 0.0770806 0.4
      vertex 0.129443 0.0940456 0
      vertex 0.129443 0.0940456 0.4
    endloop
  endfacet
  facet normal 0.844335 0.535816 0
    outer loop
      vertex 0.129443 0.0940456 0
      vertex 0.140209 0.0770806 0.4
      vertex 0.140209 0.0770806 0
    endloop
  endfacet
  facet normal 0.248694 0.968582 -0
    outer loop
      vertex 0.0494427 0.152169 0
      vertex 0.029981 0.157166 0.4
      vertex 0.0494427 0.152169 0.4
    endloop
  endfacet
  facet normal 0.248694 0.968582 0
    outer loop
      vertex 0.029981 0.157166 0.4
      vertex 0.0494427 0.152169 0
      vertex 0.029981 0.157166 0
    endloop
  endfacet
  facet normal 0.125318 0.992117 -0
    outer loop
      vertex 0.029981 0.157166 0
      vertex 0.0100465 0.159684 0.4
      vertex 0.029981 0.157166 0.4
    endloop
  endfacet
  facet normal 0.125318 0.992117 0
    outer loop
      vertex 0.0100465 0.159684 0.4
      vertex 0.029981 0.157166 0
      vertex 0.0100465 0.159684 0
    endloop
  endfacet
  facet normal 0.481759 0.876304 -0
    outer loop
      vertex 0.0857323 0.135092 0
      vertex 0.0681247 0.144772 0.4
      vertex 0.0857323 0.135092 0.4
    endloop
  endfacet
  facet normal 0.481759 0.876304 0
    outer loop
      vertex 0.0681247 0.144772 0.4
      vertex 0.0857323 0.135092 0
      vertex 0.0681247 0.144772 0
    endloop
  endfacet
  facet normal -0.844335 0.535816 0
    outer loop
      vertex -0.140209 0.0770806 0
      vertex -0.129443 0.0940456 0.4
      vertex -0.129443 0.0940456 0
    endloop
  endfacet
  facet normal -0.844335 0.535816 0
    outer loop
      vertex -0.129443 0.0940456 0.4
      vertex -0.140209 0.0770806 0
      vertex -0.140209 0.0770806 0.4
    endloop
  endfacet
  facet normal -0.982288 0.187379 0
    outer loop
      vertex -0.158738 0.0200533 0
      vertex -0.154973 0.0397904 0.4
      vertex -0.154973 0.0397904 0
    endloop
  endfacet
  facet normal -0.982288 0.187379 0
    outer loop
      vertex -0.154973 0.0397904 0.4
      vertex -0.158738 0.0200533 0
      vertex -0.158738 0.0200533 0.4
    endloop
  endfacet
  facet normal 0 0 1
    outer loop
      vertex 0.14 0 0.4
      vertex 0.16 0 0.4
      vertex 0.158738 0.0200533 0.4
    endloop
  endfacet
  facet normal 0 0 1
    outer loop
      vertex 0.138896 0.0175466 0.4
      vertex 0.158738 0.0200533 0.4
      vertex 0.154973 0.0397904 0.4
    endloop
  endfacet
  facet normal 0 0 1
    outer loop
      vertex 0.16 0 0.4
      vertex 0.14 0 0.4
      vertex 0.158738 -0.0200533 0.4
    endloop
  endfacet
  facet normal 0 0 1
    outer loop
      vertex 0.135602 0.0348166 0.4
      vertex 0.154973 0.0397904 0.4
      vertex 0.148764 0.0588999 0.4
    endloop
  endfacet
  facet normal -0 0 1
    outer loop
      vertex 0.138896 -0.0175466 0.4
      vertex 0.158738 -0.0200533 0.4
      vertex 0.14 0 0.4
    endloop
  endfacet
  facet normal 0 0 1
    outer loop
      vertex 0.130169 0.0515374 0.4
      vertex 0.148764 0.0588999 0.4
      vertex 0.140209 0.0770806 0.4
    endloop
  endfacet
  facet normal 0 0 1
    outer loop
      vertex 0.158738 -0.0200533 0.4
      vertex 0.138896 -0.0175466 0.4
      vertex 0.154973 -0.0397904 0.4
    endloop
  endfacet
  facet normal -0 0 1
    outer loop
      vertex 0.135602 -0.0348166 0.4
      vertex 0.154973 -0.0397904 0.4
      vertex 0.138896 -0.0175466 0.4
    endloop
  endfacet
  facet normal 0 0 1
    outer loop
      vertex 0.158738 0.0200533 0.4
      vertex 0.138896 0.0175466 0.4
      vertex 0.14 0 0.4
    endloop
  endfacet
  facet normal 0 0 1
    outer loop
      vertex 0.154973 0.0397904 0.4
      vertex 0.135602 0.0348166 0.4
      vertex 0.138896 0.0175466 0.4
    endloop
  endfacet
  facet normal 0 0 1
    outer loop
      vertex 0.148764 0.0588999 0.4
      vertex 0.130169 0.0515374 0.4
      vertex 0.135602 0.0348166 0.4
    endloop
  endfacet
  facet normal 0 0 1
    outer loop
      vertex 0.122683 0.0674455 0.4
      vertex 0.140209 0.0770806 0.4
      vertex 0.129443 0.0940456 0.4
    endloop
  endfacet
  facet normal 0 0 1
    outer loop
      vertex 0.140209 0.0770806 0.4
      vertex 0.122683 0.0674455 0.4
      vertex 0.130169 0.0515374 0.4
    endloop
  endfacet
  facet normal 0 0 1
    outer loop
      vertex 0.113262 0.0822899 0.4
      vertex 0.129443 0.0940456 0.4
      vertex 0.116635 0.109528 0.4
    endloop
  endfacet
  facet normal 0 0 1
    outer loop
      vertex 0.129443 0.0940456 0.4
      vertex 0.113262 0.0822899 0.4
      vertex 0.122683 0.0674455 0.4
    endloop
  endfacet
  facet normal 0 0 1
    outer loop
      vertex 0.116635 0.109528 0.4
      vertex 0.102056 0.0958366 0.4
      vertex 0.113262 0.0822899 0.4
    endloop
  endfacet
  facet normal 0 0 1
    outer loop
      vertex 0.101988 0.123282 0.4
      vertex 0.102056 0.0958366 0.4
      vertex 0.116635 0.109528 0.4
    endloop
  endfacet
  facet normal 0 0 1
    outer loop
      vertex 0.101988 0.123282 0.4
      vertex 0.0892394 0.107872 0.4
      vertex 0.102056 0.0958366 0.4
    endloop
  endfacet
  facet normal 0 0 1
    outer loop
      vertex 0.0857323 0.135092 0.4
      vertex 0.0892394 0.107872 0.4
      vertex 0.101988 0.123282 0.4
    endloop
  endfacet
  facet normal 0 0 1
    outer loop
      vertex 0.0857323 0.135092 0.4
      vertex 0.0750157 0.118206 0.4
      vertex 0.0892394 0.107872 0.4
    endloop
  endfacet
  facet normal 0 0 1
    outer loop
      vertex 0.0681247 0.144772 0.4
      vertex 0.0750157 0.118206 0.4
      vertex 0.0857323 0.135092 0.4
    endloop
  endfacet
  facet normal 0 0 1
    outer loop
      vertex 0.0681247 0.144772 0.4
      vertex 0.0596091 0.126676 0.4
      vertex 0.0750157 0.118206 0.4
    endloop
  endfacet
  facet normal 0 0 1
    outer loop
      vertex 0.0494427 0.152169 0.4
      vertex 0.0596091 0.126676 0.4
      vertex 0.0681247 0.144772 0.4
    endloop
  endfacet
  facet normal 0 0 1
    outer loop
      vertex 0.0494427 0.152169 0.4
      vertex 0.0432624 0.133148 0.4
      vertex 0.0596091 0.126676 0.4
    endloop
  endfacet
  facet normal 0 0 1
    outer loop
      vertex 0.029981 0.157166 0.4
      vertex 0.0432624 0.133148 0.4
      vertex 0.0494427 0.152169 0.4
    endloop
  endfacet
  facet normal 0 0 1
    outer loop
      vertex 0.029981 0.157166 0.4
      vertex 0.0262334 0.13752 0.4
      vertex 0.0432624 0.133148 0.4
    endloop
  endfacet
  facet normal 0 0 1
    outer loop
      vertex 0.0100465 0.159684 0.4
      vertex 0.0262334 0.13752 0.4
      vertex 0.029981 0.157166 0.4
    endloop
  endfacet
  facet normal 0 0 1
    outer loop
      vertex 0.0100465 0.159684 0.4
      vertex 0.00879067 0.139724 0.4
      vertex 0.0262334 0.13752 0.4
    endloop
  endfacet
  facet normal 0 0 1
    outer loop
      vertex 0.0100465 0.159684 0.4
      vertex -0.00879067 0.139724 0.4
      vertex 0.00879067 0.139724 0.4
    endloop
  endfacet
  facet normal -0 0 1
    outer loop
      vertex -0.0100465 0.159684 0.4
      vertex -0.00879067 0.139724 0.4
      vertex 0.0100465 0.159684 0.4
    endloop
  endfacet
  facet normal 0 0 1
    outer loop
      vertex -0.0100465 0.159684 0.4
      vertex -0.0262334 0.13752 0.4
      vertex -0.00879067 0.139724 0.4
    endloop
  endfacet
  facet normal -0 0 1
    outer loop
      vertex -0.029981 0.157166 0.4
      vertex -0.0262334 0.13752 0.4
      vertex -0.0100465 0.159684 0.4
    endloop
  endfacet
  facet normal 0 0 1
    outer loop
      vertex -0.029981 0.157166 0.4
      vertex -0.0432624 0.133148 0.4
      vertex -0.0262334 0.13752 0.4
    endloop
  endfacet
  facet normal -0 0 1
    outer loop
      vertex -0.0494427 0.152169 0.4
      vertex -0.0432624 0.133148 0.4
      vertex -0.029981 0.157166 0.4
    endloop
  endfacet
  facet normal 0 0 1
    outer loop
      vertex -0.0494427 0.152169 0.4
      vertex -0.0596091 0.126676 0.4
      vertex -0.0432624 0.133148 0.4
    endloop
  endfacet
  facet normal -0 0 1
    outer loop
      vertex -0.0681247 0.144772 0.4
      vertex -0.0596091 0.126676 0.4
      vertex -0.0494427 0.152169 0.4
    endloop
  endfacet
  facet normal 0 0 1
    outer loop
      vertex -0.0681247 0.144772 0.4
      vertex -0.0750157 0.118206 0.4
      vertex -0.0596091 0.126676 0.4
    endloop
  endfacet
  facet normal -0 0 1
    outer loop
      vertex -0.0857323 0.135092 0.4
      vertex -0.0750157 0.118206 0.4
      vertex -0.0681247 0.144772 0.4
    endloop
  endfacet
  facet normal 0 0 1
    outer loop
      vertex -0.0857323 0.135092 0.4
      vertex -0.0892394 0.107872 0.4
      vertex -0.0750157 0.118206 0.4
    endloop
  endfacet
  facet normal -0 0 1
    outer loop
      vertex -0.101988 0.123282 0.4
      vertex -0.0892394 0.107872 0.4
      vertex -0.0857323 0.135092 0.4
    endloop
  endfacet
  facet normal 0 0 1
    outer loop
      vertex -0.101988 0.123282 0.4
      vertex -0.102056 0.0958366 0.4
      vertex -0.0892394 0.107872 0.4
    endloop
  endfacet
  facet normal -0 0 1
    outer loop
      vertex -0.116635 0.109528 0.4
      vertex -0.102056 0.0958366 0.4
      vertex -0.101988 0.123282 0.4
    endloop
  endfacet
  facet normal 0 0 1
    outer loop
      vertex -0.102056 0.0958366 0.4
      vertex -0.116635 0.109528 0.4
      vertex -0.113262 0.0822899 0.4
    endloop
  endfacet
  facet normal -0 0 1
    outer loop
      vertex -0.129443 0.0940456 0.4
      vertex -0.113262 0.0822899 0.4
      vertex -0.116635 0.109528 0.4
    endloop
  endfacet
  facet normal 0 0 1
    outer loop
      vertex -0.113262 0.0822899 0.4
      vertex -0.129443 0.0940456 0.4
      vertex -0.122683 0.0674455 0.4
    endloop
  endfacet
  facet normal -0 0 1
    outer loop
      vertex -0.140209 0.0770806 0.4
      vertex -0.122683 0.0674455 0.4
      vertex -0.129443 0.0940456 0.4
    endloop
  endfacet
  facet normal 0 0 1
    outer loop
      vertex -0.122683 0.0674455 0.4
      vertex -0.140209 0.0770806 0.4
      vertex -0.130169 0.0515374 0.4
    endloop
  endfacet
  facet normal -0 0 1
    outer loop
      vertex -0.148764 0.0588999 0.4
      vertex -0.130169 0.0515374 0.4
      vertex -0.140209 0.0770806 0.4
    endloop
  endfacet
  facet normal -0 0 1
    outer loop
      vertex -0.154973 0.0397904 0.4
      vertex -0.135602 0.0348166 0.4
      vertex -0.148764 0.0588999 0.4
    endloop
  endfacet
  facet normal 0 0 1
    outer loop
      vertex -0.130169 0.0515374 0.4
      vertex -0.148764 0.0588999 0.4
      vertex -0.135602 0.0348166 0.4
    endloop
  endfacet
  facet normal 0 0 1
    outer loop
      vertex 0.154973 -0.0397904 0.4
      vertex 0.135602 -0.0348166 0.4
      vertex 0.148764 -0.0588999 0.4
    endloop
  endfacet
  facet normal -0 0 1
    outer loop
      vertex 0.130169 -0.0515374 0.4
      vertex 0.148764 -0.0588999 0.4
      vertex 0.135602 -0.0348166 0.4
    endloop
  endfacet
  facet normal 0 0 1
    outer loop
      vertex 0.148764 -0.0588999 0.4
      vertex 0.130169 -0.0515374 0.4
      vertex 0.140209 -0.0770806 0.4
    endloop
  endfacet
  facet normal -0 0 1
    outer loop
      vertex 0.122683 -0.0674455 0.4
      vertex 0.140209 -0.0770806 0.4
      vertex 0.130169 -0.0515374 0.4
    endloop
  endfacet
  facet normal 0 0 1
    outer loop
      vertex 0.140209 -0.0770806 0.4
      vertex 0.122683 -0.0674455 0.4
      vertex 0.129443 -0.0940456 0.4
    endloop
  endfacet
  facet normal -0 0 1
    outer loop
      vertex 0.113262 -0.0822899 0.4
      vertex 0.129443 -0.0940456 0.4
      vertex 0.122683 -0.0674455 0.4
    endloop
  endfacet
  facet normal 0 0 1
    outer loop
      vertex 0.129443 -0.0940456 0.4
      vertex 0.113262 -0.0822899 0.4
      vertex 0.116635 -0.109528 0.4
    endloop
  endfacet
  facet normal -0 0 1
    outer loop
      vertex 0.102056 -0.0958366 0.4
      vertex 0.116635 -0.109528 0.4
      vertex 0.113262 -0.0822899 0.4
    endloop
  endfacet
  facet normal 0 0 1
    outer loop
      vertex 0.102056 -0.0958366 0.4
      vertex 0.101988 -0.123282 0.4
      vertex 0.116635 -0.109528 0.4
    endloop
  endfacet
  facet normal -0 0 1
    outer loop
      vertex 0.0892394 -0.107872 0.4
      vertex 0.101988 -0.123282 0.4
      vertex 0.102056 -0.0958366 0.4
    endloop
  endfacet
  facet normal 0 0 1
    outer loop
      vertex 0.0892394 -0.107872 0.4
      vertex 0.0857323 -0.135092 0.4
      vertex 0.101988 -0.123282 0.4
    endloop
  endfacet
  facet normal -0 0 1
    outer loop
      vertex 0.0750157 -0.118206 0.4
      vertex 0.0857323 -0.135092 0.4
      vertex 0.0892394 -0.107872 0.4
    endloop
  endfacet
  facet normal 0 0 1
    outer loop
      vertex 0.0750157 -0.118206 0.4
      vertex 0.0681247 -0.144772 0.4
      vertex 0.0857323 -0.135092 0.4
    endloop
  endfacet
  facet normal -0 0 1
    outer loop
      vertex 0.0596091 -0.126676 0.4
      vertex 0.0681247 -0.144772 0.4
      vertex 0.0750157 -0.118206 0.4
    endloop
  endfacet
  facet normal 0 0 1
    outer loop
      vertex 0.0596091 -0.126676 0.4
      vertex 0.0494427 -0.152169 0.4
      vertex 0.0681247 -0.144772 0.4
    endloop
  endfacet
  facet normal -0 0 1
    outer loop
      vertex 0.0432624 -0.133148 0.4
      vertex 0.0494427 -0.152169 0.4
      vertex 0.0596091 -0.126676 0.4
    endloop
  endfacet
  facet normal 0 0 1
    outer loop
      vertex 0.0432624 -0.133148 0.4
      vertex 0.029981 -0.157166 0.4
      vertex 0.0494427 -0.152169 0.4
    endloop
  endfacet
  facet normal -0 0 1
    outer loop
      vertex 0.0262334 -0.13752 0.4
      vertex 0.029981 -0.157166 0.4
      vertex 0.0432624 -0.133148 0.4
    endloop
  endfacet
  facet normal 0 0 1
    outer loop
      vertex 0.0262334 -0.13752 0.4
      vertex 0.0100465 -0.159684 0.4
      vertex 0.029981 -0.157166 0.4
    endloop
  endfacet
  facet normal -0 0 1
    outer loop
      vertex 0.00879067 -0.139724 0.4
      vertex 0.0100465 -0.159684 0.4
      vertex 0.0262334 -0.13752 0.4
    endloop
  endfacet
  facet normal -0 0 1
    outer loop
      vertex -0.00879067 -0.139724 0.4
      vertex 0.0100465 -0.159684 0.4
      vertex 0.00879067 -0.139724 0.4
    endloop
  endfacet
  facet normal 0 0 1
    outer loop
      vertex -0.00879067 -0.139724 0.4
      vertex -0.0100465 -0.159684 0.4
      vertex 0.0100465 -0.159684 0.4
    endloop
  endfacet
  facet normal 0 0 1
    outer loop
      vertex -0.0262334 -0.13752 0.4
      vertex -0.0100465 -0.159684 0.4
      vertex -0.00879067 -0.139724 0.4
    endloop
  endfacet
  facet normal 0 0 1
    outer loop
      vertex -0.0262334 -0.13752 0.4
      vertex -0.029981 -0.157166 0.4
      vertex -0.0100465 -0.159684 0.4
    endloop
  endfacet
  facet normal 0 0 1
    outer loop
      vertex -0.0432624 -0.133148 0.4
      vertex -0.029981 -0.157166 0.4
      vertex -0.0262334 -0.13752 0.4
    endloop
  endfacet
  facet normal 0 0 1
    outer loop
      vertex -0.0432624 -0.133148 0.4
      vertex -0.0494427 -0.152169 0.4
      vertex -0.029981 -0.157166 0.4
    endloop
  endfacet
  facet normal 0 0 1
    outer loop
      vertex -0.0596091 -0.126676 0.4
      vertex -0.0494427 -0.152169 0.4
      vertex -0.0432624 -0.133148 0.4
    endloop
  endfacet
  facet normal 0 0 1
    outer loop
      vertex -0.0596091 -0.126676 0.4
      vertex -0.0681247 -0.144772 0.4
      vertex -0.0494427 -0.152169 0.4
    endloop
  endfacet
  facet normal 0 0 1
    outer loop
      vertex -0.0750157 -0.118206 0.4
      vertex -0.0681247 -0.144772 0.4
      vertex -0.0596091 -0.126676 0.4
    endloop
  endfacet
  facet normal 0 0 1
    outer loop
      vertex -0.0750157 -0.118206 0.4
      vertex -0.0857323 -0.135092 0.4
      vertex -0.0681247 -0.144772 0.4
    endloop
  endfacet
  facet normal 0 0 1
    outer loop
      vertex -0.0892394 -0.107872 0.4
      vertex -0.0857323 -0.135092 0.4
      vertex -0.0750157 -0.118206 0.4
    endloop
  endfacet
  facet normal 0 0 1
    outer loop
      vertex -0.0892394 -0.107872 0.4
      vertex -0.101988 -0.123282 0.4
      vertex -0.0857323 -0.135092 0.4
    endloop
  endfacet
  facet normal 0 0 1
    outer loop
      vertex -0.102056 -0.0958366 0.4
      vertex -0.101988 -0.123282 0.4
      vertex -0.0892394 -0.107872 0.4
    endloop
  endfacet
  facet normal 0 0 1
    outer loop
      vertex -0.116635 -0.109528 0.4
      vertex -0.102056 -0.0958366 0.4
      vertex -0.113262 -0.0822899 0.4
    endloop
  endfacet
  facet normal 0 0 1
    outer loop
      vertex -0.102056 -0.0958366 0.4
      vertex -0.116635 -0.109528 0.4
      vertex -0.101988 -0.123282 0.4
    endloop
  endfacet
  facet normal 0 0 1
    outer loop
      vertex -0.129443 -0.0940456 0.4
      vertex -0.113262 -0.0822899 0.4
      vertex -0.122683 -0.0674455 0.4
    endloop
  endfacet
  facet normal 0 0 1
    outer loop
      vertex -0.113262 -0.0822899 0.4
      vertex -0.129443 -0.0940456 0.4
      vertex -0.116635 -0.109528 0.4
    endloop
  endfacet
  facet normal 0 0 1
    outer loop
      vertex -0.140209 -0.0770806 0.4
      vertex -0.122683 -0.0674455 0.4
      vertex -0.130169 -0.0515374 0.4
    endloop
  endfacet
  facet normal 0 0 1
    outer loop
      vertex -0.148764 -0.0588999 0.4
      vertex -0.130169 -0.0515374 0.4
      vertex -0.135602 -0.0348166 0.4
    endloop
  endfacet
  facet normal 0 0 1
    outer loop
      vertex -0.154973 -0.0397904 0.4
      vertex -0.135602 -0.0348166 0.4
      vertex -0.138896 -0.0175466 0.4
    endloop
  endfacet
  facet normal 0 0 1
    outer loop
      vertex -0.122683 -0.0674455 0.4
      vertex -0.140209 -0.0770806 0.4
      vertex -0.129443 -0.0940456 0.4
    endloop
  endfacet
  facet normal 0 0 1
    outer loop
      vertex -0.158738 -0.0200533 0.4
      vertex -0.138896 -0.0175466 0.4
      vertex -0.14 0 0.4
    endloop
  endfacet
  facet normal 0 0 1
    outer loop
      vertex -0.135602 0.0348166 0.4
      vertex -0.154973 0.0397904 0.4
      vertex -0.138896 0.0175466 0.4
    endloop
  endfacet
  facet normal -0 0 1
    outer loop
      vertex -0.158738 0.0200533 0.4
      vertex -0.138896 0.0175466 0.4
      vertex -0.154973 0.0397904 0.4
    endloop
  endfacet
  facet normal 0 0 1
    outer loop
      vertex -0.130169 -0.0515374 0.4
      vertex -0.148764 -0.0588999 0.4
      vertex -0.140209 -0.0770806 0.4
    endloop
  endfacet
  facet normal 0 0 1
    outer loop
      vertex -0.138896 0.0175466 0.4
      vertex -0.158738 0.0200533 0.4
      vertex -0.14 0 0.4
    endloop
  endfacet
  facet normal 0 0 1
    outer loop
      vertex -0.135602 -0.0348166 0.4
      vertex -0.154973 -0.0397904 0.4
      vertex -0.148764 -0.0588999 0.4
    endloop
  endfacet
  facet normal 0 0 1
    outer loop
      vertex -0.16 0 0.4
      vertex -0.14 0 0.4
      vertex -0.158738 0.0200533 0.4
    endloop
  endfacet
  facet normal 0 0 1
    outer loop
      vertex -0.138896 -0.0175466 0.4
      vertex -0.158738 -0.0200533 0.4
      vertex -0.154973 -0.0397904 0.4
    endloop
  endfacet
  facet normal 0 0 1
    outer loop
      vertex -0.14 0 0.4
      vertex -0.16 0 0.4
      vertex -0.158738 -0.0200533 0.4
    endloop
  endfacet
  facet normal -0.58777 0.809028 0
    outer loop
      vertex -0.0857323 0.135092 0
      vertex -0.101988 0.123282 0.4
      vertex -0.0857323 0.135092 0.4
    endloop
  endfacet
  facet normal -0.58777 0.809028 0
    outer loop
      vertex -0.101988 0.123282 0.4
      vertex -0.0857323 0.135092 0
      vertex -0.101988 0.123282 0
    endloop
  endfacet
  facet normal -0.125318 0.992117 0
    outer loop
      vertex -0.0100465 0.159684 0
      vertex -0.029981 0.157166 0.4
      vertex -0.0100465 0.159684 0.4
    endloop
  endfacet
  facet normal -0.125318 0.992117 0
    outer loop
      vertex -0.029981 0.157166 0.4
      vertex -0.0100465 0.159684 0
      vertex -0.029981 0.157166 0
    endloop
  endfacet
  facet normal 0.998026 -0.062808 0
    outer loop
      vertex 0.158738 -0.0200533 0.4
      vertex 0.16 0 0
      vertex 0.16 0 0.4
    endloop
  endfacet
  facet normal 0.998026 -0.062808 0
    outer loop
      vertex 0.16 0 0
      vertex 0.158738 -0.0200533 0.4
      vertex 0.158738 -0.0200533 0
    endloop
  endfacet
  facet normal 0.481759 -0.876304 0
    outer loop
      vertex 0.0681247 -0.144772 0
      vertex 0.0857323 -0.135092 0.4
      vertex 0.0681247 -0.144772 0.4
    endloop
  endfacet
  facet normal 0.481759 -0.876304 0
    outer loop
      vertex 0.0857323 -0.135092 0.4
      vertex 0.0681247 -0.144772 0
      vertex 0.0857323 -0.135092 0
    endloop
  endfacet
  facet normal 0.770517 -0.637419 0
    outer loop
      vertex 0.116635 -0.109528 0.4
      vertex 0.129443 -0.0940456 0
      vertex 0.129443 -0.0940456 0.4
    endloop
  endfacet
  facet normal 0.770517 -0.637419 0
    outer loop
      vertex 0.129443 -0.0940456 0
      vertex 0.116635 -0.109528 0.4
      vertex 0.116635 -0.109528 0
    endloop
  endfacet
  facet normal 0.951057 -0.309015 0
    outer loop
      vertex 0.148764 -0.0588999 0.4
      vertex 0.154973 -0.0397904 0
      vertex 0.154973 -0.0397904 0.4
    endloop
  endfacet
  facet normal 0.951057 -0.309015 0
    outer loop
      vertex 0.154973 -0.0397904 0
      vertex 0.148764 -0.0588999 0.4
      vertex 0.148764 -0.0588999 0
    endloop
  endfacet
  facet normal 0.982288 -0.187379 0
    outer loop
      vertex 0.154973 -0.0397904 0.4
      vertex 0.158738 -0.0200533 0
      vertex 0.158738 -0.0200533 0.4
    endloop
  endfacet
  facet normal 0.982288 -0.187379 0
    outer loop
      vertex 0.158738 -0.0200533 0
      vertex 0.154973 -0.0397904 0.4
      vertex 0.154973 -0.0397904 0
    endloop
  endfacet
  facet normal -0.684535 -0.72898 0
    outer loop
      vertex -0.116635 -0.109528 0
      vertex -0.101988 -0.123282 0.4
      vertex -0.116635 -0.109528 0.4
    endloop
  endfacet
  facet normal -0.684535 -0.72898 -0
    outer loop
      vertex -0.101988 -0.123282 0.4
      vertex -0.116635 -0.109528 0
      vertex -0.101988 -0.123282 0
    endloop
  endfacet
  facet normal -0.904831 -0.425772 0
    outer loop
      vertex -0.140209 -0.0770806 0
      vertex -0.148764 -0.0588999 0.4
      vertex -0.148764 -0.0588999 0
    endloop
  endfacet
  facet normal -0.904831 -0.425772 0
    outer loop
      vertex -0.148764 -0.0588999 0.4
      vertex -0.140209 -0.0770806 0
      vertex -0.140209 -0.0770806 0.4
    endloop
  endfacet
  facet normal -0.770517 -0.637419 0
    outer loop
      vertex -0.116635 -0.109528 0
      vertex -0.129443 -0.0940456 0.4
      vertex -0.129443 -0.0940456 0
    endloop
  endfacet
  facet normal -0.770517 -0.637419 0
    outer loop
      vertex -0.129443 -0.0940456 0.4
      vertex -0.116635 -0.109528 0
      vertex -0.116635 -0.109528 0.4
    endloop
  endfacet
  facet normal 0 0 -1
    outer loop
      vertex 0.158738 -0.0200533 0
      vertex 0.158738 0.0200533 0
      vertex 0.16 0 0
    endloop
  endfacet
  facet normal 0 0 -1
    outer loop
      vertex 0.154973 -0.0397904 0
      vertex 0.158738 0.0200533 0
      vertex 0.158738 -0.0200533 0
    endloop
  endfacet
  facet normal 0 0 -1
    outer loop
      vertex 0.154973 -0.0397904 0
      vertex 0.154973 0.0397904 0
      vertex 0.158738 0.0200533 0
    endloop
  endfacet
  facet normal 0 0 -1
    outer loop
      vertex 0.148764 -0.0588999 0
      vertex 0.154973 0.0397904 0
      vertex 0.154973 -0.0397904 0
    endloop
  endfacet
  facet normal 0 0 -1
    outer loop
      vertex 0.148764 -0.0588999 0
      vertex 0.148764 0.0588999 0
      vertex 0.154973 0.0397904 0
    endloop
  endfacet
  facet normal 0 0 -1
    outer loop
      vertex 0.140209 -0.0770806 0
      vertex 0.148764 0.0588999 0
      vertex 0.148764 -0.0588999 0
    endloop
  endfacet
  facet normal 0 0 -1
    outer loop
      vertex 0.140209 -0.0770806 0
      vertex 0.140209 0.0770806 0
      vertex 0.148764 0.0588999 0
    endloop
  endfacet
  facet normal 0 0 -1
    outer loop
      vertex 0.129443 -0.0940456 0
      vertex 0.140209 0.0770806 0
      vertex 0.140209 -0.0770806 0
    endloop
  endfacet
  facet normal 0 0 -1
    outer loop
      vertex 0.129443 -0.0940456 0
      vertex 0.129443 0.0940456 0
      vertex 0.140209 0.0770806 0
    endloop
  endfacet
  facet normal 0 0 -1
    outer loop
      vertex 0.116635 -0.109528 0
      vertex 0.129443 0.0940456 0
      vertex 0.129443 -0.0940456 0
    endloop
  endfacet
  facet normal 0 0 -1
    outer loop
      vertex 0.116635 -0.109528 0
      vertex 0.116635 0.109528 0
      vertex 0.129443 0.0940456 0
    endloop
  endfacet
  facet normal 0 0 -1
    outer loop
      vertex 0.101988 -0.123282 0
      vertex 0.116635 0.109528 0
      vertex 0.116635 -0.109528 0
    endloop
  endfacet
  facet normal 0 0 -1
    outer loop
      vertex 0.101988 -0.123282 0
      vertex 0.101988 0.123282 0
      vertex 0.116635 0.109528 0
    endloop
  endfacet
  facet normal 0 0 -1
    outer loop
      vertex 0.0857323 -0.135092 0
      vertex 0.101988 0.123282 0
      vertex 0.101988 -0.123282 0
    endloop
  endfacet
  facet normal 0 0 -1
    outer loop
      vertex 0.0857323 -0.135092 0
      vertex 0.0857323 0.135092 0
      vertex 0.101988 0.123282 0
    endloop
  endfacet
  facet normal 0 0 -1
    outer loop
      vertex 0.0681247 -0.144772 0
      vertex 0.0857323 0.135092 0
      vertex 0.0857323 -0.135092 0
    endloop
  endfacet
  facet normal 0 0 -1
    outer loop
      vertex 0.0681247 -0.144772 0
      vertex 0.0681247 0.144772 0
      vertex 0.0857323 0.135092 0
    endloop
  endfacet
  facet normal 0 0 -1
    outer loop
      vertex 0.0494427 -0.152169 0
      vertex 0.0681247 0.144772 0
      vertex 0.0681247 -0.144772 0
    endloop
  endfacet
  facet normal 0 0 -1
    outer loop
      vertex 0.0494427 -0.152169 0
      vertex 0.0494427 0.152169 0
      vertex 0.0681247 0.144772 0
    endloop
  endfacet
  facet normal 0 0 -1
    outer loop
      vertex 0.029981 -0.157166 0
      vertex 0.0494427 0.152169 0
      vertex 0.0494427 -0.152169 0
    endloop
  endfacet
  facet normal 0 0 -1
    outer loop
      vertex 0.029981 -0.157166 0
      vertex 0.029981 0.157166 0
      vertex 0.0494427 0.152169 0
    endloop
  endfacet
  facet normal 0 0 -1
    outer loop
      vertex 0.0100465 -0.159684 0
      vertex 0.029981 0.157166 0
      vertex 0.029981 -0.157166 0
    endloop
  endfacet
  facet normal 0 0 -1
    outer loop
      vertex 0.0100465 -0.159684 0
      vertex 0.0100465 0.159684 0
      vertex 0.029981 0.157166 0
    endloop
  endfacet
  facet normal 0 0 -1
    outer loop
      vertex -0.0100465 -0.159684 0
      vertex 0.0100465 0.159684 0
      vertex 0.0100465 -0.159684 0
    endloop
  endfacet
  facet normal 0 0 -1
    outer loop
      vertex -0.0100465 -0.159684 0
      vertex -0.0100465 0.159684 0
      vertex 0.0100465 0.159684 0
    endloop
  endfacet
  facet normal 0 0 -1
    outer loop
      vertex -0.029981 -0.157166 0
      vertex -0.0100465 0.159684 0
      vertex -0.0100465 -0.159684 0
    endloop
  endfacet
  facet normal 0 0 -1
    outer loop
      vertex -0.029981 -0.157166 0
      vertex -0.029981 0.157166 0
      vertex -0.0100465 0.159684 0
    endloop
  endfacet
  facet normal 0 0 -1
    outer loop
      vertex -0.0494427 -0.152169 0
      vertex -0.029981 0.157166 0
      vertex -0.029981 -0.157166 0
    endloop
  endfacet
  facet normal 0 0 -1
    outer loop
      vertex -0.0494427 -0.152169 0
      vertex -0.0494427 0.152169 0
      vertex -0.029981 0.157166 0
    endloop
  endfacet
  facet normal 0 0 -1
    outer loop
      vertex -0.0681247 -0.144772 0
      vertex -0.0494427 0.152169 0
      vertex -0.0494427 -0.152169 0
    endloop
  endfacet
  facet normal 0 0 -1
    outer loop
      vertex -0.0681247 -0.144772 0
      vertex -0.0681247 0.144772 0
      vertex -0.0494427 0.152169 0
    endloop
  endfacet
  facet normal 0 0 -1
    outer loop
      vertex -0.0857323 -0.135092 0
      vertex -0.0681247 0.144772 0
      vertex -0.0681247 -0.144772 0
    endloop
  endfacet
  facet normal 0 0 -1
    outer loop
      vertex -0.0857323 -0.135092 0
      vertex -0.0857323 0.135092 0
      vertex -0.0681247 0.144772 0
    endloop
  endfacet
  facet normal 0 0 -1
    outer loop
      vertex -0.101988 -0.123282 0
      vertex -0.0857323 0.135092 0
      vertex -0.0857323 -0.135092 0
    endloop
  endfacet
  facet normal 0 0 -1
    outer loop
      vertex -0.101988 -0.123282 0
      vertex -0.101988 0.123282 0
      vertex -0.0857323 0.135092 0
    endloop
  endfacet
  facet normal 0 0 -1
    outer loop
      vertex -0.116635 -0.109528 0
      vertex -0.101988 0.123282 0
      vertex -0.101988 -0.123282 0
    endloop
  endfacet
  facet normal 0 0 -1
    outer loop
      vertex -0.116635 -0.109528 0
      vertex -0.116635 0.109528 0
      vertex -0.101988 0.123282 0
    endloop
  endfacet
  facet normal 0 0 -1
    outer loop
      vertex -0.129443 -0.0940456 0
      vertex -0.116635 0.109528 0
      vertex -0.116635 -0.109528 0
    endloop
  endfacet
  facet normal 0 0 -1
    outer loop
      vertex -0.129443 -0.0940456 0
      vertex -0.129443 0.0940456 0
      vertex -0.116635 0.109528 0
    endloop
  endfacet
  facet normal 0 0 -1
    outer loop
      vertex -0.140209 -0.0770806 0
      vertex -0.129443 0.0940456 0
      vertex -0.129443 -0.0940456 0
    endloop
  endfacet
  facet normal 0 0 -1
    outer loop
      vertex -0.140209 -0.0770806 0
      vertex -0.140209 0.0770806 0
      vertex -0.129443 0.0940456 0
    endloop
  endfacet
  facet normal 0 0 -1
    outer loop
      vertex -0.148764 -0.0588999 0
      vertex -0.140209 0.0770806 0
      vertex -0.140209 -0.0770806 0
    endloop
  endfacet
  facet normal 0 0 -1
    outer loop
      vertex -0.148764 -0.0588999 0
      vertex -0.148764 0.0588999 0
      vertex -0.140209 0.0770806 0
    endloop
  endfacet
  facet normal 0 0 -1
    outer loop
      vertex -0.154973 -0.0397904 0
      vertex -0.148764 0.0588999 0
      vertex -0.148764 -0.0588999 0
    endloop
  endfacet
  facet normal 0 0 -1
    outer loop
      vertex -0.154973 -0.0397904 0
      vertex -0.154973 0.0397904 0
      vertex -0.148764 0.0588999 0
    endloop
  endfacet
  facet normal 0 0 -1
    outer loop
      vertex -0.158738 -0.0200533 0
      vertex -0.154973 0.0397904 0
      vertex -0.154973 -0.0397904 0
    endloop
  endfacet
  facet normal 0 0 -1
    outer loop
      vertex -0.158738 -0.0200533 0
      vertex -0.158738 0.0200533 0
      vertex -0.154973 0.0397904 0
    endloop
  endfacet
  facet normal 0 -0 -1
    outer loop
      vertex -0.158738 0.0200533 0
      vertex -0.158738 -0.0200533 0
      vertex -0.16 0 0
    endloop
  endfacet
  facet normal 0.844335 -0.535816 0
    outer loop
      vertex 0.129443 -0.0940456 0.4
      vertex 0.140209 -0.0770806 0
      vertex 0.140209 -0.0770806 0.4
    endloop
  endfacet
  facet normal 0.844335 -0.535816 0
    outer loop
      vertex 0.140209 -0.0770806 0
      vertex 0.129443 -0.0940456 0.4
      vertex 0.129443 -0.0940456 0
    endloop
  endfacet
  facet normal -0.951057 -0.309015 0
    outer loop
      vertex -0.148764 -0.0588999 0
      vertex -0.154973 -0.0397904 0.4
      vertex -0.154973 -0.0397904 0
    endloop
  endfacet
  facet normal -0.951057 -0.309015 0
    outer loop
      vertex -0.154973 -0.0397904 0.4
      vertex -0.148764 -0.0588999 0
      vertex -0.148764 -0.0588999 0.4
    endloop
  endfacet
  facet normal 0.248694 -0.968582 0
    outer loop
      vertex 0.029981 -0.157166 0
      vertex 0.0494427 -0.152169 0.4
      vertex 0.029981 -0.157166 0.4
    endloop
  endfacet
  facet normal 0.248694 -0.968582 0
    outer loop
      vertex 0.0494427 -0.152169 0.4
      vertex 0.029981 -0.157166 0
      vertex 0.0494427 -0.152169 0
    endloop
  endfacet
  facet normal 0.125318 -0.992117 0
    outer loop
      vertex 0.0100465 -0.159684 0
      vertex 0.029981 -0.157166 0.4
      vertex 0.0100465 -0.159684 0.4
    endloop
  endfacet
  facet normal 0.125318 -0.992117 0
    outer loop
      vertex 0.029981 -0.157166 0.4
      vertex 0.0100465 -0.159684 0
      vertex 0.029981 -0.157166 0
    endloop
  endfacet
  facet normal 0.684535 -0.72898 0
    outer loop
      vertex 0.101988 -0.123282 0
      vertex 0.116635 -0.109528 0.4
      vertex 0.101988 -0.123282 0.4
    endloop
  endfacet
  facet normal 0.684535 -0.72898 0
    outer loop
      vertex 0.116635 -0.109528 0.4
      vertex 0.101988 -0.123282 0
      vertex 0.116635 -0.109528 0
    endloop
  endfacet
  facet normal 0.58777 -0.809028 0
    outer loop
      vertex 0.0857323 -0.135092 0
      vertex 0.101988 -0.123282 0.4
      vertex 0.0857323 -0.135092 0.4
    endloop
  endfacet
  facet normal 0.58777 -0.809028 0
    outer loop
      vertex 0.101988 -0.123282 0.4
      vertex 0.0857323 -0.135092 0
      vertex 0.101988 -0.123282 0
    endloop
  endfacet
  facet normal 0.904831 -0.425772 0
    outer loop
      vertex 0.140209 -0.0770806 0.4
      vertex 0.148764 -0.0588999 0
      vertex 0.148764 -0.0588999 0.4
    endloop
  endfacet
  facet normal 0.904831 -0.425772 0
    outer loop
      vertex 0.148764 -0.0588999 0
      vertex 0.140209 -0.0770806 0.4
      vertex 0.140209 -0.0770806 0
    endloop
  endfacet
  facet normal -0.125318 -0.992117 0
    outer loop
      vertex -0.029981 -0.157166 0
      vertex -0.0100465 -0.159684 0.4
      vertex -0.029981 -0.157166 0.4
    endloop
  endfacet
  facet normal -0.125318 -0.992117 -0
    outer loop
      vertex -0.0100465 -0.159684 0.4
      vertex -0.029981 -0.157166 0
      vertex -0.0100465 -0.159684 0
    endloop
  endfacet
  facet normal -0.368136 -0.929772 0
    outer loop
      vertex -0.0681247 -0.144772 0
      vertex -0.0494427 -0.152169 0.4
      vertex -0.0681247 -0.144772 0.4
    endloop
  endfacet
  facet normal -0.368136 -0.929772 -0
    outer loop
      vertex -0.0494427 -0.152169 0.4
      vertex -0.0681247 -0.144772 0
      vertex -0.0494427 -0.152169 0
    endloop
  endfacet
  facet normal -0.248694 -0.968582 0
    outer loop
      vertex -0.0494427 -0.152169 0
      vertex -0.029981 -0.157166 0.4
      vertex -0.0494427 -0.152169 0.4
    endloop
  endfacet
  facet normal -0.248694 -0.968582 -0
    outer loop
      vertex -0.029981 -0.157166 0.4
      vertex -0.0494427 -0.152169 0
      vertex -0.029981 -0.157166 0
    endloop
  endfacet
  facet normal -0.844335 -0.535816 0
    outer loop
      vertex -0.129443 -0.0940456 0
      vertex -0.140209 -0.0770806 0.4
      vertex -0.140209 -0.0770806 0
    endloop
  endfacet
  facet normal -0.844335 -0.535816 0
    outer loop
      vertex -0.140209 -0.0770806 0.4
      vertex -0.129443 -0.0940456 0
      vertex -0.129443 -0.0940456 0.4
    endloop
  endfacet
  facet normal -0.982288 -0.187379 0
    outer loop
      vertex -0.154973 -0.0397904 0
      vertex -0.158738 -0.0200533 0.4
      vertex -0.158738 -0.0200533 0
    endloop
  endfacet
  facet normal -0.982288 -0.187379 0
    outer loop
      vertex -0.158738 -0.0200533 0.4
      vertex -0.154973 -0.0397904 0
      vertex -0.154973 -0.0397904 0.4
    endloop
  endfacet
  facet normal -0.998028 -0.0627759 0
    outer loop
      vertex -0.16 0 0
      vertex -0.158742 -0.02 0.08
      vertex -0.16 0 0.08
    endloop
  endfacet
  facet normal 0 0 0
    outer loop
      vertex -0.158742 -0.02 0.08
      vertex -0.158742 -0.02 0.288
      vertex -0.158742 -0.02 0.104
    endloop
  endfacet
  facet normal 0 0 0
    outer loop
      vertex -0.158742 -0.02 0.08
      vertex -0.158742 -0.02 0.32
      vertex -0.158742 -0.02 0.288
    endloop
  endfacet
  facet normal -0.997196 -0.0748365 0
    outer loop
      vertex -0.158742 -0.02 0.08
      vertex -0.158738 -0.0200533 0
      vertex -0.158742 -0.02 0.32
    endloop
  endfacet
  facet normal -0.998026 -0.062808 -8.05543e-06
    outer loop
      vertex -0.158738 -0.0200533 0
      vertex -0.158742 -0.02 0.08
      vertex -0.16 0 0
    endloop
  endfacet
  facet normal -0.998028 -0.0627759 0
    outer loop
      vertex -0.158742 -0.02 0.104
      vertex -0.16 0 0.288
      vertex -0.16 0 0.104
    endloop
  endfacet
  facet normal -0.998028 -0.0627759 0
    outer loop
      vertex -0.16 0 0.288
      vertex -0.158742 -0.02 0.104
      vertex -0.158742 -0.02 0.288
    endloop
  endfacet
  facet normal -0.998028 -0.0627759 0
    outer loop
      vertex -0.158742 -0.02 0.32
      vertex -0.16 0 0.4
      vertex -0.16 0 0.32
    endloop
  endfacet
  facet normal -0.998026 -0.062808 8.05543e-06
    outer loop
      vertex -0.158742 -0.02 0.32
      vertex -0.158738 -0.0200533 0.4
      vertex -0.16 0 0.4
    endloop
  endfacet
  facet normal -0.997196 -0.0748365 -0
    outer loop
      vertex -0.158738 -0.0200533 0.4
      vertex -0.158742 -0.02 0.32
      vertex -0.158738 -0.0200533 0
    endloop
  endfacet
  facet normal -0.481759 -0.876304 0
    outer loop
      vertex -0.0857323 -0.135092 0
      vertex -0.0681247 -0.144772 0.4
      vertex -0.0857323 -0.135092 0.4
    endloop
  endfacet
  facet normal -0.481759 -0.876304 -0
    outer loop
      vertex -0.0681247 -0.144772 0.4
      vertex -0.0857323 -0.135092 0
      vertex -0.0681247 -0.144772 0
    endloop
  endfacet
  facet normal -0.58777 -0.809028 0
    outer loop
      vertex -0.101988 -0.123282 0
      vertex -0.0857323 -0.135092 0.4
      vertex -0.101988 -0.123282 0.4
    endloop
  endfacet
  facet normal -0.58777 -0.809028 -0
    outer loop
      vertex -0.0857323 -0.135092 0.4
      vertex -0.101988 -0.123282 0
      vertex -0.0857323 -0.135092 0
    endloop
  endfacet
  facet normal -0.998027 -0.062794 0
    outer loop
      vertex 0.14 0 0.0016
      vertex 0.138896 0.0175466 0.4
      vertex 0.138896 0.0175466 0.0016
    endloop
  endfacet
  facet normal -0.998027 -0.062794 0
    outer loop
      vertex 0.138896 0.0175466 0.4
      vertex 0.14 0 0.0016
      vertex 0.14 0 0.4
    endloop
  endfacet
  facet normal 0.998027 -0.062794 0
    outer loop
      vertex -0.14 0 0.08
      vertex -0.138896 0.0175466 0.0016
      vertex -0.138896 0.0175466 0.08
    endloop
  endfacet
  facet normal 0.998027 -0.062794 0
    outer loop
      vertex -0.138896 0.0175466 0.0016
      vertex -0.14 0 0.08
      vertex -0.14 0 0.0016
    endloop
  endfacet
  facet normal 0.998027 -0.062794 0
    outer loop
      vertex -0.14 0 0.4
      vertex -0.138896 0.0175466 0.32
      vertex -0.138896 0.0175466 0.4
    endloop
  endfacet
  facet normal 0.998027 -0.062794 0
    outer loop
      vertex -0.138896 0.0175466 0.32
      vertex -0.14 0 0.4
      vertex -0.14 0 0.32
    endloop
  endfacet
  facet normal 0 -1 0
    outer loop
      vertex -0.00879067 0.139724 0.0016
      vertex 0.00879067 0.139724 0.4
      vertex -0.00879067 0.139724 0.4
    endloop
  endfacet
  facet normal 0 -1 -0
    outer loop
      vertex 0.00879067 0.139724 0.4
      vertex -0.00879067 0.139724 0.0016
      vertex 0.00879067 0.139724 0.0016
    endloop
  endfacet
  facet normal 0 1 -0
    outer loop
      vertex 0.00879067 -0.139724 0.0016
      vertex -0.00879067 -0.139724 0.4
      vertex 0.00879067 -0.139724 0.4
    endloop
  endfacet
  facet normal 0 1 0
    outer loop
      vertex -0.00879067 -0.139724 0.4
      vertex 0.00879067 -0.139724 0.0016
      vertex -0.00879067 -0.139724 0.0016
    endloop
  endfacet
  facet normal -0.684541 -0.728974 0
    outer loop
      vertex 0.0892394 0.107872 0.0016
      vertex 0.102056 0.0958366 0.4
      vertex 0.0892394 0.107872 0.4
    endloop
  endfacet
  facet normal -0.684541 -0.728974 -0
    outer loop
      vertex 0.102056 0.0958366 0.4
      vertex 0.0892394 0.107872 0.0016
      vertex 0.102056 0.0958366 0.0016
    endloop
  endfacet
  facet normal 0.684541 -0.728974 0
    outer loop
      vertex -0.102056 0.0958366 0.0016
      vertex -0.0892394 0.107872 0.4
      vertex -0.102056 0.0958366 0.4
    endloop
  endfacet
  facet normal 0.684541 -0.728974 0
    outer loop
      vertex -0.0892394 0.107872 0.4
      vertex -0.102056 0.0958366 0.0016
      vertex -0.0892394 0.107872 0.0016
    endloop
  endfacet
  facet normal 0.368119 -0.929779 0
    outer loop
      vertex -0.0596091 0.126676 0.0016
      vertex -0.0432624 0.133148 0.4
      vertex -0.0596091 0.126676 0.4
    endloop
  endfacet
  facet normal 0.368119 -0.929779 0
    outer loop
      vertex -0.0432624 0.133148 0.4
      vertex -0.0596091 0.126676 0.0016
      vertex -0.0432624 0.133148 0.0016
    endloop
  endfacet
  facet normal -0.904822 -0.425789 0
    outer loop
      vertex 0.130169 0.0515374 0.0016
      vertex 0.122683 0.0674455 0.4
      vertex 0.122683 0.0674455 0.0016
    endloop
  endfacet
  facet normal -0.904822 -0.425789 0
    outer loop
      vertex 0.122683 0.0674455 0.4
      vertex 0.130169 0.0515374 0.0016
      vertex 0.130169 0.0515374 0.4
    endloop
  endfacet
  facet normal -0.982292 -0.187358 0
    outer loop
      vertex 0.138896 0.0175466 0.0016
      vertex 0.135602 0.0348166 0.4
      vertex 0.135602 0.0348166 0.0016
    endloop
  endfacet
  facet normal -0.982292 -0.187358 0
    outer loop
      vertex 0.135602 0.0348166 0.4
      vertex 0.138896 0.0175466 0.0016
      vertex 0.138896 0.0175466 0.4
    endloop
  endfacet
  facet normal -0.368119 -0.929779 0
    outer loop
      vertex 0.0432624 0.133148 0.0016
      vertex 0.0596091 0.126676 0.4
      vertex 0.0432624 0.133148 0.4
    endloop
  endfacet
  facet normal -0.368119 -0.929779 -0
    outer loop
      vertex 0.0596091 0.126676 0.4
      vertex 0.0432624 0.133148 0.0016
      vertex 0.0596091 0.126676 0.0016
    endloop
  endfacet
  facet normal -0.48176 -0.876303 0
    outer loop
      vertex 0.0596091 0.126676 0.0016
      vertex 0.0750157 0.118206 0.4
      vertex 0.0596091 0.126676 0.4
    endloop
  endfacet
  facet normal -0.48176 -0.876303 -0
    outer loop
      vertex 0.0750157 0.118206 0.4
      vertex 0.0596091 0.126676 0.0016
      vertex 0.0750157 0.118206 0.0016
    endloop
  endfacet
  facet normal 0.904822 -0.425789 0
    outer loop
      vertex -0.130169 0.0515374 0.4
      vertex -0.122683 0.0674455 0.0016
      vertex -0.122683 0.0674455 0.4
    endloop
  endfacet
  facet normal 0.904822 -0.425789 0
    outer loop
      vertex -0.122683 0.0674455 0.0016
      vertex -0.130169 0.0515374 0.4
      vertex -0.130169 0.0515374 0.0016
    endloop
  endfacet
  facet normal 0.951055 -0.309021 0
    outer loop
      vertex -0.135602 0.0348166 0.4
      vertex -0.130169 0.0515374 0.0016
      vertex -0.130169 0.0515374 0.4
    endloop
  endfacet
  facet normal 0.951055 -0.309021 0
    outer loop
      vertex -0.130169 0.0515374 0.0016
      vertex -0.135602 0.0348166 0.4
      vertex -0.135602 0.0348166 0.0016
    endloop
  endfacet
  facet normal 0.248674 -0.968587 0
    outer loop
      vertex -0.0432624 0.133148 0.0016
      vertex -0.0262334 0.13752 0.4
      vertex -0.0432624 0.133148 0.4
    endloop
  endfacet
  facet normal 0.248674 -0.968587 0
    outer loop
      vertex -0.0262334 0.13752 0.4
      vertex -0.0432624 0.133148 0.0016
      vertex -0.0262334 0.13752 0.0016
    endloop
  endfacet
  facet normal -0.951055 -0.309021 0
    outer loop
      vertex 0.135602 0.0348166 0.0016
      vertex 0.130169 0.0515374 0.4
      vertex 0.130169 0.0515374 0.0016
    endloop
  endfacet
  facet normal -0.951055 -0.309021 0
    outer loop
      vertex 0.130169 0.0515374 0.4
      vertex 0.135602 0.0348166 0.0016
      vertex 0.135602 0.0348166 0.4
    endloop
  endfacet
  facet normal -0.770536 -0.637397 0
    outer loop
      vertex 0.113262 0.0822899 0.0016
      vertex 0.102056 0.0958366 0.4
      vertex 0.102056 0.0958366 0.0016
    endloop
  endfacet
  facet normal -0.770536 -0.637397 0
    outer loop
      vertex 0.102056 0.0958366 0.4
      vertex 0.113262 0.0822899 0.0016
      vertex 0.113262 0.0822899 0.4
    endloop
  endfacet
  facet normal -0.844316 -0.535845 0
    outer loop
      vertex 0.122683 0.0674455 0.0016
      vertex 0.113262 0.0822899 0.4
      vertex 0.113262 0.0822899 0.0016
    endloop
  endfacet
  facet normal -0.844316 -0.535845 0
    outer loop
      vertex 0.113262 0.0822899 0.4
      vertex 0.122683 0.0674455 0.0016
      vertex 0.122683 0.0674455 0.4
    endloop
  endfacet
  facet normal -0.248674 -0.968587 0
    outer loop
      vertex 0.0262334 0.13752 0.0016
      vertex 0.0432624 0.133148 0.4
      vertex 0.0262334 0.13752 0.4
    endloop
  endfacet
  facet normal -0.248674 -0.968587 -0
    outer loop
      vertex 0.0432624 0.133148 0.4
      vertex 0.0262334 0.13752 0.0016
      vertex 0.0432624 0.133148 0.0016
    endloop
  endfacet
  facet normal -0.12536 -0.992111 0
    outer loop
      vertex 0.00879067 0.139724 0.0016
      vertex 0.0262334 0.13752 0.4
      vertex 0.00879067 0.139724 0.4
    endloop
  endfacet
  facet normal -0.12536 -0.992111 -0
    outer loop
      vertex 0.0262334 0.13752 0.4
      vertex 0.00879067 0.139724 0.0016
      vertex 0.0262334 0.13752 0.0016
    endloop
  endfacet
  facet normal -0.587781 -0.80902 0
    outer loop
      vertex 0.0750157 0.118206 0.0016
      vertex 0.0892394 0.107872 0.4
      vertex 0.0750157 0.118206 0.4
    endloop
  endfacet
  facet normal -0.587781 -0.80902 -0
    outer loop
      vertex 0.0892394 0.107872 0.4
      vertex 0.0750157 0.118206 0.0016
      vertex 0.0892394 0.107872 0.0016
    endloop
  endfacet
  facet normal 0.844316 -0.535845 0
    outer loop
      vertex -0.122683 0.0674455 0.4
      vertex -0.113262 0.0822899 0.0016
      vertex -0.113262 0.0822899 0.4
    endloop
  endfacet
  facet normal 0.844316 -0.535845 0
    outer loop
      vertex -0.113262 0.0822899 0.0016
      vertex -0.122683 0.0674455 0.4
      vertex -0.122683 0.0674455 0.0016
    endloop
  endfacet
  facet normal 0.770536 -0.637397 0
    outer loop
      vertex -0.113262 0.0822899 0.4
      vertex -0.102056 0.0958366 0.0016
      vertex -0.102056 0.0958366 0.4
    endloop
  endfacet
  facet normal 0.770536 -0.637397 0
    outer loop
      vertex -0.102056 0.0958366 0.0016
      vertex -0.113262 0.0822899 0.4
      vertex -0.113262 0.0822899 0.0016
    endloop
  endfacet
  facet normal 0.982292 -0.187355 0
    outer loop
      vertex -0.135602 0.0348166 0.4
      vertex -0.138428 0.02 0.32
      vertex -0.135602 0.0348166 0.0016
    endloop
  endfacet
  facet normal 0.982292 -0.187358 6.11728e-07
    outer loop
      vertex -0.138896 0.0175466 0.4
      vertex -0.138428 0.02 0.32
      vertex -0.135602 0.0348166 0.4
    endloop
  endfacet
  facet normal 0.982288 -0.187377 0
    outer loop
      vertex -0.138428 0.02 0.32
      vertex -0.138896 0.0175466 0.4
      vertex -0.138896 0.0175466 0.32
    endloop
  endfacet
  facet normal 0.982292 -0.187355 0
    outer loop
      vertex -0.138428 0.02 0.08
      vertex -0.135602 0.0348166 0.0016
      vertex -0.138428 0.02 0.32
    endloop
  endfacet
  facet normal 0.982288 -0.187377 0
    outer loop
      vertex -0.138896 0.0175466 0.0016
      vertex -0.138428 0.02 0.08
      vertex -0.138896 0.0175466 0.08
    endloop
  endfacet
  facet normal 0.982292 -0.187358 -6.24213e-07
    outer loop
      vertex -0.138428 0.02 0.08
      vertex -0.138896 0.0175466 0.0016
      vertex -0.135602 0.0348166 0.0016
    endloop
  endfacet
  facet normal 0.48176 -0.876303 0
    outer loop
      vertex -0.0750157 0.118206 0.0016
      vertex -0.0596091 0.126676 0.4
      vertex -0.0750157 0.118206 0.4
    endloop
  endfacet
  facet normal 0.48176 -0.876303 0
    outer loop
      vertex -0.0596091 0.126676 0.4
      vertex -0.0750157 0.118206 0.0016
      vertex -0.0596091 0.126676 0.0016
    endloop
  endfacet
  facet normal 0.587781 -0.80902 0
    outer loop
      vertex -0.0892394 0.107872 0.0016
      vertex -0.0750157 0.118206 0.4
      vertex -0.0892394 0.107872 0.4
    endloop
  endfacet
  facet normal 0.587781 -0.80902 0
    outer loop
      vertex -0.0750157 0.118206 0.4
      vertex -0.0892394 0.107872 0.0016
      vertex -0.0750157 0.118206 0.0016
    endloop
  endfacet
  facet normal 0.12536 -0.992111 0
    outer loop
      vertex -0.0262334 0.13752 0.0016
      vertex -0.00879067 0.139724 0.4
      vertex -0.0262334 0.13752 0.4
    endloop
  endfacet
  facet normal 0.12536 -0.992111 0
    outer loop
      vertex -0.00879067 0.139724 0.4
      vertex -0.0262334 0.13752 0.0016
      vertex -0.00879067 0.139724 0.0016
    endloop
  endfacet
  facet normal -0.982292 0.187358 0
    outer loop
      vertex 0.135602 -0.0348166 0.0016
      vertex 0.138896 -0.0175466 0.4
      vertex 0.138896 -0.0175466 0.0016
    endloop
  endfacet
  facet normal -0.982292 0.187358 0
    outer loop
      vertex 0.138896 -0.0175466 0.4
      vertex 0.135602 -0.0348166 0.0016
      vertex 0.135602 -0.0348166 0.4
    endloop
  endfacet
  facet normal 0.684541 0.728974 -0
    outer loop
      vertex -0.0892394 -0.107872 0.0016
      vertex -0.102056 -0.0958366 0.4
      vertex -0.0892394 -0.107872 0.4
    endloop
  endfacet
  facet normal 0.684541 0.728974 0
    outer loop
      vertex -0.102056 -0.0958366 0.4
      vertex -0.0892394 -0.107872 0.0016
      vertex -0.102056 -0.0958366 0.0016
    endloop
  endfacet
  facet normal 0.904822 0.425789 0
    outer loop
      vertex -0.122683 -0.0674455 0.4
      vertex -0.130169 -0.0515374 0.0016
      vertex -0.130169 -0.0515374 0.4
    endloop
  endfacet
  facet normal 0.904822 0.425789 0
    outer loop
      vertex -0.130169 -0.0515374 0.0016
      vertex -0.122683 -0.0674455 0.4
      vertex -0.122683 -0.0674455 0.0016
    endloop
  endfacet
  facet normal 0.844316 0.535845 0
    outer loop
      vertex -0.113262 -0.0822899 0.4
      vertex -0.122683 -0.0674455 0.0016
      vertex -0.122683 -0.0674455 0.4
    endloop
  endfacet
  facet normal 0.844316 0.535845 0
    outer loop
      vertex -0.122683 -0.0674455 0.0016
      vertex -0.113262 -0.0822899 0.4
      vertex -0.113262 -0.0822899 0.0016
    endloop
  endfacet
  facet normal 0 0 1
    outer loop
      vertex 0.138896 0.0175466 0.0016
      vertex 0.138896 -0.0175466 0.0016
      vertex 0.14 0 0.0016
    endloop
  endfacet
  facet normal 0 0 1
    outer loop
      vertex 0.135602 0.0348166 0.0016
      vertex 0.138896 -0.0175466 0.0016
      vertex 0.138896 0.0175466 0.0016
    endloop
  endfacet
  facet normal 0 0 1
    outer loop
      vertex 0.135602 0.0348166 0.0016
      vertex 0.135602 -0.0348166 0.0016
      vertex 0.138896 -0.0175466 0.0016
    endloop
  endfacet
  facet normal 0 0 1
    outer loop
      vertex 0.130169 0.0515374 0.0016
      vertex 0.135602 -0.0348166 0.0016
      vertex 0.135602 0.0348166 0.0016
    endloop
  endfacet
  facet normal 0 0 1
    outer loop
      vertex 0.130169 0.0515374 0.0016
      vertex 0.130169 -0.0515374 0.0016
      vertex 0.135602 -0.0348166 0.0016
    endloop
  endfacet
  facet normal 0 0 1
    outer loop
      vertex 0.122683 0.0674455 0.0016
      vertex 0.130169 -0.0515374 0.0016
      vertex 0.130169 0.0515374 0.0016
    endloop
  endfacet
  facet normal 0 0 1
    outer loop
      vertex 0.122683 0.0674455 0.0016
      vertex 0.122683 -0.0674455 0.0016
      vertex 0.130169 -0.0515374 0.0016
    endloop
  endfacet
  facet normal 0 0 1
    outer loop
      vertex 0.113262 0.0822899 0.0016
      vertex 0.122683 -0.0674455 0.0016
      vertex 0.122683 0.0674455 0.0016
    endloop
  endfacet
  facet normal 0 0 1
    outer loop
      vertex 0.113262 0.0822899 0.0016
      vertex 0.113262 -0.0822899 0.0016
      vertex 0.122683 -0.0674455 0.0016
    endloop
  endfacet
  facet normal 0 0 1
    outer loop
      vertex 0.102056 0.0958366 0.0016
      vertex 0.113262 -0.0822899 0.0016
      vertex 0.113262 0.0822899 0.0016
    endloop
  endfacet
  facet normal 0 0 1
    outer loop
      vertex 0.102056 0.0958366 0.0016
      vertex 0.102056 -0.0958366 0.0016
      vertex 0.113262 -0.0822899 0.0016
    endloop
  endfacet
  facet normal 0 0 1
    outer loop
      vertex 0.0892394 0.107872 0.0016
      vertex 0.102056 -0.0958366 0.0016
      vertex 0.102056 0.0958366 0.0016
    endloop
  endfacet
  facet normal 0 0 1
    outer loop
      vertex 0.0892394 0.107872 0.0016
      vertex 0.0892394 -0.107872 0.0016
      vertex 0.102056 -0.0958366 0.0016
    endloop
  endfacet
  facet normal 0 0 1
    outer loop
      vertex 0.0750157 0.118206 0.0016
      vertex 0.0892394 -0.107872 0.0016
      vertex 0.0892394 0.107872 0.0016
    endloop
  endfacet
  facet normal 0 0 1
    outer loop
      vertex 0.0750157 0.118206 0.0016
      vertex 0.0750157 -0.118206 0.0016
      vertex 0.0892394 -0.107872 0.0016
    endloop
  endfacet
  facet normal 0 0 1
    outer loop
      vertex 0.0596091 0.126676 0.0016
      vertex 0.0750157 -0.118206 0.0016
      vertex 0.0750157 0.118206 0.0016
    endloop
  endfacet
  facet normal 0 0 1
    outer loop
      vertex 0.0596091 0.126676 0.0016
      vertex 0.0596091 -0.126676 0.0016
      vertex 0.0750157 -0.118206 0.0016
    endloop
  endfacet
  facet normal 0 0 1
    outer loop
      vertex 0.0432624 0.133148 0.0016
      vertex 0.0596091 -0.126676 0.0016
      vertex 0.0596091 0.126676 0.0016
    endloop
  endfacet
  facet normal 0 0 1
    outer loop
      vertex 0.0432624 0.133148 0.0016
      vertex 0.0432624 -0.133148 0.0016
      vertex 0.0596091 -0.126676 0.0016
    endloop
  endfacet
  facet normal 0 0 1
    outer loop
      vertex 0.0262334 0.13752 0.0016
      vertex 0.0432624 -0.133148 0.0016
      vertex 0.0432624 0.133148 0.0016
    endloop
  endfacet
  facet normal 0 0 1
    outer loop
      vertex 0.0262334 0.13752 0.0016
      vertex 0.0262334 -0.13752 0.0016
      vertex 0.0432624 -0.133148 0.0016
    endloop
  endfacet
  facet normal 0 0 1
    outer loop
      vertex 0.00879067 0.139724 0.0016
      vertex 0.0262334 -0.13752 0.0016
      vertex 0.0262334 0.13752 0.0016
    endloop
  endfacet
  facet normal 0 0 1
    outer loop
      vertex 0.00879067 0.139724 0.0016
      vertex 0.00879067 -0.139724 0.0016
      vertex 0.0262334 -0.13752 0.0016
    endloop
  endfacet
  facet normal -0 0 1
    outer loop
      vertex -0.00879067 0.139724 0.0016
      vertex 0.00879067 -0.139724 0.0016
      vertex 0.00879067 0.139724 0.0016
    endloop
  endfacet
  facet normal 0 0 1
    outer loop
      vertex -0.00879067 0.139724 0.0016
      vertex -0.00879067 -0.139724 0.0016
      vertex 0.00879067 -0.139724 0.0016
    endloop
  endfacet
  facet normal -0 0 1
    outer loop
      vertex -0.0262334 0.13752 0.0016
      vertex -0.00879067 -0.139724 0.0016
      vertex -0.00879067 0.139724 0.0016
    endloop
  endfacet
  facet normal 0 0 1
    outer loop
      vertex -0.0262334 0.13752 0.0016
      vertex -0.0262334 -0.13752 0.0016
      vertex -0.00879067 -0.139724 0.0016
    endloop
  endfacet
  facet normal -0 0 1
    outer loop
      vertex -0.0432624 0.133148 0.0016
      vertex -0.0262334 -0.13752 0.0016
      vertex -0.0262334 0.13752 0.0016
    endloop
  endfacet
  facet normal 0 0 1
    outer loop
      vertex -0.0432624 0.133148 0.0016
      vertex -0.0432624 -0.133148 0.0016
      vertex -0.0262334 -0.13752 0.0016
    endloop
  endfacet
  facet normal -0 0 1
    outer loop
      vertex -0.0596091 0.126676 0.0016
      vertex -0.0432624 -0.133148 0.0016
      vertex -0.0432624 0.133148 0.0016
    endloop
  endfacet
  facet normal 0 0 1
    outer loop
      vertex -0.0596091 0.126676 0.0016
      vertex -0.0596091 -0.126676 0.0016
      vertex -0.0432624 -0.133148 0.0016
    endloop
  endfacet
  facet normal -0 0 1
    outer loop
      vertex -0.0750157 0.118206 0.0016
      vertex -0.0596091 -0.126676 0.0016
      vertex -0.0596091 0.126676 0.0016
    endloop
  endfacet
  facet normal 0 0 1
    outer loop
      vertex -0.0750157 0.118206 0.0016
      vertex -0.0750157 -0.118206 0.0016
      vertex -0.0596091 -0.126676 0.0016
    endloop
  endfacet
  facet normal -0 0 1
    outer loop
      vertex -0.0892394 0.107872 0.0016
      vertex -0.0750157 -0.118206 0.0016
      vertex -0.0750157 0.118206 0.0016
    endloop
  endfacet
  facet normal 0 0 1
    outer loop
      vertex -0.0892394 0.107872 0.0016
      vertex -0.0892394 -0.107872 0.0016
      vertex -0.0750157 -0.118206 0.0016
    endloop
  endfacet
  facet normal -0 0 1
    outer loop
      vertex -0.102056 0.0958366 0.0016
      vertex -0.0892394 -0.107872 0.0016
      vertex -0.0892394 0.107872 0.0016
    endloop
  endfacet
  facet normal 0 0 1
    outer loop
      vertex -0.102056 0.0958366 0.0016
      vertex -0.102056 -0.0958366 0.0016
      vertex -0.0892394 -0.107872 0.0016
    endloop
  endfacet
  facet normal -0 0 1
    outer loop
      vertex -0.113262 0.0822899 0.0016
      vertex -0.102056 -0.0958366 0.0016
      vertex -0.102056 0.0958366 0.0016
    endloop
  endfacet
  facet normal 0 0 1
    outer loop
      vertex -0.113262 0.0822899 0.0016
      vertex -0.113262 -0.0822899 0.0016
      vertex -0.102056 -0.0958366 0.0016
    endloop
  endfacet
  facet normal -0 0 1
    outer loop
      vertex -0.122683 0.0674455 0.0016
      vertex -0.113262 -0.0822899 0.0016
      vertex -0.113262 0.0822899 0.0016
    endloop
  endfacet
  facet normal 0 0 1
    outer loop
      vertex -0.122683 0.0674455 0.0016
      vertex -0.122683 -0.0674455 0.0016
      vertex -0.113262 -0.0822899 0.0016
    endloop
  endfacet
  facet normal -0 0 1
    outer loop
      vertex -0.130169 0.0515374 0.0016
      vertex -0.122683 -0.0674455 0.0016
      vertex -0.122683 0.0674455 0.0016
    endloop
  endfacet
  facet normal 0 0 1
    outer loop
      vertex -0.130169 0.0515374 0.0016
      vertex -0.130169 -0.0515374 0.0016
      vertex -0.122683 -0.0674455 0.0016
    endloop
  endfacet
  facet normal -0 0 1
    outer loop
      vertex -0.135602 0.0348166 0.0016
      vertex -0.130169 -0.0515374 0.0016
      vertex -0.130169 0.0515374 0.0016
    endloop
  endfacet
  facet normal 0 0 1
    outer loop
      vertex -0.135602 0.0348166 0.0016
      vertex -0.135602 -0.0348166 0.0016
      vertex -0.130169 -0.0515374 0.0016
    endloop
  endfacet
  facet normal -0 0 1
    outer loop
      vertex -0.138896 0.0175466 0.0016
      vertex -0.135602 -0.0348166 0.0016
      vertex -0.135602 0.0348166 0.0016
    endloop
  endfacet
  facet normal 0 0 1
    outer loop
      vertex -0.138896 0.0175466 0.0016
      vertex -0.138896 -0.0175466 0.0016
      vertex -0.135602 -0.0348166 0.0016
    endloop
  endfacet
  facet normal 0 -0 1
    outer loop
      vertex -0.138896 -0.0175466 0.0016
      vertex -0.138896 0.0175466 0.0016
      vertex -0.14 0 0.0016
    endloop
  endfacet
  facet normal -0.48176 0.876303 0
    outer loop
      vertex 0.0750157 -0.118206 0.0016
      vertex 0.0596091 -0.126676 0.4
      vertex 0.0750157 -0.118206 0.4
    endloop
  endfacet
  facet normal -0.48176 0.876303 0
    outer loop
      vertex 0.0596091 -0.126676 0.4
      vertex 0.0750157 -0.118206 0.0016
      vertex 0.0596091 -0.126676 0.0016
    endloop
  endfacet
  facet normal -0.904822 0.425789 0
    outer loop
      vertex 0.122683 -0.0674455 0.0016
      vertex 0.130169 -0.0515374 0.4
      vertex 0.130169 -0.0515374 0.0016
    endloop
  endfacet
  facet normal -0.904822 0.425789 0
    outer loop
      vertex 0.130169 -0.0515374 0.4
      vertex 0.122683 -0.0674455 0.0016
      vertex 0.122683 -0.0674455 0.4
    endloop
  endfacet
  facet normal -0.998027 0.062794 0
    outer loop
      vertex 0.138896 -0.0175466 0.0016
      vertex 0.14 0 0.4
      vertex 0.14 0 0.0016
    endloop
  endfacet
  facet normal -0.998027 0.062794 0
    outer loop
      vertex 0.14 0 0.4
      vertex 0.138896 -0.0175466 0.0016
      vertex 0.138896 -0.0175466 0.4
    endloop
  endfacet
  facet normal 0.770536 0.637397 0
    outer loop
      vertex -0.102056 -0.0958366 0.4
      vertex -0.113262 -0.0822899 0.0016
      vertex -0.113262 -0.0822899 0.4
    endloop
  endfacet
  facet normal 0.770536 0.637397 0
    outer loop
      vertex -0.113262 -0.0822899 0.0016
      vertex -0.102056 -0.0958366 0.4
      vertex -0.102056 -0.0958366 0.0016
    endloop
  endfacet
  facet normal 0.951055 0.309021 0
    outer loop
      vertex -0.130169 -0.0515374 0.4
      vertex -0.135602 -0.0348166 0.0016
      vertex -0.135602 -0.0348166 0.4
    endloop
  endfacet
  facet normal 0.951055 0.309021 0
    outer loop
      vertex -0.135602 -0.0348166 0.0016
      vertex -0.130169 -0.0515374 0.4
      vertex -0.130169 -0.0515374 0.0016
    endloop
  endfacet
  facet normal -0.684541 0.728974 0
    outer loop
      vertex 0.102056 -0.0958366 0.0016
      vertex 0.0892394 -0.107872 0.4
      vertex 0.102056 -0.0958366 0.4
    endloop
  endfacet
  facet normal -0.684541 0.728974 0
    outer loop
      vertex 0.0892394 -0.107872 0.4
      vertex 0.102056 -0.0958366 0.0016
      vertex 0.0892394 -0.107872 0.0016
    endloop
  endfacet
  facet normal -0.368119 0.929779 0
    outer loop
      vertex 0.0596091 -0.126676 0.0016
      vertex 0.0432624 -0.133148 0.4
      vertex 0.0596091 -0.126676 0.4
    endloop
  endfacet
  facet normal -0.368119 0.929779 0
    outer loop
      vertex 0.0432624 -0.133148 0.4
      vertex 0.0596091 -0.126676 0.0016
      vertex 0.0432624 -0.133148 0.0016
    endloop
  endfacet
  facet normal -0.248674 0.968587 0
    outer loop
      vertex 0.0432624 -0.133148 0.0016
      vertex 0.0262334 -0.13752 0.4
      vertex 0.0432624 -0.133148 0.4
    endloop
  endfacet
  facet normal -0.248674 0.968587 0
    outer loop
      vertex 0.0262334 -0.13752 0.4
      vertex 0.0432624 -0.133148 0.0016
      vertex 0.0262334 -0.13752 0.0016
    endloop
  endfacet
  facet normal -0.12536 0.992111 0
    outer loop
      vertex 0.0262334 -0.13752 0.0016
      vertex 0.00879067 -0.139724 0.4
      vertex 0.0262334 -0.13752 0.4
    endloop
  endfacet
  facet normal -0.12536 0.992111 0
    outer loop
      vertex 0.00879067 -0.139724 0.4
      vertex 0.0262334 -0.13752 0.0016
      vertex 0.00879067 -0.139724 0.0016
    endloop
  endfacet
  facet normal -0.844316 0.535845 0
    outer loop
      vertex 0.113262 -0.0822899 0.0016
      vertex 0.122683 -0.0674455 0.4
      vertex 0.122683 -0.0674455 0.0016
    endloop
  endfacet
  facet normal -0.844316 0.535845 0
    outer loop
      vertex 0.122683 -0.0674455 0.4
      vertex 0.113262 -0.0822899 0.0016
      vertex 0.113262 -0.0822899 0.4
    endloop
  endfacet
  facet normal -0.770536 0.637397 0
    outer loop
      vertex 0.102056 -0.0958366 0.0016
      vertex 0.113262 -0.0822899 0.4
      vertex 0.113262 -0.0822899 0.0016
    endloop
  endfacet
  facet normal -0.770536 0.637397 0
    outer loop
      vertex 0.113262 -0.0822899 0.4
      vertex 0.102056 -0.0958366 0.0016
      vertex 0.102056 -0.0958366 0.4
    endloop
  endfacet
  facet normal -0.951055 0.309021 0
    outer loop
      vertex 0.130169 -0.0515374 0.0016
      vertex 0.135602 -0.0348166 0.4
      vertex 0.135602 -0.0348166 0.0016
    endloop
  endfacet
  facet normal -0.951055 0.309021 0
    outer loop
      vertex 0.135602 -0.0348166 0.4
      vertex 0.130169 -0.0515374 0.0016
      vertex 0.130169 -0.0515374 0.4
    endloop
  endfacet
  facet normal 0.248674 0.968587 -0
    outer loop
      vertex -0.0262334 -0.13752 0.0016
      vertex -0.0432624 -0.133148 0.4
      vertex -0.0262334 -0.13752 0.4
    endloop
  endfacet
  facet normal 0.248674 0.968587 0
    outer loop
      vertex -0.0432624 -0.133148 0.4
      vertex -0.0262334 -0.13752 0.0016
      vertex -0.0432624 -0.133148 0.0016
    endloop
  endfacet
  facet normal 0.982288 0.187377 0
    outer loop
      vertex -0.138896 -0.0175466 0.4
      vertex -0.138428 -0.02 0.32
      vertex -0.138896 -0.0175466 0.32
    endloop
  endfacet
  facet normal 0.982292 0.187355 0
    outer loop
      vertex -0.138428 -0.02 0.32
      vertex -0.135602 -0.0348166 0.4
      vertex -0.138428 -0.02 0.08
    endloop
  endfacet
  facet normal 0.982292 0.187358 6.11728e-07
    outer loop
      vertex -0.135602 -0.0348166 0.4
      vertex -0.138428 -0.02 0.32
      vertex -0.138896 -0.0175466 0.4
    endloop
  endfacet
  facet normal 0.982288 0.187377 0
    outer loop
      vertex -0.138428 -0.02 0.08
      vertex -0.138896 -0.0175466 0.0016
      vertex -0.138896 -0.0175466 0.08
    endloop
  endfacet
  facet normal 0.982292 0.187355 -0
    outer loop
      vertex -0.135602 -0.0348166 0.0016
      vertex -0.138428 -0.02 0.08
      vertex -0.135602 -0.0348166 0.4
    endloop
  endfacet
  facet normal 0.982292 0.187358 -6.24213e-07
    outer loop
      vertex -0.138428 -0.02 0.08
      vertex -0.135602 -0.0348166 0.0016
      vertex -0.138896 -0.0175466 0.0016
    endloop
  endfacet
  facet normal 0.998027 0.062794 0
    outer loop
      vertex -0.138896 -0.0175466 0.08
      vertex -0.14 0 0.0016
      vertex -0.14 0 0.08
    endloop
  endfacet
  facet normal 0.998027 0.062794 0
    outer loop
      vertex -0.14 0 0.0016
      vertex -0.138896 -0.0175466 0.08
      vertex -0.138896 -0.0175466 0.0016
    endloop
  endfacet
  facet normal 0.998027 0.062794 0
    outer loop
      vertex -0.138896 -0.0175466 0.4
      vertex -0.14 0 0.32
      vertex -0.14 0 0.4
    endloop
  endfacet
  facet normal 0.998027 0.062794 0
    outer loop
      vertex -0.14 0 0.32
      vertex -0.138896 -0.0175466 0.4
      vertex -0.138896 -0.0175466 0.32
    endloop
  endfacet
  facet normal -0.587781 0.80902 0
    outer loop
      vertex 0.0892394 -0.107872 0.0016
      vertex 0.0750157 -0.118206 0.4
      vertex 0.0892394 -0.107872 0.4
    endloop
  endfacet
  facet normal -0.587781 0.80902 0
    outer loop
      vertex 0.0750157 -0.118206 0.4
      vertex 0.0892394 -0.107872 0.0016
      vertex 0.0750157 -0.118206 0.0016
    endloop
  endfacet
  facet normal 0.12536 0.992111 -0
    outer loop
      vertex -0.00879067 -0.139724 0.0016
      vertex -0.0262334 -0.13752 0.4
      vertex -0.00879067 -0.139724 0.4
    endloop
  endfacet
  facet normal 0.12536 0.992111 0
    outer loop
      vertex -0.0262334 -0.13752 0.4
      vertex -0.00879067 -0.139724 0.0016
      vertex -0.0262334 -0.13752 0.0016
    endloop
  endfacet
  facet normal 0.587781 0.80902 -0
    outer loop
      vertex -0.0750157 -0.118206 0.0016
      vertex -0.0892394 -0.107872 0.4
      vertex -0.0750157 -0.118206 0.4
    endloop
  endfacet
  facet normal 0.587781 0.80902 0
    outer loop
      vertex -0.0892394 -0.107872 0.4
      vertex -0.0750157 -0.118206 0.0016
      vertex -0.0892394 -0.107872 0.0016
    endloop
  endfacet
  facet normal 0.368119 0.929779 -0
    outer loop
      vertex -0.0432624 -0.133148 0.0016
      vertex -0.0596091 -0.126676 0.4
      vertex -0.0432624 -0.133148 0.4
    endloop
  endfacet
  facet normal 0.368119 0.929779 0
    outer loop
      vertex -0.0596091 -0.126676 0.4
      vertex -0.0432624 -0.133148 0.0016
      vertex -0.0596091 -0.126676 0.0016
    endloop
  endfacet
  facet normal 0.48176 0.876303 -0
    outer loop
      vertex -0.0596091 -0.126676 0.0016
      vertex -0.0750157 -0.118206 0.4
      vertex -0.0596091 -0.126676 0.4
    endloop
  endfacet
  facet normal 0.48176 0.876303 0
    outer loop
      vertex -0.0750157 -0.118206 0.4
      vertex -0.0596091 -0.126676 0.0016
      vertex -0.0750157 -0.118206 0.0016
    endloop
  endfacet
  facet normal -1 0 0
    outer loop
      vertex -0.216 -0.02 0.08
      vertex -0.216 0.02 0.32
      vertex -0.216 0.02 0.08
    endloop
  endfacet
  facet normal -1 -0 0
    outer loop
      vertex -0.216 0.02 0.32
      vertex -0.216 -0.02 0.08
      vertex -0.216 -0.02 0.32
    endloop
  endfacet
  facet normal 0 0 1
    outer loop
      vertex -0.138896 0.0175466 0.32
      vertex -0.136 0.02 0.32
      vertex -0.138428 0.02 0.32
    endloop
  endfacet
  facet normal 0 0 1
    outer loop
      vertex -0.14 0 0.32
      vertex -0.136 0.02 0.32
      vertex -0.138896 0.0175466 0.32
    endloop
  endfacet
  facet normal 0 0 1
    outer loop
      vertex -0.136 0.02 0.32
      vertex -0.14 0 0.32
      vertex -0.136 -0.02 0.32
    endloop
  endfacet
  facet normal -0 -0 1
    outer loop
      vertex -0.138896 -0.0175466 0.32
      vertex -0.136 -0.02 0.32
      vertex -0.14 0 0.32
    endloop
  endfacet
  facet normal 0 0 1
    outer loop
      vertex -0.136 -0.02 0.32
      vertex -0.138896 -0.0175466 0.32
      vertex -0.138428 -0.02 0.32
    endloop
  endfacet
  facet normal 0 0 1
    outer loop
      vertex -0.158742 0.02 0.32
      vertex -0.216 0.02 0.32
      vertex -0.16 0 0.32
    endloop
  endfacet
  facet normal 0 0 1
    outer loop
      vertex -0.216 -0.02 0.32
      vertex -0.16 0 0.32
      vertex -0.216 0.02 0.32
    endloop
  endfacet
  facet normal 0 0 1
    outer loop
      vertex -0.16 0 0.32
      vertex -0.216 -0.02 0.32
      vertex -0.158742 -0.02 0.32
    endloop
  endfacet
  facet normal 1 -0 0
    outer loop
      vertex -0.136 -0.02 0.32
      vertex -0.136 0.02 0.08
      vertex -0.136 0.02 0.32
    endloop
  endfacet
  facet normal 1 0 0
    outer loop
      vertex -0.136 0.02 0.08
      vertex -0.136 -0.02 0.32
      vertex -0.136 -0.02 0.08
    endloop
  endfacet
  facet normal 0 1 -0
    outer loop
      vertex -0.136 0.02 0.08
      vertex -0.138428 0.02 0.32
      vertex -0.136 0.02 0.32
    endloop
  endfacet
  facet normal 0 1 0
    outer loop
      vertex -0.138428 0.02 0.32
      vertex -0.136 0.02 0.08
      vertex -0.138428 0.02 0.08
    endloop
  endfacet
  facet normal 0 1 0
    outer loop
      vertex -0.158742 0.02 0.104
      vertex -0.158742 0.02 0.08
      vertex -0.19192 0.02 0.104
    endloop
  endfacet
  facet normal 0 1 0
    outer loop
      vertex -0.19192 0.02 0.288
      vertex -0.158742 0.02 0.32
      vertex -0.158742 0.02 0.288
    endloop
  endfacet
  facet normal 0 1 0
    outer loop
      vertex -0.158742 0.02 0.32
      vertex -0.19192 0.02 0.288
      vertex -0.216 0.02 0.32
    endloop
  endfacet
  facet normal 0 1 0
    outer loop
      vertex -0.216 0.02 0.08
      vertex -0.19192 0.02 0.288
      vertex -0.19192 0.02 0.104
    endloop
  endfacet
  facet normal 0 1 0
    outer loop
      vertex -0.19192 0.02 0.288
      vertex -0.216 0.02 0.08
      vertex -0.216 0.02 0.32
    endloop
  endfacet
  facet normal 0 1 0
    outer loop
      vertex -0.216 0.02 0.08
      vertex -0.19192 0.02 0.104
      vertex -0.158742 0.02 0.08
    endloop
  endfacet
  facet normal 0 0 -1
    outer loop
      vertex -0.158742 -0.02 0.08
      vertex -0.216 -0.02 0.08
      vertex -0.16 0 0.08
    endloop
  endfacet
  facet normal 0 0 -1
    outer loop
      vertex -0.216 0.02 0.08
      vertex -0.16 0 0.08
      vertex -0.216 -0.02 0.08
    endloop
  endfacet
  facet normal 0 0 -1
    outer loop
      vertex -0.16 0 0.08
      vertex -0.216 0.02 0.08
      vertex -0.158742 0.02 0.08
    endloop
  endfacet
  facet normal 0 0 -1
    outer loop
      vertex -0.138896 -0.0175466 0.08
      vertex -0.136 -0.02 0.08
      vertex -0.138428 -0.02 0.08
    endloop
  endfacet
  facet normal 0 0 -1
    outer loop
      vertex -0.14 0 0.08
      vertex -0.136 -0.02 0.08
      vertex -0.138896 -0.0175466 0.08
    endloop
  endfacet
  facet normal 0 0 -1
    outer loop
      vertex -0.136 -0.02 0.08
      vertex -0.14 0 0.08
      vertex -0.136 0.02 0.08
    endloop
  endfacet
  facet normal 0 -0 -1
    outer loop
      vertex -0.138896 0.0175466 0.08
      vertex -0.136 0.02 0.08
      vertex -0.14 0 0.08
    endloop
  endfacet
  facet normal -0 0 -1
    outer loop
      vertex -0.136 0.02 0.08
      vertex -0.138896 0.0175466 0.08
      vertex -0.138428 0.02 0.08
    endloop
  endfacet
  facet normal 0 -1 0
    outer loop
      vertex -0.138428 -0.02 0.08
      vertex -0.136 -0.02 0.32
      vertex -0.138428 -0.02 0.32
    endloop
  endfacet
  facet normal 0 -1 -0
    outer loop
      vertex -0.136 -0.02 0.32
      vertex -0.138428 -0.02 0.08
      vertex -0.136 -0.02 0.08
    endloop
  endfacet
  facet normal 0 -1 0
    outer loop
      vertex -0.216 -0.02 0.32
      vertex -0.19192 -0.02 0.288
      vertex -0.158742 -0.02 0.32
    endloop
  endfacet
  facet normal 0 -1 0
    outer loop
      vertex -0.216 -0.02 0.08
      vertex -0.19192 -0.02 0.288
      vertex -0.216 -0.02 0.32
    endloop
  endfacet
  facet normal 0 -1 -0
    outer loop
      vertex -0.19192 -0.02 0.288
      vertex -0.216 -0.02 0.08
      vertex -0.19192 -0.02 0.104
    endloop
  endfacet
  facet normal 0 -1 0
    outer loop
      vertex -0.158742 -0.02 0.08
      vertex -0.19192 -0.02 0.104
      vertex -0.216 -0.02 0.08
    endloop
  endfacet
  facet normal 0 -1 0
    outer loop
      vertex -0.19192 -0.02 0.104
      vertex -0.158742 -0.02 0.08
      vertex -0.158742 -0.02 0.104
    endloop
  endfacet
  facet normal 0 -1 -0
    outer loop
      vertex -0.158742 -0.02 0.32
      vertex -0.19192 -0.02 0.288
      vertex -0.158742 -0.02 0.288
    endloop
  endfacet
  facet normal 1 -0 0
    outer loop
      vertex -0.19192 -0.02 0.288
      vertex -0.19192 0.02 0.104
      vertex -0.19192 0.02 0.288
    endloop
  endfacet
  facet normal 1 0 0
    outer loop
      vertex -0.19192 0.02 0.104
      vertex -0.19192 -0.02 0.288
      vertex -0.19192 -0.02 0.104
    endloop
  endfacet
  facet normal 0 0 -1
    outer loop
      vertex -0.158742 -0.02 0.288
      vertex -0.19192 -0.02 0.288
      vertex -0.16 0 0.288
    endloop
  endfacet
  facet normal 0 0 -1
    outer loop
      vertex -0.19192 0.02 0.288
      vertex -0.16 0 0.288
      vertex -0.19192 -0.02 0.288
    endloop
  endfacet
  facet normal 0 0 -1
    outer loop
      vertex -0.16 0 0.288
      vertex -0.19192 0.02 0.288
      vertex -0.158742 0.02 0.288
    endloop
  endfacet
  facet normal 0 0 1
    outer loop
      vertex -0.158742 0.02 0.104
      vertex -0.19192 0.02 0.104
      vertex -0.16 0 0.104
    endloop
  endfacet
  facet normal 0 0 1
    outer loop
      vertex -0.19192 -0.02 0.104
      vertex -0.16 0 0.104
      vertex -0.19192 0.02 0.104
    endloop
  endfacet
  facet normal 0 0 1
    outer loop
      vertex -0.16 0 0.104
      vertex -0.19192 -0.02 0.104
      vertex -0.158742 -0.02 0.104
    endloop
  endfacet
endsolid OpenSCAD_Model
