solid OpenSCAD_Model
  facet normal 0.946157 0.307424 -0.101374
    outer loop
      vertex 0.0323607 0.0235114 0.01
      vertex 0.055 0 0.15
      vertex 0.04 0 0.01
    endloop
  endfacet
  facet normal 0.946157 0.307426 -0.101374
    outer loop
      vertex 0.0323607 0.0235114 0.01
      vertex 0.0444959 0.0323282 0.15
      vertex 0.055 0 0.15
    endloop
  endfacet
  facet normal 0.584759 0.804848 -0.101374
    outer loop
      vertex 0.0123607 0.0380423 0.01
      vertex 0.0444959 0.0323282 0.15
      vertex 0.0323607 0.0235114 0.01
    endloop
  endfacet
  facet normal 0.584757 0.80485 -0.101373
    outer loop
      vertex 0.0123607 0.0380423 0.01
      vertex 0.0169959 0.0523081 0.15
      vertex 0.0444959 0.0323282 0.15
    endloop
  endfacet
  facet normal 0 0.994848 -0.101374
    outer loop
      vertex -0.0123607 0.0380423 0.01
      vertex 0.0169959 0.0523081 0.15
      vertex 0.0123607 0.0380423 0.01
    endloop
  endfacet
  facet normal 0 0.994848 -0.101374
    outer loop
      vertex -0.0123607 0.0380423 0.01
      vertex -0.0169959 0.0523081 0.15
      vertex 0.0169959 0.0523081 0.15
    endloop
  endfacet
  facet normal -0.584759 0.804848 -0.101373
    outer loop
      vertex -0.0323607 0.0235114 0.01
      vertex -0.0169959 0.0523081 0.15
      vertex -0.0123607 0.0380423 0.01
    endloop
  endfacet
  facet normal -0.584757 0.80485 -0.101374
    outer loop
      vertex -0.0323607 0.0235114 0.01
      vertex -0.0444959 0.0323282 0.15
      vertex -0.0169959 0.0523081 0.15
    endloop
  endfacet
  facet normal -0.946157 0.307424 -0.101374
    outer loop
      vertex -0.04 0 0.01
      vertex -0.0444959 0.0323282 0.15
      vertex -0.0323607 0.0235114 0.01
    endloop
  endfacet
  facet normal -0.946157 0.307426 -0.101374
    outer loop
      vertex -0.04 0 0.01
      vertex -0.055 0 0.15
      vertex -0.0444959 0.0323282 0.15
    endloop
  endfacet
  facet normal -0.946157 -0.307424 -0.101374
    outer loop
      vertex -0.0323607 -0.0235114 0.01
      vertex -0.055 0 0.15
      vertex -0.04 0 0.01
    endloop
  endfacet
  facet normal -0.946157 -0.307426 -0.101374
    outer loop
      vertex -0.0323607 -0.0235114 0.01
      vertex -0.0444959 -0.0323282 0.15
      vertex -0.055 0 0.15
    endloop
  endfacet
  facet normal -0.584759 -0.804848 -0.101374
    outer loop
      vertex -0.0123607 -0.0380423 0.01
      vertex -0.0444959 -0.0323282 0.15
      vertex -0.0323607 -0.0235114 0.01
    endloop
  endfacet
  facet normal -0.584757 -0.80485 -0.101373
    outer loop
      vertex -0.0123607 -0.0380423 0.01
      vertex -0.0169959 -0.0523081 0.15
      vertex -0.0444959 -0.0323282 0.15
    endloop
  endfacet
  facet normal -0 -0.994848 -0.101374
    outer loop
      vertex 0.0123607 -0.0380423 0.01
      vertex -0.0169959 -0.0523081 0.15
      vertex -0.0123607 -0.0380423 0.01
    endloop
  endfacet
  facet normal 0 -0.994848 -0.101374
    outer loop
      vertex 0.0123607 -0.0380423 0.01
      vertex 0.0169959 -0.0523081 0.15
      vertex -0.0169959 -0.0523081 0.15
    endloop
  endfacet
  facet normal 0.584759 -0.804848 -0.101373
    outer loop
      vertex 0.0323607 -0.0235114 0.01
      vertex 0.0169959 -0.0523081 0.15
      vertex 0.0123607 -0.0380423 0.01
    endloop
  endfacet
  facet normal 0.584757 -0.80485 -0.101374
    outer loop
      vertex 0.0323607 -0.0235114 0.01
      vertex 0.0444959 -0.0323282 0.15
      vertex 0.0169959 -0.0523081 0.15
    endloop
  endfacet
  facet normal 0.946157 -0.307424 -0.101374
    outer loop
      vertex 0.04 0 0.01
      vertex 0.0444959 -0.0323282 0.15
      vertex 0.0323607 -0.0235114 0.01
    endloop
  endfacet
  facet normal 0.946157 -0.307426 -0.101374
    outer loop
      vertex 0.04 0 0.01
      vertex 0.055 0 0.15
      vertex 0.0444959 -0.0323282 0.15
    endloop
  endfacet
  facet normal 0 0 -1
    outer loop
      vertex 0.0323607 -0.0235114 0.01
      vertex 0.0323607 0.0235114 0.01
      vertex 0.04 0 0.01
    endloop
  endfacet
  facet normal 0 0 -1
    outer loop
      vertex 0.0123607 -0.0380423 0.01
      vertex 0.0323607 0.0235114 0.01
      vertex 0.0323607 -0.0235114 0.01
    endloop
  endfacet
  facet normal 0 0 -1
    outer loop
      vertex 0.0123607 -0.0380423 0.01
      vertex 0.0123607 0.0380423 0.01
      vertex 0.0323607 0.0235114 0.01
    endloop
  endfacet
  facet normal 0 0 -1
    outer loop
      vertex -0.0123607 -0.0380423 0.01
      vertex 0.0123607 0.0380423 0.01
      vertex 0.0123607 -0.0380423 0.01
    endloop
  endfacet
  facet normal 0 0 -1
    outer loop
      vertex -0.0123607 -0.0380423 0.01
      vertex -0.0123607 0.0380423 0.01
      vertex 0.0123607 0.0380423 0.01
    endloop
  endfacet
  facet normal 0 0 -1
    outer loop
      vertex -0.0323607 -0.0235114 0.01
      vertex -0.0123607 0.0380423 0.01
      vertex -0.0123607 -0.0380423 0.01
    endloop
  endfacet
  facet normal 0 0 -1
    outer loop
      vertex -0.0323607 -0.0235114 0.01
      vertex -0.0323607 0.0235114 0.01
      vertex -0.0123607 0.0380423 0.01
    endloop
  endfacet
  facet normal 0 -0 -1
    outer loop
      vertex -0.0323607 0.0235114 0.01
      vertex -0.0323607 -0.0235114 0.01
      vertex -0.04 0 0.01
    endloop
  endfacet
  facet normal 0 0 1
    outer loop
      vertex 0.0444959 0.0323282 0.15
      vertex 0.0444959 -0.0323282 0.15
      vertex 0.055 0 0.15
    endloop
  endfacet
  facet normal 0 0 1
    outer loop
      vertex 0.0169959 0.0523081 0.15
      vertex 0.0444959 -0.0323282 0.15
      vertex 0.0444959 0.0323282 0.15
    endloop
  endfacet
  facet normal 0 0 1
    outer loop
      vertex 0.0169959 0.0523081 0.15
      vertex 0.0169959 -0.0523081 0.15
      vertex 0.0444959 -0.0323282 0.15
    endloop
  endfacet
  facet normal -0 0 1
    outer loop
      vertex -0.0169959 0.0523081 0.15
      vertex 0.0169959 -0.0523081 0.15
      vertex 0.0169959 0.0523081 0.15
    endloop
  endfacet
  facet normal 0 0 1
    outer loop
      vertex -0.0169959 0.0523081 0.15
      vertex -0.0169959 -0.0523081 0.15
      vertex 0.0169959 -0.0523081 0.15
    endloop
  endfacet
  facet normal -0 0 1
    outer loop
      vertex -0.0444959 0.0323282 0.15
      vertex -0.0169959 -0.0523081 0.15
      vertex -0.0169959 0.0523081 0.15
    endloop
  endfacet
  facet normal 0 0 1
    outer loop
      vertex -0.0444959 0.0323282 0.15
      vertex -0.0444959 -0.0323282 0.15
      vertex -0.0169959 -0.0523081 0.15
    endloop
  endfacet
  facet normal 0 -0 1
    outer loop
      vertex -0.0444959 -0.0323282 0.15
      vertex -0.0444959 0.0323282 0.15
      vertex -0.055 0 0.15
    endloop
  endfacet
endsolid OpenSCAD_Model
