solid OpenSCAD_Model
  facet normal -1 0 0
    outer loop
      vertex -0.25 0.45 1.2
      vertex -0.25 0.5 0.4
      vertex -0.25 0.45 0.4
    endloop
  endfacet
  facet normal -1 0 0
    outer loop
      vertex -0.25 0.5 0.4
      vertex -0.25 0.45 1.2
      vertex -0.25 0.5 1.3
    endloop
  endfacet
  facet normal -1 0 0
    outer loop
      vertex -0.25 -0.3 1.3
      vertex -0.25 0.45 1.2
      vertex -0.25 -0.3 1.2
    endloop
  endfacet
  facet normal -1 0 0
    outer loop
      vertex -0.25 0.45 1.2
      vertex -0.25 -0.3 1.3
      vertex -0.25 0.5 1.3
    endloop
  endfacet
  facet normal 0 0 -1
    outer loop
      vertex -0.25 -0.3 1.2
      vertex 0.25 0.45 1.2
      vertex 0.25 -0.3 1.2
    endloop
  endfacet
  facet normal -0 0 -1
    outer loop
      vertex 0.25 0.45 1.2
      vertex -0.25 -0.3 1.2
      vertex -0.25 0.45 1.2
    endloop
  endfacet
  facet normal 1 0 0
    outer loop
      vertex 0.25 0.5 1.3
      vertex 0.25 0.45 1.2
      vertex 0.25 0.5 0.4
    endloop
  endfacet
  facet normal 1 -0 0
    outer loop
      vertex 0.25 -0.3 1.3
      vertex 0.25 0.45 1.2
      vertex 0.25 0.5 1.3
    endloop
  endfacet
  facet normal 1 0 0
    outer loop
      vertex 0.25 0.45 1.2
      vertex 0.25 -0.3 1.3
      vertex 0.25 -0.3 1.2
    endloop
  endfacet
  facet normal 1 0 0
    outer loop
      vertex 0.25 0.5 0.4
      vertex 0.25 0.45 1.2
      vertex 0.25 0.45 0.4
    endloop
  endfacet
  facet normal 0 1 -0
    outer loop
      vertex 0.25 0.5 0.4
      vertex -0.25 0.5 1.3
      vertex 0.25 0.5 1.3
    endloop
  endfacet
  facet normal 0 1 0
    outer loop
      vertex -0.25 0.5 1.3
      vertex 0.25 0.5 0.4
      vertex -0.25 0.5 0.4
    endloop
  endfacet
  facet normal 0 0 -1
    outer loop
      vertex -0.25 0.45 0.4
      vertex 0.25 0.5 0.4
      vertex 0.25 0.45 0.4
    endloop
  endfacet
  facet normal -0 0 -1
    outer loop
      vertex 0.25 0.5 0.4
      vertex -0.25 0.45 0.4
      vertex -0.25 0.5 0.4
    endloop
  endfacet
  facet normal 0 -1 0
    outer loop
      vertex -0.25 0.45 0.4
      vertex 0.25 0.45 1.2
      vertex -0.25 0.45 1.2
    endloop
  endfacet
  facet normal 0 -1 -0
    outer loop
      vertex 0.25 0.45 1.2
      vertex -0.25 0.45 0.4
      vertex 0.25 0.45 0.4
    endloop
  endfacet
  facet normal -0 0 1
    outer loop
      vertex -0.25 0.5 1.3
      vertex 0.25 -0.3 1.3
      vertex 0.25 0.5 1.3
    endloop
  endfacet
  facet normal 0 0 1
    outer loop
      vertex 0.25 -0.3 1.3
      vertex -0.25 0.5 1.3
      vertex -0.25 -0.3 1.3
    endloop
  endfacet
  facet normal 0 -1 0
    outer loop
      vertex -0.25 -0.3 1.2
      vertex 0.25 -0.3 1.3
      vertex -0.25 -0.3 1.3
    endloop
  endfacet
  facet normal 0 -1 -0
    outer loop
      vertex 0.25 -0.3 1.3
      vertex -0.25 -0.3 1.2
      vertex 0.25 -0.3 1.2
    endloop
  endfacet
endsolid OpenSCAD_Model
